{"asset":{"generator":"Khronos glTF Blender I/O v1.2.75","version":"2.0"},"scene":0,"scenes":[{"name":"Scene","nodes":[0]}],"nodes":[{"mesh":0,"name":"Mesh"}],"meshes":[{"name":"SM_PipeMerged06","primitives":[{"indices":4,"attributes":{"POSITION":0,"NORMAL":1,"TEXCOORD_0":2,"TEXCOORD_1":3},"mode":4}]}],"accessors":[{"bufferView":0,"componentType":5126,"count":3853,"type":"VEC3","min":[-0.0037347722053527833,-2.3,-3.7],"max":[0.05345074653625488,1.8374295043945312,1.4374488830566405]},{"bufferView":1,"componentType":5126,"count":3853,"type":"VEC3"},{"bufferView":2,"componentType":5126,"count":3853,"type":"VEC2"},{"bufferView":3,"componentType":5126,"count":3853,"type":"VEC2"},{"bufferView":4,"componentType":5123,"count":9870,"type":"SCALAR"}],"bufferViews":[{"buffer":0,"byteOffset":0,"byteLength":46236},{"buffer":0,"byteOffset":46236,"byteLength":46236},{"buffer":0,"byteOffset":92472,"byteLength":30824},{"buffer":0,"byteOffset":123296,"byteLength":30824},{"buffer":0,"byteOffset":154120,"byteLength":19740}],"buffers":[{"byteLength":173860,"uri":"data:application/octet-stream;base64,"}]}
