{"asset":{"generator":"Khronos glTF Blender I/O v1.2.75","version":"2.0"},"scene":0,"scenes":[{"name":"Scene","nodes":[0]}],"nodes":[{"mesh":0,"name":"Mesh"}],"meshes":[{"name":"SM_PipeGroup16","primitives":[{"indices":4,"attributes":{"POSITION":0,"NORMAL":1,"TEXCOORD_0":2,"TEXCOORD_1":3},"mode":4}]}],"accessors":[{"bufferView":0,"componentType":5126,"count":2054,"type":"VEC3","min":[-16.947657470703124,-0.44384452819824216,-1.7181167602539062],"max":[0.44316150665283205,0.46662704467773436,7.027865600585938]},{"bufferView":1,"componentType":5126,"count":2054,"type":"VEC3"},{"bufferView":2,"componentType":5126,"count":2054,"type":"VEC2"},{"bufferView":3,"componentType":5126,"count":2054,"type":"VEC2"},{"bufferView":4,"componentType":5123,"count":6624,"type":"SCALAR"}],"bufferViews":[{"buffer":0,"byteOffset":0,"byteLength":24648},{"buffer":0,"byteOffset":24648,"byteLength":24648},{"buffer":0,"byteOffset":49296,"byteLength":16432},{"buffer":0,"byteOffset":65728,"byteLength":16432},{"buffer":0,"byteOffset":82160,"byteLength":13248}],"buffers":[{"byteLength":95408,"uri":"data:application/octet-stream;base64,"}]}
