{"asset":{"generator":"Khronos glTF Blender I/O v1.2.75","version":"2.0"},"scene":0,"scenes":[{"name":"Scene","nodes":[0]}],"nodes":[{"mesh":0,"name":"Mesh"}],"meshes":[{"name":"Play_Signboard_02","primitives":[{"indices":5,"attributes":{"POSITION":0,"NORMAL":1,"TEXCOORD_0":2,"TEXCOORD_1":3,"TANGENT":4},"mode":4}]}],"accessors":[{"bufferView":0,"componentType":5126,"count":1998,"type":"VEC3","min":[-0.6842308044433594,-0.569363021850586,-1.4308991922007408e-7],"max":[0.752493896484375,0.5873836135864258,0.10560337066650391]},{"bufferView":1,"componentType":5126,"count":1998,"type":"VEC3"},{"bufferView":2,"componentType":5126,"count":1998,"type":"VEC2"},{"bufferView":3,"componentType":5126,"count":1998,"type":"VEC2"},{"bufferView":4,"componentType":5126,"count":1998,"type":"VEC4"},{"bufferView":5,"componentType":5123,"count":6282,"type":"SCALAR"}],"bufferViews":[{"buffer":0,"byteOffset":0,"byteLength":23976},{"buffer":0,"byteOffset":23976,"byteLength":23976},{"buffer":0,"byteOffset":47952,"byteLength":15984},{"buffer":0,"byteOffset":63936,"byteLength":15984},{"buffer":0,"byteOffset":79920,"byteLength":31968},{"buffer":0,"byteOffset":111888,"byteLength":12564}],"buffers":[{"byteLength":124452,"uri":"data:application/octet-stream;base64,"}]}
