{"asset":{"generator":"Khronos glTF Blender I/O v1.2.75","version":"2.0"},"scene":0,"scenes":[{"name":"Scene","nodes":[0]}],"nodes":[{"mesh":0,"name":"Mesh"}],"meshes":[{"name":"SM_FloorMatsMerged01","primitives":[{"indices":4,"attributes":{"POSITION":0,"NORMAL":1,"TEXCOORD_0":2,"TEXCOORD_1":3},"mode":4}]}],"accessors":[{"bufferView":0,"componentType":5126,"count":980,"type":"VEC3","min":[-6.879071044921875,-0.010003662109375,-9.307815551757812],"max":[2.5809027099609376,0.08404507637023925,1.5211798095703124]},{"bufferView":1,"componentType":5126,"count":980,"type":"VEC3"},{"bufferView":2,"componentType":5126,"count":980,"type":"VEC2"},{"bufferView":3,"componentType":5126,"count":980,"type":"VEC2"},{"bufferView":4,"componentType":5123,"count":3660,"type":"SCALAR"}],"bufferViews":[{"buffer":0,"byteOffset":0,"byteLength":11760},{"buffer":0,"byteOffset":11760,"byteLength":11760},{"buffer":0,"byteOffset":23520,"byteLength":7840},{"buffer":0,"byteOffset":31360,"byteLength":7840},{"buffer":0,"byteOffset":39200,"byteLength":7320}],"buffers":[{"byteLength":46520,"uri":"data:application/octet-stream;base64,"}]}
