{"asset":{"generator":"Khronos glTF Blender I/O v1.2.75","version":"2.0"},"scene":0,"scenes":[{"name":"Scene","nodes":[0]}],"nodes":[{"mesh":0,"name":"Mesh"}],"meshes":[{"name":"SM_CyborgEnemy01","primitives":[{"indices":4,"attributes":{"POSITION":0,"NORMAL":1,"TEXCOORD_0":2,"TEXCOORD_1":3},"mode":4}]}],"accessors":[{"bufferView":0,"componentType":5126,"count":8900,"type":"VEC3","min":[-0.7080711364746094,-0.00017420768737792968,-0.18706998825073243],"max":[0.7080711364746094,1.8476141357421876,0.23335716247558594]},{"bufferView":1,"componentType":5126,"count":8900,"type":"VEC3"},{"bufferView":2,"componentType":5126,"count":8900,"type":"VEC2"},{"bufferView":3,"componentType":5126,"count":8900,"type":"VEC2"},{"bufferView":4,"componentType":5123,"count":34050,"type":"SCALAR"}],"bufferViews":[{"buffer":0,"byteOffset":0,"byteLength":106800},{"buffer":0,"byteOffset":106800,"byteLength":106800},{"buffer":0,"byteOffset":213600,"byteLength":71200},{"buffer":0,"byteOffset":284800,"byteLength":71200},{"buffer":0,"byteOffset":356000,"byteLength":68100}],"buffers":[{"byteLength":424100,"uri":"data:application/octet-stream;base64,"}]}
