{"asset":{"generator":"Khronos glTF Blender I/O v1.2.75","version":"2.0"},"scene":0,"scenes":[{"name":"Scene","nodes":[0]}],"nodes":[{"mesh":0,"name":"Mesh"}],"meshes":[{"name":"SM_PipeGroup06","primitives":[{"indices":4,"attributes":{"POSITION":0,"NORMAL":1,"TEXCOORD_0":2,"TEXCOORD_1":3},"mode":4}]}],"accessors":[{"bufferView":0,"componentType":5126,"count":7480,"type":"VEC3","min":[-10.93692138671875,-19.49105712890625,-7.064667358398437],"max":[0.29692399978637696,2.2506658935546877,2.320545654296875]},{"bufferView":1,"componentType":5126,"count":7480,"type":"VEC3"},{"bufferView":2,"componentType":5126,"count":7480,"type":"VEC2"},{"bufferView":3,"componentType":5126,"count":7480,"type":"VEC2"},{"bufferView":4,"componentType":5123,"count":17340,"type":"SCALAR"}],"bufferViews":[{"buffer":0,"byteOffset":0,"byteLength":89760},{"buffer":0,"byteOffset":89760,"byteLength":89760},{"buffer":0,"byteOffset":179520,"byteLength":59840},{"buffer":0,"byteOffset":239360,"byteLength":59840},{"buffer":0,"byteOffset":299200,"byteLength":34680}],"buffers":[{"byteLength":333880,"uri":"data:application/octet-stream;base64,"}]}
