{"asset":{"generator":"Khronos glTF Blender I/O v1.2.75","version":"2.0"},"scene":0,"scenes":[{"name":"Scene","nodes":[0]}],"nodes":[{"mesh":0,"name":"Mesh"}],"meshes":[{"name":"SM_Building05_12","primitives":[{"indices":4,"attributes":{"POSITION":0,"NORMAL":1,"TEXCOORD_0":2,"TEXCOORD_1":3},"mode":4},{"indices":9,"attributes":{"POSITION":5,"NORMAL":6,"TEXCOORD_0":7,"TEXCOORD_1":8},"mode":4}]}],"accessors":[{"bufferView":0,"componentType":5126,"count":3344,"type":"VEC3","min":[-0.19020971298217773,-0.14,-0.37021224975585937],"max":[26.24668212890625,12,20.0175048828125]},{"bufferView":1,"componentType":5126,"count":3344,"type":"VEC3"},{"bufferView":2,"componentType":5126,"count":3344,"type":"VEC2"},{"bufferView":3,"componentType":5126,"count":3344,"type":"VEC2"},{"bufferView":4,"componentType":5123,"count":7026,"type":"SCALAR"},{"bufferView":5,"componentType":5126,"count":8,"type":"VEC3","min":[-0.19020971298217773,-0.14,-0.37021224975585937],"max":[26.24668212890625,12,20.0175048828125]},{"bufferView":6,"componentType":5126,"count":8,"type":"VEC3"},{"bufferView":7,"componentType":5126,"count":8,"type":"VEC2"},{"bufferView":8,"componentType":5126,"count":8,"type":"VEC2"},{"bufferView":9,"componentType":5123,"count":12,"type":"SCALAR"}],"bufferViews":[{"buffer":0,"byteOffset":0,"byteLength":40128},{"buffer":0,"byteOffset":40128,"byteLength":40128},{"buffer":0,"byteOffset":80256,"byteLength":26752},{"buffer":0,"byteOffset":107008,"byteLength":26752},{"buffer":0,"byteOffset":133760,"byteLength":14052},{"buffer":1,"byteOffset":0,"byteLength":96},{"buffer":1,"byteOffset":96,"byteLength":96},{"buffer":1,"byteOffset":192,"byteLength":64},{"buffer":1,"byteOffset":256,"byteLength":64},{"buffer":1,"byteOffset":320,"byteLength":24}],"buffers":[{"byteLength":147812,"uri":"data:application/octet-stream;base64,"},{"byteLength":344,"uri":"data:application/octet-stream;base64,"}]}
