{"asset":{"generator":"Khronos glTF Blender I/O v1.2.75","version":"2.0"},"scene":0,"scenes":[{"name":"Scene","nodes":[0]}],"nodes":[{"mesh":0,"name":"Mesh"}],"meshes":[{"name":"-1_-1_0_M_LampSet_01_no_ins","primitives":[{"indices":4,"attributes":{"POSITION":0,"NORMAL":1,"TEXCOORD_0":2,"TEXCOORD_1":3},"mode":4}]}],"accessors":[{"bufferView":0,"componentType":5126,"count":16896,"type":"VEC3","min":[-15,-15,-15],"max":[15,15,15]},{"bufferView":1,"componentType":5126,"count":16896,"type":"VEC3"},{"bufferView":2,"componentType":5126,"count":16896,"type":"VEC2"},{"bufferView":3,"componentType":5126,"count":16896,"type":"VEC2"},{"bufferView":4,"componentType":5123,"count":55440,"type":"SCALAR"}],"bufferViews":[{"buffer":0,"byteOffset":0,"byteLength":202752},{"buffer":0,"byteOffset":202752,"byteLength":202752},{"buffer":0,"byteOffset":405504,"byteLength":135168},{"buffer":0,"byteOffset":540672,"byteLength":135168},{"buffer":0,"byteOffset":675840,"byteLength":110880}],"buffers":[{"byteLength":786720,"uri":"data:application/octet-stream;base64,"}]}
