{"asset":{"generator":"Khronos glTF Blender I/O v1.2.75","version":"2.0"},"scene":0,"scenes":[{"name":"Scene","nodes":[0]}],"nodes":[{"mesh":0,"name":"Mesh"}],"meshes":[{"name":"-1_-1_-1_M_LampSet_01_no_ins","primitives":[{"indices":4,"attributes":{"POSITION":0,"NORMAL":1,"TEXCOORD_0":2,"TEXCOORD_1":3},"mode":4}]}],"accessors":[{"bufferView":0,"componentType":5126,"count":38016,"type":"VEC3","min":[-15,-15,-15],"max":[15,15,15]},{"bufferView":1,"componentType":5126,"count":38016,"type":"VEC3"},{"bufferView":2,"componentType":5126,"count":38016,"type":"VEC2"},{"bufferView":3,"componentType":5126,"count":38016,"type":"VEC2"},{"bufferView":4,"componentType":5123,"count":124740,"type":"SCALAR"}],"bufferViews":[{"buffer":0,"byteOffset":0,"byteLength":456192},{"buffer":0,"byteOffset":456192,"byteLength":456192},{"buffer":0,"byteOffset":912384,"byteLength":304128},{"buffer":0,"byteOffset":1216512,"byteLength":304128},{"buffer":0,"byteOffset":1520640,"byteLength":249480}],"buffers":[{"byteLength":1770120,"uri":"data:application/octet-stream;base64,"}]}
