{"asset":{"generator":"Khronos glTF Blender I/O v1.2.75","version":"2.0"},"scene":0,"scenes":[{"name":"Scene","nodes":[0]}],"nodes":[{"mesh":0,"name":"Mesh"}],"meshes":[{"name":"-1_-1_-1_MI_FloorMat","primitives":[{"indices":4,"attributes":{"POSITION":0,"NORMAL":1,"TEXCOORD_0":2,"TEXCOORD_1":3},"mode":4}]}],"accessors":[{"bufferView":0,"componentType":5126,"count":12352,"type":"VEC3","min":[-15,-15,-15],"max":[15,15,15]},{"bufferView":1,"componentType":5126,"count":12352,"type":"VEC3"},{"bufferView":2,"componentType":5126,"count":12352,"type":"VEC2"},{"bufferView":3,"componentType":5126,"count":12352,"type":"VEC2"},{"bufferView":4,"componentType":5123,"count":63690,"type":"SCALAR"}],"bufferViews":[{"buffer":0,"byteOffset":0,"byteLength":148224},{"buffer":0,"byteOffset":148224,"byteLength":148224},{"buffer":0,"byteOffset":296448,"byteLength":98816},{"buffer":0,"byteOffset":395264,"byteLength":98816},{"buffer":0,"byteOffset":494080,"byteLength":127380}],"buffers":[{"byteLength":621460,"uri":"data:application/octet-stream;base64,"}]}
