{"asset":{"generator":"Khronos glTF Blender I/O v1.2.75","version":"2.0"},"scene":0,"scenes":[{"name":"Scene","nodes":[0]}],"nodes":[{"mesh":0,"name":"Mesh"}],"meshes":[{"name":"-1_-1_-1_MI_Platform01","primitives":[{"indices":4,"attributes":{"POSITION":0,"NORMAL":1,"TEXCOORD_0":2,"TEXCOORD_1":3},"mode":4}]}],"accessors":[{"bufferView":0,"componentType":5126,"count":664,"type":"VEC3","min":[-15,-15,-15],"max":[15,15,15]},{"bufferView":1,"componentType":5126,"count":664,"type":"VEC3"},{"bufferView":2,"componentType":5126,"count":664,"type":"VEC2"},{"bufferView":3,"componentType":5126,"count":664,"type":"VEC2"},{"bufferView":4,"componentType":5123,"count":1452,"type":"SCALAR"}],"bufferViews":[{"buffer":0,"byteOffset":0,"byteLength":7968},{"buffer":0,"byteOffset":7968,"byteLength":7968},{"buffer":0,"byteOffset":15936,"byteLength":5312},{"buffer":0,"byteOffset":21248,"byteLength":5312},{"buffer":0,"byteOffset":26560,"byteLength":2904}],"buffers":[{"byteLength":29464,"uri":"data:application/octet-stream;base64,"}]}
