{"asset":{"generator":"Khronos glTF Blender I/O v1.2.75","version":"2.0"},"scene":0,"scenes":[{"name":"Scene","nodes":[0]}],"nodes":[{"mesh":0,"name":"Mesh"}],"meshes":[{"name":"-1_-1_-2_MI_BackgroundBuildings_cull_front","primitives":[{"indices":4,"attributes":{"POSITION":0,"NORMAL":1,"TEXCOORD_0":2,"TEXCOORD_1":3},"mode":4}]}],"accessors":[{"bufferView":0,"componentType":5126,"count":1404,"type":"VEC3","min":[-15,-15,-15],"max":[15,15,15]},{"bufferView":1,"componentType":5126,"count":1404,"type":"VEC3"},{"bufferView":2,"componentType":5126,"count":1404,"type":"VEC2"},{"bufferView":3,"componentType":5126,"count":1404,"type":"VEC2"},{"bufferView":4,"componentType":5123,"count":6336,"type":"SCALAR"}],"bufferViews":[{"buffer":0,"byteOffset":0,"byteLength":16848},{"buffer":0,"byteOffset":16848,"byteLength":16848},{"buffer":0,"byteOffset":33696,"byteLength":11232},{"buffer":0,"byteOffset":44928,"byteLength":11232},{"buffer":0,"byteOffset":56160,"byteLength":12672}],"buffers":[{"byteLength":68832,"uri":"data:application/octet-stream;base64,"}]}
