{"asset":{"generator":"Khronos glTF Blender I/O v1.2.75","version":"2.0"},"scene":0,"scenes":[{"name":"Scene","nodes":[0]}],"nodes":[{"mesh":0,"name":"Mesh"}],"meshes":[{"name":"-1_-1_-1_MI_CornerBuilding01","primitives":[{"indices":4,"attributes":{"POSITION":0,"NORMAL":1,"TEXCOORD_0":2,"TEXCOORD_1":3},"mode":4}]}],"accessors":[{"bufferView":0,"componentType":5126,"count":2730,"type":"VEC3","min":[-15,-15,-15],"max":[15,15,15]},{"bufferView":1,"componentType":5126,"count":2730,"type":"VEC3"},{"bufferView":2,"componentType":5126,"count":2730,"type":"VEC2"},{"bufferView":3,"componentType":5126,"count":2730,"type":"VEC2"},{"bufferView":4,"componentType":5123,"count":5550,"type":"SCALAR"}],"bufferViews":[{"buffer":0,"byteOffset":0,"byteLength":32760},{"buffer":0,"byteOffset":32760,"byteLength":32760},{"buffer":0,"byteOffset":65520,"byteLength":21840},{"buffer":0,"byteOffset":87360,"byteLength":21840},{"buffer":0,"byteOffset":109200,"byteLength":11100}],"buffers":[{"byteLength":120300,"uri":"data:application/octet-stream;base64,"}]}
