{"asset":{"generator":"Khronos glTF Blender I/O v1.2.75","version":"2.0"},"scene":0,"scenes":[{"name":"Scene","nodes":[0]}],"nodes":[{"mesh":0,"name":"Mesh"}],"meshes":[{"name":"-1_0_0_M_Building08","primitives":[{"indices":4,"attributes":{"POSITION":0,"NORMAL":1,"TEXCOORD_0":2,"TEXCOORD_1":3},"mode":4}]}],"accessors":[{"bufferView":0,"componentType":5126,"count":4766,"type":"VEC3","min":[-15,-15,-15],"max":[15,15,15]},{"bufferView":1,"componentType":5126,"count":4766,"type":"VEC3"},{"bufferView":2,"componentType":5126,"count":4766,"type":"VEC2"},{"bufferView":3,"componentType":5126,"count":4766,"type":"VEC2"},{"bufferView":4,"componentType":5123,"count":16626,"type":"SCALAR"}],"bufferViews":[{"buffer":0,"byteOffset":0,"byteLength":57192},{"buffer":0,"byteOffset":57192,"byteLength":57192},{"buffer":0,"byteOffset":114384,"byteLength":38128},{"buffer":0,"byteOffset":152512,"byteLength":38128},{"buffer":0,"byteOffset":190640,"byteLength":33252}],"buffers":[{"byteLength":223892,"uri":"data:application/octet-stream;base64,"}]}
