{"asset":{"generator":"Khronos glTF Blender I/O v1.2.75","version":"2.0"},"scene":0,"scenes":[{"name":"Scene","nodes":[0]}],"nodes":[{"mesh":0,"name":"Mesh"}],"meshes":[{"name":"-1_0_-3_MI_Building10","primitives":[{"indices":4,"attributes":{"POSITION":0,"NORMAL":1,"TEXCOORD_0":2,"TEXCOORD_1":3},"mode":4}]}],"accessors":[{"bufferView":0,"componentType":5126,"count":1644,"type":"VEC3","min":[-15,-15,-15],"max":[15,15,15]},{"bufferView":1,"componentType":5126,"count":1644,"type":"VEC3"},{"bufferView":2,"componentType":5126,"count":1644,"type":"VEC2"},{"bufferView":3,"componentType":5126,"count":1644,"type":"VEC2"},{"bufferView":4,"componentType":5123,"count":2772,"type":"SCALAR"}],"bufferViews":[{"buffer":0,"byteOffset":0,"byteLength":19728},{"buffer":0,"byteOffset":19728,"byteLength":19728},{"buffer":0,"byteOffset":39456,"byteLength":13152},{"buffer":0,"byteOffset":52608,"byteLength":13152},{"buffer":0,"byteOffset":65760,"byteLength":5544}],"buffers":[{"byteLength":71304,"uri":"data:application/octet-stream;base64,"}]}
