{"asset":{"generator":"Khronos glTF Blender I/O v1.2.75","version":"2.0"},"scene":0,"scenes":[{"name":"Scene","nodes":[0]}],"nodes":[{"mesh":0,"name":"Mesh"}],"meshes":[{"name":"-2_-1_-2_MI_Round_Pipes_01","primitives":[{"indices":4,"attributes":{"POSITION":0,"NORMAL":1,"TEXCOORD_0":2,"TEXCOORD_1":3},"mode":4}]}],"accessors":[{"bufferView":0,"componentType":5126,"count":6725,"type":"VEC3","min":[-15,-15,-15],"max":[15,15,15]},{"bufferView":1,"componentType":5126,"count":6725,"type":"VEC3"},{"bufferView":2,"componentType":5126,"count":6725,"type":"VEC2"},{"bufferView":3,"componentType":5126,"count":6725,"type":"VEC2"},{"bufferView":4,"componentType":5123,"count":28368,"type":"SCALAR"}],"bufferViews":[{"buffer":0,"byteOffset":0,"byteLength":80700},{"buffer":0,"byteOffset":80700,"byteLength":80700},{"buffer":0,"byteOffset":161400,"byteLength":53800},{"buffer":0,"byteOffset":215200,"byteLength":53800},{"buffer":0,"byteOffset":269000,"byteLength":56736}],"buffers":[{"byteLength":325736,"uri":"data:application/octet-stream;base64,"}]}
