{"asset":{"generator":"Khronos glTF Blender I/O v1.2.75","version":"2.0"},"scene":0,"scenes":[{"name":"Scene","nodes":[0]}],"nodes":[{"mesh":0,"name":"Mesh"}],"meshes":[{"name":"-2_-1_0_MI_WGS_03","primitives":[{"indices":4,"attributes":{"POSITION":0,"NORMAL":1,"TEXCOORD_0":2,"TEXCOORD_1":3},"mode":4}]}],"accessors":[{"bufferView":0,"componentType":5126,"count":15152,"type":"VEC3","min":[-15,-15,-15],"max":[15,15,15]},{"bufferView":1,"componentType":5126,"count":15152,"type":"VEC3"},{"bufferView":2,"componentType":5126,"count":15152,"type":"VEC2"},{"bufferView":3,"componentType":5126,"count":15152,"type":"VEC2"},{"bufferView":4,"componentType":5123,"count":45750,"type":"SCALAR"}],"bufferViews":[{"buffer":0,"byteOffset":0,"byteLength":181824},{"buffer":0,"byteOffset":181824,"byteLength":181824},{"buffer":0,"byteOffset":363648,"byteLength":121216},{"buffer":0,"byteOffset":484864,"byteLength":121216},{"buffer":0,"byteOffset":606080,"byteLength":91500}],"buffers":[{"byteLength":697580,"uri":"data:application/octet-stream;base64,"}]}
