{"asset":{"generator":"Khronos glTF Blender I/O v1.2.75","version":"2.0"},"scene":0,"scenes":[{"name":"Scene","nodes":[0]}],"nodes":[{"mesh":0,"name":"Mesh"}],"meshes":[{"name":"-2_-1_0_MI_Building07","primitives":[{"indices":4,"attributes":{"POSITION":0,"NORMAL":1,"TEXCOORD_0":2,"TEXCOORD_1":3},"mode":4}]}],"accessors":[{"bufferView":0,"componentType":5126,"count":937,"type":"VEC3","min":[-15,-15,-15],"max":[15,15,15]},{"bufferView":1,"componentType":5126,"count":937,"type":"VEC3"},{"bufferView":2,"componentType":5126,"count":937,"type":"VEC2"},{"bufferView":3,"componentType":5126,"count":937,"type":"VEC2"},{"bufferView":4,"componentType":5123,"count":1749,"type":"SCALAR"}],"bufferViews":[{"buffer":0,"byteOffset":0,"byteLength":11244},{"buffer":0,"byteOffset":11244,"byteLength":11244},{"buffer":0,"byteOffset":22488,"byteLength":7496},{"buffer":0,"byteOffset":29984,"byteLength":7496},{"buffer":0,"byteOffset":37480,"byteLength":3498}],"buffers":[{"byteLength":40978,"uri":"data:application/octet-stream;base64,"}]}
