{"asset":{"generator":"Khronos glTF Blender I/O v1.2.75","version":"2.0"},"scene":0,"scenes":[{"name":"Scene","nodes":[0]}],"nodes":[{"mesh":0,"name":"Mesh"}],"meshes":[{"name":"-2_-1_-2_MI_WGS_03","primitives":[{"indices":4,"attributes":{"POSITION":0,"NORMAL":1,"TEXCOORD_0":2,"TEXCOORD_1":3},"mode":4}]}],"accessors":[{"bufferView":0,"componentType":5126,"count":2842,"type":"VEC3","min":[-15,-15,-15],"max":[15,15,15]},{"bufferView":1,"componentType":5126,"count":2842,"type":"VEC3"},{"bufferView":2,"componentType":5126,"count":2842,"type":"VEC2"},{"bufferView":3,"componentType":5126,"count":2842,"type":"VEC2"},{"bufferView":4,"componentType":5123,"count":8472,"type":"SCALAR"}],"bufferViews":[{"buffer":0,"byteOffset":0,"byteLength":34104},{"buffer":0,"byteOffset":34104,"byteLength":34104},{"buffer":0,"byteOffset":68208,"byteLength":22736},{"buffer":0,"byteOffset":90944,"byteLength":22736},{"buffer":0,"byteOffset":113680,"byteLength":16944}],"buffers":[{"byteLength":130624,"uri":"data:application/octet-stream;base64,"}]}
