{"asset":{"generator":"Khronos glTF Blender I/O v1.2.75","version":"2.0"},"scene":0,"scenes":[{"name":"Scene","nodes":[0]}],"nodes":[{"mesh":0,"name":"Mesh"}],"meshes":[{"name":"-2_0_0_MI_WallTile02","primitives":[{"indices":4,"attributes":{"POSITION":0,"NORMAL":1,"TEXCOORD_0":2,"TEXCOORD_1":3},"mode":4}]}],"accessors":[{"bufferView":0,"componentType":5126,"count":392,"type":"VEC3","min":[-15,-15,-15],"max":[15,15,15]},{"bufferView":1,"componentType":5126,"count":392,"type":"VEC3"},{"bufferView":2,"componentType":5126,"count":392,"type":"VEC2"},{"bufferView":3,"componentType":5126,"count":392,"type":"VEC2"},{"bufferView":4,"componentType":5123,"count":588,"type":"SCALAR"}],"bufferViews":[{"buffer":0,"byteOffset":0,"byteLength":4704},{"buffer":0,"byteOffset":4704,"byteLength":4704},{"buffer":0,"byteOffset":9408,"byteLength":3136},{"buffer":0,"byteOffset":12544,"byteLength":3136},{"buffer":0,"byteOffset":15680,"byteLength":1176}],"buffers":[{"byteLength":16856,"uri":"data:application/octet-stream;base64,"}]}
