{"asset":{"generator":"Khronos glTF Blender I/O v1.2.75","version":"2.0"},"scene":0,"scenes":[{"name":"Scene","nodes":[0]}],"nodes":[{"mesh":0,"name":"Mesh"}],"meshes":[{"name":"-2_0_0_MI_Pipes_square_01","primitives":[{"indices":4,"attributes":{"POSITION":0,"NORMAL":1,"TEXCOORD_0":2,"TEXCOORD_1":3},"mode":4}]}],"accessors":[{"bufferView":0,"componentType":5126,"count":6088,"type":"VEC3","min":[-15,-15,-15],"max":[15,15,15]},{"bufferView":1,"componentType":5126,"count":6088,"type":"VEC3"},{"bufferView":2,"componentType":5126,"count":6088,"type":"VEC2"},{"bufferView":3,"componentType":5126,"count":6088,"type":"VEC2"},{"bufferView":4,"componentType":5123,"count":13992,"type":"SCALAR"}],"bufferViews":[{"buffer":0,"byteOffset":0,"byteLength":73056},{"buffer":0,"byteOffset":73056,"byteLength":73056},{"buffer":0,"byteOffset":146112,"byteLength":48704},{"buffer":0,"byteOffset":194816,"byteLength":48704},{"buffer":0,"byteOffset":243520,"byteLength":27984}],"buffers":[{"byteLength":271504,"uri":"data:application/octet-stream;base64,"}]}
