{"asset":{"generator":"Khronos glTF Blender I/O v1.2.75","version":"2.0"},"scene":0,"scenes":[{"name":"Scene","nodes":[0]}],"nodes":[{"mesh":0,"name":"Mesh"}],"meshes":[{"name":"-2_0_-2_MI_BackgroundBuildings","primitives":[{"indices":4,"attributes":{"POSITION":0,"NORMAL":1,"TEXCOORD_0":2,"TEXCOORD_1":3},"mode":4}]}],"accessors":[{"bufferView":0,"componentType":5126,"count":3806,"type":"VEC3","min":[-15,-15,-15],"max":[15,15,15]},{"bufferView":1,"componentType":5126,"count":3806,"type":"VEC3"},{"bufferView":2,"componentType":5126,"count":3806,"type":"VEC2"},{"bufferView":3,"componentType":5126,"count":3806,"type":"VEC2"},{"bufferView":4,"componentType":5123,"count":12024,"type":"SCALAR"}],"bufferViews":[{"buffer":0,"byteOffset":0,"byteLength":45672},{"buffer":0,"byteOffset":45672,"byteLength":45672},{"buffer":0,"byteOffset":91344,"byteLength":30448},{"buffer":0,"byteOffset":121792,"byteLength":30448},{"buffer":0,"byteOffset":152240,"byteLength":24048}],"buffers":[{"byteLength":176288,"uri":"data:application/octet-stream;base64,"}]}
