{"asset":{"generator":"Khronos glTF Blender I/O v1.2.75","version":"2.0"},"scene":0,"scenes":[{"name":"Scene","nodes":[0]}],"nodes":[{"mesh":0,"name":"Mesh"}],"meshes":[{"name":"-2_0_-1_MI_Pipes_square_01","primitives":[{"indices":4,"attributes":{"POSITION":0,"NORMAL":1,"TEXCOORD_0":2,"TEXCOORD_1":3},"mode":4}]}],"accessors":[{"bufferView":0,"componentType":5126,"count":9752,"type":"VEC3","min":[-15,-15,-15],"max":[15,15,15]},{"bufferView":1,"componentType":5126,"count":9752,"type":"VEC3"},{"bufferView":2,"componentType":5126,"count":9752,"type":"VEC2"},{"bufferView":3,"componentType":5126,"count":9752,"type":"VEC2"},{"bufferView":4,"componentType":5123,"count":23844,"type":"SCALAR"}],"bufferViews":[{"buffer":0,"byteOffset":0,"byteLength":117024},{"buffer":0,"byteOffset":117024,"byteLength":117024},{"buffer":0,"byteOffset":234048,"byteLength":78016},{"buffer":0,"byteOffset":312064,"byteLength":78016},{"buffer":0,"byteOffset":390080,"byteLength":47688}],"buffers":[{"byteLength":437768,"uri":"data:application/octet-stream;base64,"}]}
