{"asset":{"generator":"Khronos glTF Blender I/O v1.2.75","version":"2.0"},"scene":0,"scenes":[{"name":"Scene","nodes":[0]}],"nodes":[{"mesh":0,"name":"Mesh"}],"meshes":[{"name":"-2_0_-1_MI_SignboardText02","primitives":[{"indices":4,"attributes":{"POSITION":0,"NORMAL":1,"TEXCOORD_0":2,"TEXCOORD_1":3},"mode":4}]}],"accessors":[{"bufferView":0,"componentType":5126,"count":1028,"type":"VEC3","min":[-15,-15,-15],"max":[15,15,15]},{"bufferView":1,"componentType":5126,"count":1028,"type":"VEC3"},{"bufferView":2,"componentType":5126,"count":1028,"type":"VEC2"},{"bufferView":3,"componentType":5126,"count":1028,"type":"VEC2"},{"bufferView":4,"componentType":5123,"count":2712,"type":"SCALAR"}],"bufferViews":[{"buffer":0,"byteOffset":0,"byteLength":12336},{"buffer":0,"byteOffset":12336,"byteLength":12336},{"buffer":0,"byteOffset":24672,"byteLength":8224},{"buffer":0,"byteOffset":32896,"byteLength":8224},{"buffer":0,"byteOffset":41120,"byteLength":5424}],"buffers":[{"byteLength":46544,"uri":"data:application/octet-stream;base64,"}]}
