{"asset":{"generator":"Khronos glTF Blender I/O v1.2.75","version":"2.0"},"scene":0,"scenes":[{"name":"Scene","nodes":[0]}],"nodes":[{"mesh":0,"name":"Mesh"}],"meshes":[{"name":"-2_1_0_MI_Building05","primitives":[{"indices":4,"attributes":{"POSITION":0,"NORMAL":1,"TEXCOORD_0":2,"TEXCOORD_1":3},"mode":4}]}],"accessors":[{"bufferView":0,"componentType":5126,"count":998,"type":"VEC3","min":[-15,-15,-15],"max":[15,15,15]},{"bufferView":1,"componentType":5126,"count":998,"type":"VEC3"},{"bufferView":2,"componentType":5126,"count":998,"type":"VEC2"},{"bufferView":3,"componentType":5126,"count":998,"type":"VEC2"},{"bufferView":4,"componentType":5123,"count":1884,"type":"SCALAR"}],"bufferViews":[{"buffer":0,"byteOffset":0,"byteLength":11976},{"buffer":0,"byteOffset":11976,"byteLength":11976},{"buffer":0,"byteOffset":23952,"byteLength":7984},{"buffer":0,"byteOffset":31936,"byteLength":7984},{"buffer":0,"byteOffset":39920,"byteLength":3768}],"buffers":[{"byteLength":43688,"uri":"data:application/octet-stream;base64,"}]}
