{"asset":{"generator":"Khronos glTF Blender I/O v1.2.75","version":"2.0"},"scene":0,"scenes":[{"name":"Scene","nodes":[0]}],"nodes":[{"mesh":0,"name":"Mesh"}],"meshes":[{"name":"-2_2_1_MI_Building09","primitives":[{"indices":4,"attributes":{"POSITION":0,"NORMAL":1,"TEXCOORD_0":2,"TEXCOORD_1":3},"mode":4}]}],"accessors":[{"bufferView":0,"componentType":5126,"count":19296,"type":"VEC3","min":[-15,-15,-15],"max":[15,15,15]},{"bufferView":1,"componentType":5126,"count":19296,"type":"VEC3"},{"bufferView":2,"componentType":5126,"count":19296,"type":"VEC2"},{"bufferView":3,"componentType":5126,"count":19296,"type":"VEC2"},{"bufferView":4,"componentType":5123,"count":33696,"type":"SCALAR"}],"bufferViews":[{"buffer":0,"byteOffset":0,"byteLength":231552},{"buffer":0,"byteOffset":231552,"byteLength":231552},{"buffer":0,"byteOffset":463104,"byteLength":154368},{"buffer":0,"byteOffset":617472,"byteLength":154368},{"buffer":0,"byteOffset":771840,"byteLength":67392}],"buffers":[{"byteLength":839232,"uri":"data:application/octet-stream;base64,"}]}
