{"asset":{"generator":"Khronos glTF Blender I/O v1.2.75","version":"2.0"},"scene":0,"scenes":[{"name":"Scene","nodes":[0]}],"nodes":[{"mesh":0,"name":"Mesh"}],"meshes":[{"name":"0_-1_0_M_TrimSheetMaster","primitives":[{"indices":4,"attributes":{"POSITION":0,"NORMAL":1,"TEXCOORD_0":2,"TEXCOORD_1":3},"mode":4}]}],"accessors":[{"bufferView":0,"componentType":5126,"count":23092,"type":"VEC3","min":[-15,-15,-15],"max":[15,15,15]},{"bufferView":1,"componentType":5126,"count":23092,"type":"VEC3"},{"bufferView":2,"componentType":5126,"count":23092,"type":"VEC2"},{"bufferView":3,"componentType":5126,"count":23092,"type":"VEC2"},{"bufferView":4,"componentType":5123,"count":106020,"type":"SCALAR"}],"bufferViews":[{"buffer":0,"byteOffset":0,"byteLength":277104},{"buffer":0,"byteOffset":277104,"byteLength":277104},{"buffer":0,"byteOffset":554208,"byteLength":184736},{"buffer":0,"byteOffset":738944,"byteLength":184736},{"buffer":0,"byteOffset":923680,"byteLength":212040}],"buffers":[{"byteLength":1135720,"uri":"data:application/octet-stream;base64,"}]}
