{"asset":{"generator":"Khronos glTF Blender I/O v1.2.75","version":"2.0"},"scene":0,"scenes":[{"name":"Scene","nodes":[0]}],"nodes":[{"mesh":0,"name":"Mesh"}],"meshes":[{"name":"0_-1_-1_M_LampSet_01_no_ins","primitives":[{"indices":4,"attributes":{"POSITION":0,"NORMAL":1,"TEXCOORD_0":2,"TEXCOORD_1":3},"mode":4}]}],"accessors":[{"bufferView":0,"componentType":5126,"count":27456,"type":"VEC3","min":[-15,-15,-15],"max":[15,15,15]},{"bufferView":1,"componentType":5126,"count":27456,"type":"VEC3"},{"bufferView":2,"componentType":5126,"count":27456,"type":"VEC2"},{"bufferView":3,"componentType":5126,"count":27456,"type":"VEC2"},{"bufferView":4,"componentType":5123,"count":90090,"type":"SCALAR"}],"bufferViews":[{"buffer":0,"byteOffset":0,"byteLength":329472},{"buffer":0,"byteOffset":329472,"byteLength":329472},{"buffer":0,"byteOffset":658944,"byteLength":219648},{"buffer":0,"byteOffset":878592,"byteLength":219648},{"buffer":0,"byteOffset":1098240,"byteLength":180180}],"buffers":[{"byteLength":1278420,"uri":"data:application/octet-stream;base64,"}]}
