{"asset":{"generator":"Khronos glTF Blender I/O v1.2.75","version":"2.0"},"scene":0,"scenes":[{"name":"Scene","nodes":[0]}],"nodes":[{"mesh":0,"name":"Mesh"}],"meshes":[{"name":"0_-1_-1_MI_FloorMat","primitives":[{"indices":4,"attributes":{"POSITION":0,"NORMAL":1,"TEXCOORD_0":2,"TEXCOORD_1":3},"mode":4}]}],"accessors":[{"bufferView":0,"componentType":5126,"count":1536,"type":"VEC3","min":[-15,-15,-15],"max":[15,15,15]},{"bufferView":1,"componentType":5126,"count":1536,"type":"VEC3"},{"bufferView":2,"componentType":5126,"count":1536,"type":"VEC2"},{"bufferView":3,"componentType":5126,"count":1536,"type":"VEC2"},{"bufferView":4,"componentType":5123,"count":7920,"type":"SCALAR"}],"bufferViews":[{"buffer":0,"byteOffset":0,"byteLength":18432},{"buffer":0,"byteOffset":18432,"byteLength":18432},{"buffer":0,"byteOffset":36864,"byteLength":12288},{"buffer":0,"byteOffset":49152,"byteLength":12288},{"buffer":0,"byteOffset":61440,"byteLength":15840}],"buffers":[{"byteLength":77280,"uri":"data:application/octet-stream;base64,"}]}
