{"asset":{"generator":"Khronos glTF Blender I/O v1.2.75","version":"2.0"},"scene":0,"scenes":[{"name":"Scene","nodes":[0]}],"nodes":[{"mesh":0,"name":"Mesh"}],"meshes":[{"name":"0_0_-1_MI_Platform_01","primitives":[{"indices":4,"attributes":{"POSITION":0,"NORMAL":1,"TEXCOORD_0":2,"TEXCOORD_1":3},"mode":4}]}],"accessors":[{"bufferView":0,"componentType":5126,"count":5380,"type":"VEC3","min":[-15,-15,-15],"max":[15,15,15]},{"bufferView":1,"componentType":5126,"count":5380,"type":"VEC3"},{"bufferView":2,"componentType":5126,"count":5380,"type":"VEC2"},{"bufferView":3,"componentType":5126,"count":5380,"type":"VEC2"},{"bufferView":4,"componentType":5123,"count":10800,"type":"SCALAR"}],"bufferViews":[{"buffer":0,"byteOffset":0,"byteLength":64560},{"buffer":0,"byteOffset":64560,"byteLength":64560},{"buffer":0,"byteOffset":129120,"byteLength":43040},{"buffer":0,"byteOffset":172160,"byteLength":43040},{"buffer":0,"byteOffset":215200,"byteLength":21600}],"buffers":[{"byteLength":236800,"uri":"data:application/octet-stream;base64,"}]}
