{"asset":{"generator":"Khronos glTF Blender I/O v1.2.75","version":"2.0"},"scene":0,"scenes":[{"name":"Scene","nodes":[0]}],"nodes":[{"mesh":0,"name":"Mesh"}],"meshes":[{"name":"0_0_-3_MI_Building05","primitives":[{"indices":4,"attributes":{"POSITION":0,"NORMAL":1,"TEXCOORD_0":2,"TEXCOORD_1":3},"mode":4}]}],"accessors":[{"bufferView":0,"componentType":5126,"count":6688,"type":"VEC3","min":[-15,-15,-15],"max":[15,15,15]},{"bufferView":1,"componentType":5126,"count":6688,"type":"VEC3"},{"bufferView":2,"componentType":5126,"count":6688,"type":"VEC2"},{"bufferView":3,"componentType":5126,"count":6688,"type":"VEC2"},{"bufferView":4,"componentType":5123,"count":14052,"type":"SCALAR"}],"bufferViews":[{"buffer":0,"byteOffset":0,"byteLength":80256},{"buffer":0,"byteOffset":80256,"byteLength":80256},{"buffer":0,"byteOffset":160512,"byteLength":53504},{"buffer":0,"byteOffset":214016,"byteLength":53504},{"buffer":0,"byteOffset":267520,"byteLength":28104}],"buffers":[{"byteLength":295624,"uri":"data:application/octet-stream;base64,"}]}
