{"asset":{"generator":"Khronos glTF Blender I/O v1.2.75","version":"2.0"},"scene":0,"scenes":[{"name":"Scene","nodes":[0]}],"nodes":[{"mesh":0,"name":"Mesh"}],"meshes":[{"name":"0_0_-1_MI_Building05","primitives":[{"indices":4,"attributes":{"POSITION":0,"NORMAL":1,"TEXCOORD_0":2,"TEXCOORD_1":3},"mode":4}]}],"accessors":[{"bufferView":0,"componentType":5126,"count":2340,"type":"VEC3","min":[-15,-15,-15],"max":[15,15,15]},{"bufferView":1,"componentType":5126,"count":2340,"type":"VEC3"},{"bufferView":2,"componentType":5126,"count":2340,"type":"VEC2"},{"bufferView":3,"componentType":5126,"count":2340,"type":"VEC2"},{"bufferView":4,"componentType":5123,"count":4854,"type":"SCALAR"}],"bufferViews":[{"buffer":0,"byteOffset":0,"byteLength":28080},{"buffer":0,"byteOffset":28080,"byteLength":28080},{"buffer":0,"byteOffset":56160,"byteLength":18720},{"buffer":0,"byteOffset":74880,"byteLength":18720},{"buffer":0,"byteOffset":93600,"byteLength":9708}],"buffers":[{"byteLength":103308,"uri":"data:application/octet-stream;base64,"}]}
