{"asset":{"generator":"Khronos glTF Blender I/O v1.2.75","version":"2.0"},"scene":0,"scenes":[{"name":"Scene","nodes":[0]}],"nodes":[{"mesh":0,"name":"Mesh"}],"meshes":[{"name":"0_1_0_MI_MetalBeam01","primitives":[{"indices":4,"attributes":{"POSITION":0,"NORMAL":1,"TEXCOORD_0":2,"TEXCOORD_1":3},"mode":4}]}],"accessors":[{"bufferView":0,"componentType":5126,"count":1530,"type":"VEC3","min":[-15,-15,-15],"max":[15,15,15]},{"bufferView":1,"componentType":5126,"count":1530,"type":"VEC3"},{"bufferView":2,"componentType":5126,"count":1530,"type":"VEC2"},{"bufferView":3,"componentType":5126,"count":1530,"type":"VEC2"},{"bufferView":4,"componentType":5123,"count":3132,"type":"SCALAR"}],"bufferViews":[{"buffer":0,"byteOffset":0,"byteLength":18360},{"buffer":0,"byteOffset":18360,"byteLength":18360},{"buffer":0,"byteOffset":36720,"byteLength":12240},{"buffer":0,"byteOffset":48960,"byteLength":12240},{"buffer":0,"byteOffset":61200,"byteLength":6264}],"buffers":[{"byteLength":67464,"uri":"data:application/octet-stream;base64,"}]}
