{"asset":{"generator":"Khronos glTF Blender I/O v1.2.75","version":"2.0"},"scene":0,"scenes":[{"name":"Scene","nodes":[0]}],"nodes":[{"mesh":0,"name":"Mesh"}],"meshes":[{"name":"0_1_0_MI_Platform_01","primitives":[{"indices":4,"attributes":{"POSITION":0,"NORMAL":1,"TEXCOORD_0":2,"TEXCOORD_1":3},"mode":4}]}],"accessors":[{"bufferView":0,"componentType":5126,"count":4412,"type":"VEC3","min":[-15,-15,-15],"max":[15,15,15]},{"bufferView":1,"componentType":5126,"count":4412,"type":"VEC3"},{"bufferView":2,"componentType":5126,"count":4412,"type":"VEC2"},{"bufferView":3,"componentType":5126,"count":4412,"type":"VEC2"},{"bufferView":4,"componentType":5123,"count":8814,"type":"SCALAR"}],"bufferViews":[{"buffer":0,"byteOffset":0,"byteLength":52944},{"buffer":0,"byteOffset":52944,"byteLength":52944},{"buffer":0,"byteOffset":105888,"byteLength":35296},{"buffer":0,"byteOffset":141184,"byteLength":35296},{"buffer":0,"byteOffset":176480,"byteLength":17628}],"buffers":[{"byteLength":194108,"uri":"data:application/octet-stream;base64,"}]}
