{"asset":{"generator":"Khronos glTF Blender I/O v1.2.75","version":"2.0"},"scene":0,"scenes":[{"name":"Scene","nodes":[0]}],"nodes":[{"mesh":0,"name":"Mesh"}],"meshes":[{"name":"1_-1_-1_MI_Building05","primitives":[{"indices":4,"attributes":{"POSITION":0,"NORMAL":1,"TEXCOORD_0":2,"TEXCOORD_1":3},"mode":4}]}],"accessors":[{"bufferView":0,"componentType":5126,"count":2012,"type":"VEC3","min":[-15,-15,-15],"max":[15,15,15]},{"bufferView":1,"componentType":5126,"count":2012,"type":"VEC3"},{"bufferView":2,"componentType":5126,"count":2012,"type":"VEC2"},{"bufferView":3,"componentType":5126,"count":2012,"type":"VEC2"},{"bufferView":4,"componentType":5123,"count":4266,"type":"SCALAR"}],"bufferViews":[{"buffer":0,"byteOffset":0,"byteLength":24144},{"buffer":0,"byteOffset":24144,"byteLength":24144},{"buffer":0,"byteOffset":48288,"byteLength":16096},{"buffer":0,"byteOffset":64384,"byteLength":16096},{"buffer":0,"byteOffset":80480,"byteLength":8532}],"buffers":[{"byteLength":89012,"uri":"data:application/octet-stream;base64,"}]}
