{"asset":{"generator":"Khronos glTF Blender I/O v1.2.75","version":"2.0"},"scene":0,"scenes":[{"name":"Scene","nodes":[0]}],"nodes":[{"mesh":0,"name":"Mesh"}],"meshes":[{"name":"1_1_0_MI_SignboardText02","primitives":[{"indices":4,"attributes":{"POSITION":0,"NORMAL":1,"TEXCOORD_0":2,"TEXCOORD_1":3},"mode":4}]}],"accessors":[{"bufferView":0,"componentType":5126,"count":2572,"type":"VEC3","min":[-15,-15,-15],"max":[15,15,15]},{"bufferView":1,"componentType":5126,"count":2572,"type":"VEC3"},{"bufferView":2,"componentType":5126,"count":2572,"type":"VEC2"},{"bufferView":3,"componentType":5126,"count":2572,"type":"VEC2"},{"bufferView":4,"componentType":5123,"count":6852,"type":"SCALAR"}],"bufferViews":[{"buffer":0,"byteOffset":0,"byteLength":30864},{"buffer":0,"byteOffset":30864,"byteLength":30864},{"buffer":0,"byteOffset":61728,"byteLength":20576},{"buffer":0,"byteOffset":82304,"byteLength":20576},{"buffer":0,"byteOffset":102880,"byteLength":13704}],"buffers":[{"byteLength":116584,"uri":"data:application/octet-stream;base64,"}]}
