{"asset":{"generator":"Khronos glTF Blender I/O v1.2.75","version":"2.0"},"scene":0,"scenes":[{"name":"Scene","nodes":[0]}],"nodes":[{"mesh":0,"name":"Mesh"}],"meshes":[{"name":"2_2_1_MI_EnvirAssets_01","primitives":[{"indices":4,"attributes":{"POSITION":0,"NORMAL":1,"TEXCOORD_0":2,"TEXCOORD_1":3},"mode":4}]}],"accessors":[{"bufferView":0,"componentType":5126,"count":4361,"type":"VEC3","min":[-15,-15,-15],"max":[15,15,15]},{"bufferView":1,"componentType":5126,"count":4361,"type":"VEC3"},{"bufferView":2,"componentType":5126,"count":4361,"type":"VEC2"},{"bufferView":3,"componentType":5126,"count":4361,"type":"VEC2"},{"bufferView":4,"componentType":5123,"count":7650,"type":"SCALAR"}],"bufferViews":[{"buffer":0,"byteOffset":0,"byteLength":52332},{"buffer":0,"byteOffset":52332,"byteLength":52332},{"buffer":0,"byteOffset":104664,"byteLength":34888},{"buffer":0,"byteOffset":139552,"byteLength":34888},{"buffer":0,"byteOffset":174440,"byteLength":15300}],"buffers":[{"byteLength":189740,"uri":"data:application/octet-stream;base64,"}]}
