{"asset":{"generator":"Khronos glTF Blender I/O v1.2.75","version":"2.0"},"scene":0,"scenes":[{"name":"Scene","nodes":[0]}],"nodes":[{"mesh":0,"name":"Mesh"}],"meshes":[{"name":"SM_BagsMerged01","primitives":[{"indices":4,"attributes":{"POSITION":0,"NORMAL":1,"TEXCOORD_0":2,"TEXCOORD_1":3},"mode":4},{"indices":9,"attributes":{"POSITION":5,"NORMAL":6,"TEXCOORD_0":7,"TEXCOORD_1":8},"mode":4}]}],"accessors":[{"bufferView":0,"componentType":5126,"count":302,"type":"VEC3","min":[-1.8657308959960937,-0.03751855611801148,-2.4626300048828127],"max":[4.118325805664062,2.2386329650878904,1.191068115234375]},{"bufferView":1,"componentType":5126,"count":302,"type":"VEC3"},{"bufferView":2,"componentType":5126,"count":302,"type":"VEC2"},{"bufferView":3,"componentType":5126,"count":302,"type":"VEC2"},{"bufferView":4,"componentType":5123,"count":948,"type":"SCALAR"},{"bufferView":5,"componentType":5126,"count":24901,"type":"VEC3","min":[-1.8657308959960937,-0.03751855611801148,-2.4626300048828127],"max":[4.118325805664062,2.2386329650878904,1.191068115234375]},{"bufferView":6,"componentType":5126,"count":24901,"type":"VEC3"},{"bufferView":7,"componentType":5126,"count":24901,"type":"VEC2"},{"bufferView":8,"componentType":5126,"count":24901,"type":"VEC2"},{"bufferView":9,"componentType":5123,"count":137577,"type":"SCALAR"}],"bufferViews":[{"buffer":0,"byteOffset":0,"byteLength":3624},{"buffer":0,"byteOffset":3624,"byteLength":3624},{"buffer":0,"byteOffset":7248,"byteLength":2416},{"buffer":0,"byteOffset":9664,"byteLength":2416},{"buffer":0,"byteOffset":12080,"byteLength":1896},{"buffer":1,"byteOffset":0,"byteLength":298812},{"buffer":1,"byteOffset":298812,"byteLength":298812},{"buffer":1,"byteOffset":597624,"byteLength":199208},{"buffer":1,"byteOffset":796832,"byteLength":199208},{"buffer":1,"byteOffset":996040,"byteLength":275154}],"buffers":[{"byteLength":13976,"uri":"data:application/octet-stream;base64,"},{"byteLength":1271194,"uri":"data:application/octet-stream;base64,"}]}
