{"asset":{"generator":"Khronos glTF Blender I/O v1.2.75","version":"2.0"},"scene":0,"scenes":[{"name":"Scene","nodes":[0]}],"nodes":[{"mesh":0,"name":"Mesh"}],"meshes":[{"name":"SM_BagsMerged01","primitives":[{"indices":4,"attributes":{"POSITION":0,"NORMAL":1,"TEXCOORD_0":2,"TEXCOORD_1":3},"mode":4},{"indices":9,"attributes":{"POSITION":5,"NORMAL":6,"TEXCOORD_0":7,"TEXCOORD_1":8},"mode":4}]}],"accessors":[{"bufferView":0,"componentType":5126,"count":98,"type":"VEC3","min":[-1.8657308959960937,-0.03751855611801148,-2.4626300048828127],"max":[4.118325805664062,2.2386329650878904,1.191068115234375]},{"bufferView":1,"componentType":5126,"count":98,"type":"VEC3"},{"bufferView":2,"componentType":5126,"count":98,"type":"VEC2"},{"bufferView":3,"componentType":5126,"count":98,"type":"VEC2"},{"bufferView":4,"componentType":5123,"count":156,"type":"SCALAR"},{"bufferView":5,"componentType":5126,"count":582,"type":"VEC3","min":[-1.8657308959960937,-0.03751855611801148,-2.4626300048828127],"max":[4.118325805664062,2.2386329650878904,1.191068115234375]},{"bufferView":6,"componentType":5126,"count":582,"type":"VEC3"},{"bufferView":7,"componentType":5126,"count":582,"type":"VEC2"},{"bufferView":8,"componentType":5126,"count":582,"type":"VEC2"},{"bufferView":9,"componentType":5123,"count":1920,"type":"SCALAR"}],"bufferViews":[{"buffer":0,"byteOffset":0,"byteLength":1176},{"buffer":0,"byteOffset":1176,"byteLength":1176},{"buffer":0,"byteOffset":2352,"byteLength":784},{"buffer":0,"byteOffset":3136,"byteLength":784},{"buffer":0,"byteOffset":3920,"byteLength":312},{"buffer":1,"byteOffset":0,"byteLength":6984},{"buffer":1,"byteOffset":6984,"byteLength":6984},{"buffer":1,"byteOffset":13968,"byteLength":4656},{"buffer":1,"byteOffset":18624,"byteLength":4656},{"buffer":1,"byteOffset":23280,"byteLength":3840}],"buffers":[{"byteLength":4232,"uri":"data:application/octet-stream;base64,"},{"byteLength":27120,"uri":"data:application/octet-stream;base64,"}]}
