{"asset":{"generator":"Khronos glTF Blender I/O v1.2.75","version":"2.0"},"scene":0,"scenes":[{"name":"Scene","nodes":[0]}],"nodes":[{"mesh":0,"name":"Mesh"}],"meshes":[{"name":"SM_MainHero","primitives":[{"indices":3,"attributes":{"POSITION":0,"NORMAL":1,"TEXCOORD_0":2},"mode":4},{"indices":7,"attributes":{"POSITION":4,"NORMAL":5,"TEXCOORD_0":6},"mode":4}]}],"accessors":[{"bufferView":0,"componentType":5126,"count":8414,"type":"VEC3","min":[-0.481265983581543,0.002063000053167343,-0.16371799468994142],"max":[0.4826010131835938,1.818292999267578,0.14943099975585938]},{"bufferView":1,"componentType":5126,"count":8414,"type":"VEC3"},{"bufferView":2,"componentType":5126,"count":8414,"type":"VEC2"},{"bufferView":3,"componentType":5123,"count":40968,"type":"SCALAR"},{"bufferView":4,"componentType":5126,"count":4119,"type":"VEC3","min":[-0.481265983581543,0.002063000053167343,-0.16371799468994142],"max":[0.4826010131835938,1.818292999267578,0.14943099975585938]},{"bufferView":5,"componentType":5126,"count":4119,"type":"VEC3"},{"bufferView":6,"componentType":5126,"count":4119,"type":"VEC2"},{"bufferView":7,"componentType":5123,"count":24204,"type":"SCALAR"}],"bufferViews":[{"buffer":0,"byteOffset":0,"byteLength":100968},{"buffer":0,"byteOffset":100968,"byteLength":100968},{"buffer":0,"byteOffset":201936,"byteLength":67312},{"buffer":0,"byteOffset":269248,"byteLength":81936},{"buffer":1,"byteOffset":0,"byteLength":49428},{"buffer":1,"byteOffset":49428,"byteLength":49428},{"buffer":1,"byteOffset":98856,"byteLength":32952},{"buffer":1,"byteOffset":131808,"byteLength":48408}],"buffers":[{"byteLength":351184,"uri":"data:application/octet-stream;base64,"},{"byteLength":180216,"uri":"data:application/octet-stream;base64,"}]}
