{"asset":{"generator":"Khronos glTF Blender I/O v1.2.75","version":"2.0"},"scene":0,"scenes":[{"name":"Scene","nodes":[0]}],"nodes":[{"mesh":0,"name":"Mesh"}],"meshes":[{"name":"SM_Pipe_square_corner_small","primitives":[{"indices":5,"attributes":{"POSITION":0,"NORMAL":1,"COLOR_0":2,"TEXCOORD_0":3,"TEXCOORD_1":4},"mode":4}]}],"accessors":[{"bufferView":0,"componentType":5126,"count":524,"type":"VEC3","min":[-0.22000001907348632,-0.27999980926513673,-6.139278411865235e-8],"max":[0.22000011444091797,0.11999998092651368,0.39999996185302733]},{"bufferView":1,"componentType":5126,"count":524,"type":"VEC3"},{"bufferView":2,"componentType":5126,"count":524,"type":"VEC4"},{"bufferView":3,"componentType":5126,"count":524,"type":"VEC2"},{"bufferView":4,"componentType":5126,"count":524,"type":"VEC2"},{"bufferView":5,"componentType":5123,"count":1356,"type":"SCALAR"}],"bufferViews":[{"buffer":0,"byteOffset":0,"byteLength":6288},{"buffer":0,"byteOffset":6288,"byteLength":6288},{"buffer":0,"byteOffset":12576,"byteLength":8384},{"buffer":0,"byteOffset":20960,"byteLength":4192},{"buffer":0,"byteOffset":25152,"byteLength":4192},{"buffer":0,"byteOffset":29344,"byteLength":2712}],"buffers":[{"byteLength":32056,"uri":"data:application/octet-stream;base64,"}]}
