{"asset":{"generator":"Khronos glTF Blender I/O v1.2.75","version":"2.0"},"scene":0,"scenes":[{"name":"Scene","nodes":[0]}],"nodes":[{"mesh":0,"name":"Mesh"}],"meshes":[{"name":"SM_PipeMerged01","primitives":[{"indices":4,"attributes":{"POSITION":0,"NORMAL":1,"TEXCOORD_0":2,"TEXCOORD_1":3},"mode":4}]}],"accessors":[{"bufferView":0,"componentType":5126,"count":5510,"type":"VEC3","min":[-0.22681673049926757,-1.0086956787109376,-6.327425537109375],"max":[0.18561294555664062,3.17106201171875,0.18258533477783204]},{"bufferView":1,"componentType":5126,"count":5510,"type":"VEC3"},{"bufferView":2,"componentType":5126,"count":5510,"type":"VEC2"},{"bufferView":3,"componentType":5126,"count":5510,"type":"VEC2"},{"bufferView":4,"componentType":5123,"count":16164,"type":"SCALAR"}],"bufferViews":[{"buffer":0,"byteOffset":0,"byteLength":66120},{"buffer":0,"byteOffset":66120,"byteLength":66120},{"buffer":0,"byteOffset":132240,"byteLength":44080},{"buffer":0,"byteOffset":176320,"byteLength":44080},{"buffer":0,"byteOffset":220400,"byteLength":32328}],"buffers":[{"byteLength":252728,"uri":"data:application/octet-stream;base64,"}]}
