{"asset":{"generator":"Khronos glTF Blender I/O v1.2.75","version":"2.0"},"scene":0,"scenes":[{"name":"Scene","nodes":[0]}],"nodes":[{"mesh":0,"name":"Mesh"}],"meshes":[{"name":"SM_CornerBuilding01_10","primitives":[{"indices":4,"attributes":{"POSITION":0,"NORMAL":1,"TEXCOORD_0":2,"TEXCOORD_1":3},"mode":4}]}],"accessors":[{"bufferView":0,"componentType":5126,"count":4,"type":"VEC3","min":[-6.103515625e-7,1.52587890625e-7,-2.5000006103515626],"max":[-6.103515625e-7,5,-4.57763671875e-7]},{"bufferView":1,"componentType":5126,"count":4,"type":"VEC3"},{"bufferView":2,"componentType":5126,"count":4,"type":"VEC2"},{"bufferView":3,"componentType":5126,"count":4,"type":"VEC2"},{"bufferView":4,"componentType":5123,"count":6,"type":"SCALAR"}],"bufferViews":[{"buffer":0,"byteOffset":0,"byteLength":48},{"buffer":0,"byteOffset":48,"byteLength":48},{"buffer":0,"byteOffset":96,"byteLength":32},{"buffer":0,"byteOffset":128,"byteLength":32},{"buffer":0,"byteOffset":160,"byteLength":12}],"buffers":[{"byteLength":172,"uri":"data:application/octet-stream;base64,"}]}
