{"asset":{"generator":"Khronos glTF Blender I/O v1.2.75","version":"2.0"},"scene":0,"scenes":[{"name":"Scene","nodes":[0]}],"nodes":[{"mesh":0,"name":"Mesh"}],"meshes":[{"name":"GirlClub01","primitives":[{"indices":4,"attributes":{"POSITION":0,"NORMAL":1,"TEXCOORD_0":2,"TEXCOORD_1":3},"mode":4}]}],"accessors":[{"bufferView":0,"componentType":5126,"count":554,"type":"VEC3","min":[-1.4265876770019532,-1.3786860656738282,-0.023171894550323487],"max":[0.03518648386001587,1.3783573913574219,0.026018710136413575]},{"bufferView":1,"componentType":5126,"count":554,"type":"VEC3"},{"bufferView":2,"componentType":5126,"count":554,"type":"VEC2"},{"bufferView":3,"componentType":5126,"count":554,"type":"VEC2"},{"bufferView":4,"componentType":5123,"count":1086,"type":"SCALAR"}],"bufferViews":[{"buffer":0,"byteOffset":0,"byteLength":6648},{"buffer":0,"byteOffset":6648,"byteLength":6648},{"buffer":0,"byteOffset":13296,"byteLength":4432},{"buffer":0,"byteOffset":17728,"byteLength":4432},{"buffer":0,"byteOffset":22160,"byteLength":2172}],"buffers":[{"byteLength":24332,"uri":"data:application/octet-stream;base64,"}]}
