{"asset":{"generator":"Khronos glTF Blender I/O v1.2.75","version":"2.0"},"scene":0,"scenes":[{"name":"Scene","nodes":[0]}],"nodes":[{"mesh":0,"name":"Mesh"}],"meshes":[{"name":"SM_gun03","primitives":[{"indices":3,"attributes":{"POSITION":0,"NORMAL":1,"TEXCOORD_0":2},"mode":4}]}],"accessors":[{"bufferView":0,"componentType":5126,"count":4089,"type":"VEC3","min":[-0.25221904754638674,0.011809453964233399,-2.2909185791015627],"max":[0.25221904754638674,1.6019876098632813,2.12486328125]},{"bufferView":1,"componentType":5126,"count":4089,"type":"VEC3"},{"bufferView":2,"componentType":5126,"count":4089,"type":"VEC2"},{"bufferView":3,"componentType":5123,"count":11118,"type":"SCALAR"}],"bufferViews":[{"buffer":0,"byteOffset":0,"byteLength":49068},{"buffer":0,"byteOffset":49068,"byteLength":49068},{"buffer":0,"byteOffset":98136,"byteLength":32712},{"buffer":0,"byteOffset":130848,"byteLength":22236}],"buffers":[{"byteLength":153084,"uri":"data:application/octet-stream;base64,"}]}
