{"asset":{"generator":"Khronos glTF Blender I/O v1.2.75","version":"2.0"},"scene":0,"scenes":[{"name":"Scene","nodes":[0]}],"nodes":[{"mesh":0,"name":"Mesh"}],"meshes":[{"name":"SM_WallDisplay","primitives":[{"indices":4,"attributes":{"POSITION":0,"NORMAL":1,"TEXCOORD_0":2,"TEXCOORD_1":3},"mode":4}]}],"accessors":[{"bufferView":0,"componentType":5126,"count":577,"type":"VEC3","min":[-0.00000244140625,-0.998094482421875,-1.5000001525878905],"max":[0.833759765625,0.7373855590820313,1.5000001525878905]},{"bufferView":1,"componentType":5126,"count":577,"type":"VEC3"},{"bufferView":2,"componentType":5126,"count":577,"type":"VEC2"},{"bufferView":3,"componentType":5126,"count":577,"type":"VEC2"},{"bufferView":4,"componentType":5123,"count":1542,"type":"SCALAR"}],"bufferViews":[{"buffer":0,"byteOffset":0,"byteLength":6924},{"buffer":0,"byteOffset":6924,"byteLength":6924},{"buffer":0,"byteOffset":13848,"byteLength":4616},{"buffer":0,"byteOffset":18464,"byteLength":4616},{"buffer":0,"byteOffset":23080,"byteLength":3084}],"buffers":[{"byteLength":26164,"uri":"data:application/octet-stream;base64,"}]}
