{"asset":{"generator":"Khronos glTF Blender I/O v1.2.75","version":"2.0"},"scene":0,"scenes":[{"name":"Scene","nodes":[0]}],"nodes":[{"mesh":0,"name":"Mesh"}],"meshes":[{"name":"-1_-1_-1_default-material","primitives":[{"indices":4,"attributes":{"POSITION":0,"NORMAL":1,"TEXCOORD_0":2,"TEXCOORD_1":3},"mode":4}]}],"accessors":[{"bufferView":0,"componentType":5126,"count":7827,"type":"VEC3","min":[-0.5,-1,-7.464],"max":[6.0515,1,3.793]},{"bufferView":1,"componentType":5126,"count":7827,"type":"VEC3"},{"bufferView":2,"componentType":5126,"count":7827,"type":"VEC2"},{"bufferView":3,"componentType":5126,"count":7827,"type":"VEC2"},{"bufferView":4,"componentType":5123,"count":37860,"type":"SCALAR"}],"bufferViews":[{"buffer":0,"byteOffset":0,"byteLength":93924},{"buffer":0,"byteOffset":93924,"byteLength":93924},{"buffer":0,"byteOffset":187848,"byteLength":62616},{"buffer":0,"byteOffset":250464,"byteLength":62616},{"buffer":0,"byteOffset":313080,"byteLength":75720}],"buffers":[{"byteLength":388800,"uri":"data:application/octet-stream;base64,"}]}
