{"asset":{"generator":"Khronos glTF Blender I/O v1.2.75","version":"2.0"},"scene":0,"scenes":[{"name":"Scene","nodes":[0]}],"nodes":[{"mesh":0,"name":"Mesh"}],"meshes":[{"name":"SM_Vent02","primitives":[{"indices":5,"attributes":{"POSITION":0,"NORMAL":1,"COLOR_0":2,"TEXCOORD_0":3,"TEXCOORD_1":4},"mode":4}]}],"accessors":[{"bufferView":0,"componentType":5126,"count":256,"type":"VEC3","min":[-1.577388916015625,-0.0033313751220703123,-1.575916748046875],"max":[1.578563232421875,0.8636376953125,1.580035400390625]},{"bufferView":1,"componentType":5126,"count":256,"type":"VEC3"},{"bufferView":2,"componentType":5126,"count":256,"type":"VEC4"},{"bufferView":3,"componentType":5126,"count":256,"type":"VEC2"},{"bufferView":4,"componentType":5126,"count":256,"type":"VEC2"},{"bufferView":5,"componentType":5123,"count":804,"type":"SCALAR"}],"bufferViews":[{"buffer":0,"byteOffset":0,"byteLength":3072},{"buffer":0,"byteOffset":3072,"byteLength":3072},{"buffer":0,"byteOffset":6144,"byteLength":4096},{"buffer":0,"byteOffset":10240,"byteLength":2048},{"buffer":0,"byteOffset":12288,"byteLength":2048},{"buffer":0,"byteOffset":14336,"byteLength":1608}],"buffers":[{"byteLength":15944,"uri":"data:application/octet-stream;base64,"}]}
