{"asset":{"generator":"Khronos glTF Blender I/O v1.2.75","version":"2.0"},"scene":0,"scenes":[{"name":"Scene","nodes":[0]}],"nodes":[{"mesh":0,"name":"Mesh"}],"meshes":[{"name":"SM_LineCorn_red","primitives":[{"indices":4,"attributes":{"POSITION":0,"NORMAL":1,"TEXCOORD_0":2,"TEXCOORD_1":3},"mode":4}]}],"accessors":[{"bufferView":0,"componentType":5126,"count":56,"type":"VEC3","min":[-1,-0.14387598037719726,-1],"max":[2.0463630789890885e-14,0.14387598037719726,-2.2737367544323206e-15]},{"bufferView":1,"componentType":5126,"count":56,"type":"VEC3"},{"bufferView":2,"componentType":5126,"count":56,"type":"VEC2"},{"bufferView":3,"componentType":5126,"count":56,"type":"VEC2"},{"bufferView":4,"componentType":5123,"count":144,"type":"SCALAR"}],"bufferViews":[{"buffer":0,"byteOffset":0,"byteLength":672},{"buffer":0,"byteOffset":672,"byteLength":672},{"buffer":0,"byteOffset":1344,"byteLength":448},{"buffer":0,"byteOffset":1792,"byteLength":448},{"buffer":0,"byteOffset":2240,"byteLength":288}],"buffers":[{"byteLength":2528,"uri":"data:application/octet-stream;base64,"}]}
