{"asset":{"generator":"Khronos glTF Blender I/O v1.2.75","version":"2.0"},"scene":0,"scenes":[{"name":"Scene","nodes":[0]}],"nodes":[{"mesh":0,"name":"Mesh"}],"meshes":[{"name":"SM_AirConditioning_01","primitives":[{"indices":6,"attributes":{"POSITION":0,"NORMAL":1,"COLOR_0":2,"TEXCOORD_0":3,"TEXCOORD_1":4,"TANGENT":5},"mode":4}]}],"accessors":[{"bufferView":0,"componentType":5126,"count":2415,"type":"VEC3","min":[-0.6391258621215821,0.0018651199340820313,-0.8500265502929687],"max":[0.6436377716064453,2.9849234008789063,0.8502831268310547]},{"bufferView":1,"componentType":5126,"count":2415,"type":"VEC3"},{"bufferView":2,"componentType":5126,"count":2415,"type":"VEC4"},{"bufferView":3,"componentType":5126,"count":2415,"type":"VEC2"},{"bufferView":4,"componentType":5126,"count":2415,"type":"VEC2"},{"bufferView":5,"componentType":5126,"count":2415,"type":"VEC4"},{"bufferView":6,"componentType":5123,"count":6345,"type":"SCALAR"}],"bufferViews":[{"buffer":0,"byteOffset":0,"byteLength":28980},{"buffer":0,"byteOffset":28980,"byteLength":28980},{"buffer":0,"byteOffset":57960,"byteLength":38640},{"buffer":0,"byteOffset":96600,"byteLength":19320},{"buffer":0,"byteOffset":115920,"byteLength":19320},{"buffer":0,"byteOffset":135240,"byteLength":38640},{"buffer":0,"byteOffset":173880,"byteLength":12690}],"buffers":[{"byteLength":186570,"uri":"data:application/octet-stream;base64,"}]}
