{"asset":{"generator":"Khronos glTF Blender I/O v1.2.75","version":"2.0"},"scene":0,"scenes":[{"name":"Scene","nodes":[0]}],"nodes":[{"mesh":0,"name":"Mesh"}],"meshes":[{"name":"SM_AirConditioning_01","primitives":[{"indices":6,"attributes":{"POSITION":0,"NORMAL":1,"COLOR_0":2,"TEXCOORD_0":3,"TEXCOORD_1":4,"TANGENT":5},"mode":4}]}],"accessors":[{"bufferView":0,"componentType":5126,"count":734,"type":"VEC3","min":[-0.6391258621215821,0.0018651199340820313,-0.8500265502929687],"max":[0.6436377716064453,2.9849234008789063,0.8502831268310547]},{"bufferView":1,"componentType":5126,"count":734,"type":"VEC3"},{"bufferView":2,"componentType":5126,"count":734,"type":"VEC4"},{"bufferView":3,"componentType":5126,"count":734,"type":"VEC2"},{"bufferView":4,"componentType":5126,"count":734,"type":"VEC2"},{"bufferView":5,"componentType":5126,"count":734,"type":"VEC4"},{"bufferView":6,"componentType":5123,"count":1269,"type":"SCALAR"}],"bufferViews":[{"buffer":0,"byteOffset":0,"byteLength":8808},{"buffer":0,"byteOffset":8808,"byteLength":8808},{"buffer":0,"byteOffset":17616,"byteLength":11744},{"buffer":0,"byteOffset":29360,"byteLength":5872},{"buffer":0,"byteOffset":35232,"byteLength":5872},{"buffer":0,"byteOffset":41104,"byteLength":11744},{"buffer":0,"byteOffset":52848,"byteLength":2538}],"buffers":[{"byteLength":55386,"uri":"data:application/octet-stream;base64,"}]}
