{"asset":{"generator":"Khronos glTF Blender I/O v1.2.75","version":"2.0"},"scene":0,"scenes":[{"name":"Scene","nodes":[0]}],"nodes":[{"mesh":0,"name":"Mesh"}],"meshes":[{"name":"SM_BagsMerged02","primitives":[{"indices":4,"attributes":{"POSITION":0,"NORMAL":1,"TEXCOORD_0":2,"TEXCOORD_1":3},"mode":4}]}],"accessors":[{"bufferView":0,"componentType":5126,"count":799,"type":"VEC3","min":[-5.7109619140625,-0.25263759613037107,-1.3897216796875],"max":[0.9842527770996093,2.1052459716796874,3.3194918823242188]},{"bufferView":1,"componentType":5126,"count":799,"type":"VEC3"},{"bufferView":2,"componentType":5126,"count":799,"type":"VEC2"},{"bufferView":3,"componentType":5126,"count":799,"type":"VEC2"},{"bufferView":4,"componentType":5123,"count":2046,"type":"SCALAR"}],"bufferViews":[{"buffer":0,"byteOffset":0,"byteLength":9588},{"buffer":0,"byteOffset":9588,"byteLength":9588},{"buffer":0,"byteOffset":19176,"byteLength":6392},{"buffer":0,"byteOffset":25568,"byteLength":6392},{"buffer":0,"byteOffset":31960,"byteLength":4092}],"buffers":[{"byteLength":36052,"uri":"data:application/octet-stream;base64,"}]}
