{"asset":{"generator":"Khronos glTF Blender I/O v1.2.75","version":"2.0"},"scene":0,"scenes":[{"name":"Scene","nodes":[0]}],"nodes":[{"mesh":0,"name":"Mesh"}],"meshes":[{"name":"-1_-1_-1_M_Signboards01","primitives":[{"indices":4,"attributes":{"POSITION":0,"NORMAL":1,"TEXCOORD_0":2,"TEXCOORD_1":3},"mode":4}]}],"accessors":[{"bufferView":0,"componentType":5126,"count":2226,"type":"VEC3","min":[5.070826666591571,1.6298028922080992,1.870997705217341],"max":[2.4271726275076753,5.3903985118865965,1.492343394628684]},{"bufferView":1,"componentType":5126,"count":2226,"type":"VEC3"},{"bufferView":2,"componentType":5126,"count":2226,"type":"VEC2"},{"bufferView":3,"componentType":5126,"count":2226,"type":"VEC2"},{"bufferView":4,"componentType":5123,"count":5556,"type":"SCALAR"}],"bufferViews":[{"buffer":0,"byteOffset":0,"byteLength":26712},{"buffer":0,"byteOffset":26712,"byteLength":26712},{"buffer":0,"byteOffset":53424,"byteLength":17808},{"buffer":0,"byteOffset":71232,"byteLength":17808},{"buffer":0,"byteOffset":89040,"byteLength":11112}],"buffers":[{"byteLength":100152,"uri":"data:application/octet-stream;base64,"}]}
