{"asset":{"generator":"Khronos glTF Blender I/O v1.2.75","version":"2.0"},"scene":0,"scenes":[{"name":"Scene","nodes":[0]}],"nodes":[{"mesh":0,"name":"Mesh"}],"meshes":[{"name":"-1_-1_-1_BasicShapeMaterial","primitives":[{"indices":4,"attributes":{"POSITION":0,"NORMAL":1,"TEXCOORD_0":2,"TEXCOORD_1":3},"mode":4}]}],"accessors":[{"bufferView":0,"componentType":5126,"count":432,"type":"VEC3","min":[-7.522,-4.75,-16.305999999999997],"max":[13.366848797917623,4.75,13.251]},{"bufferView":1,"componentType":5126,"count":432,"type":"VEC3"},{"bufferView":2,"componentType":5126,"count":432,"type":"VEC2"},{"bufferView":3,"componentType":5126,"count":432,"type":"VEC2"},{"bufferView":4,"componentType":5123,"count":1152,"type":"SCALAR"}],"bufferViews":[{"buffer":0,"byteOffset":0,"byteLength":5184},{"buffer":0,"byteOffset":5184,"byteLength":5184},{"buffer":0,"byteOffset":10368,"byteLength":3456},{"buffer":0,"byteOffset":13824,"byteLength":3456},{"buffer":0,"byteOffset":17280,"byteLength":2304}],"buffers":[{"byteLength":19584,"uri":"data:application/octet-stream;base64,"}]}
