{"asset":{"generator":"Khronos glTF Blender I/O v1.2.75","version":"2.0"},"scene":0,"scenes":[{"name":"Scene","nodes":[0]}],"nodes":[{"mesh":0,"name":"Mesh"}],"meshes":[{"name":"SM_gun04","primitives":[{"indices":3,"attributes":{"POSITION":0,"NORMAL":1,"TEXCOORD_0":2},"mode":4}]}],"accessors":[{"bufferView":0,"componentType":5126,"count":4045,"type":"VEC3","min":[-0.25221904754638674,0.03424278259277344,-2.1008795166015624],"max":[0.25221904754638674,1.3401133728027343,2.0969622802734373]},{"bufferView":1,"componentType":5126,"count":4045,"type":"VEC3"},{"bufferView":2,"componentType":5126,"count":4045,"type":"VEC2"},{"bufferView":3,"componentType":5123,"count":11604,"type":"SCALAR"}],"bufferViews":[{"buffer":0,"byteOffset":0,"byteLength":48540},{"buffer":0,"byteOffset":48540,"byteLength":48540},{"buffer":0,"byteOffset":97080,"byteLength":32360},{"buffer":0,"byteOffset":129440,"byteLength":23208}],"buffers":[{"byteLength":152648,"uri":"data:application/octet-stream;base64,"}]}
