{"asset":{"generator":"Khronos glTF Blender I/O v1.2.75","version":"2.0"},"scene":0,"scenes":[{"name":"Scene","nodes":[0]}],"nodes":[{"mesh":0,"name":"Mesh"}],"meshes":[{"name":"SM_GroundCable02","primitives":[{"indices":4,"attributes":{"POSITION":0,"NORMAL":1,"TEXCOORD_0":2,"TEXCOORD_1":3},"mode":4}]}],"accessors":[{"bufferView":0,"componentType":5126,"count":287,"type":"VEC3","min":[-0.20018617630004884,-0.026547856330871582,-5.738975830078125],"max":[1.2483417510986328,0.09122799873352051,0.0073088139295578005]},{"bufferView":1,"componentType":5126,"count":287,"type":"VEC3"},{"bufferView":2,"componentType":5126,"count":287,"type":"VEC2"},{"bufferView":3,"componentType":5126,"count":287,"type":"VEC2"},{"bufferView":4,"componentType":5123,"count":1326,"type":"SCALAR"}],"bufferViews":[{"buffer":0,"byteOffset":0,"byteLength":3444},{"buffer":0,"byteOffset":3444,"byteLength":3444},{"buffer":0,"byteOffset":6888,"byteLength":2296},{"buffer":0,"byteOffset":9184,"byteLength":2296},{"buffer":0,"byteOffset":11480,"byteLength":2652}],"buffers":[{"byteLength":14132,"uri":"data:application/octet-stream;base64,"}]}
