{"asset":{"generator":"Khronos glTF Blender I/O v1.2.75","version":"2.0"},"scene":0,"scenes":[{"name":"Scene","nodes":[0]}],"nodes":[{"mesh":0,"name":"Mesh"}],"meshes":[{"name":"SM_PipeCorn_01","primitives":[{"indices":4,"attributes":{"POSITION":0,"NORMAL":1,"TEXCOORD_0":2,"TEXCOORD_1":3},"mode":4}]}],"accessors":[{"bufferView":0,"componentType":5126,"count":352,"type":"VEC3","min":[-6.103515625e-7,-0.1274256420135498,-0.127425537109375],"max":[0.627425537109375,0.127425594329834,0.5000004577636719]},{"bufferView":1,"componentType":5126,"count":352,"type":"VEC3"},{"bufferView":2,"componentType":5126,"count":352,"type":"VEC2"},{"bufferView":3,"componentType":5126,"count":352,"type":"VEC2"},{"bufferView":4,"componentType":5123,"count":1224,"type":"SCALAR"}],"bufferViews":[{"buffer":0,"byteOffset":0,"byteLength":4224},{"buffer":0,"byteOffset":4224,"byteLength":4224},{"buffer":0,"byteOffset":8448,"byteLength":2816},{"buffer":0,"byteOffset":11264,"byteLength":2816},{"buffer":0,"byteOffset":14080,"byteLength":2448}],"buffers":[{"byteLength":16528,"uri":"data:application/octet-stream;base64,"}]}
