{"asset":{"generator":"Khronos glTF Blender I/O v1.2.75","version":"2.0"},"scene":0,"scenes":[{"name":"Scene","nodes":[0]}],"nodes":[{"mesh":0,"name":"Mesh"}],"meshes":[{"name":"SM_PipeMerged03","primitives":[{"indices":4,"attributes":{"POSITION":0,"NORMAL":1,"TEXCOORD_0":2,"TEXCOORD_1":3},"mode":4}]}],"accessors":[{"bufferView":0,"componentType":5126,"count":2266,"type":"VEC3","min":[-0.17002304077148436,-1.0188037872314453,-0.16576381683349609],"max":[4.777395324707031,3.672374572753906,0.17285751342773437]},{"bufferView":1,"componentType":5126,"count":2266,"type":"VEC3"},{"bufferView":2,"componentType":5126,"count":2266,"type":"VEC2"},{"bufferView":3,"componentType":5126,"count":2266,"type":"VEC2"},{"bufferView":4,"componentType":5123,"count":6078,"type":"SCALAR"}],"bufferViews":[{"buffer":0,"byteOffset":0,"byteLength":27192},{"buffer":0,"byteOffset":27192,"byteLength":27192},{"buffer":0,"byteOffset":54384,"byteLength":18128},{"buffer":0,"byteOffset":72512,"byteLength":18128},{"buffer":0,"byteOffset":90640,"byteLength":12156}],"buffers":[{"byteLength":102796,"uri":"data:application/octet-stream;base64,"}]}
