{"asset":{"generator":"Khronos glTF Blender I/O v1.2.75","version":"2.0"},"scene":0,"scenes":[{"name":"Scene","nodes":[0]}],"nodes":[{"mesh":0,"name":"Mesh"}],"meshes":[{"name":"SM_PipeMerged03","primitives":[{"indices":4,"attributes":{"POSITION":0,"NORMAL":1,"TEXCOORD_0":2,"TEXCOORD_1":3},"mode":4}]}],"accessors":[{"bufferView":0,"componentType":5126,"count":728,"type":"VEC3","min":[-0.17002304077148436,-1.0188037872314453,-0.16576381683349609],"max":[4.777395324707031,3.672374572753906,0.17285751342773437]},{"bufferView":1,"componentType":5126,"count":728,"type":"VEC3"},{"bufferView":2,"componentType":5126,"count":728,"type":"VEC2"},{"bufferView":3,"componentType":5126,"count":728,"type":"VEC2"},{"bufferView":4,"componentType":5123,"count":1581,"type":"SCALAR"}],"bufferViews":[{"buffer":0,"byteOffset":0,"byteLength":8736},{"buffer":0,"byteOffset":8736,"byteLength":8736},{"buffer":0,"byteOffset":17472,"byteLength":5824},{"buffer":0,"byteOffset":23296,"byteLength":5824},{"buffer":0,"byteOffset":29120,"byteLength":3162}],"buffers":[{"byteLength":32282,"uri":"data:application/octet-stream;base64,"}]}
