{
    "asset" : {
        "generator" : "Khronos glTF Blender I/O v3.5.5",
        "version" : "2.0"
    },
    "scene" : 0,
    "scenes" : [
        {
            "name" : "Scene",
            "nodes" : [
                0
            ]
        }
    ],
    "nodes" : [
        {
            "mesh" : 0,
            "name" : "sci_fi_medkit"
        }
    ],
    "materials" : [
        {
            "doubleSided" : true,
            "name" : "mat_sci_fi_medkit",
            "pbrMetallicRoughness" : {
                "baseColorTexture" : {
                    "index" : 0
                },
                "metallicRoughnessTexture" : {
                    "index" : 1
                }
            }
        }
    ],
    "meshes" : [
        {
            "name" : "mesh_sci_fi_medkit",
            "primitives" : [
                {
                    "attributes" : {
                        "POSITION" : 0,
                        "TEXCOORD_0" : 1,
                        "TEXCOORD_1" : 2,
                        "NORMAL" : 3
                    },
                    "indices" : 4,
                    "material" : 0
                }
            ]
        }
    ],
    "textures" : [
        {
            "sampler" : 0,
            "source" : 0
        },
        {
            "sampler" : 0,
            "source" : 1
        }
    ],
    "images" : [
        {
            "mimeType" : "image/png",
            "name" : "diffuse_baseColor",
            "uri" : "diffuse_baseColor.png"
        },
        {
            "mimeType" : "image/png",
            "name" : "diffuse_metallicRoughness",
            "uri" : "diffuse_metallicRoughness.png"
        }
    ],
    "accessors" : [
        {
            "bufferView" : 0,
            "componentType" : 5126,
            "count" : 23550,
            "max" : [
                0.25,
                0.022494077682495117,
                0.25057321786880493
            ],
            "min" : [
                -0.25,
                -0.5001174211502075,
                -0.25057321786880493
            ],
            "type" : "VEC3"
        },
        {
            "bufferView" : 1,
            "componentType" : 5126,
            "count" : 23550,
            "type" : "VEC2"
        },
        {
            "bufferView" : 2,
            "componentType" : 5126,
            "count" : 23550,
            "type" : "VEC2"
        },
        {
            "bufferView" : 3,
            "componentType" : 5126,
            "count" : 23550,
            "type" : "VEC3"
        },
        {
            "bufferView" : 4,
            "componentType" : 5123,
            "count" : 79644,
            "type" : "SCALAR"
        }
    ],
    "bufferViews" : [
        {
            "buffer" : 0,
            "byteLength" : 282600,
            "byteOffset" : 0,
            "target" : 34962
        },
        {
            "buffer" : 0,
            "byteLength" : 188400,
            "byteOffset" : 282600,
            "target" : 34962
        },
        {
            "buffer" : 0,
            "byteLength" : 188400,
            "byteOffset" : 471000,
            "target" : 34962
        },
        {
            "buffer" : 0,
            "byteLength" : 282600,
            "byteOffset" : 659400,
            "target" : 34962
        },
        {
            "buffer" : 0,
            "byteLength" : 159288,
            "byteOffset" : 942000,
            "target" : 34963
        }
    ],
    "samplers" : [
        {
            "magFilter" : 9729,
            "minFilter" : 9987
        }
    ],
    "buffers" : [
        {
            "byteLength" : 1101288,
            "uri" : "sci_fi_medkit.bin"
        }
    ]
}
