{"asset":{"generator":"Khronos glTF Blender I/O v1.2.75","version":"2.0"},"scene":0,"scenes":[{"name":"Scene","nodes":[0]}],"nodes":[{"mesh":0,"name":"Mesh"}],"meshes":[{"name":"Play_Signboard_01","primitives":[{"indices":5,"attributes":{"POSITION":0,"NORMAL":1,"TEXCOORD_0":2,"TEXCOORD_1":3,"TANGENT":4},"mode":4}]}],"accessors":[{"bufferView":0,"componentType":5126,"count":4598,"type":"VEC3","min":[-0.8347013092041016,-0.47978557586669923,-1.3625308383780066e-7],"max":[0.843128433227539,0.5581985473632812,0.09800275802612304]},{"bufferView":1,"componentType":5126,"count":4598,"type":"VEC3"},{"bufferView":2,"componentType":5126,"count":4598,"type":"VEC2"},{"bufferView":3,"componentType":5126,"count":4598,"type":"VEC2"},{"bufferView":4,"componentType":5126,"count":4598,"type":"VEC4"},{"bufferView":5,"componentType":5123,"count":19938,"type":"SCALAR"}],"bufferViews":[{"buffer":0,"byteOffset":0,"byteLength":55176},{"buffer":0,"byteOffset":55176,"byteLength":55176},{"buffer":0,"byteOffset":110352,"byteLength":36784},{"buffer":0,"byteOffset":147136,"byteLength":36784},{"buffer":0,"byteOffset":183920,"byteLength":73568},{"buffer":0,"byteOffset":257488,"byteLength":39876}],"buffers":[{"byteLength":297364,"uri":"data:application/octet-stream;base64,"}]}
