{"asset":{"generator":"Khronos glTF Blender I/O v1.2.75","version":"2.0"},"scene":0,"scenes":[{"name":"Scene","nodes":[0]}],"nodes":[{"mesh":0,"name":"Mesh"}],"meshes":[{"name":"SM_PipeMerged07","primitives":[{"indices":4,"attributes":{"POSITION":0,"NORMAL":1,"TEXCOORD_0":2,"TEXCOORD_1":3},"mode":4}]}],"accessors":[{"bufferView":0,"componentType":5126,"count":8075,"type":"VEC3","min":[-5.2301513671875,-1.0035464477539062,-0.5023871612548828],"max":[4.247540588378906,4.619362182617188,0.42380294799804685]},{"bufferView":1,"componentType":5126,"count":8075,"type":"VEC3"},{"bufferView":2,"componentType":5126,"count":8075,"type":"VEC2"},{"bufferView":3,"componentType":5126,"count":8075,"type":"VEC2"},{"bufferView":4,"componentType":5123,"count":21762,"type":"SCALAR"}],"bufferViews":[{"buffer":0,"byteOffset":0,"byteLength":96900},{"buffer":0,"byteOffset":96900,"byteLength":96900},{"buffer":0,"byteOffset":193800,"byteLength":64600},{"buffer":0,"byteOffset":258400,"byteLength":64600},{"buffer":0,"byteOffset":323000,"byteLength":43524}],"buffers":[{"byteLength":366524,"uri":"data:application/octet-stream;base64,"}]}
