{"asset":{"generator":"Khronos glTF Blender I/O v1.2.75","version":"2.0"},"scene":0,"scenes":[{"name":"Scene","nodes":[0]}],"nodes":[{"mesh":0,"name":"Mesh"}],"meshes":[{"name":"SM_PipeGroup07","primitives":[{"indices":4,"attributes":{"POSITION":0,"NORMAL":1,"TEXCOORD_0":2,"TEXCOORD_1":3},"mode":4}]}],"accessors":[{"bufferView":0,"componentType":5126,"count":14744,"type":"VEC3","min":[-1.7005078125,-15.605924072265625,-0.560366325378418],"max":[11.897186279296875,10.54,8.851484985351563]},{"bufferView":1,"componentType":5126,"count":14744,"type":"VEC3"},{"bufferView":2,"componentType":5126,"count":14744,"type":"VEC2"},{"bufferView":3,"componentType":5126,"count":14744,"type":"VEC2"},{"bufferView":4,"componentType":5123,"count":33816,"type":"SCALAR"}],"bufferViews":[{"buffer":0,"byteOffset":0,"byteLength":176928},{"buffer":0,"byteOffset":176928,"byteLength":176928},{"buffer":0,"byteOffset":353856,"byteLength":117952},{"buffer":0,"byteOffset":471808,"byteLength":117952},{"buffer":0,"byteOffset":589760,"byteLength":67632}],"buffers":[{"byteLength":657392,"uri":"data:application/octet-stream;base64,"}]}
