{"asset":{"generator":"Khronos glTF Blender I/O v1.2.75","version":"2.0"},"scene":0,"scenes":[{"name":"Scene","nodes":[0]}],"nodes":[{"mesh":0,"name":"Mesh"}],"meshes":[{"name":"SM_PipeGroup18","primitives":[{"indices":4,"attributes":{"POSITION":0,"NORMAL":1,"TEXCOORD_0":2,"TEXCOORD_1":3},"mode":4}]}],"accessors":[{"bufferView":0,"componentType":5126,"count":1499,"type":"VEC3","min":[-1.739654541015625,-0.4635482406616211,-1.2754608917236328],"max":[11.824794921875,0.4469519805908203,17.9265673828125]},{"bufferView":1,"componentType":5126,"count":1499,"type":"VEC3"},{"bufferView":2,"componentType":5126,"count":1499,"type":"VEC2"},{"bufferView":3,"componentType":5126,"count":1499,"type":"VEC2"},{"bufferView":4,"componentType":5123,"count":4203,"type":"SCALAR"}],"bufferViews":[{"buffer":0,"byteOffset":0,"byteLength":17988},{"buffer":0,"byteOffset":17988,"byteLength":17988},{"buffer":0,"byteOffset":35976,"byteLength":11992},{"buffer":0,"byteOffset":47968,"byteLength":11992},{"buffer":0,"byteOffset":59960,"byteLength":8406}],"buffers":[{"byteLength":68366,"uri":"data:application/octet-stream;base64,"}]}
