{"asset":{"generator":"Khronos glTF Blender I/O v1.2.75","version":"2.0"},"scene":0,"scenes":[{"name":"Scene","nodes":[0]}],"nodes":[{"mesh":0,"name":"Mesh"}],"meshes":[{"name":"0_0_0_default-material","primitives":[{"indices":4,"attributes":{"POSITION":0,"NORMAL":1,"TEXCOORD_0":2,"TEXCOORD_1":3},"mode":4}]}],"accessors":[{"bufferView":0,"componentType":5126,"count":3939,"type":"VEC3","min":[-15,-15,-15],"max":[15,15,15]},{"bufferView":1,"componentType":5126,"count":3939,"type":"VEC3"},{"bufferView":2,"componentType":5126,"count":3939,"type":"VEC2"},{"bufferView":3,"componentType":5126,"count":3939,"type":"VEC2"},{"bufferView":4,"componentType":5123,"count":18432,"type":"SCALAR"}],"bufferViews":[{"buffer":0,"byteOffset":0,"byteLength":47268},{"buffer":0,"byteOffset":47268,"byteLength":47268},{"buffer":0,"byteOffset":94536,"byteLength":31512},{"buffer":0,"byteOffset":126048,"byteLength":31512},{"buffer":0,"byteOffset":157560,"byteLength":36864}],"buffers":[{"byteLength":194424,"uri":"data:application/octet-stream;base64,"}]}
