{"asset":{"generator":"Khronos glTF Blender I/O v1.2.75","version":"2.0"},"scene":0,"scenes":[{"name":"Scene","nodes":[0]}],"nodes":[{"mesh":0,"name":"Mesh"}],"meshes":[{"name":"SM_PipeGroup19","primitives":[{"indices":4,"attributes":{"POSITION":0,"NORMAL":1,"TEXCOORD_0":2,"TEXCOORD_1":3},"mode":4}]}],"accessors":[{"bufferView":0,"componentType":5126,"count":473,"type":"VEC3","min":[-0.42644535064697264,-0.46700641632080075,-7.304756469726563],"max":[22.897734375,0.5104415130615234,1.7853932189941406]},{"bufferView":1,"componentType":5126,"count":473,"type":"VEC3"},{"bufferView":2,"componentType":5126,"count":473,"type":"VEC2"},{"bufferView":3,"componentType":5126,"count":473,"type":"VEC2"},{"bufferView":4,"componentType":5123,"count":927,"type":"SCALAR"}],"bufferViews":[{"buffer":0,"byteOffset":0,"byteLength":5676},{"buffer":0,"byteOffset":5676,"byteLength":5676},{"buffer":0,"byteOffset":11352,"byteLength":3784},{"buffer":0,"byteOffset":15136,"byteLength":3784},{"buffer":0,"byteOffset":18920,"byteLength":1854}],"buffers":[{"byteLength":20774,"uri":"data:application/octet-stream;base64,"}]}
