{"asset":{"generator":"Khronos glTF Blender I/O v1.2.75","version":"2.0"},"scene":0,"scenes":[{"name":"Scene","nodes":[0]}],"nodes":[{"mesh":0,"name":"Mesh"}],"meshes":[{"name":"HotelChina01","primitives":[{"indices":4,"attributes":{"POSITION":0,"NORMAL":1,"TEXCOORD_0":2,"TEXCOORD_1":3},"mode":4}]}],"accessors":[{"bufferView":0,"componentType":5126,"count":2024,"type":"VEC3","min":[-0.7119375610351563,-1.0319142150878906,-0.08996373176574707],"max":[0,1.0319142150878906,0.11449165344238281]},{"bufferView":1,"componentType":5126,"count":2024,"type":"VEC3"},{"bufferView":2,"componentType":5126,"count":2024,"type":"VEC2"},{"bufferView":3,"componentType":5126,"count":2024,"type":"VEC2"},{"bufferView":4,"componentType":5123,"count":3726,"type":"SCALAR"}],"bufferViews":[{"buffer":0,"byteOffset":0,"byteLength":24288},{"buffer":0,"byteOffset":24288,"byteLength":24288},{"buffer":0,"byteOffset":48576,"byteLength":16192},{"buffer":0,"byteOffset":64768,"byteLength":16192},{"buffer":0,"byteOffset":80960,"byteLength":7452}],"buffers":[{"byteLength":88412,"uri":"data:application/octet-stream;base64,"}]}
