{"asset":{"generator":"Khronos glTF Blender I/O v1.2.75","version":"2.0"},"scene":0,"scenes":[{"name":"Scene","nodes":[0]}],"nodes":[{"mesh":0,"name":"Mesh"}],"meshes":[{"name":"SM_PipeGroup22","primitives":[{"indices":4,"attributes":{"POSITION":0,"NORMAL":1,"TEXCOORD_0":2,"TEXCOORD_1":3},"mode":4}]}],"accessors":[{"bufferView":0,"componentType":5126,"count":5713,"type":"VEC3","min":[-0.43353034973144533,-1.0154593658447266,-3.7330673217773436],"max":[0.39290714263916016,2.092726135253906,0.1600579833984375]},{"bufferView":1,"componentType":5126,"count":5713,"type":"VEC3"},{"bufferView":2,"componentType":5126,"count":5713,"type":"VEC2"},{"bufferView":3,"componentType":5126,"count":5713,"type":"VEC2"},{"bufferView":4,"componentType":5123,"count":17748,"type":"SCALAR"}],"bufferViews":[{"buffer":0,"byteOffset":0,"byteLength":68556},{"buffer":0,"byteOffset":68556,"byteLength":68556},{"buffer":0,"byteOffset":137112,"byteLength":45704},{"buffer":0,"byteOffset":182816,"byteLength":45704},{"buffer":0,"byteOffset":228520,"byteLength":35496}],"buffers":[{"byteLength":264016,"uri":"data:application/octet-stream;base64,"}]}
