{"asset":{"generator":"Khronos glTF Blender I/O v1.2.75","version":"2.0"},"scene":0,"scenes":[{"name":"Scene","nodes":[0]}],"nodes":[{"mesh":0,"name":"Mesh"}],"meshes":[{"name":"SM_Stair_04","primitives":[{"indices":5,"attributes":{"POSITION":0,"NORMAL":1,"COLOR_0":2,"TEXCOORD_0":3,"TEXCOORD_1":4},"mode":4}]}],"accessors":[{"bufferView":0,"componentType":5126,"count":4127,"type":"VEC3","min":[-0.0011097140610218047,-1.6900419586135508e-18,-0.09436995506286622],"max":[3.246681823730469,3.3351266479492185,2.0264434814453125]},{"bufferView":1,"componentType":5126,"count":4127,"type":"VEC3"},{"bufferView":2,"componentType":5126,"count":4127,"type":"VEC4"},{"bufferView":3,"componentType":5126,"count":4127,"type":"VEC2"},{"bufferView":4,"componentType":5126,"count":4127,"type":"VEC2"},{"bufferView":5,"componentType":5123,"count":13404,"type":"SCALAR"}],"bufferViews":[{"buffer":0,"byteOffset":0,"byteLength":49524},{"buffer":0,"byteOffset":49524,"byteLength":49524},{"buffer":0,"byteOffset":99048,"byteLength":66032},{"buffer":0,"byteOffset":165080,"byteLength":33016},{"buffer":0,"byteOffset":198096,"byteLength":33016},{"buffer":0,"byteOffset":231112,"byteLength":26808}],"buffers":[{"byteLength":257920,"uri":"data:application/octet-stream;base64,"}]}
