{"asset":{"generator":"Khronos glTF Blender I/O v1.2.75","version":"2.0"},"scene":0,"scenes":[{"name":"Scene","nodes":[0]}],"nodes":[{"mesh":0,"name":"Mesh"}],"meshes":[{"name":"SM_PaperBox_01_04","primitives":[{"indices":5,"attributes":{"POSITION":0,"NORMAL":1,"COLOR_0":2,"TEXCOORD_0":3,"TEXCOORD_1":4},"mode":4}]}],"accessors":[{"bufferView":0,"componentType":5126,"count":220,"type":"VEC3","min":[-0.3036305236816406,-0.06111830711364746,-0.4397857666015625],"max":[0.31338918685913086,0.7434977722167969,0.5097773742675781]},{"bufferView":1,"componentType":5126,"count":220,"type":"VEC3"},{"bufferView":2,"componentType":5126,"count":220,"type":"VEC4"},{"bufferView":3,"componentType":5126,"count":220,"type":"VEC2"},{"bufferView":4,"componentType":5126,"count":220,"type":"VEC2"},{"bufferView":5,"componentType":5123,"count":222,"type":"SCALAR"}],"bufferViews":[{"buffer":0,"byteOffset":0,"byteLength":2640},{"buffer":0,"byteOffset":2640,"byteLength":2640},{"buffer":0,"byteOffset":5280,"byteLength":3520},{"buffer":0,"byteOffset":8800,"byteLength":1760},{"buffer":0,"byteOffset":10560,"byteLength":1760},{"buffer":0,"byteOffset":12320,"byteLength":444}],"buffers":[{"byteLength":12764,"uri":"data:application/octet-stream;base64,"}]}
