{"asset":{"generator":"Khronos glTF Blender I/O v1.2.75","version":"2.0"},"scene":0,"scenes":[{"name":"Scene","nodes":[0]}],"nodes":[{"mesh":0,"name":"Mesh"}],"meshes":[{"name":"SM_BackgroundBuilding02","primitives":[{"indices":4,"attributes":{"POSITION":0,"NORMAL":1,"TEXCOORD_0":2,"TEXCOORD_1":3},"mode":4}]}],"accessors":[{"bufferView":0,"componentType":5126,"count":391,"type":"VEC3","min":[-10.016139526367187,-6.103515625e-7,-10.365648193359375],"max":[10.012122802734375,50.322236328125,10.36644775390625]},{"bufferView":1,"componentType":5126,"count":391,"type":"VEC3"},{"bufferView":2,"componentType":5126,"count":391,"type":"VEC2"},{"bufferView":3,"componentType":5126,"count":391,"type":"VEC2"},{"bufferView":4,"componentType":5123,"count":816,"type":"SCALAR"}],"bufferViews":[{"buffer":0,"byteOffset":0,"byteLength":4692},{"buffer":0,"byteOffset":4692,"byteLength":4692},{"buffer":0,"byteOffset":9384,"byteLength":3128},{"buffer":0,"byteOffset":12512,"byteLength":3128},{"buffer":0,"byteOffset":15640,"byteLength":1632}],"buffers":[{"byteLength":17272,"uri":"data:application/octet-stream;base64,"}]}
