{"asset":{"generator":"Khronos glTF Blender I/O v1.2.75","version":"2.0"},"scene":0,"scenes":[{"name":"Scene","nodes":[0]}],"nodes":[{"mesh":0,"name":"Mesh"}],"meshes":[{"name":"SM_PipeGroup09","primitives":[{"indices":4,"attributes":{"POSITION":0,"NORMAL":1,"TEXCOORD_0":2,"TEXCOORD_1":3},"mode":4}]}],"accessors":[{"bufferView":0,"componentType":5126,"count":4865,"type":"VEC3","min":[-1.4346939086914063,-3.6262307739257813,-11.380234375],"max":[4.233318176269531,1.307630615234375,0.19272750854492188]},{"bufferView":1,"componentType":5126,"count":4865,"type":"VEC3"},{"bufferView":2,"componentType":5126,"count":4865,"type":"VEC2"},{"bufferView":3,"componentType":5126,"count":4865,"type":"VEC2"},{"bufferView":4,"componentType":5123,"count":12144,"type":"SCALAR"}],"bufferViews":[{"buffer":0,"byteOffset":0,"byteLength":58380},{"buffer":0,"byteOffset":58380,"byteLength":58380},{"buffer":0,"byteOffset":116760,"byteLength":38920},{"buffer":0,"byteOffset":155680,"byteLength":38920},{"buffer":0,"byteOffset":194600,"byteLength":24288}],"buffers":[{"byteLength":218888,"uri":"data:application/octet-stream;base64,"}]}
