{"asset":{"generator":"Khronos glTF Blender I/O v1.2.75","version":"2.0"},"scene":0,"scenes":[{"name":"Scene","nodes":[0]}],"nodes":[{"mesh":0,"name":"Mesh"}],"meshes":[{"name":"SM_car","primitives":[{"indices":4,"attributes":{"POSITION":0,"NORMAL":1,"TEXCOORD_0":2,"TEXCOORD_1":3},"mode":4}]}],"accessors":[{"bufferView":0,"componentType":5126,"count":6476,"type":"VEC3","min":[-1.9381735229492187,-0.06496016502380371,-1.606115264892578],"max":[1.7917132568359375,0.9272329711914062,1.6061151123046875]},{"bufferView":1,"componentType":5126,"count":6476,"type":"VEC3"},{"bufferView":2,"componentType":5126,"count":6476,"type":"VEC2"},{"bufferView":3,"componentType":5126,"count":6476,"type":"VEC2"},{"bufferView":4,"componentType":5123,"count":15474,"type":"SCALAR"}],"bufferViews":[{"buffer":0,"byteOffset":0,"byteLength":77712},{"buffer":0,"byteOffset":77712,"byteLength":77712},{"buffer":0,"byteOffset":155424,"byteLength":51808},{"buffer":0,"byteOffset":207232,"byteLength":51808},{"buffer":0,"byteOffset":259040,"byteLength":30948}],"buffers":[{"byteLength":289988,"uri":"data:application/octet-stream;base64,"}]}
