{"asset":{"generator":"Khronos glTF Blender I/O v1.2.75","version":"2.0"},"scene":0,"scenes":[{"name":"Scene","nodes":[0]}],"nodes":[{"mesh":0,"name":"Mesh"}],"meshes":[{"name":"SM_Pipe02","primitives":[{"indices":4,"attributes":{"POSITION":0,"NORMAL":1,"TEXCOORD_0":2,"TEXCOORD_1":3},"mode":4}]}],"accessors":[{"bufferView":0,"componentType":5126,"count":241,"type":"VEC3","min":[-0.4174687576293945,-1.2361078643798828,-0.43017662048339844],"max":[0.3989254379272461,0.4147742462158203,1.2382671356201171]},{"bufferView":1,"componentType":5126,"count":241,"type":"VEC3"},{"bufferView":2,"componentType":5126,"count":241,"type":"VEC2"},{"bufferView":3,"componentType":5126,"count":241,"type":"VEC2"},{"bufferView":4,"componentType":5123,"count":792,"type":"SCALAR"}],"bufferViews":[{"buffer":0,"byteOffset":0,"byteLength":2892},{"buffer":0,"byteOffset":2892,"byteLength":2892},{"buffer":0,"byteOffset":5784,"byteLength":1928},{"buffer":0,"byteOffset":7712,"byteLength":1928},{"buffer":0,"byteOffset":9640,"byteLength":1584}],"buffers":[{"byteLength":11224,"uri":"data:application/octet-stream;base64,"}]}
