{"asset":{"generator":"Khronos glTF Blender I/O v1.2.75","version":"2.0"},"scene":0,"scenes":[{"name":"Scene","nodes":[0]}],"nodes":[{"mesh":0,"name":"Mesh"}],"meshes":[{"name":"SM_MetalBeam03","primitives":[{"indices":5,"attributes":{"POSITION":0,"NORMAL":1,"COLOR_0":2,"TEXCOORD_0":3,"TEXCOORD_1":4},"mode":4}]}],"accessors":[{"bufferView":0,"componentType":5126,"count":2540,"type":"VEC3","min":[-0.9770977783203125,0,-1.124549331665039],"max":[0.9755292510986329,8.960764770507813,1.1111335754394531]},{"bufferView":1,"componentType":5126,"count":2540,"type":"VEC3"},{"bufferView":2,"componentType":5126,"count":2540,"type":"VEC4"},{"bufferView":3,"componentType":5126,"count":2540,"type":"VEC2"},{"bufferView":4,"componentType":5126,"count":2540,"type":"VEC2"},{"bufferView":5,"componentType":5123,"count":8106,"type":"SCALAR"}],"bufferViews":[{"buffer":0,"byteOffset":0,"byteLength":30480},{"buffer":0,"byteOffset":30480,"byteLength":30480},{"buffer":0,"byteOffset":60960,"byteLength":40640},{"buffer":0,"byteOffset":101600,"byteLength":20320},{"buffer":0,"byteOffset":121920,"byteLength":20320},{"buffer":0,"byteOffset":142240,"byteLength":16212}],"buffers":[{"byteLength":158452,"uri":"data:application/octet-stream;base64,"}]}
