{"asset":{"generator":"Khronos glTF Blender I/O v1.2.75","version":"2.0"},"scene":0,"scenes":[{"name":"Scene","nodes":[0]}],"nodes":[{"mesh":0,"name":"Mesh"}],"meshes":[{"name":"SM_WaterTower01","primitives":[{"indices":4,"attributes":{"POSITION":0,"NORMAL":1,"TEXCOORD_0":2,"TEXCOORD_1":3},"mode":4}]}],"accessors":[{"bufferView":0,"componentType":5126,"count":1006,"type":"VEC3","min":[-1.2594597625732422,-0.1116337776184082,-1.2595597076416016],"max":[1.2594597625732422,6.979829711914062,1.2594599151611328]},{"bufferView":1,"componentType":5126,"count":1006,"type":"VEC3"},{"bufferView":2,"componentType":5126,"count":1006,"type":"VEC2"},{"bufferView":3,"componentType":5126,"count":1006,"type":"VEC2"},{"bufferView":4,"componentType":5123,"count":1665,"type":"SCALAR"}],"bufferViews":[{"buffer":0,"byteOffset":0,"byteLength":12072},{"buffer":0,"byteOffset":12072,"byteLength":12072},{"buffer":0,"byteOffset":24144,"byteLength":8048},{"buffer":0,"byteOffset":32192,"byteLength":8048},{"buffer":0,"byteOffset":40240,"byteLength":3330}],"buffers":[{"byteLength":43570,"uri":"data:application/octet-stream;base64,"}]}
