{"asset":{"generator":"Khronos glTF Blender I/O v1.2.75","version":"2.0"},"scene":0,"scenes":[{"name":"Scene","nodes":[0]}],"nodes":[{"mesh":0,"name":"Mesh"}],"meshes":[{"name":"SM_Stair_05","primitives":[{"indices":5,"attributes":{"POSITION":0,"NORMAL":1,"COLOR_0":2,"TEXCOORD_0":3,"TEXCOORD_1":4},"mode":4}]}],"accessors":[{"bufferView":0,"componentType":5126,"count":6730,"type":"VEC3","min":[-7.365259399414063,-9.343313999825804e-24,-2.028942108154297],"max":[0.1125787353515625,6.764141235351563,2.2214715576171873]},{"bufferView":1,"componentType":5126,"count":6730,"type":"VEC3"},{"bufferView":2,"componentType":5126,"count":6730,"type":"VEC4"},{"bufferView":3,"componentType":5126,"count":6730,"type":"VEC2"},{"bufferView":4,"componentType":5126,"count":6730,"type":"VEC2"},{"bufferView":5,"componentType":5123,"count":14499,"type":"SCALAR"}],"bufferViews":[{"buffer":0,"byteOffset":0,"byteLength":80760},{"buffer":0,"byteOffset":80760,"byteLength":80760},{"buffer":0,"byteOffset":161520,"byteLength":107680},{"buffer":0,"byteOffset":269200,"byteLength":53840},{"buffer":0,"byteOffset":323040,"byteLength":53840},{"buffer":0,"byteOffset":376880,"byteLength":28998}],"buffers":[{"byteLength":405878,"uri":"data:application/octet-stream;base64,"}]}
