{"asset":{"generator":"Khronos glTF Blender I/O v1.2.75","version":"2.0"},"scene":0,"scenes":[{"name":"Scene","nodes":[0]}],"nodes":[{"mesh":0,"name":"Mesh"}],"meshes":[{"name":"SM_Stair_05","primitives":[{"indices":5,"attributes":{"POSITION":0,"NORMAL":1,"COLOR_0":2,"TEXCOORD_0":3,"TEXCOORD_1":4},"mode":4}]}],"accessors":[{"bufferView":0,"componentType":5126,"count":22004,"type":"VEC3","min":[-7.365259399414063,-9.343313999825804e-24,-2.028942108154297],"max":[0.1125787353515625,6.764141235351563,2.2214715576171873]},{"bufferView":1,"componentType":5126,"count":22004,"type":"VEC3"},{"bufferView":2,"componentType":5126,"count":22004,"type":"VEC4"},{"bufferView":3,"componentType":5126,"count":22004,"type":"VEC2"},{"bufferView":4,"componentType":5126,"count":22004,"type":"VEC2"},{"bufferView":5,"componentType":5123,"count":72510,"type":"SCALAR"}],"bufferViews":[{"buffer":0,"byteOffset":0,"byteLength":264048},{"buffer":0,"byteOffset":264048,"byteLength":264048},{"buffer":0,"byteOffset":528096,"byteLength":352064},{"buffer":0,"byteOffset":880160,"byteLength":176032},{"buffer":0,"byteOffset":1056192,"byteLength":176032},{"buffer":0,"byteOffset":1232224,"byteLength":145020}],"buffers":[{"byteLength":1377244,"uri":"data:application/octet-stream;base64,"}]}
