{"asset":{"generator":"Khronos glTF Blender I/O v1.2.75","version":"2.0"},"scene":0,"scenes":[{"name":"Scene","nodes":[0]}],"nodes":[{"mesh":0,"name":"Mesh"}],"meshes":[{"name":"occ_merge_logo","primitives":[{"indices":3,"attributes":{"POSITION":0,"NORMAL":1,"TEXCOORD_0":2},"mode":4}]}],"accessors":[{"bufferView":0,"componentType":5126,"count":61315,"type":"VEC3","min":[-0.6564227294921875,-0.058315825462341306,-0.029433832168579102],"max":[0.67258056640625,0.25413654327392576,-0.0013144329190254212]},{"bufferView":1,"componentType":5126,"count":61315,"type":"VEC3"},{"bufferView":2,"componentType":5126,"count":61315,"type":"VEC2"},{"bufferView":3,"componentType":5123,"count":313350,"type":"SCALAR"}],"bufferViews":[{"buffer":0,"byteOffset":0,"byteLength":735780},{"buffer":0,"byteOffset":735780,"byteLength":735780},{"buffer":0,"byteOffset":1471560,"byteLength":490520},{"buffer":0,"byteOffset":1962080,"byteLength":626700}],"buffers":[{"byteLength":2588780,"uri":"data:application/octet-stream;base64,"}]}
