{"asset":{"generator":"Khronos glTF Blender I/O v1.2.75","version":"2.0"},"scene":0,"scenes":[{"name":"Scene","nodes":[0]}],"nodes":[{"mesh":0,"name":"Mesh"}],"meshes":[{"name":"SM_PipeGroup27","primitives":[{"indices":4,"attributes":{"POSITION":0,"NORMAL":1,"TEXCOORD_0":2,"TEXCOORD_1":3},"mode":4}]}],"accessors":[{"bufferView":0,"componentType":5126,"count":4709,"type":"VEC3","min":[-4.800651550292969,-12.25516845703125,-7.57994384765625],"max":[2.4530372619628906,5.04001953125,1.7003871154785157]},{"bufferView":1,"componentType":5126,"count":4709,"type":"VEC3"},{"bufferView":2,"componentType":5126,"count":4709,"type":"VEC2"},{"bufferView":3,"componentType":5126,"count":4709,"type":"VEC2"},{"bufferView":4,"componentType":5123,"count":8019,"type":"SCALAR"}],"bufferViews":[{"buffer":0,"byteOffset":0,"byteLength":56508},{"buffer":0,"byteOffset":56508,"byteLength":56508},{"buffer":0,"byteOffset":113016,"byteLength":37672},{"buffer":0,"byteOffset":150688,"byteLength":37672},{"buffer":0,"byteOffset":188360,"byteLength":16038}],"buffers":[{"byteLength":204398,"uri":"data:application/octet-stream;base64,"}]}
