{"asset":{"generator":"Khronos glTF Blender I/O v1.2.75","version":"2.0"},"scene":0,"scenes":[{"name":"Scene","nodes":[0]}],"nodes":[{"mesh":0,"name":"Mesh"}],"meshes":[{"name":"SM_GarbageBag04","primitives":[{"indices":4,"attributes":{"POSITION":0,"NORMAL":1,"TEXCOORD_0":2,"TEXCOORD_1":3},"mode":4}]}],"accessors":[{"bufferView":0,"componentType":5126,"count":4370,"type":"VEC3","min":[-0.4881563568115234,-0.03324986219406128,-0.5726161193847656],"max":[0.48565547943115234,1.221902084350586,0.561114501953125]},{"bufferView":1,"componentType":5126,"count":4370,"type":"VEC3"},{"bufferView":2,"componentType":5126,"count":4370,"type":"VEC2"},{"bufferView":3,"componentType":5126,"count":4370,"type":"VEC2"},{"bufferView":4,"componentType":5123,"count":24480,"type":"SCALAR"}],"bufferViews":[{"buffer":0,"byteOffset":0,"byteLength":52440},{"buffer":0,"byteOffset":52440,"byteLength":52440},{"buffer":0,"byteOffset":104880,"byteLength":34960},{"buffer":0,"byteOffset":139840,"byteLength":34960},{"buffer":0,"byteOffset":174800,"byteLength":48960}],"buffers":[{"byteLength":223760,"uri":"data:application/octet-stream;base64,"}]}
