{"asset":{"generator":"Khronos glTF Blender I/O v1.2.75","version":"2.0"},"scene":0,"scenes":[{"name":"Scene","nodes":[0]}],"nodes":[{"mesh":0,"name":"Mesh"}],"meshes":[{"name":"SM_MetalBeamMerged02","primitives":[{"indices":4,"attributes":{"POSITION":0,"NORMAL":1,"TEXCOORD_0":2,"TEXCOORD_1":3},"mode":4},{"indices":9,"attributes":{"POSITION":5,"NORMAL":6,"TEXCOORD_0":7,"TEXCOORD_1":8},"mode":4},{"indices":14,"attributes":{"POSITION":10,"NORMAL":11,"TEXCOORD_0":12,"TEXCOORD_1":13},"mode":4}]}],"accessors":[{"bufferView":0,"componentType":5126,"count":5080,"type":"VEC3","min":[-0.5515141677856445,-0.006526166200637817,-16.185458984375],"max":[0.5515126800537109,5.625203857421875,0.6354590225219726]},{"bufferView":1,"componentType":5126,"count":5080,"type":"VEC3"},{"bufferView":2,"componentType":5126,"count":5080,"type":"VEC2"},{"bufferView":3,"componentType":5126,"count":5080,"type":"VEC2"},{"bufferView":4,"componentType":5123,"count":16212,"type":"SCALAR"},{"bufferView":5,"componentType":5126,"count":616,"type":"VEC3","min":[-0.5515141677856445,-0.006526166200637817,-16.185458984375],"max":[0.5515126800537109,5.625203857421875,0.6354590225219726]},{"bufferView":6,"componentType":5126,"count":616,"type":"VEC3"},{"bufferView":7,"componentType":5126,"count":616,"type":"VEC2"},{"bufferView":8,"componentType":5126,"count":616,"type":"VEC2"},{"bufferView":9,"componentType":5123,"count":1920,"type":"SCALAR"},{"bufferView":10,"componentType":5126,"count":1836,"type":"VEC3","min":[-0.5515141677856445,-0.006526166200637817,-16.185458984375],"max":[0.5515126800537109,5.625203857421875,0.6354590225219726]},{"bufferView":11,"componentType":5126,"count":1836,"type":"VEC3"},{"bufferView":12,"componentType":5126,"count":1836,"type":"VEC2"},{"bufferView":13,"componentType":5126,"count":1836,"type":"VEC2"},{"bufferView":14,"componentType":5123,"count":5472,"type":"SCALAR"}],"bufferViews":[{"buffer":0,"byteOffset":0,"byteLength":60960},{"buffer":0,"byteOffset":60960,"byteLength":60960},{"buffer":0,"byteOffset":121920,"byteLength":40640},{"buffer":0,"byteOffset":162560,"byteLength":40640},{"buffer":0,"byteOffset":203200,"byteLength":32424},{"buffer":1,"byteOffset":0,"byteLength":7392},{"buffer":1,"byteOffset":7392,"byteLength":7392},{"buffer":1,"byteOffset":14784,"byteLength":4928},{"buffer":1,"byteOffset":19712,"byteLength":4928},{"buffer":1,"byteOffset":24640,"byteLength":3840},{"buffer":2,"byteOffset":0,"byteLength":22032},{"buffer":2,"byteOffset":22032,"byteLength":22032},{"buffer":2,"byteOffset":44064,"byteLength":14688},{"buffer":2,"byteOffset":58752,"byteLength":14688},{"buffer":2,"byteOffset":73440,"byteLength":10944}],"buffers":[{"byteLength":235624,"uri":"data:application/octet-stream;base64,"},{"byteLength":28480,"uri":"data:application/octet-stream;base64,"},{"byteLength":84384,"uri":"data:application/octet-stream;base64,"}]}
