{"asset":{"generator":"Khronos glTF Blender I/O v1.2.75","version":"2.0"},"scene":0,"scenes":[{"name":"Scene","nodes":[0]}],"nodes":[{"mesh":0,"name":"Mesh"}],"meshes":[{"name":"SM_GroundCable03","primitives":[{"indices":4,"attributes":{"POSITION":0,"NORMAL":1,"TEXCOORD_0":2,"TEXCOORD_1":3},"mode":4}]}],"accessors":[{"bufferView":0,"componentType":5126,"count":934,"type":"VEC3","min":[-1.2207347106933595,-0.02008399248123169,-1.1670687103271484],"max":[1.2215058135986328,0.09715862274169922,1.1670108032226563]},{"bufferView":1,"componentType":5126,"count":934,"type":"VEC3"},{"bufferView":2,"componentType":5126,"count":934,"type":"VEC2"},{"bufferView":3,"componentType":5126,"count":934,"type":"VEC2"},{"bufferView":4,"componentType":5123,"count":4740,"type":"SCALAR"}],"bufferViews":[{"buffer":0,"byteOffset":0,"byteLength":11208},{"buffer":0,"byteOffset":11208,"byteLength":11208},{"buffer":0,"byteOffset":22416,"byteLength":7472},{"buffer":0,"byteOffset":29888,"byteLength":7472},{"buffer":0,"byteOffset":37360,"byteLength":9480}],"buffers":[{"byteLength":46840,"uri":"data:application/octet-stream;base64,"}]}
