{"asset":{"generator":"Khronos glTF Blender I/O v1.2.75","version":"2.0"},"scene":0,"scenes":[{"name":"Scene","nodes":[0]}],"nodes":[{"mesh":0,"name":"Mesh"}],"meshes":[{"name":"SM_FloorMatsMerged04","primitives":[{"indices":4,"attributes":{"POSITION":0,"NORMAL":1,"TEXCOORD_0":2,"TEXCOORD_1":3},"mode":4}]}],"accessors":[{"bufferView":0,"componentType":5126,"count":1405,"type":"VEC3","min":[-7.428599853515625,-0.05011239051818848,-8.47214111328125],"max":[4.176080322265625,0.04045586109161377,0.7130562591552735]},{"bufferView":1,"componentType":5126,"count":1405,"type":"VEC3"},{"bufferView":2,"componentType":5126,"count":1405,"type":"VEC2"},{"bufferView":3,"componentType":5126,"count":1405,"type":"VEC2"},{"bufferView":4,"componentType":5123,"count":6861,"type":"SCALAR"}],"bufferViews":[{"buffer":0,"byteOffset":0,"byteLength":16860},{"buffer":0,"byteOffset":16860,"byteLength":16860},{"buffer":0,"byteOffset":33720,"byteLength":11240},{"buffer":0,"byteOffset":44960,"byteLength":11240},{"buffer":0,"byteOffset":56200,"byteLength":13722}],"buffers":[{"byteLength":69922,"uri":"data:application/octet-stream;base64,"}]}
