{"asset":{"generator":"Khronos glTF Blender I/O v1.2.75","version":"2.0"},"scene":0,"scenes":[{"name":"Scene","nodes":[0]}],"nodes":[{"mesh":0,"name":"Mesh"}],"meshes":[{"name":"SM_BackgroundBuildingPipe02","primitives":[{"indices":4,"attributes":{"POSITION":0,"NORMAL":1,"TEXCOORD_0":2,"TEXCOORD_1":3},"mode":4}]}],"accessors":[{"bufferView":0,"componentType":5126,"count":1300,"type":"VEC3","min":[-12.259027099609375,-10.598529052734374,-8.303026123046875],"max":[10.905367431640625,51.1009423828125,12.605]},{"bufferView":1,"componentType":5126,"count":1300,"type":"VEC3"},{"bufferView":2,"componentType":5126,"count":1300,"type":"VEC2"},{"bufferView":3,"componentType":5126,"count":1300,"type":"VEC2"},{"bufferView":4,"componentType":5123,"count":5904,"type":"SCALAR"}],"bufferViews":[{"buffer":0,"byteOffset":0,"byteLength":15600},{"buffer":0,"byteOffset":15600,"byteLength":15600},{"buffer":0,"byteOffset":31200,"byteLength":10400},{"buffer":0,"byteOffset":41600,"byteLength":10400},{"buffer":0,"byteOffset":52000,"byteLength":11808}],"buffers":[{"byteLength":63808,"uri":"data:application/octet-stream;base64,"}]}
