{"asset":{"generator":"Khronos glTF Blender I/O v1.2.75","version":"2.0"},"scene":0,"scenes":[{"name":"Scene","nodes":[0]}],"nodes":[{"mesh":0,"name":"Mesh"}],"meshes":[{"name":"SM_Pipe_square_long","primitives":[{"indices":5,"attributes":{"POSITION":0,"NORMAL":1,"COLOR_0":2,"TEXCOORD_0":3,"TEXCOORD_1":4},"mode":4}]}],"accessors":[{"bufferView":0,"componentType":5126,"count":368,"type":"VEC3","min":[-0.22000001907348632,-0.12,-4.172325134277344e-9],"max":[0.22,0.12,2]},{"bufferView":1,"componentType":5126,"count":368,"type":"VEC3"},{"bufferView":2,"componentType":5126,"count":368,"type":"VEC4"},{"bufferView":3,"componentType":5126,"count":368,"type":"VEC2"},{"bufferView":4,"componentType":5126,"count":368,"type":"VEC2"},{"bufferView":5,"componentType":5123,"count":732,"type":"SCALAR"}],"bufferViews":[{"buffer":0,"byteOffset":0,"byteLength":4416},{"buffer":0,"byteOffset":4416,"byteLength":4416},{"buffer":0,"byteOffset":8832,"byteLength":5888},{"buffer":0,"byteOffset":14720,"byteLength":2944},{"buffer":0,"byteOffset":17664,"byteLength":2944},{"buffer":0,"byteOffset":20608,"byteLength":1464}],"buffers":[{"byteLength":22072,"uri":"data:application/octet-stream;base64,"}]}
