{"asset":{"generator":"Khronos glTF Blender I/O v1.2.75","version":"2.0"},"scene":0,"scenes":[{"name":"Scene","nodes":[0]}],"nodes":[{"mesh":0,"name":"Mesh"}],"meshes":[{"name":"SM_Cable_Corn","primitives":[{"indices":4,"attributes":{"POSITION":0,"NORMAL":1,"TEXCOORD_0":2,"TEXCOORD_1":3},"mode":4}]}],"accessors":[{"bufferView":0,"componentType":5126,"count":128,"type":"VEC3","min":[-3.0517578125e-7,-6.483763854703284e-9,-0.02481994152069092],"max":[0.1239996337890625,0.04976293087005615,0.10000000953674316]},{"bufferView":1,"componentType":5126,"count":128,"type":"VEC3"},{"bufferView":2,"componentType":5126,"count":128,"type":"VEC2"},{"bufferView":3,"componentType":5126,"count":128,"type":"VEC2"},{"bufferView":4,"componentType":5123,"count":378,"type":"SCALAR"}],"bufferViews":[{"buffer":0,"byteOffset":0,"byteLength":1536},{"buffer":0,"byteOffset":1536,"byteLength":1536},{"buffer":0,"byteOffset":3072,"byteLength":1024},{"buffer":0,"byteOffset":4096,"byteLength":1024},{"buffer":0,"byteOffset":5120,"byteLength":756}],"buffers":[{"byteLength":5876,"uri":"data:application/octet-stream;base64,"}]}
