{"asset":{"generator":"Khronos glTF Blender I/O v1.2.75","version":"2.0"},"scene":0,"scenes":[{"name":"Scene","nodes":[0]}],"nodes":[{"mesh":0,"name":"Mesh"}],"meshes":[{"name":"HotelChina02","primitives":[{"indices":4,"attributes":{"POSITION":0,"NORMAL":1,"TEXCOORD_0":2,"TEXCOORD_1":3},"mode":4}]}],"accessors":[{"bufferView":0,"componentType":5126,"count":6728,"type":"VEC3","min":[-0.9248031616210938,-1.0718993377685546,-0.16610393524169922],"max":[0,1.0718992614746095,0.16610363006591797]},{"bufferView":1,"componentType":5126,"count":6728,"type":"VEC3"},{"bufferView":2,"componentType":5126,"count":6728,"type":"VEC2"},{"bufferView":3,"componentType":5126,"count":6728,"type":"VEC2"},{"bufferView":4,"componentType":5123,"count":12966,"type":"SCALAR"}],"bufferViews":[{"buffer":0,"byteOffset":0,"byteLength":80736},{"buffer":0,"byteOffset":80736,"byteLength":80736},{"buffer":0,"byteOffset":161472,"byteLength":53824},{"buffer":0,"byteOffset":215296,"byteLength":53824},{"buffer":0,"byteOffset":269120,"byteLength":25932}],"buffers":[{"byteLength":295052,"uri":"data:application/octet-stream;base64,"}]}
