{"asset":{"generator":"Khronos glTF Blender I/O v1.2.75","version":"2.0"},"scene":0,"scenes":[{"name":"Scene","nodes":[0]}],"nodes":[{"mesh":0,"name":"Mesh"}],"meshes":[{"name":"-1_-1_-2_MI_CornerBuilding01_cull_front","primitives":[{"indices":4,"attributes":{"POSITION":0,"NORMAL":1,"TEXCOORD_0":2,"TEXCOORD_1":3},"mode":4}]}],"accessors":[{"bufferView":0,"componentType":5126,"count":120,"type":"VEC3","min":[21.304948067090947,24.36846672575392,9.647907524085689],"max":[21.805108969166685,25.318486704459335,24.64791387590365]},{"bufferView":1,"componentType":5126,"count":120,"type":"VEC3"},{"bufferView":2,"componentType":5126,"count":120,"type":"VEC2"},{"bufferView":3,"componentType":5126,"count":120,"type":"VEC2"},{"bufferView":4,"componentType":5123,"count":252,"type":"SCALAR"}],"bufferViews":[{"buffer":0,"byteOffset":0,"byteLength":1440},{"buffer":0,"byteOffset":1440,"byteLength":1440},{"buffer":0,"byteOffset":2880,"byteLength":960},{"buffer":0,"byteOffset":3840,"byteLength":960},{"buffer":0,"byteOffset":4800,"byteLength":504}],"buffers":[{"byteLength":5304,"uri":"data:application/octet-stream;base64,"}]}
