{"asset":{"generator":"Khronos glTF Blender I/O v1.2.75","version":"2.0"},"scene":0,"scenes":[{"name":"Scene","nodes":[0]}],"nodes":[{"mesh":0,"name":"Mesh"}],"meshes":[{"name":"-1_-1_-1_MI_WGS_01","primitives":[{"indices":4,"attributes":{"POSITION":0,"NORMAL":1,"TEXCOORD_0":2,"TEXCOORD_1":3},"mode":4}]}],"accessors":[{"bufferView":0,"componentType":5126,"count":274,"type":"VEC3","min":[-16,20.499999481467732,-13.999992257926095],"max":[-8.579911706882971,25.500004014256685,17.77009495517086]},{"bufferView":1,"componentType":5126,"count":274,"type":"VEC3"},{"bufferView":2,"componentType":5126,"count":274,"type":"VEC2"},{"bufferView":3,"componentType":5126,"count":274,"type":"VEC2"},{"bufferView":4,"componentType":5123,"count":648,"type":"SCALAR"}],"bufferViews":[{"buffer":0,"byteOffset":0,"byteLength":3288},{"buffer":0,"byteOffset":3288,"byteLength":3288},{"buffer":0,"byteOffset":6576,"byteLength":2192},{"buffer":0,"byteOffset":8768,"byteLength":2192},{"buffer":0,"byteOffset":10960,"byteLength":1296}],"buffers":[{"byteLength":12256,"uri":"data:application/octet-stream;base64,"}]}
