{"asset":{"generator":"Khronos glTF Blender I/O v1.2.75","version":"2.0"},"scene":0,"scenes":[{"name":"Scene","nodes":[0]}],"nodes":[{"mesh":0,"name":"Mesh"}],"meshes":[{"name":"-1_-1_0_MI_Stair_01_Painted_cull_front","primitives":[{"indices":4,"attributes":{"POSITION":0,"NORMAL":1,"TEXCOORD_0":2,"TEXCOORD_1":3},"mode":4}]}],"accessors":[{"bufferView":0,"componentType":5126,"count":4127,"type":"VEC3","min":[-15,-15,-15],"max":[15,15,15]},{"bufferView":1,"componentType":5126,"count":4127,"type":"VEC3"},{"bufferView":2,"componentType":5126,"count":4127,"type":"VEC2"},{"bufferView":3,"componentType":5126,"count":4127,"type":"VEC2"},{"bufferView":4,"componentType":5123,"count":13404,"type":"SCALAR"}],"bufferViews":[{"buffer":0,"byteOffset":0,"byteLength":49524},{"buffer":0,"byteOffset":49524,"byteLength":49524},{"buffer":0,"byteOffset":99048,"byteLength":33016},{"buffer":0,"byteOffset":132064,"byteLength":33016},{"buffer":0,"byteOffset":165080,"byteLength":26808}],"buffers":[{"byteLength":191888,"uri":"data:application/octet-stream;base64,"}]}
