{"asset":{"generator":"Khronos glTF Blender I/O v1.2.75","version":"2.0"},"scene":0,"scenes":[{"name":"Scene","nodes":[0]}],"nodes":[{"mesh":0,"name":"Mesh"}],"meshes":[{"name":"-1_-1_-1_MI_WGS_03","primitives":[{"indices":4,"attributes":{"POSITION":0,"NORMAL":1,"TEXCOORD_0":2,"TEXCOORD_1":3},"mode":4}]}],"accessors":[{"bufferView":0,"componentType":5126,"count":1328,"type":"VEC3","min":[-10.997481370679262,22.899969482421874,-10.137429240753438],"max":[-10.947267215597298,25.2,-9.162570799496605]},{"bufferView":1,"componentType":5126,"count":1328,"type":"VEC3"},{"bufferView":2,"componentType":5126,"count":1328,"type":"VEC2"},{"bufferView":3,"componentType":5126,"count":1328,"type":"VEC2"},{"bufferView":4,"componentType":5123,"count":3984,"type":"SCALAR"}],"bufferViews":[{"buffer":0,"byteOffset":0,"byteLength":15936},{"buffer":0,"byteOffset":15936,"byteLength":15936},{"buffer":0,"byteOffset":31872,"byteLength":10624},{"buffer":0,"byteOffset":42496,"byteLength":10624},{"buffer":0,"byteOffset":53120,"byteLength":7968}],"buffers":[{"byteLength":61088,"uri":"data:application/octet-stream;base64,"}]}
