{"asset":{"generator":"Khronos glTF Blender I/O v1.2.75","version":"2.0"},"scene":0,"scenes":[{"name":"Scene","nodes":[0]}],"nodes":[{"mesh":0,"name":"Mesh"}],"meshes":[{"name":"-1_-1_-1_MI_GroundDetails","primitives":[{"indices":4,"attributes":{"POSITION":0,"NORMAL":1,"TEXCOORD_0":2,"TEXCOORD_1":3},"mode":4}]}],"accessors":[{"bufferView":0,"componentType":5126,"count":1645,"type":"VEC3","min":[-15,-15,-15],"max":[15,15,15]},{"bufferView":1,"componentType":5126,"count":1645,"type":"VEC3"},{"bufferView":2,"componentType":5126,"count":1645,"type":"VEC2"},{"bufferView":3,"componentType":5126,"count":1645,"type":"VEC2"},{"bufferView":4,"componentType":5123,"count":3411,"type":"SCALAR"}],"bufferViews":[{"buffer":0,"byteOffset":0,"byteLength":19740},{"buffer":0,"byteOffset":19740,"byteLength":19740},{"buffer":0,"byteOffset":39480,"byteLength":13160},{"buffer":0,"byteOffset":52640,"byteLength":13160},{"buffer":0,"byteOffset":65800,"byteLength":6822}],"buffers":[{"byteLength":72622,"uri":"data:application/octet-stream;base64,"}]}
