{"asset":{"generator":"Khronos glTF Blender I/O v1.2.75","version":"2.0"},"scene":0,"scenes":[{"name":"Scene","nodes":[0]}],"nodes":[{"mesh":0,"name":"Mesh"}],"meshes":[{"name":"-1_-1_-1_MI_CornerBuilding01_cull_front","primitives":[{"indices":4,"attributes":{"POSITION":0,"NORMAL":1,"TEXCOORD_0":2,"TEXCOORD_1":3},"mode":4}]}],"accessors":[{"bufferView":0,"componentType":5126,"count":896,"type":"VEC3","min":[-24.098323097752697,24.368448823722527,-25.352092475914315],"max":[21.804960043385435,25.318740694332494,27.444306884153093]},{"bufferView":1,"componentType":5126,"count":896,"type":"VEC3"},{"bufferView":2,"componentType":5126,"count":896,"type":"VEC2"},{"bufferView":3,"componentType":5126,"count":896,"type":"VEC2"},{"bufferView":4,"componentType":5123,"count":1968,"type":"SCALAR"}],"bufferViews":[{"buffer":0,"byteOffset":0,"byteLength":10752},{"buffer":0,"byteOffset":10752,"byteLength":10752},{"buffer":0,"byteOffset":21504,"byteLength":7168},{"buffer":0,"byteOffset":28672,"byteLength":7168},{"buffer":0,"byteOffset":35840,"byteLength":3936}],"buffers":[{"byteLength":39776,"uri":"data:application/octet-stream;base64,"}]}
