{"asset":{"generator":"Khronos glTF Blender I/O v1.2.75","version":"2.0"},"scene":0,"scenes":[{"name":"Scene","nodes":[0]}],"nodes":[{"mesh":0,"name":"Mesh"}],"meshes":[{"name":"-1_-1_-2_MI_Building10","primitives":[{"indices":4,"attributes":{"POSITION":0,"NORMAL":1,"TEXCOORD_0":2,"TEXCOORD_1":3},"mode":4}]}],"accessors":[{"bufferView":0,"componentType":5126,"count":912,"type":"VEC3","min":[-15,-15,-15],"max":[15,15,15]},{"bufferView":1,"componentType":5126,"count":912,"type":"VEC3"},{"bufferView":2,"componentType":5126,"count":912,"type":"VEC2"},{"bufferView":3,"componentType":5126,"count":912,"type":"VEC2"},{"bufferView":4,"componentType":5123,"count":1602,"type":"SCALAR"}],"bufferViews":[{"buffer":0,"byteOffset":0,"byteLength":10944},{"buffer":0,"byteOffset":10944,"byteLength":10944},{"buffer":0,"byteOffset":21888,"byteLength":7296},{"buffer":0,"byteOffset":29184,"byteLength":7296},{"buffer":0,"byteOffset":36480,"byteLength":3204}],"buffers":[{"byteLength":39684,"uri":"data:application/octet-stream;base64,"}]}
