{"asset":{"generator":"Khronos glTF Blender I/O v1.2.75","version":"2.0"},"scene":0,"scenes":[{"name":"Scene","nodes":[0]}],"nodes":[{"mesh":0,"name":"Mesh"}],"meshes":[{"name":"-1_0_0_MI_WGS_01","primitives":[{"indices":4,"attributes":{"POSITION":0,"NORMAL":1,"TEXCOORD_0":2,"TEXCOORD_1":3},"mode":4}]}],"accessors":[{"bufferView":0,"componentType":5126,"count":1211,"type":"VEC3","min":[-9.270091289978481,-25.011172468892667,-27.500005344954808],"max":[1.420088293117029,-9.700244638334683,-17.5]},{"bufferView":1,"componentType":5126,"count":1211,"type":"VEC3"},{"bufferView":2,"componentType":5126,"count":1211,"type":"VEC2"},{"bufferView":3,"componentType":5126,"count":1211,"type":"VEC2"},{"bufferView":4,"componentType":5123,"count":2796,"type":"SCALAR"}],"bufferViews":[{"buffer":0,"byteOffset":0,"byteLength":14532},{"buffer":0,"byteOffset":14532,"byteLength":14532},{"buffer":0,"byteOffset":29064,"byteLength":9688},{"buffer":0,"byteOffset":38752,"byteLength":9688},{"buffer":0,"byteOffset":48440,"byteLength":5592}],"buffers":[{"byteLength":54032,"uri":"data:application/octet-stream;base64,"}]}
