{"asset":{"generator":"Khronos glTF Blender I/O v1.2.75","version":"2.0"},"scene":0,"scenes":[{"name":"Scene","nodes":[0]}],"nodes":[{"mesh":0,"name":"Mesh"}],"meshes":[{"name":"-1_0_0_MI_PlatformRailing_01","primitives":[{"indices":4,"attributes":{"POSITION":0,"NORMAL":1,"TEXCOORD_0":2,"TEXCOORD_1":3},"mode":4}]}],"accessors":[{"bufferView":0,"componentType":5126,"count":3780,"type":"VEC3","min":[19.011016527391913,-12.850012675744074,-24.11378534684934],"max":[25.520000464760926,-11.573331809043884,-21.306237054061892]},{"bufferView":1,"componentType":5126,"count":3780,"type":"VEC3"},{"bufferView":2,"componentType":5126,"count":3780,"type":"VEC2"},{"bufferView":3,"componentType":5126,"count":3780,"type":"VEC2"},{"bufferView":4,"componentType":5123,"count":11760,"type":"SCALAR"}],"bufferViews":[{"buffer":0,"byteOffset":0,"byteLength":45360},{"buffer":0,"byteOffset":45360,"byteLength":45360},{"buffer":0,"byteOffset":90720,"byteLength":30240},{"buffer":0,"byteOffset":120960,"byteLength":30240},{"buffer":0,"byteOffset":151200,"byteLength":23520}],"buffers":[{"byteLength":174720,"uri":"data:application/octet-stream;base64,"}]}
