{"asset":{"generator":"Khronos glTF Blender I/O v1.2.75","version":"2.0"},"scene":0,"scenes":[{"name":"Scene","nodes":[0]}],"nodes":[{"mesh":0,"name":"Mesh"}],"meshes":[{"name":"-1_0_-1_MI_WallTile02","primitives":[{"indices":4,"attributes":{"POSITION":0,"NORMAL":1,"TEXCOORD_0":2,"TEXCOORD_1":3},"mode":4}]}],"accessors":[{"bufferView":0,"componentType":5126,"count":228,"type":"VEC3","min":[-25.07999957911281,-8.750000215906923,-5.410955370563177],"max":[28.017087364196776,2.5857024979591365,24.15000171710543]},{"bufferView":1,"componentType":5126,"count":228,"type":"VEC3"},{"bufferView":2,"componentType":5126,"count":228,"type":"VEC2"},{"bufferView":3,"componentType":5126,"count":228,"type":"VEC2"},{"bufferView":4,"componentType":5123,"count":402,"type":"SCALAR"}],"bufferViews":[{"buffer":0,"byteOffset":0,"byteLength":2736},{"buffer":0,"byteOffset":2736,"byteLength":2736},{"buffer":0,"byteOffset":5472,"byteLength":1824},{"buffer":0,"byteOffset":7296,"byteLength":1824},{"buffer":0,"byteOffset":9120,"byteLength":804}],"buffers":[{"byteLength":9924,"uri":"data:application/octet-stream;base64,"}]}
