{"asset":{"generator":"Khronos glTF Blender I/O v1.2.75","version":"2.0"},"scene":0,"scenes":[{"name":"Scene","nodes":[0]}],"nodes":[{"mesh":0,"name":"Mesh"}],"meshes":[{"name":"-1_0_0_MI_WallTile02","primitives":[{"indices":4,"attributes":{"POSITION":0,"NORMAL":1,"TEXCOORD_0":2,"TEXCOORD_1":3},"mode":4}]}],"accessors":[{"bufferView":0,"componentType":5126,"count":4880,"type":"VEC3","min":[-29.27206062733976,-30.88,-25.850000457760032],"max":[25.120000476639316,41.39658737182617,18.587383625688673]},{"bufferView":1,"componentType":5126,"count":4880,"type":"VEC3"},{"bufferView":2,"componentType":5126,"count":4880,"type":"VEC2"},{"bufferView":3,"componentType":5126,"count":4880,"type":"VEC2"},{"bufferView":4,"componentType":5123,"count":9480,"type":"SCALAR"}],"bufferViews":[{"buffer":0,"byteOffset":0,"byteLength":58560},{"buffer":0,"byteOffset":58560,"byteLength":58560},{"buffer":0,"byteOffset":117120,"byteLength":39040},{"buffer":0,"byteOffset":156160,"byteLength":39040},{"buffer":0,"byteOffset":195200,"byteLength":18960}],"buffers":[{"byteLength":214160,"uri":"data:application/octet-stream;base64,"}]}
