{"asset":{"generator":"Khronos glTF Blender I/O v1.2.75","version":"2.0"},"scene":0,"scenes":[{"name":"Scene","nodes":[0]}],"nodes":[{"mesh":0,"name":"Mesh"}],"meshes":[{"name":"-1_0_-1_Material__0","primitives":[{"indices":4,"attributes":{"POSITION":0,"NORMAL":1,"TEXCOORD_0":2,"TEXCOORD_1":3},"mode":4}]}],"accessors":[{"bufferView":0,"componentType":5126,"count":100,"type":"VEC3","min":[17.95614379644394,-24.8,-18.17099516976407],"max":[27.32491170360594,-14.400000715255738,14.199997559189796]},{"bufferView":1,"componentType":5126,"count":100,"type":"VEC3"},{"bufferView":2,"componentType":5126,"count":100,"type":"VEC2"},{"bufferView":3,"componentType":5126,"count":100,"type":"VEC2"},{"bufferView":4,"componentType":5123,"count":240,"type":"SCALAR"}],"bufferViews":[{"buffer":0,"byteOffset":0,"byteLength":1200},{"buffer":0,"byteOffset":1200,"byteLength":1200},{"buffer":0,"byteOffset":2400,"byteLength":800},{"buffer":0,"byteOffset":3200,"byteLength":800},{"buffer":0,"byteOffset":4000,"byteLength":480}],"buffers":[{"byteLength":4480,"uri":"data:application/octet-stream;base64,"}]}
