{"asset":{"generator":"Khronos glTF Blender I/O v1.2.75","version":"2.0"},"scene":0,"scenes":[{"name":"Scene","nodes":[0]}],"nodes":[{"mesh":0,"name":"Mesh"}],"meshes":[{"name":"-1_0_0_MI_MetalBeam01","primitives":[{"indices":4,"attributes":{"POSITION":0,"NORMAL":1,"TEXCOORD_0":2,"TEXCOORD_1":3},"mode":4}]}],"accessors":[{"bufferView":0,"componentType":5126,"count":3770,"type":"VEC3","min":[10.309980344079264,-25.2,-23.058714684916584],"max":[26.408945209446824,22.749775940789213,-21.013318527129286]},{"bufferView":1,"componentType":5126,"count":3770,"type":"VEC3"},{"bufferView":2,"componentType":5126,"count":3770,"type":"VEC2"},{"bufferView":3,"componentType":5126,"count":3770,"type":"VEC2"},{"bufferView":4,"componentType":5123,"count":11238,"type":"SCALAR"}],"bufferViews":[{"buffer":0,"byteOffset":0,"byteLength":45240},{"buffer":0,"byteOffset":45240,"byteLength":45240},{"buffer":0,"byteOffset":90480,"byteLength":30160},{"buffer":0,"byteOffset":120640,"byteLength":30160},{"buffer":0,"byteOffset":150800,"byteLength":22476}],"buffers":[{"byteLength":173276,"uri":"data:application/octet-stream;base64,"}]}
