{"asset":{"generator":"Khronos glTF Blender I/O v1.2.75","version":"2.0"},"scene":0,"scenes":[{"name":"Scene","nodes":[0]}],"nodes":[{"mesh":0,"name":"Mesh"}],"meshes":[{"name":"-1_0_-2_MI_GarbageBag","primitives":[{"indices":4,"attributes":{"POSITION":0,"NORMAL":1,"TEXCOORD_0":2,"TEXCOORD_1":3},"mode":4}]}],"accessors":[{"bufferView":0,"componentType":5126,"count":39343,"type":"VEC3","min":[-9.430961818695069,-25.132637594938277,12.880278367996219],"max":[-2.735747249126435,-22.77475393295288,17.589491863250736]},{"bufferView":1,"componentType":5126,"count":39343,"type":"VEC3"},{"bufferView":2,"componentType":5126,"count":39343,"type":"VEC2"},{"bufferView":3,"componentType":5126,"count":39343,"type":"VEC2"},{"bufferView":4,"componentType":5123,"count":204621,"type":"SCALAR"}],"bufferViews":[{"buffer":0,"byteOffset":0,"byteLength":472116},{"buffer":0,"byteOffset":472116,"byteLength":472116},{"buffer":0,"byteOffset":944232,"byteLength":314744},{"buffer":0,"byteOffset":1258976,"byteLength":314744},{"buffer":0,"byteOffset":1573720,"byteLength":409242}],"buffers":[{"byteLength":1982962,"uri":"data:application/octet-stream;base64,"}]}
