{"asset":{"generator":"Khronos glTF Blender I/O v1.2.75","version":"2.0"},"scene":0,"scenes":[{"name":"Scene","nodes":[0]}],"nodes":[{"mesh":0,"name":"Mesh"}],"meshes":[{"name":"-1_0_-2_MI_PropsSet01","primitives":[{"indices":4,"attributes":{"POSITION":0,"NORMAL":1,"TEXCOORD_0":2,"TEXCOORD_1":3},"mode":4}]}],"accessors":[{"bufferView":0,"componentType":5126,"count":1714,"type":"VEC3","min":[-3.378018753643424,-24.8,12.163109368317706],"max":[22.369002673626365,-16.185841369628907,18.671581657041415]},{"bufferView":1,"componentType":5126,"count":1714,"type":"VEC3"},{"bufferView":2,"componentType":5126,"count":1714,"type":"VEC2"},{"bufferView":3,"componentType":5126,"count":1714,"type":"VEC2"},{"bufferView":4,"componentType":5123,"count":4338,"type":"SCALAR"}],"bufferViews":[{"buffer":0,"byteOffset":0,"byteLength":20568},{"buffer":0,"byteOffset":20568,"byteLength":20568},{"buffer":0,"byteOffset":41136,"byteLength":13712},{"buffer":0,"byteOffset":54848,"byteLength":13712},{"buffer":0,"byteOffset":68560,"byteLength":8676}],"buffers":[{"byteLength":77236,"uri":"data:application/octet-stream;base64,"}]}
