{"asset":{"generator":"Khronos glTF Blender I/O v1.2.75","version":"2.0"},"scene":0,"scenes":[{"name":"Scene","nodes":[0]}],"nodes":[{"mesh":0,"name":"Mesh"}],"meshes":[{"name":"-1_0_-1_MI_MetalWallPart_Painted_01","primitives":[{"indices":4,"attributes":{"POSITION":0,"NORMAL":1,"TEXCOORD_0":2,"TEXCOORD_1":3},"mode":4}]}],"accessors":[{"bufferView":0,"componentType":5126,"count":1728,"type":"VEC3","min":[-8.912295543945428,-15.367187548577785,9.627200121283716],"max":[17.859465463168803,-13.622770739200831,18.77000041273779]},{"bufferView":1,"componentType":5126,"count":1728,"type":"VEC3"},{"bufferView":2,"componentType":5126,"count":1728,"type":"VEC2"},{"bufferView":3,"componentType":5126,"count":1728,"type":"VEC2"},{"bufferView":4,"componentType":5123,"count":2736,"type":"SCALAR"}],"bufferViews":[{"buffer":0,"byteOffset":0,"byteLength":20736},{"buffer":0,"byteOffset":20736,"byteLength":20736},{"buffer":0,"byteOffset":41472,"byteLength":13824},{"buffer":0,"byteOffset":55296,"byteLength":13824},{"buffer":0,"byteOffset":69120,"byteLength":5472}],"buffers":[{"byteLength":74592,"uri":"data:application/octet-stream;base64,"}]}
