{"asset":{"generator":"Khronos glTF Blender I/O v1.2.75","version":"2.0"},"scene":0,"scenes":[{"name":"Scene","nodes":[0]}],"nodes":[{"mesh":0,"name":"Mesh"}],"meshes":[{"name":"-1_0_-1_MI_Platform02","primitives":[{"indices":4,"attributes":{"POSITION":0,"NORMAL":1,"TEXCOORD_0":2,"TEXCOORD_1":3},"mode":4}]}],"accessors":[{"bufferView":0,"componentType":5126,"count":2276,"type":"VEC3","min":[-8.154667134363113,-14.127365426942706,9.497127095627993],"max":[-0.1291784748234246,-12.138037061691284,14.837691286675032]},{"bufferView":1,"componentType":5126,"count":2276,"type":"VEC3"},{"bufferView":2,"componentType":5126,"count":2276,"type":"VEC2"},{"bufferView":3,"componentType":5126,"count":2276,"type":"VEC2"},{"bufferView":4,"componentType":5123,"count":5616,"type":"SCALAR"}],"bufferViews":[{"buffer":0,"byteOffset":0,"byteLength":27312},{"buffer":0,"byteOffset":27312,"byteLength":27312},{"buffer":0,"byteOffset":54624,"byteLength":18208},{"buffer":0,"byteOffset":72832,"byteLength":18208},{"buffer":0,"byteOffset":91040,"byteLength":11232}],"buffers":[{"byteLength":102272,"uri":"data:application/octet-stream;base64,"}]}
