{"asset":{"generator":"Khronos glTF Blender I/O v1.2.75","version":"2.0"},"scene":0,"scenes":[{"name":"Scene","nodes":[0]}],"nodes":[{"mesh":0,"name":"Mesh"}],"meshes":[{"name":"-1_0_1_MI_Building06","primitives":[{"indices":4,"attributes":{"POSITION":0,"NORMAL":1,"TEXCOORD_0":2,"TEXCOORD_1":3},"mode":4}]}],"accessors":[{"bufferView":0,"componentType":5126,"count":8032,"type":"VEC3","min":[-15,-15,-15],"max":[15,15,15]},{"bufferView":1,"componentType":5126,"count":8032,"type":"VEC3"},{"bufferView":2,"componentType":5126,"count":8032,"type":"VEC2"},{"bufferView":3,"componentType":5126,"count":8032,"type":"VEC2"},{"bufferView":4,"componentType":5123,"count":15312,"type":"SCALAR"}],"bufferViews":[{"buffer":0,"byteOffset":0,"byteLength":96384},{"buffer":0,"byteOffset":96384,"byteLength":96384},{"buffer":0,"byteOffset":192768,"byteLength":64256},{"buffer":0,"byteOffset":257024,"byteLength":64256},{"buffer":0,"byteOffset":321280,"byteLength":30624}],"buffers":[{"byteLength":351904,"uri":"data:application/octet-stream;base64,"}]}
