{"asset":{"generator":"Khronos glTF Blender I/O v1.2.75","version":"2.0"},"scene":0,"scenes":[{"name":"Scene","nodes":[0]}],"nodes":[{"mesh":0,"name":"Mesh"}],"meshes":[{"name":"-1_0_-1_MI_Emissive02","primitives":[{"indices":4,"attributes":{"POSITION":0,"NORMAL":1,"TEXCOORD_0":2,"TEXCOORD_1":3},"mode":4}]}],"accessors":[{"bufferView":0,"componentType":5126,"count":456,"type":"VEC3","min":[-17.95696308142502,-20.0926109371255,6.363725728960245],"max":[8.895806944061107,-13.57403245762077,20.50706740661165]},{"bufferView":1,"componentType":5126,"count":456,"type":"VEC3"},{"bufferView":2,"componentType":5126,"count":456,"type":"VEC2"},{"bufferView":3,"componentType":5126,"count":456,"type":"VEC2"},{"bufferView":4,"componentType":5123,"count":1260,"type":"SCALAR"}],"bufferViews":[{"buffer":0,"byteOffset":0,"byteLength":5472},{"buffer":0,"byteOffset":5472,"byteLength":5472},{"buffer":0,"byteOffset":10944,"byteLength":3648},{"buffer":0,"byteOffset":14592,"byteLength":3648},{"buffer":0,"byteOffset":18240,"byteLength":2520}],"buffers":[{"byteLength":20760,"uri":"data:application/octet-stream;base64,"}]}
