{"asset":{"generator":"Khronos glTF Blender I/O v1.2.75","version":"2.0"},"scene":0,"scenes":[{"name":"Scene","nodes":[0]}],"nodes":[{"mesh":0,"name":"Mesh"}],"meshes":[{"name":"-1_0_-1_M_AnimBoard01","primitives":[{"indices":4,"attributes":{"POSITION":0,"NORMAL":1,"TEXCOORD_0":2,"TEXCOORD_1":3},"mode":4}]}],"accessors":[{"bufferView":0,"componentType":5126,"count":34,"type":"VEC3","min":[-0.35109395778867203,-19.461979499733943,7.828045349340603],"max":[8.566110773760988,-18.11806747185005,8.500037117352402]},{"bufferView":1,"componentType":5126,"count":34,"type":"VEC3"},{"bufferView":2,"componentType":5126,"count":34,"type":"VEC2"},{"bufferView":3,"componentType":5126,"count":34,"type":"VEC2"},{"bufferView":4,"componentType":5123,"count":96,"type":"SCALAR"}],"bufferViews":[{"buffer":0,"byteOffset":0,"byteLength":408},{"buffer":0,"byteOffset":408,"byteLength":408},{"buffer":0,"byteOffset":816,"byteLength":272},{"buffer":0,"byteOffset":1088,"byteLength":272},{"buffer":0,"byteOffset":1360,"byteLength":192}],"buffers":[{"byteLength":1552,"uri":"data:application/octet-stream;base64,"}]}
