{"asset":{"generator":"Khronos glTF Blender I/O v1.2.75","version":"2.0"},"scene":0,"scenes":[{"name":"Scene","nodes":[0]}],"nodes":[{"mesh":0,"name":"Mesh"}],"meshes":[{"name":"-1_0_0_M_Signboards01","primitives":[{"indices":4,"attributes":{"POSITION":0,"NORMAL":1,"TEXCOORD_0":2,"TEXCOORD_1":3},"mode":4}]}],"accessors":[{"bufferView":0,"componentType":5126,"count":5911,"type":"VEC3","min":[16.243829688985038,-18.676962630440336,-20.605792261972283],"max":[19.595461360764403,-7.871491267561911,-19.79999454506068]},{"bufferView":1,"componentType":5126,"count":5911,"type":"VEC3"},{"bufferView":2,"componentType":5126,"count":5911,"type":"VEC2"},{"bufferView":3,"componentType":5126,"count":5911,"type":"VEC2"},{"bufferView":4,"componentType":5123,"count":20184,"type":"SCALAR"}],"bufferViews":[{"buffer":0,"byteOffset":0,"byteLength":70932},{"buffer":0,"byteOffset":70932,"byteLength":70932},{"buffer":0,"byteOffset":141864,"byteLength":47288},{"buffer":0,"byteOffset":189152,"byteLength":47288},{"buffer":0,"byteOffset":236440,"byteLength":40368}],"buffers":[{"byteLength":276808,"uri":"data:application/octet-stream;base64,"}]}
