{"asset":{"generator":"Khronos glTF Blender I/O v1.2.75","version":"2.0"},"scene":0,"scenes":[{"name":"Scene","nodes":[0]}],"nodes":[{"mesh":0,"name":"Mesh"}],"meshes":[{"name":"-1_0_0_MI_Glass_02_no_ins","primitives":[{"indices":4,"attributes":{"POSITION":0,"NORMAL":1,"TEXCOORD_0":2,"TEXCOORD_1":3},"mode":4}]}],"accessors":[{"bufferView":0,"componentType":5126,"count":2016,"type":"VEC3","min":[9.68810967719935,-23.906368712230243,-25.033530186804335],"max":[21.030871394022775,-10.900233281051786,-17.70264381461798]},{"bufferView":1,"componentType":5126,"count":2016,"type":"VEC3"},{"bufferView":2,"componentType":5126,"count":2016,"type":"VEC2"},{"bufferView":3,"componentType":5126,"count":2016,"type":"VEC2"},{"bufferView":4,"componentType":5123,"count":9456,"type":"SCALAR"}],"bufferViews":[{"buffer":0,"byteOffset":0,"byteLength":24192},{"buffer":0,"byteOffset":24192,"byteLength":24192},{"buffer":0,"byteOffset":48384,"byteLength":16128},{"buffer":0,"byteOffset":64512,"byteLength":16128},{"buffer":0,"byteOffset":80640,"byteLength":18912}],"buffers":[{"byteLength":99552,"uri":"data:application/octet-stream;base64,"}]}
