{"asset":{"generator":"Khronos glTF Blender I/O v1.2.75","version":"2.0"},"scene":0,"scenes":[{"name":"Scene","nodes":[0]}],"nodes":[{"mesh":0,"name":"Mesh"}],"meshes":[{"name":"-1_0_-1_MI_WGS_01_cull_front","primitives":[{"indices":4,"attributes":{"POSITION":0,"NORMAL":1,"TEXCOORD_0":2,"TEXCOORD_1":3},"mode":4}]}],"accessors":[{"bufferView":0,"componentType":5126,"count":238,"type":"VEC3","min":[-25.999999999958998,-9.674359573317552,-18.74528809820421],"max":[-9.124738218594596,-0.7745434570312497,22.644429375059378]},{"bufferView":1,"componentType":5126,"count":238,"type":"VEC3"},{"bufferView":2,"componentType":5126,"count":238,"type":"VEC2"},{"bufferView":3,"componentType":5126,"count":238,"type":"VEC2"},{"bufferView":4,"componentType":5123,"count":354,"type":"SCALAR"}],"bufferViews":[{"buffer":0,"byteOffset":0,"byteLength":2856},{"buffer":0,"byteOffset":2856,"byteLength":2856},{"buffer":0,"byteOffset":5712,"byteLength":1904},{"buffer":0,"byteOffset":7616,"byteLength":1904},{"buffer":0,"byteOffset":9520,"byteLength":708}],"buffers":[{"byteLength":10228,"uri":"data:application/octet-stream;base64,"}]}
