{"asset":{"generator":"Khronos glTF Blender I/O v1.2.75","version":"2.0"},"scene":0,"scenes":[{"name":"Scene","nodes":[0]}],"nodes":[{"mesh":0,"name":"Mesh"}],"meshes":[{"name":"-1_0_-1_M_LampSet_01_no_ins","primitives":[{"indices":4,"attributes":{"POSITION":0,"NORMAL":1,"TEXCOORD_0":2,"TEXCOORD_1":3},"mode":4}]}],"accessors":[{"bufferView":0,"componentType":5126,"count":14784,"type":"VEC3","min":[-0.3118903228006507,-14.786259778157232,7.00451546749254],"max":[25.081890100673398,-10.500233281051788,21.99735618538202]},{"bufferView":1,"componentType":5126,"count":14784,"type":"VEC3"},{"bufferView":2,"componentType":5126,"count":14784,"type":"VEC2"},{"bufferView":3,"componentType":5126,"count":14784,"type":"VEC2"},{"bufferView":4,"componentType":5123,"count":48510,"type":"SCALAR"}],"bufferViews":[{"buffer":0,"byteOffset":0,"byteLength":177408},{"buffer":0,"byteOffset":177408,"byteLength":177408},{"buffer":0,"byteOffset":354816,"byteLength":118272},{"buffer":0,"byteOffset":473088,"byteLength":118272},{"buffer":0,"byteOffset":591360,"byteLength":97020}],"buffers":[{"byteLength":688380,"uri":"data:application/octet-stream;base64,"}]}
