{"asset":{"generator":"Khronos glTF Blender I/O v1.2.75","version":"2.0"},"scene":0,"scenes":[{"name":"Scene","nodes":[0]}],"nodes":[{"mesh":0,"name":"Mesh"}],"meshes":[{"name":"-1_0_0_MI_PropsSetEm01","primitives":[{"indices":4,"attributes":{"POSITION":0,"NORMAL":1,"TEXCOORD_0":2,"TEXCOORD_1":3},"mode":4}]}],"accessors":[{"bufferView":0,"componentType":5126,"count":9113,"type":"VEC3","min":[-17.97000296476277,-23.605545549884024,-25.680000212366764],"max":[24.017096568982463,7.365609735384552,-19.850000755914284]},{"bufferView":1,"componentType":5126,"count":9113,"type":"VEC3"},{"bufferView":2,"componentType":5126,"count":9113,"type":"VEC2"},{"bufferView":3,"componentType":5126,"count":9113,"type":"VEC2"},{"bufferView":4,"componentType":5123,"count":28728,"type":"SCALAR"}],"bufferViews":[{"buffer":0,"byteOffset":0,"byteLength":109356},{"buffer":0,"byteOffset":109356,"byteLength":109356},{"buffer":0,"byteOffset":218712,"byteLength":72904},{"buffer":0,"byteOffset":291616,"byteLength":72904},{"buffer":0,"byteOffset":364520,"byteLength":57456}],"buffers":[{"byteLength":421976,"uri":"data:application/octet-stream;base64,"}]}
