{"asset":{"generator":"Khronos glTF Blender I/O v1.2.75","version":"2.0"},"scene":0,"scenes":[{"name":"Scene","nodes":[0]}],"nodes":[{"mesh":0,"name":"Mesh"}],"meshes":[{"name":"-1_0_-1_lambert1","primitives":[{"indices":4,"attributes":{"POSITION":0,"NORMAL":1,"TEXCOORD_0":2,"TEXCOORD_1":3},"mode":4}]}],"accessors":[{"bufferView":0,"componentType":5126,"count":186,"type":"VEC3","min":[-16.80000001192093,-21.250000631807897,9.849999994039628],"max":[-8.873677075547816,-14.999999781830335,20.20000026483734]},{"bufferView":1,"componentType":5126,"count":186,"type":"VEC3"},{"bufferView":2,"componentType":5126,"count":186,"type":"VEC2"},{"bufferView":3,"componentType":5126,"count":186,"type":"VEC2"},{"bufferView":4,"componentType":5123,"count":408,"type":"SCALAR"}],"bufferViews":[{"buffer":0,"byteOffset":0,"byteLength":2232},{"buffer":0,"byteOffset":2232,"byteLength":2232},{"buffer":0,"byteOffset":4464,"byteLength":1488},{"buffer":0,"byteOffset":5952,"byteLength":1488},{"buffer":0,"byteOffset":7440,"byteLength":816}],"buffers":[{"byteLength":8256,"uri":"data:application/octet-stream;base64,"}]}
