{"asset":{"generator":"Khronos glTF Blender I/O v1.2.75","version":"2.0"},"scene":0,"scenes":[{"name":"Scene","nodes":[0]}],"nodes":[{"mesh":0,"name":"Mesh"}],"meshes":[{"name":"-1_0_-2_MI_WallTile01","primitives":[{"indices":4,"attributes":{"POSITION":0,"NORMAL":1,"TEXCOORD_0":2,"TEXCOORD_1":3},"mode":4}]}],"accessors":[{"bufferView":0,"componentType":5126,"count":52,"type":"VEC3","min":[21.600000047301513,-20.5,18.449999626804715],"max":[21.708559167609145,-16.99571332055166,25.201747608180934]},{"bufferView":1,"componentType":5126,"count":52,"type":"VEC3"},{"bufferView":2,"componentType":5126,"count":52,"type":"VEC2"},{"bufferView":3,"componentType":5126,"count":52,"type":"VEC2"},{"bufferView":4,"componentType":5123,"count":96,"type":"SCALAR"}],"bufferViews":[{"buffer":0,"byteOffset":0,"byteLength":624},{"buffer":0,"byteOffset":624,"byteLength":624},{"buffer":0,"byteOffset":1248,"byteLength":416},{"buffer":0,"byteOffset":1664,"byteLength":416},{"buffer":0,"byteOffset":2080,"byteLength":192}],"buffers":[{"byteLength":2272,"uri":"data:application/octet-stream;base64,"}]}
