{"asset":{"generator":"Khronos glTF Blender I/O v1.2.75","version":"2.0"},"scene":0,"scenes":[{"name":"Scene","nodes":[0]}],"nodes":[{"mesh":0,"name":"Mesh"}],"meshes":[{"name":"-1_0_-1_M_EmissiveBase","primitives":[{"indices":4,"attributes":{"POSITION":0,"NORMAL":1,"TEXCOORD_0":2,"TEXCOORD_1":3},"mode":4}]}],"accessors":[{"bufferView":0,"componentType":5126,"count":72,"type":"VEC3","min":[-20.699868467365704,-15.022525055654027,-12.99086068588714],"max":[-11.570322016881008,-14.97747504193128,-8.500684101317303]},{"bufferView":1,"componentType":5126,"count":72,"type":"VEC3"},{"bufferView":2,"componentType":5126,"count":72,"type":"VEC2"},{"bufferView":3,"componentType":5126,"count":72,"type":"VEC2"},{"bufferView":4,"componentType":5123,"count":108,"type":"SCALAR"}],"bufferViews":[{"buffer":0,"byteOffset":0,"byteLength":864},{"buffer":0,"byteOffset":864,"byteLength":864},{"buffer":0,"byteOffset":1728,"byteLength":576},{"buffer":0,"byteOffset":2304,"byteLength":576},{"buffer":0,"byteOffset":2880,"byteLength":216}],"buffers":[{"byteLength":3096,"uri":"data:application/octet-stream;base64,"}]}
