{"asset":{"generator":"Khronos glTF Blender I/O v1.2.75","version":"2.0"},"scene":0,"scenes":[{"name":"Scene","nodes":[0]}],"nodes":[{"mesh":0,"name":"Mesh"}],"meshes":[{"name":"-1_0_-1_MI_Glass_02_no_ins","primitives":[{"indices":4,"attributes":{"POSITION":0,"NORMAL":1,"TEXCOORD_0":2,"TEXCOORD_1":3},"mode":4}]}],"accessors":[{"bufferView":0,"componentType":5126,"count":9576,"type":"VEC3","min":[-0.3118903228006507,-23.906384276195084,-7.2367746595591225],"max":[25.081890100673398,-10.500233162851677,22.650664734732192]},{"bufferView":1,"componentType":5126,"count":9576,"type":"VEC3"},{"bufferView":2,"componentType":5126,"count":9576,"type":"VEC2"},{"bufferView":3,"componentType":5126,"count":9576,"type":"VEC2"},{"bufferView":4,"componentType":5123,"count":44916,"type":"SCALAR"}],"bufferViews":[{"buffer":0,"byteOffset":0,"byteLength":114912},{"buffer":0,"byteOffset":114912,"byteLength":114912},{"buffer":0,"byteOffset":229824,"byteLength":76608},{"buffer":0,"byteOffset":306432,"byteLength":76608},{"buffer":0,"byteOffset":383040,"byteLength":89832}],"buffers":[{"byteLength":472872,"uri":"data:application/octet-stream;base64,"}]}
