{"asset":{"generator":"Khronos glTF Blender I/O v1.2.75","version":"2.0"},"scene":0,"scenes":[{"name":"Scene","nodes":[0]}],"nodes":[{"mesh":0,"name":"Mesh"}],"meshes":[{"name":"-1_0_-1_M_Signboards01","primitives":[{"indices":4,"attributes":{"POSITION":0,"NORMAL":1,"TEXCOORD_0":2,"TEXCOORD_1":3},"mode":4}]}],"accessors":[{"bufferView":0,"componentType":5126,"count":14443,"type":"VEC3","min":[-10.73549408410905,-23.6801971077919,-19.063211583907535],"max":[17.40968113361459,-7.4516203286914795,24.51145523462782]},{"bufferView":1,"componentType":5126,"count":14443,"type":"VEC3"},{"bufferView":2,"componentType":5126,"count":14443,"type":"VEC2"},{"bufferView":3,"componentType":5126,"count":14443,"type":"VEC2"},{"bufferView":4,"componentType":5123,"count":54000,"type":"SCALAR"}],"bufferViews":[{"buffer":0,"byteOffset":0,"byteLength":173316},{"buffer":0,"byteOffset":173316,"byteLength":173316},{"buffer":0,"byteOffset":346632,"byteLength":115544},{"buffer":0,"byteOffset":462176,"byteLength":115544},{"buffer":0,"byteOffset":577720,"byteLength":108000}],"buffers":[{"byteLength":685720,"uri":"data:application/octet-stream;base64,"}]}
