{"asset":{"generator":"Khronos glTF Blender I/O v1.2.75","version":"2.0"},"scene":0,"scenes":[{"name":"Scene","nodes":[0]}],"nodes":[{"mesh":0,"name":"Mesh"}],"meshes":[{"name":"-1_0_-1_MI_PlatformRailing_01","primitives":[{"indices":4,"attributes":{"POSITION":0,"NORMAL":1,"TEXCOORD_0":2,"TEXCOORD_1":3},"mode":4}]}],"accessors":[{"bufferView":0,"componentType":5126,"count":6676,"type":"VEC3","min":[9.011016527391913,-12.850012675744074,15.886214653150661],"max":[19.998983356965393,-11.573331809043884,18.693762945938108]},{"bufferView":1,"componentType":5126,"count":6676,"type":"VEC3"},{"bufferView":2,"componentType":5126,"count":6676,"type":"VEC2"},{"bufferView":3,"componentType":5126,"count":6676,"type":"VEC2"},{"bufferView":4,"componentType":5123,"count":21072,"type":"SCALAR"}],"bufferViews":[{"buffer":0,"byteOffset":0,"byteLength":80112},{"buffer":0,"byteOffset":80112,"byteLength":80112},{"buffer":0,"byteOffset":160224,"byteLength":53408},{"buffer":0,"byteOffset":213632,"byteLength":53408},{"buffer":0,"byteOffset":267040,"byteLength":42144}],"buffers":[{"byteLength":309184,"uri":"data:application/octet-stream;base64,"}]}
