{"asset":{"generator":"Khronos glTF Blender I/O v1.2.75","version":"2.0"},"scene":0,"scenes":[{"name":"Scene","nodes":[0]}],"nodes":[{"mesh":0,"name":"Mesh"}],"meshes":[{"name":"-1_0_-1_MI_PaperBoxes_01","primitives":[{"indices":4,"attributes":{"POSITION":0,"NORMAL":1,"TEXCOORD_0":2,"TEXCOORD_1":3},"mode":4}]}],"accessors":[{"bufferView":0,"componentType":5126,"count":1648,"type":"VEC3","min":[-12.534352511625064,-24.829351781606675,-11.002790266702695],"max":[21.70821536869445,-22.541367082595826,23.486500024702874]},{"bufferView":1,"componentType":5126,"count":1648,"type":"VEC3"},{"bufferView":2,"componentType":5126,"count":1648,"type":"VEC2"},{"bufferView":3,"componentType":5126,"count":1648,"type":"VEC2"},{"bufferView":4,"componentType":5123,"count":2364,"type":"SCALAR"}],"bufferViews":[{"buffer":0,"byteOffset":0,"byteLength":19776},{"buffer":0,"byteOffset":19776,"byteLength":19776},{"buffer":0,"byteOffset":39552,"byteLength":13184},{"buffer":0,"byteOffset":52736,"byteLength":13184},{"buffer":0,"byteOffset":65920,"byteLength":4728}],"buffers":[{"byteLength":70648,"uri":"data:application/octet-stream;base64,"}]}
