{"asset":{"generator":"Khronos glTF Blender I/O v1.2.75","version":"2.0"},"scene":0,"scenes":[{"name":"Scene","nodes":[0]}],"nodes":[{"mesh":0,"name":"Mesh"}],"meshes":[{"name":"-1_0_-1_MI_RoadMarkings","primitives":[{"indices":4,"attributes":{"POSITION":0,"NORMAL":1,"TEXCOORD_0":2,"TEXCOORD_1":3},"mode":4}]}],"accessors":[{"bufferView":0,"componentType":5126,"count":1280,"type":"VEC3","min":[-20.63629368703028,-24.925882682800292,-23.048561443819395],"max":[28.566750709180106,-12.82630615234375,25.01879511195645]},{"bufferView":1,"componentType":5126,"count":1280,"type":"VEC3"},{"bufferView":2,"componentType":5126,"count":1280,"type":"VEC2"},{"bufferView":3,"componentType":5126,"count":1280,"type":"VEC2"},{"bufferView":4,"componentType":5123,"count":2748,"type":"SCALAR"}],"bufferViews":[{"buffer":0,"byteOffset":0,"byteLength":15360},{"buffer":0,"byteOffset":15360,"byteLength":15360},{"buffer":0,"byteOffset":30720,"byteLength":10240},{"buffer":0,"byteOffset":40960,"byteLength":10240},{"buffer":0,"byteOffset":51200,"byteLength":5496}],"buffers":[{"byteLength":56696,"uri":"data:application/octet-stream;base64,"}]}
