{"asset":{"generator":"Khronos glTF Blender I/O v1.2.75","version":"2.0"},"scene":0,"scenes":[{"name":"Scene","nodes":[0]}],"nodes":[{"mesh":0,"name":"Mesh"}],"meshes":[{"name":"-1_0_-1_MI_MetalWallPart_01","primitives":[{"indices":4,"attributes":{"POSITION":0,"NORMAL":1,"TEXCOORD_0":2,"TEXCOORD_1":3},"mode":4}]}],"accessors":[{"bufferView":0,"componentType":5126,"count":864,"type":"VEC3","min":[17.400000031409775,-20.600000762939466,6.506022142768597],"max":[25.419999772441827,-16.767422891989195,23.153979455128635]},{"bufferView":1,"componentType":5126,"count":864,"type":"VEC3"},{"bufferView":2,"componentType":5126,"count":864,"type":"VEC2"},{"bufferView":3,"componentType":5126,"count":864,"type":"VEC2"},{"bufferView":4,"componentType":5123,"count":1368,"type":"SCALAR"}],"bufferViews":[{"buffer":0,"byteOffset":0,"byteLength":10368},{"buffer":0,"byteOffset":10368,"byteLength":10368},{"buffer":0,"byteOffset":20736,"byteLength":6912},{"buffer":0,"byteOffset":27648,"byteLength":6912},{"buffer":0,"byteOffset":34560,"byteLength":2736}],"buffers":[{"byteLength":37296,"uri":"data:application/octet-stream;base64,"}]}
