{"asset":{"generator":"Khronos glTF Blender I/O v1.2.75","version":"2.0"},"scene":0,"scenes":[{"name":"Scene","nodes":[0]}],"nodes":[{"mesh":0,"name":"Mesh"}],"meshes":[{"name":"-1_0_-1_MI_MetalBeam01","primitives":[{"indices":4,"attributes":{"POSITION":0,"NORMAL":1,"TEXCOORD_0":2,"TEXCOORD_1":3},"mode":4}]}],"accessors":[{"bufferView":0,"componentType":5126,"count":22976,"type":"VEC3","min":[-1.1328328360962296,-25.757262115478515,-11.298416395735886],"max":[25.014364346375995,-8.886633300781249,26.968432295228073]},{"bufferView":1,"componentType":5126,"count":22976,"type":"VEC3"},{"bufferView":2,"componentType":5126,"count":22976,"type":"VEC2"},{"bufferView":3,"componentType":5126,"count":22976,"type":"VEC2"},{"bufferView":4,"componentType":5123,"count":70230,"type":"SCALAR"}],"bufferViews":[{"buffer":0,"byteOffset":0,"byteLength":275712},{"buffer":0,"byteOffset":275712,"byteLength":275712},{"buffer":0,"byteOffset":551424,"byteLength":183808},{"buffer":0,"byteOffset":735232,"byteLength":183808},{"buffer":0,"byteOffset":919040,"byteLength":140460}],"buffers":[{"byteLength":1059500,"uri":"data:application/octet-stream;base64,"}]}
