{"asset":{"generator":"Khronos glTF Blender I/O v1.2.75","version":"2.0"},"scene":0,"scenes":[{"name":"Scene","nodes":[0]}],"nodes":[{"mesh":0,"name":"Mesh"}],"meshes":[{"name":"-1_0_-1_MI_SignboardText02","primitives":[{"indices":4,"attributes":{"POSITION":0,"NORMAL":1,"TEXCOORD_0":2,"TEXCOORD_1":3},"mode":4}]}],"accessors":[{"bufferView":0,"componentType":5126,"count":3538,"type":"VEC3","min":[3.746163990388749,-18.917323833352015,-7.67188773231907],"max":[17.58737669720099,9.209139784392327,19.185608401877612]},{"bufferView":1,"componentType":5126,"count":3538,"type":"VEC3"},{"bufferView":2,"componentType":5126,"count":3538,"type":"VEC2"},{"bufferView":3,"componentType":5126,"count":3538,"type":"VEC2"},{"bufferView":4,"componentType":5123,"count":9228,"type":"SCALAR"}],"bufferViews":[{"buffer":0,"byteOffset":0,"byteLength":42456},{"buffer":0,"byteOffset":42456,"byteLength":42456},{"buffer":0,"byteOffset":84912,"byteLength":28304},{"buffer":0,"byteOffset":113216,"byteLength":28304},{"buffer":0,"byteOffset":141520,"byteLength":18456}],"buffers":[{"byteLength":159976,"uri":"data:application/octet-stream;base64,"}]}
