{"asset":{"generator":"Khronos glTF Blender I/O v1.2.75","version":"2.0"},"scene":0,"scenes":[{"name":"Scene","nodes":[0]}],"nodes":[{"mesh":0,"name":"Mesh"}],"meshes":[{"name":"-1_0_0_MI_EnvirAssets_01","primitives":[{"indices":4,"attributes":{"POSITION":0,"NORMAL":1,"TEXCOORD_0":2,"TEXCOORD_1":3},"mode":4}]}],"accessors":[{"bufferView":0,"componentType":5126,"count":10066,"type":"VEC3","min":[-21.200337430168858,-24.929999694824225,-24.694999996354376],"max":[19.5722758439792,24.825021972656245,-13.49215382197377]},{"bufferView":1,"componentType":5126,"count":10066,"type":"VEC3"},{"bufferView":2,"componentType":5126,"count":10066,"type":"VEC2"},{"bufferView":3,"componentType":5126,"count":10066,"type":"VEC2"},{"bufferView":4,"componentType":5123,"count":19188,"type":"SCALAR"}],"bufferViews":[{"buffer":0,"byteOffset":0,"byteLength":120792},{"buffer":0,"byteOffset":120792,"byteLength":120792},{"buffer":0,"byteOffset":241584,"byteLength":80528},{"buffer":0,"byteOffset":322112,"byteLength":80528},{"buffer":0,"byteOffset":402640,"byteLength":38376}],"buffers":[{"byteLength":441016,"uri":"data:application/octet-stream;base64,"}]}
