{"asset":{"generator":"Khronos glTF Blender I/O v1.2.75","version":"2.0"},"scene":0,"scenes":[{"name":"Scene","nodes":[0]}],"nodes":[{"mesh":0,"name":"Mesh"}],"meshes":[{"name":"-1_0_0_MI_WGS_01_cull_front","primitives":[{"indices":4,"attributes":{"POSITION":0,"NORMAL":1,"TEXCOORD_0":2,"TEXCOORD_1":3},"mode":4}]}],"accessors":[{"bufferView":0,"componentType":5126,"count":64,"type":"VEC3","min":[-9.124788818308126,-9.674359573317552,-27.355643861779463],"max":[0.8752617814054044,-9.674339599609375,-17.355570624940622]},{"bufferView":1,"componentType":5126,"count":64,"type":"VEC3"},{"bufferView":2,"componentType":5126,"count":64,"type":"VEC2"},{"bufferView":3,"componentType":5126,"count":64,"type":"VEC2"},{"bufferView":4,"componentType":5123,"count":96,"type":"SCALAR"}],"bufferViews":[{"buffer":0,"byteOffset":0,"byteLength":768},{"buffer":0,"byteOffset":768,"byteLength":768},{"buffer":0,"byteOffset":1536,"byteLength":512},{"buffer":0,"byteOffset":2048,"byteLength":512},{"buffer":0,"byteOffset":2560,"byteLength":192}],"buffers":[{"byteLength":2752,"uri":"data:application/octet-stream;base64,"}]}
