{"asset":{"generator":"Khronos glTF Blender I/O v1.2.75","version":"2.0"},"scene":0,"scenes":[{"name":"Scene","nodes":[0]}],"nodes":[{"mesh":0,"name":"Mesh"}],"meshes":[{"name":"-1_0_0_MI_Platform_01","primitives":[{"indices":4,"attributes":{"POSITION":0,"NORMAL":1,"TEXCOORD_0":2,"TEXCOORD_1":3},"mode":4}]}],"accessors":[{"bufferView":0,"componentType":5126,"count":2790,"type":"VEC3","min":[16.24999993782938,-24.79368159878999,-23.27227079893373],"max":[25.091268473897646,21.33071393966675,-19.762374254465104]},{"bufferView":1,"componentType":5126,"count":2790,"type":"VEC3"},{"bufferView":2,"componentType":5126,"count":2790,"type":"VEC2"},{"bufferView":3,"componentType":5126,"count":2790,"type":"VEC2"},{"bufferView":4,"componentType":5123,"count":5004,"type":"SCALAR"}],"bufferViews":[{"buffer":0,"byteOffset":0,"byteLength":33480},{"buffer":0,"byteOffset":33480,"byteLength":33480},{"buffer":0,"byteOffset":66960,"byteLength":22320},{"buffer":0,"byteOffset":89280,"byteLength":22320},{"buffer":0,"byteOffset":111600,"byteLength":10008}],"buffers":[{"byteLength":121608,"uri":"data:application/octet-stream;base64,"}]}
