{"asset":{"generator":"Khronos glTF Blender I/O v1.2.75","version":"2.0"},"scene":0,"scenes":[{"name":"Scene","nodes":[0]}],"nodes":[{"mesh":0,"name":"Mesh"}],"meshes":[{"name":"-1_0_-1_MI_PropsSetEm01","primitives":[{"indices":4,"attributes":{"POSITION":0,"NORMAL":1,"TEXCOORD_0":2,"TEXCOORD_1":3},"mode":4}]}],"accessors":[{"bufferView":0,"componentType":5126,"count":43141,"type":"VEC3","min":[-22.03210852568692,-22.019594315954187,-13.483821950942385],"max":[24.443349609374945,-15.892067866325378,24.36052249171911]},{"bufferView":1,"componentType":5126,"count":43141,"type":"VEC3"},{"bufferView":2,"componentType":5126,"count":43141,"type":"VEC2"},{"bufferView":3,"componentType":5126,"count":43141,"type":"VEC2"},{"bufferView":4,"componentType":5123,"count":142194,"type":"SCALAR"}],"bufferViews":[{"buffer":0,"byteOffset":0,"byteLength":517692},{"buffer":0,"byteOffset":517692,"byteLength":517692},{"buffer":0,"byteOffset":1035384,"byteLength":345128},{"buffer":0,"byteOffset":1380512,"byteLength":345128},{"buffer":0,"byteOffset":1725640,"byteLength":284388}],"buffers":[{"byteLength":2010028,"uri":"data:application/octet-stream;base64,"}]}
