{"asset":{"generator":"Khronos glTF Blender I/O v1.2.75","version":"2.0"},"scene":0,"scenes":[{"name":"Scene","nodes":[0]}],"nodes":[{"mesh":0,"name":"Mesh"}],"meshes":[{"name":"-1_0_-1_MI_PropsSetEm01","primitives":[{"indices":4,"attributes":{"POSITION":0,"NORMAL":1,"TEXCOORD_0":2,"TEXCOORD_1":3},"mode":4}]}],"accessors":[{"bufferView":0,"componentType":5126,"count":7847,"type":"VEC3","min":[-24.859711286692193,-21.760391734177098,-16.311425876574052],"max":[24.443349609374945,-15.892067866325378,22.487126395412723]},{"bufferView":1,"componentType":5126,"count":7847,"type":"VEC3"},{"bufferView":2,"componentType":5126,"count":7847,"type":"VEC2"},{"bufferView":3,"componentType":5126,"count":7847,"type":"VEC2"},{"bufferView":4,"componentType":5123,"count":25068,"type":"SCALAR"}],"bufferViews":[{"buffer":0,"byteOffset":0,"byteLength":94164},{"buffer":0,"byteOffset":94164,"byteLength":94164},{"buffer":0,"byteOffset":188328,"byteLength":62776},{"buffer":0,"byteOffset":251104,"byteLength":62776},{"buffer":0,"byteOffset":313880,"byteLength":50136}],"buffers":[{"byteLength":364016,"uri":"data:application/octet-stream;base64,"}]}
