{"asset":{"generator":"Khronos glTF Blender I/O v1.2.75","version":"2.0"},"scene":0,"scenes":[{"name":"Scene","nodes":[0]}],"nodes":[{"mesh":0,"name":"Mesh"}],"meshes":[{"name":"-1_0_0_MI_PropsSetEm01_cull_front","primitives":[{"indices":4,"attributes":{"POSITION":0,"NORMAL":1,"TEXCOORD_0":2,"TEXCOORD_1":3},"mode":4}]}],"accessors":[{"bufferView":0,"componentType":5126,"count":2989,"type":"VEC3","min":[18.16339948867149,-23.614185915177515,-19.9780500550381],"max":[19.99980580167143,-11.306917538529277,-19.85000075591454]},{"bufferView":1,"componentType":5126,"count":2989,"type":"VEC3"},{"bufferView":2,"componentType":5126,"count":2989,"type":"VEC2"},{"bufferView":3,"componentType":5126,"count":2989,"type":"VEC2"},{"bufferView":4,"componentType":5123,"count":9576,"type":"SCALAR"}],"bufferViews":[{"buffer":0,"byteOffset":0,"byteLength":35868},{"buffer":0,"byteOffset":35868,"byteLength":35868},{"buffer":0,"byteOffset":71736,"byteLength":23912},{"buffer":0,"byteOffset":95648,"byteLength":23912},{"buffer":0,"byteOffset":119560,"byteLength":19152}],"buffers":[{"byteLength":138712,"uri":"data:application/octet-stream;base64,"}]}
