{"asset":{"generator":"Khronos glTF Blender I/O v1.2.75","version":"2.0"},"scene":0,"scenes":[{"name":"Scene","nodes":[0]}],"nodes":[{"mesh":0,"name":"Mesh"}],"meshes":[{"name":"-1_0_-1_MI_WGS_03","primitives":[{"indices":4,"attributes":{"POSITION":0,"NORMAL":1,"TEXCOORD_0":2,"TEXCOORD_1":3},"mode":4}]}],"accessors":[{"bufferView":0,"componentType":5126,"count":27641,"type":"VEC3","min":[-21.000006236392235,-20.518816832375187,-14.00000301668679],"max":[-11.99999981433802,-15.062614130344702,17.712681014060973]},{"bufferView":1,"componentType":5126,"count":27641,"type":"VEC3"},{"bufferView":2,"componentType":5126,"count":27641,"type":"VEC2"},{"bufferView":3,"componentType":5126,"count":27641,"type":"VEC2"},{"bufferView":4,"componentType":5123,"count":75924,"type":"SCALAR"}],"bufferViews":[{"buffer":0,"byteOffset":0,"byteLength":331692},{"buffer":0,"byteOffset":331692,"byteLength":331692},{"buffer":0,"byteOffset":663384,"byteLength":221128},{"buffer":0,"byteOffset":884512,"byteLength":221128},{"buffer":0,"byteOffset":1105640,"byteLength":151848}],"buffers":[{"byteLength":1257488,"uri":"data:application/octet-stream;base64,"}]}
