{"asset":{"generator":"Khronos glTF Blender I/O v1.2.75","version":"2.0"},"scene":0,"scenes":[{"name":"Scene","nodes":[0]}],"nodes":[{"mesh":0,"name":"Mesh"}],"meshes":[{"name":"-1_0_-2_MI_BackgroundBuildings","primitives":[{"indices":4,"attributes":{"POSITION":0,"NORMAL":1,"TEXCOORD_0":2,"TEXCOORD_1":3},"mode":4}]}],"accessors":[{"bufferView":0,"componentType":5126,"count":4028,"type":"VEC3","min":[-35.365726515422836,-35.50000061035155,-15.365599845587042],"max":[17.578800611309887,26.811153411865234,26.908004719753706]},{"bufferView":1,"componentType":5126,"count":4028,"type":"VEC3"},{"bufferView":2,"componentType":5126,"count":4028,"type":"VEC2"},{"bufferView":3,"componentType":5126,"count":4028,"type":"VEC2"},{"bufferView":4,"componentType":5123,"count":12522,"type":"SCALAR"}],"bufferViews":[{"buffer":0,"byteOffset":0,"byteLength":48336},{"buffer":0,"byteOffset":48336,"byteLength":48336},{"buffer":0,"byteOffset":96672,"byteLength":32224},{"buffer":0,"byteOffset":128896,"byteLength":32224},{"buffer":0,"byteOffset":161120,"byteLength":25044}],"buffers":[{"byteLength":186164,"uri":"data:application/octet-stream;base64,"}]}
