{"asset":{"generator":"Khronos glTF Blender I/O v1.2.75","version":"2.0"},"scene":0,"scenes":[{"name":"Scene","nodes":[0]}],"nodes":[{"mesh":0,"name":"Mesh"}],"meshes":[{"name":"-1_0_-2_MI_EnvirAssets_01","primitives":[{"indices":4,"attributes":{"POSITION":0,"NORMAL":1,"TEXCOORD_0":2,"TEXCOORD_1":3},"mode":4}]}],"accessors":[{"bufferView":0,"componentType":5126,"count":598,"type":"VEC3","min":[-9.896108714821784,-24.799999694824226,22.399999879326085],"max":[-5.8402831275446605,-16.346213150024415,23.200002979005898]},{"bufferView":1,"componentType":5126,"count":598,"type":"VEC3"},{"bufferView":2,"componentType":5126,"count":598,"type":"VEC2"},{"bufferView":3,"componentType":5126,"count":598,"type":"VEC2"},{"bufferView":4,"componentType":5123,"count":1758,"type":"SCALAR"}],"bufferViews":[{"buffer":0,"byteOffset":0,"byteLength":7176},{"buffer":0,"byteOffset":7176,"byteLength":7176},{"buffer":0,"byteOffset":14352,"byteLength":4784},{"buffer":0,"byteOffset":19136,"byteLength":4784},{"buffer":0,"byteOffset":23920,"byteLength":3516}],"buffers":[{"byteLength":27436,"uri":"data:application/octet-stream;base64,"}]}
