{"asset":{"generator":"Khronos glTF Blender I/O v1.2.75","version":"2.0"},"scene":0,"scenes":[{"name":"Scene","nodes":[0]}],"nodes":[{"mesh":0,"name":"Mesh"}],"meshes":[{"name":"-1_0_-1_M_Car","primitives":[{"indices":4,"attributes":{"POSITION":0,"NORMAL":1,"TEXCOORD_0":2,"TEXCOORD_1":3},"mode":4}]}],"accessors":[{"bufferView":0,"componentType":5126,"count":20916,"type":"VEC3","min":[-8.54856661668566,-22.436040362359044,-17.907707479987074],"max":[-3.2864907568092105,-18.301877511196924,12.355634949167005]},{"bufferView":1,"componentType":5126,"count":20916,"type":"VEC3"},{"bufferView":2,"componentType":5126,"count":20916,"type":"VEC2"},{"bufferView":3,"componentType":5126,"count":20916,"type":"VEC2"},{"bufferView":4,"componentType":5123,"count":61908,"type":"SCALAR"}],"bufferViews":[{"buffer":0,"byteOffset":0,"byteLength":250992},{"buffer":0,"byteOffset":250992,"byteLength":250992},{"buffer":0,"byteOffset":501984,"byteLength":167328},{"buffer":0,"byteOffset":669312,"byteLength":167328},{"buffer":0,"byteOffset":836640,"byteLength":123816}],"buffers":[{"byteLength":960456,"uri":"data:application/octet-stream;base64,"}]}
