{"asset":{"generator":"Khronos glTF Blender I/O v1.2.75","version":"2.0"},"scene":0,"scenes":[{"name":"Scene","nodes":[0]}],"nodes":[{"mesh":0,"name":"Mesh"}],"meshes":[{"name":"-1_0_0_MI_Building05","primitives":[{"indices":4,"attributes":{"POSITION":0,"NORMAL":1,"TEXCOORD_0":2,"TEXCOORD_1":3},"mode":4}]}],"accessors":[{"bufferView":0,"componentType":5126,"count":1592,"type":"VEC3","min":[-25.102359528702735,-0.38000061050057354,-11.549212984417537],"max":[-23.927849055349412,23.64,5.307725472534159]},{"bufferView":1,"componentType":5126,"count":1592,"type":"VEC3"},{"bufferView":2,"componentType":5126,"count":1592,"type":"VEC2"},{"bufferView":3,"componentType":5126,"count":1592,"type":"VEC2"},{"bufferView":4,"componentType":5123,"count":3372,"type":"SCALAR"}],"bufferViews":[{"buffer":0,"byteOffset":0,"byteLength":19104},{"buffer":0,"byteOffset":19104,"byteLength":19104},{"buffer":0,"byteOffset":38208,"byteLength":12736},{"buffer":0,"byteOffset":50944,"byteLength":12736},{"buffer":0,"byteOffset":63680,"byteLength":6744}],"buffers":[{"byteLength":70424,"uri":"data:application/octet-stream;base64,"}]}
