{"asset":{"generator":"Khronos glTF Blender I/O v1.2.75","version":"2.0"},"scene":0,"scenes":[{"name":"Scene","nodes":[0]}],"nodes":[{"mesh":0,"name":"Mesh"}],"meshes":[{"name":"-1_0_0_MI_Roof01_BC","primitives":[{"indices":4,"attributes":{"POSITION":0,"NORMAL":1,"TEXCOORD_0":2,"TEXCOORD_1":3},"mode":4}]}],"accessors":[{"bufferView":0,"componentType":5126,"count":840,"type":"VEC3","min":[-29.27206062733976,-27.716453552246094,-26.737465515136726],"max":[16.15972900390625,41.39658737182617,18.587383625688673]},{"bufferView":1,"componentType":5126,"count":840,"type":"VEC3"},{"bufferView":2,"componentType":5126,"count":840,"type":"VEC2"},{"bufferView":3,"componentType":5126,"count":840,"type":"VEC2"},{"bufferView":4,"componentType":5123,"count":1260,"type":"SCALAR"}],"bufferViews":[{"buffer":0,"byteOffset":0,"byteLength":10080},{"buffer":0,"byteOffset":10080,"byteLength":10080},{"buffer":0,"byteOffset":20160,"byteLength":6720},{"buffer":0,"byteOffset":26880,"byteLength":6720},{"buffer":0,"byteOffset":33600,"byteLength":2520}],"buffers":[{"byteLength":36120,"uri":"data:application/octet-stream;base64,"}]}
