{"asset":{"generator":"Khronos glTF Blender I/O v1.2.75","version":"2.0"},"scene":0,"scenes":[{"name":"Scene","nodes":[0]}],"nodes":[{"mesh":0,"name":"Mesh"}],"meshes":[{"name":"-1_0_-1_MI_Building05","primitives":[{"indices":4,"attributes":{"POSITION":0,"NORMAL":1,"TEXCOORD_0":2,"TEXCOORD_1":3},"mode":4}]}],"accessors":[{"bufferView":0,"componentType":5126,"count":1212,"type":"VEC3","min":[21.44999957374254,-10.923288226037169,-26.850000335213764],"max":[22.034753751641478,-2.8534862230585745,-5.339055384481517]},{"bufferView":1,"componentType":5126,"count":1212,"type":"VEC3"},{"bufferView":2,"componentType":5126,"count":1212,"type":"VEC2"},{"bufferView":3,"componentType":5126,"count":1212,"type":"VEC2"},{"bufferView":4,"componentType":5123,"count":2562,"type":"SCALAR"}],"bufferViews":[{"buffer":0,"byteOffset":0,"byteLength":14544},{"buffer":0,"byteOffset":14544,"byteLength":14544},{"buffer":0,"byteOffset":29088,"byteLength":9696},{"buffer":0,"byteOffset":38784,"byteLength":9696},{"buffer":0,"byteOffset":48480,"byteLength":5124}],"buffers":[{"byteLength":53604,"uri":"data:application/octet-stream;base64,"}]}
