{"asset":{"generator":"Khronos glTF Blender I/O v1.2.75","version":"2.0"},"scene":0,"scenes":[{"name":"Scene","nodes":[0]}],"nodes":[{"mesh":0,"name":"Mesh"}],"meshes":[{"name":"-1_0_-2_M_Building08","primitives":[{"indices":4,"attributes":{"POSITION":0,"NORMAL":1,"TEXCOORD_0":2,"TEXCOORD_1":3},"mode":4}]}],"accessors":[{"bufferView":0,"componentType":5126,"count":9532,"type":"VEC3","min":[-11.923257257578324,-24.963150978088375,12.500000457763662],"max":[-0.9232568359375026,-4.963149719238274,13.254116963495548]},{"bufferView":1,"componentType":5126,"count":9532,"type":"VEC3"},{"bufferView":2,"componentType":5126,"count":9532,"type":"VEC2"},{"bufferView":3,"componentType":5126,"count":9532,"type":"VEC2"},{"bufferView":4,"componentType":5123,"count":33252,"type":"SCALAR"}],"bufferViews":[{"buffer":0,"byteOffset":0,"byteLength":114384},{"buffer":0,"byteOffset":114384,"byteLength":114384},{"buffer":0,"byteOffset":228768,"byteLength":76256},{"buffer":0,"byteOffset":305024,"byteLength":76256},{"buffer":0,"byteOffset":381280,"byteLength":66504}],"buffers":[{"byteLength":447784,"uri":"data:application/octet-stream;base64,"}]}
