{"asset":{"generator":"Khronos glTF Blender I/O v1.2.75","version":"2.0"},"scene":0,"scenes":[{"name":"Scene","nodes":[0]}],"nodes":[{"mesh":0,"name":"Mesh"}],"meshes":[{"name":"-1_0_-2_MI_RoadMarkings","primitives":[{"indices":4,"attributes":{"POSITION":0,"NORMAL":1,"TEXCOORD_0":2,"TEXCOORD_1":3},"mode":4}]}],"accessors":[{"bufferView":0,"componentType":5126,"count":112,"type":"VEC3","min":[-8.19700877943739,-24.92,13.875555478819926],"max":[-3.1180153458707442,-24.77079650878906,26.910687907967784]},{"bufferView":1,"componentType":5126,"count":112,"type":"VEC3"},{"bufferView":2,"componentType":5126,"count":112,"type":"VEC2"},{"bufferView":3,"componentType":5126,"count":112,"type":"VEC2"},{"bufferView":4,"componentType":5123,"count":294,"type":"SCALAR"}],"bufferViews":[{"buffer":0,"byteOffset":0,"byteLength":1344},{"buffer":0,"byteOffset":1344,"byteLength":1344},{"buffer":0,"byteOffset":2688,"byteLength":896},{"buffer":0,"byteOffset":3584,"byteLength":896},{"buffer":0,"byteOffset":4480,"byteLength":588}],"buffers":[{"byteLength":5068,"uri":"data:application/octet-stream;base64,"}]}
