{"asset":{"generator":"Khronos glTF Blender I/O v1.2.75","version":"2.0"},"scene":0,"scenes":[{"name":"Scene","nodes":[0]}],"nodes":[{"mesh":0,"name":"Mesh"}],"meshes":[{"name":"-1_0_-1_MI_Building05_cull_front","primitives":[{"indices":4,"attributes":{"POSITION":0,"NORMAL":1,"TEXCOORD_0":2,"TEXCOORD_1":3},"mode":4}]}],"accessors":[{"bufferView":0,"componentType":5126,"count":112,"type":"VEC3","min":[-25.01253857089538,-27.66655191243931,-16.922421588729012],"max":[-4.414765280196418,-15.59999938676026,-15.69842538735774]},{"bufferView":1,"componentType":5126,"count":112,"type":"VEC3"},{"bufferView":2,"componentType":5126,"count":112,"type":"VEC2"},{"bufferView":3,"componentType":5126,"count":112,"type":"VEC2"},{"bufferView":4,"componentType":5123,"count":264,"type":"SCALAR"}],"bufferViews":[{"buffer":0,"byteOffset":0,"byteLength":1344},{"buffer":0,"byteOffset":1344,"byteLength":1344},{"buffer":0,"byteOffset":2688,"byteLength":896},{"buffer":0,"byteOffset":3584,"byteLength":896},{"buffer":0,"byteOffset":4480,"byteLength":528}],"buffers":[{"byteLength":5008,"uri":"data:application/octet-stream;base64,"}]}
