{"asset":{"generator":"Khronos glTF Blender I/O v1.2.75","version":"2.0"},"scene":0,"scenes":[{"name":"Scene","nodes":[0]}],"nodes":[{"mesh":0,"name":"Mesh"}],"meshes":[{"name":"-1_0_0_MI_Signboards01","primitives":[{"indices":4,"attributes":{"POSITION":0,"NORMAL":1,"TEXCOORD_0":2,"TEXCOORD_1":3},"mode":4}]}],"accessors":[{"bufferView":0,"componentType":5126,"count":4100,"type":"VEC3","min":[1.069743687606362,-16.693054084511076,-24.31249612324725],"max":[1.2214026832209548,-15.19186321749107,-22.739752316948127]},{"bufferView":1,"componentType":5126,"count":4100,"type":"VEC3"},{"bufferView":2,"componentType":5126,"count":4100,"type":"VEC2"},{"bufferView":3,"componentType":5126,"count":4100,"type":"VEC2"},{"bufferView":4,"componentType":5123,"count":12816,"type":"SCALAR"}],"bufferViews":[{"buffer":0,"byteOffset":0,"byteLength":49200},{"buffer":0,"byteOffset":49200,"byteLength":49200},{"buffer":0,"byteOffset":98400,"byteLength":32800},{"buffer":0,"byteOffset":131200,"byteLength":32800},{"buffer":0,"byteOffset":164000,"byteLength":25632}],"buffers":[{"byteLength":189632,"uri":"data:application/octet-stream;base64,"}]}
