{"asset":{"generator":"Khronos glTF Blender I/O v1.2.75","version":"2.0"},"scene":0,"scenes":[{"name":"Scene","nodes":[0]}],"nodes":[{"mesh":0,"name":"Mesh"}],"meshes":[{"name":"-1_0_0_M_TrimSheetMaster","primitives":[{"indices":4,"attributes":{"POSITION":0,"NORMAL":1,"TEXCOORD_0":2,"TEXCOORD_1":3},"mode":4}]}],"accessors":[{"bufferView":0,"componentType":5126,"count":11536,"type":"VEC3","min":[-19.79966073010144,-24.9407680384117,-28.52551678464443],"max":[23.175210688473882,-8.725231862922662,-9.323423685554822]},{"bufferView":1,"componentType":5126,"count":11536,"type":"VEC3"},{"bufferView":2,"componentType":5126,"count":11536,"type":"VEC2"},{"bufferView":3,"componentType":5126,"count":11536,"type":"VEC2"},{"bufferView":4,"componentType":5123,"count":47820,"type":"SCALAR"}],"bufferViews":[{"buffer":0,"byteOffset":0,"byteLength":138432},{"buffer":0,"byteOffset":138432,"byteLength":138432},{"buffer":0,"byteOffset":276864,"byteLength":92288},{"buffer":0,"byteOffset":369152,"byteLength":92288},{"buffer":0,"byteOffset":461440,"byteLength":95640}],"buffers":[{"byteLength":557080,"uri":"data:application/octet-stream;base64,"}]}
