{"asset":{"generator":"Khronos glTF Blender I/O v1.2.75","version":"2.0"},"scene":0,"scenes":[{"name":"Scene","nodes":[0]}],"nodes":[{"mesh":0,"name":"Mesh"}],"meshes":[{"name":"-1_0_-1_MI_AirConditioning_01","primitives":[{"indices":4,"attributes":{"POSITION":0,"NORMAL":1,"TEXCOORD_0":2,"TEXCOORD_1":3},"mode":4}]}],"accessors":[{"bufferView":0,"componentType":5126,"count":17100,"type":"VEC3","min":[4.029858106058957,-17.478134880093858,10.206361431071114],"max":[20.200283741637488,-10.844184303283692,21.345481656362896]},{"bufferView":1,"componentType":5126,"count":17100,"type":"VEC3"},{"bufferView":2,"componentType":5126,"count":17100,"type":"VEC2"},{"bufferView":3,"componentType":5126,"count":17100,"type":"VEC2"},{"bufferView":4,"componentType":5123,"count":50784,"type":"SCALAR"}],"bufferViews":[{"buffer":0,"byteOffset":0,"byteLength":205200},{"buffer":0,"byteOffset":205200,"byteLength":205200},{"buffer":0,"byteOffset":410400,"byteLength":136800},{"buffer":0,"byteOffset":547200,"byteLength":136800},{"buffer":0,"byteOffset":684000,"byteLength":101568}],"buffers":[{"byteLength":785568,"uri":"data:application/octet-stream;base64,"}]}
