{"asset":{"generator":"Khronos glTF Blender I/O v1.2.75","version":"2.0"},"scene":0,"scenes":[{"name":"Scene","nodes":[0]}],"nodes":[{"mesh":0,"name":"Mesh"}],"meshes":[{"name":"-1_0_0_MI_PropsSetEm01","primitives":[{"indices":4,"attributes":{"POSITION":0,"NORMAL":1,"TEXCOORD_0":2,"TEXCOORD_1":3},"mode":4}]}],"accessors":[{"bufferView":0,"componentType":5126,"count":28923,"type":"VEC3","min":[-18.504605183024427,-23.5818951479055,-21.659365717374587],"max":[18.24733152040985,7.279186932066949,-19.823577122760103]},{"bufferView":1,"componentType":5126,"count":28923,"type":"VEC3"},{"bufferView":2,"componentType":5126,"count":28923,"type":"VEC2"},{"bufferView":3,"componentType":5126,"count":28923,"type":"VEC2"},{"bufferView":4,"componentType":5123,"count":94626,"type":"SCALAR"}],"bufferViews":[{"buffer":0,"byteOffset":0,"byteLength":347076},{"buffer":0,"byteOffset":347076,"byteLength":347076},{"buffer":0,"byteOffset":694152,"byteLength":231384},{"buffer":0,"byteOffset":925536,"byteLength":231384},{"buffer":0,"byteOffset":1156920,"byteLength":189252}],"buffers":[{"byteLength":1346172,"uri":"data:application/octet-stream;base64,"}]}
