{"asset":{"generator":"Khronos glTF Blender I/O v1.2.75","version":"2.0"},"scene":0,"scenes":[{"name":"Scene","nodes":[0]}],"nodes":[{"mesh":0,"name":"Mesh"}],"meshes":[{"name":"-1_0_-1_MI_Emissive04","primitives":[{"indices":4,"attributes":{"POSITION":0,"NORMAL":1,"TEXCOORD_0":2,"TEXCOORD_1":3},"mode":4}]}],"accessors":[{"bufferView":0,"componentType":5126,"count":224,"type":"VEC3","min":[-11.51252401250158,-23.90899934881168,-2.188394447911103],"max":[8.855821974053676,-19.050939415729285,18.75706740686772]},{"bufferView":1,"componentType":5126,"count":224,"type":"VEC3"},{"bufferView":2,"componentType":5126,"count":224,"type":"VEC2"},{"bufferView":3,"componentType":5126,"count":224,"type":"VEC2"},{"bufferView":4,"componentType":5123,"count":528,"type":"SCALAR"}],"bufferViews":[{"buffer":0,"byteOffset":0,"byteLength":2688},{"buffer":0,"byteOffset":2688,"byteLength":2688},{"buffer":0,"byteOffset":5376,"byteLength":1792},{"buffer":0,"byteOffset":7168,"byteLength":1792},{"buffer":0,"byteOffset":8960,"byteLength":1056}],"buffers":[{"byteLength":10016,"uri":"data:application/octet-stream;base64,"}]}
