{"asset":{"generator":"Khronos glTF Blender I/O v1.2.75","version":"2.0"},"scene":0,"scenes":[{"name":"Scene","nodes":[0]}],"nodes":[{"mesh":0,"name":"Mesh"}],"meshes":[{"name":"-1_0_-1_MI_Pipes_square_01_cull_front","primitives":[{"indices":4,"attributes":{"POSITION":0,"NORMAL":1,"TEXCOORD_0":2,"TEXCOORD_1":3},"mode":4}]}],"accessors":[{"bufferView":0,"componentType":5126,"count":1676,"type":"VEC3","min":[16.94999083904576,-18.770000499539293,13.629999778564512],"max":[17.190005404046666,-14.059999849796295,21.730000238184736]},{"bufferView":1,"componentType":5126,"count":1676,"type":"VEC3"},{"bufferView":2,"componentType":5126,"count":1676,"type":"VEC2"},{"bufferView":3,"componentType":5126,"count":1676,"type":"VEC2"},{"bufferView":4,"componentType":5123,"count":3744,"type":"SCALAR"}],"bufferViews":[{"buffer":0,"byteOffset":0,"byteLength":20112},{"buffer":0,"byteOffset":20112,"byteLength":20112},{"buffer":0,"byteOffset":40224,"byteLength":13408},{"buffer":0,"byteOffset":53632,"byteLength":13408},{"buffer":0,"byteOffset":67040,"byteLength":7488}],"buffers":[{"byteLength":74528,"uri":"data:application/octet-stream;base64,"}]}
