{"asset":{"generator":"Khronos glTF Blender I/O v1.2.75","version":"2.0"},"scene":0,"scenes":[{"name":"Scene","nodes":[0]}],"nodes":[{"mesh":0,"name":"Mesh"}],"meshes":[{"name":"-1_0_-1_MI_CornerBuilding01_cull_front","primitives":[{"indices":4,"attributes":{"POSITION":0,"NORMAL":1,"TEXCOORD_0":2,"TEXCOORD_1":3},"mode":4}]}],"accessors":[{"bufferView":0,"componentType":5126,"count":2332,"type":"VEC3","min":[-14.098325342019125,-25.449851855145194,-28.79579658421512],"max":[27.882062042525337,2.593378157261167,24.869449032117373]},{"bufferView":1,"componentType":5126,"count":2332,"type":"VEC3"},{"bufferView":2,"componentType":5126,"count":2332,"type":"VEC2"},{"bufferView":3,"componentType":5126,"count":2332,"type":"VEC2"},{"bufferView":4,"componentType":5123,"count":4962,"type":"SCALAR"}],"bufferViews":[{"buffer":0,"byteOffset":0,"byteLength":27984},{"buffer":0,"byteOffset":27984,"byteLength":27984},{"buffer":0,"byteOffset":55968,"byteLength":18656},{"buffer":0,"byteOffset":74624,"byteLength":18656},{"buffer":0,"byteOffset":93280,"byteLength":9924}],"buffers":[{"byteLength":103204,"uri":"data:application/octet-stream;base64,"}]}
