{"asset":{"generator":"Khronos glTF Blender I/O v1.2.75","version":"2.0"},"scene":0,"scenes":[{"name":"Scene","nodes":[0]}],"nodes":[{"mesh":0,"name":"Mesh"}],"meshes":[{"name":"-1_0_-1_MI_GarbageBag","primitives":[{"indices":4,"attributes":{"POSITION":0,"NORMAL":1,"TEXCOORD_0":2,"TEXCOORD_1":3},"mode":4}]}],"accessors":[{"bufferView":0,"componentType":5126,"count":53864,"type":"VEC3","min":[-11.499392992211373,-24.817518557161094,-11.002790266702695],"max":[21.70821536869445,-22.492388271679847,24.466462360529135]},{"bufferView":1,"componentType":5126,"count":53864,"type":"VEC3"},{"bufferView":2,"componentType":5126,"count":53864,"type":"VEC2"},{"bufferView":3,"componentType":5126,"count":53864,"type":"VEC2"},{"bufferView":4,"componentType":5123,"count":297531,"type":"SCALAR"}],"bufferViews":[{"buffer":0,"byteOffset":0,"byteLength":646368},{"buffer":0,"byteOffset":646368,"byteLength":646368},{"buffer":0,"byteOffset":1292736,"byteLength":430912},{"buffer":0,"byteOffset":1723648,"byteLength":430912},{"buffer":0,"byteOffset":2154560,"byteLength":595062}],"buffers":[{"byteLength":2749622,"uri":"data:application/octet-stream;base64,"}]}
