{"asset":{"generator":"Khronos glTF Blender I/O v1.2.75","version":"2.0"},"scene":0,"scenes":[{"name":"Scene","nodes":[0]}],"nodes":[{"mesh":0,"name":"Mesh"}],"meshes":[{"name":"-1_0_-2_MI_Building05","primitives":[{"indices":4,"attributes":{"POSITION":0,"NORMAL":1,"TEXCOORD_0":2,"TEXCOORD_1":3},"mode":4}]}],"accessors":[{"bufferView":0,"componentType":5126,"count":988,"type":"VEC3","min":[-21.49253845364906,-15.60000082965582,12.149999567581716],"max":[22.034753751641478,0.724912344943867,24.301574599659496]},{"bufferView":1,"componentType":5126,"count":988,"type":"VEC3"},{"bufferView":2,"componentType":5126,"count":988,"type":"VEC2"},{"bufferView":3,"componentType":5126,"count":988,"type":"VEC2"},{"bufferView":4,"componentType":5123,"count":2046,"type":"SCALAR"}],"bufferViews":[{"buffer":0,"byteOffset":0,"byteLength":11856},{"buffer":0,"byteOffset":11856,"byteLength":11856},{"buffer":0,"byteOffset":23712,"byteLength":7904},{"buffer":0,"byteOffset":31616,"byteLength":7904},{"buffer":0,"byteOffset":39520,"byteLength":4092}],"buffers":[{"byteLength":43612,"uri":"data:application/octet-stream;base64,"}]}
