{"asset":{"generator":"Khronos glTF Blender I/O v1.2.75","version":"2.0"},"scene":0,"scenes":[{"name":"Scene","nodes":[0]}],"nodes":[{"mesh":0,"name":"Mesh"}],"meshes":[{"name":"-1_0_0_MI_Asphalt02","primitives":[{"indices":4,"attributes":{"POSITION":0,"NORMAL":1,"TEXCOORD_0":2,"TEXCOORD_1":3},"mode":4}]}],"accessors":[{"bufferView":0,"componentType":5126,"count":40,"type":"VEC3","min":[-9.600047936669826,-24.93,-14.100047936899621],"max":[0.3999999999999999,-24.93,10.899999999770209]},{"bufferView":1,"componentType":5126,"count":40,"type":"VEC3"},{"bufferView":2,"componentType":5126,"count":40,"type":"VEC2"},{"bufferView":3,"componentType":5126,"count":40,"type":"VEC2"},{"bufferView":4,"componentType":5123,"count":60,"type":"SCALAR"}],"bufferViews":[{"buffer":0,"byteOffset":0,"byteLength":480},{"buffer":0,"byteOffset":480,"byteLength":480},{"buffer":0,"byteOffset":960,"byteLength":320},{"buffer":0,"byteOffset":1280,"byteLength":320},{"buffer":0,"byteOffset":1600,"byteLength":120}],"buffers":[{"byteLength":1720,"uri":"data:application/octet-stream;base64,"}]}
