{"asset":{"generator":"Khronos glTF Blender I/O v1.2.75","version":"2.0"},"scene":0,"scenes":[{"name":"Scene","nodes":[0]}],"nodes":[{"mesh":0,"name":"Mesh"}],"meshes":[{"name":"-1_0_0_MI_Pipes_square_01","primitives":[{"indices":4,"attributes":{"POSITION":0,"NORMAL":1,"TEXCOORD_0":2,"TEXCOORD_1":3},"mode":4}]}],"accessors":[{"bufferView":0,"componentType":5126,"count":13748,"type":"VEC3","min":[-15,-15,-15],"max":[15,15,15]},{"bufferView":1,"componentType":5126,"count":13748,"type":"VEC3"},{"bufferView":2,"componentType":5126,"count":13748,"type":"VEC2"},{"bufferView":3,"componentType":5126,"count":13748,"type":"VEC2"},{"bufferView":4,"componentType":5123,"count":30948,"type":"SCALAR"}],"bufferViews":[{"buffer":0,"byteOffset":0,"byteLength":164976},{"buffer":0,"byteOffset":164976,"byteLength":164976},{"buffer":0,"byteOffset":329952,"byteLength":109984},{"buffer":0,"byteOffset":439936,"byteLength":109984},{"buffer":0,"byteOffset":549920,"byteLength":61896}],"buffers":[{"byteLength":611816,"uri":"data:application/octet-stream;base64,"}]}
