{"asset":{"generator":"Khronos glTF Blender I/O v1.2.75","version":"2.0"},"scene":0,"scenes":[{"name":"Scene","nodes":[0]}],"nodes":[{"mesh":0,"name":"Mesh"}],"meshes":[{"name":"-1_0_-1_MI_WGS_01","primitives":[{"indices":4,"attributes":{"POSITION":0,"NORMAL":1,"TEXCOORD_0":2,"TEXCOORD_1":3},"mode":4}]}],"accessors":[{"bufferView":0,"componentType":5126,"count":9981,"type":"VEC3","min":[-21.27766245480664,-25.499999999999996,-14.276531608968247],"max":[9.821649623067199,-9.700244638334683,22.5]},{"bufferView":1,"componentType":5126,"count":9981,"type":"VEC3"},{"bufferView":2,"componentType":5126,"count":9981,"type":"VEC2"},{"bufferView":3,"componentType":5126,"count":9981,"type":"VEC2"},{"bufferView":4,"componentType":5123,"count":23604,"type":"SCALAR"}],"bufferViews":[{"buffer":0,"byteOffset":0,"byteLength":119772},{"buffer":0,"byteOffset":119772,"byteLength":119772},{"buffer":0,"byteOffset":239544,"byteLength":79848},{"buffer":0,"byteOffset":319392,"byteLength":79848},{"buffer":0,"byteOffset":399240,"byteLength":47208}],"buffers":[{"byteLength":446448,"uri":"data:application/octet-stream;base64,"}]}
