{"asset":{"generator":"Khronos glTF Blender I/O v1.2.75","version":"2.0"},"scene":0,"scenes":[{"name":"Scene","nodes":[0]}],"nodes":[{"mesh":0,"name":"Mesh"}],"meshes":[{"name":"-1_0_0_MI_CornerBuilding01","primitives":[{"indices":4,"attributes":{"POSITION":0,"NORMAL":1,"TEXCOORD_0":2,"TEXCOORD_1":3},"mode":4}]}],"accessors":[{"bufferView":0,"componentType":5126,"count":1448,"type":"VEC3","min":[-29.27206062733976,-27.716453552246094,-21.35585252767396],"max":[14.858072005848799,41.39658737182617,18.587383625688673]},{"bufferView":1,"componentType":5126,"count":1448,"type":"VEC3"},{"bufferView":2,"componentType":5126,"count":1448,"type":"VEC2"},{"bufferView":3,"componentType":5126,"count":1448,"type":"VEC2"},{"bufferView":4,"componentType":5123,"count":2574,"type":"SCALAR"}],"bufferViews":[{"buffer":0,"byteOffset":0,"byteLength":17376},{"buffer":0,"byteOffset":17376,"byteLength":17376},{"buffer":0,"byteOffset":34752,"byteLength":11584},{"buffer":0,"byteOffset":46336,"byteLength":11584},{"buffer":0,"byteOffset":57920,"byteLength":5148}],"buffers":[{"byteLength":63068,"uri":"data:application/octet-stream;base64,"}]}
