{"asset":{"generator":"Khronos glTF Blender I/O v1.2.75","version":"2.0"},"scene":0,"scenes":[{"name":"Scene","nodes":[0]}],"nodes":[{"mesh":0,"name":"Mesh"}],"meshes":[{"name":"-1_0_0_lambert1","primitives":[{"indices":4,"attributes":{"POSITION":0,"NORMAL":1,"TEXCOORD_0":2,"TEXCOORD_1":3},"mode":4}]}],"accessors":[{"bufferView":0,"componentType":5126,"count":146,"type":"VEC3","min":[-6.800000011920929,-21.250000631807897,-25.150000005960372],"max":[1.1263229244521842,-14.999999781830335,-19.79999973516266]},{"bufferView":1,"componentType":5126,"count":146,"type":"VEC3"},{"bufferView":2,"componentType":5126,"count":146,"type":"VEC2"},{"bufferView":3,"componentType":5126,"count":146,"type":"VEC2"},{"bufferView":4,"componentType":5123,"count":342,"type":"SCALAR"}],"bufferViews":[{"buffer":0,"byteOffset":0,"byteLength":1752},{"buffer":0,"byteOffset":1752,"byteLength":1752},{"buffer":0,"byteOffset":3504,"byteLength":1168},{"buffer":0,"byteOffset":4672,"byteLength":1168},{"buffer":0,"byteOffset":5840,"byteLength":684}],"buffers":[{"byteLength":6524,"uri":"data:application/octet-stream;base64,"}]}
