{"asset":{"generator":"Khronos glTF Blender I/O v1.2.75","version":"2.0"},"scene":0,"scenes":[{"name":"Scene","nodes":[0]}],"nodes":[{"mesh":0,"name":"Mesh"}],"meshes":[{"name":"-1_0_-2_M_TrimSheetMaster","primitives":[{"indices":4,"attributes":{"POSITION":0,"NORMAL":1,"TEXCOORD_0":2,"TEXCOORD_1":3},"mode":4}]}],"accessors":[{"bufferView":0,"componentType":5126,"count":3304,"type":"VEC3","min":[-24.353902685753642,-24.798308485843638,-3.003961746064057],"max":[-11.053892977349626,5.818183253816713,26.626334446615576]},{"bufferView":1,"componentType":5126,"count":3304,"type":"VEC3"},{"bufferView":2,"componentType":5126,"count":3304,"type":"VEC2"},{"bufferView":3,"componentType":5126,"count":3304,"type":"VEC2"},{"bufferView":4,"componentType":5123,"count":9324,"type":"SCALAR"}],"bufferViews":[{"buffer":0,"byteOffset":0,"byteLength":39648},{"buffer":0,"byteOffset":39648,"byteLength":39648},{"buffer":0,"byteOffset":79296,"byteLength":26432},{"buffer":0,"byteOffset":105728,"byteLength":26432},{"buffer":0,"byteOffset":132160,"byteLength":18648}],"buffers":[{"byteLength":150808,"uri":"data:application/octet-stream;base64,"}]}
