{"asset":{"generator":"Khronos glTF Blender I/O v1.2.75","version":"2.0"},"scene":0,"scenes":[{"name":"Scene","nodes":[0]}],"nodes":[{"mesh":0,"name":"Mesh"}],"meshes":[{"name":"-1_0_0_MI_Building05_cull_front","primitives":[{"indices":4,"attributes":{"POSITION":0,"NORMAL":1,"TEXCOORD_0":2,"TEXCOORD_1":3},"mode":4}]}],"accessors":[{"bufferView":0,"componentType":5126,"count":844,"type":"VEC3","min":[-0.7897243510470382,-25.040823059082044,-23.579163503294893],"max":[26.286642594912283,-23.670189113616942,-2.996432821460644]},{"bufferView":1,"componentType":5126,"count":844,"type":"VEC3"},{"bufferView":2,"componentType":5126,"count":844,"type":"VEC2"},{"bufferView":3,"componentType":5126,"count":844,"type":"VEC2"},{"bufferView":4,"componentType":5123,"count":1572,"type":"SCALAR"}],"bufferViews":[{"buffer":0,"byteOffset":0,"byteLength":10128},{"buffer":0,"byteOffset":10128,"byteLength":10128},{"buffer":0,"byteOffset":20256,"byteLength":6752},{"buffer":0,"byteOffset":27008,"byteLength":6752},{"buffer":0,"byteOffset":33760,"byteLength":3144}],"buffers":[{"byteLength":36904,"uri":"data:application/octet-stream;base64,"}]}
