{"asset":{"generator":"Khronos glTF Blender I/O v1.2.75","version":"2.0"},"scene":0,"scenes":[{"name":"Scene","nodes":[0]}],"nodes":[{"mesh":0,"name":"Mesh"}],"meshes":[{"name":"-1_0_-1_MI_Stair_02_cull_front","primitives":[{"indices":4,"attributes":{"POSITION":0,"NORMAL":1,"TEXCOORD_0":2,"TEXCOORD_1":3},"mode":4}]}],"accessors":[{"bufferView":0,"componentType":5126,"count":25896,"type":"VEC3","min":[-8.532081194192608,-17.863700924435715,12.7885948171629],"max":[-4.909017120778952,-11.967588234882829,22.907465425254408]},{"bufferView":1,"componentType":5126,"count":25896,"type":"VEC3"},{"bufferView":2,"componentType":5126,"count":25896,"type":"VEC2"},{"bufferView":3,"componentType":5126,"count":25896,"type":"VEC2"},{"bufferView":4,"componentType":5123,"count":59106,"type":"SCALAR"}],"bufferViews":[{"buffer":0,"byteOffset":0,"byteLength":310752},{"buffer":0,"byteOffset":310752,"byteLength":310752},{"buffer":0,"byteOffset":621504,"byteLength":207168},{"buffer":0,"byteOffset":828672,"byteLength":207168},{"buffer":0,"byteOffset":1035840,"byteLength":118212}],"buffers":[{"byteLength":1154052,"uri":"data:application/octet-stream;base64,"}]}
