{"asset":{"generator":"Khronos glTF Blender I/O v1.2.75","version":"2.0"},"scene":0,"scenes":[{"name":"Scene","nodes":[0]}],"nodes":[{"mesh":0,"name":"Mesh"}],"meshes":[{"name":"-1_0_-1_M_TrimSheetMaster","primitives":[{"indices":4,"attributes":{"POSITION":0,"NORMAL":1,"TEXCOORD_0":2,"TEXCOORD_1":3},"mode":4}]}],"accessors":[{"bufferView":0,"componentType":5126,"count":45418,"type":"VEC3","min":[-27.581454825244144,-24.838334181532264,-26.673667458242985],"max":[27.681027740891135,2.830178103781048,27.70111955311351]},{"bufferView":1,"componentType":5126,"count":45418,"type":"VEC3"},{"bufferView":2,"componentType":5126,"count":45418,"type":"VEC2"},{"bufferView":3,"componentType":5126,"count":45418,"type":"VEC2"},{"bufferView":4,"componentType":5123,"count":176883,"type":"SCALAR"}],"bufferViews":[{"buffer":0,"byteOffset":0,"byteLength":545016},{"buffer":0,"byteOffset":545016,"byteLength":545016},{"buffer":0,"byteOffset":1090032,"byteLength":363344},{"buffer":0,"byteOffset":1453376,"byteLength":363344},{"buffer":0,"byteOffset":1816720,"byteLength":353766}],"buffers":[{"byteLength":2170486,"uri":"data:application/octet-stream;base64,"}]}
