{"asset":{"generator":"Khronos glTF Blender I/O v1.2.75","version":"2.0"},"scene":0,"scenes":[{"name":"Scene","nodes":[0]}],"nodes":[{"mesh":0,"name":"Mesh"}],"meshes":[{"name":"-1_0_-1_MI_Platform_01","primitives":[{"indices":4,"attributes":{"POSITION":0,"NORMAL":1,"TEXCOORD_0":2,"TEXCOORD_1":3},"mode":4}]}],"accessors":[{"bufferView":0,"componentType":5126,"count":22070,"type":"VEC3","min":[-0.7513005422592313,-24.66454447109057,-8.494472637031022],"max":[27.681027740891135,-12.396165041923522,22.052272442439772]},{"bufferView":1,"componentType":5126,"count":22070,"type":"VEC3"},{"bufferView":2,"componentType":5126,"count":22070,"type":"VEC2"},{"bufferView":3,"componentType":5126,"count":22070,"type":"VEC2"},{"bufferView":4,"componentType":5123,"count":43866,"type":"SCALAR"}],"bufferViews":[{"buffer":0,"byteOffset":0,"byteLength":264840},{"buffer":0,"byteOffset":264840,"byteLength":264840},{"buffer":0,"byteOffset":529680,"byteLength":176560},{"buffer":0,"byteOffset":706240,"byteLength":176560},{"buffer":0,"byteOffset":882800,"byteLength":87732}],"buffers":[{"byteLength":970532,"uri":"data:application/octet-stream;base64,"}]}
