{"asset":{"generator":"Khronos glTF Blender I/O v1.2.75","version":"2.0"},"scene":0,"scenes":[{"name":"Scene","nodes":[0]}],"nodes":[{"mesh":0,"name":"Mesh"}],"meshes":[{"name":"-1_0_-1_M_SignboardsAnim03","primitives":[{"indices":4,"attributes":{"POSITION":0,"NORMAL":1,"TEXCOORD_0":2,"TEXCOORD_1":3},"mode":4}]}],"accessors":[{"bufferView":0,"componentType":5126,"count":1782,"type":"VEC3","min":[-3.065008258904813,-17.624747667067894,-25.925593949501515],"max":[22.14935906102014,-15.140858748090832,6.546717762425674]},{"bufferView":1,"componentType":5126,"count":1782,"type":"VEC3"},{"bufferView":2,"componentType":5126,"count":1782,"type":"VEC2"},{"bufferView":3,"componentType":5126,"count":1782,"type":"VEC2"},{"bufferView":4,"componentType":5123,"count":4236,"type":"SCALAR"}],"bufferViews":[{"buffer":0,"byteOffset":0,"byteLength":21384},{"buffer":0,"byteOffset":21384,"byteLength":21384},{"buffer":0,"byteOffset":42768,"byteLength":14256},{"buffer":0,"byteOffset":57024,"byteLength":14256},{"buffer":0,"byteOffset":71280,"byteLength":8472}],"buffers":[{"byteLength":79752,"uri":"data:application/octet-stream;base64,"}]}
