{"asset":{"generator":"Khronos glTF Blender I/O v1.2.75","version":"2.0"},"scene":0,"scenes":[{"name":"Scene","nodes":[0]}],"nodes":[{"mesh":0,"name":"Mesh"}],"meshes":[{"name":"-1_0_-1_MI_Signboards02","primitives":[{"indices":4,"attributes":{"POSITION":0,"NORMAL":1,"TEXCOORD_0":2,"TEXCOORD_1":3},"mode":4}]}],"accessors":[{"bufferView":0,"componentType":5126,"count":2976,"type":"VEC3","min":[-17.006103992583935,-19.775085238626566,-19.200028808594755],"max":[18.537872950188703,-9.643088340702874,8.500037117352402]},{"bufferView":1,"componentType":5126,"count":2976,"type":"VEC3"},{"bufferView":2,"componentType":5126,"count":2976,"type":"VEC2"},{"bufferView":3,"componentType":5126,"count":2976,"type":"VEC2"},{"bufferView":4,"componentType":5123,"count":9294,"type":"SCALAR"}],"bufferViews":[{"buffer":0,"byteOffset":0,"byteLength":35712},{"buffer":0,"byteOffset":35712,"byteLength":35712},{"buffer":0,"byteOffset":71424,"byteLength":23808},{"buffer":0,"byteOffset":95232,"byteLength":23808},{"buffer":0,"byteOffset":119040,"byteLength":18588}],"buffers":[{"byteLength":137628,"uri":"data:application/octet-stream;base64,"}]}
