{"asset":{"generator":"Khronos glTF Blender I/O v1.2.75","version":"2.0"},"scene":0,"scenes":[{"name":"Scene","nodes":[0]}],"nodes":[{"mesh":0,"name":"Mesh"}],"meshes":[{"name":"-1_0_0_MI_Building07","primitives":[{"indices":4,"attributes":{"POSITION":0,"NORMAL":1,"TEXCOORD_0":2,"TEXCOORD_1":3},"mode":4}]}],"accessors":[{"bufferView":0,"componentType":5126,"count":3340,"type":"VEC3","min":[-4.950030390190667,-33.3899989945909,-20.77354249805112],"max":[16.323555849822576,9.700000000000003,-3.7000009787060435]},{"bufferView":1,"componentType":5126,"count":3340,"type":"VEC3"},{"bufferView":2,"componentType":5126,"count":3340,"type":"VEC2"},{"bufferView":3,"componentType":5126,"count":3340,"type":"VEC2"},{"bufferView":4,"componentType":5123,"count":6000,"type":"SCALAR"}],"bufferViews":[{"buffer":0,"byteOffset":0,"byteLength":40080},{"buffer":0,"byteOffset":40080,"byteLength":40080},{"buffer":0,"byteOffset":80160,"byteLength":26720},{"buffer":0,"byteOffset":106880,"byteLength":26720},{"buffer":0,"byteOffset":133600,"byteLength":12000}],"buffers":[{"byteLength":145600,"uri":"data:application/octet-stream;base64,"}]}
