{"asset":{"generator":"Khronos glTF Blender I/O v1.2.75","version":"2.0"},"scene":0,"scenes":[{"name":"Scene","nodes":[0]}],"nodes":[{"mesh":0,"name":"Mesh"}],"meshes":[{"name":"-1_0_0_MI_WGS_03","primitives":[{"indices":4,"attributes":{"POSITION":0,"NORMAL":1,"TEXCOORD_0":2,"TEXCOORD_1":3},"mode":4}]}],"accessors":[{"bufferView":0,"componentType":5126,"count":15852,"type":"VEC3","min":[-9.071425548644338,-20.5188167994417,-24.745081799765998],"max":[-4.022594618314516,-14.994894673245868,-21.607652577922693]},{"bufferView":1,"componentType":5126,"count":15852,"type":"VEC3"},{"bufferView":2,"componentType":5126,"count":15852,"type":"VEC2"},{"bufferView":3,"componentType":5126,"count":15852,"type":"VEC2"},{"bufferView":4,"componentType":5123,"count":48174,"type":"SCALAR"}],"bufferViews":[{"buffer":0,"byteOffset":0,"byteLength":190224},{"buffer":0,"byteOffset":190224,"byteLength":190224},{"buffer":0,"byteOffset":380448,"byteLength":126816},{"buffer":0,"byteOffset":507264,"byteLength":126816},{"buffer":0,"byteOffset":634080,"byteLength":96348}],"buffers":[{"byteLength":730428,"uri":"data:application/octet-stream;base64,"}]}
