{"asset":{"generator":"Khronos glTF Blender I/O v1.2.75","version":"2.0"},"scene":0,"scenes":[{"name":"Scene","nodes":[0]}],"nodes":[{"mesh":0,"name":"Mesh"}],"meshes":[{"name":"-1_0_-1_M_PaperBoxes_03","primitives":[{"indices":4,"attributes":{"POSITION":0,"NORMAL":1,"TEXCOORD_0":2,"TEXCOORD_1":3},"mode":4}]}],"accessors":[{"bufferView":0,"componentType":5126,"count":1506,"type":"VEC3","min":[-25.053624107837678,-24.379820528626443,-9.964775402916771],"max":[-22.001375062012563,-23.39291994571686,1.3344629573822022]},{"bufferView":1,"componentType":5126,"count":1506,"type":"VEC3"},{"bufferView":2,"componentType":5126,"count":1506,"type":"VEC2"},{"bufferView":3,"componentType":5126,"count":1506,"type":"VEC2"},{"bufferView":4,"componentType":5123,"count":1704,"type":"SCALAR"}],"bufferViews":[{"buffer":0,"byteOffset":0,"byteLength":18072},{"buffer":0,"byteOffset":18072,"byteLength":18072},{"buffer":0,"byteOffset":36144,"byteLength":12048},{"buffer":0,"byteOffset":48192,"byteLength":12048},{"buffer":0,"byteOffset":60240,"byteLength":3408}],"buffers":[{"byteLength":63648,"uri":"data:application/octet-stream;base64,"}]}
