{"asset":{"generator":"Khronos glTF Blender I/O v1.2.75","version":"2.0"},"scene":0,"scenes":[{"name":"Scene","nodes":[0]}],"nodes":[{"mesh":0,"name":"Mesh"}],"meshes":[{"name":"-1_0_-1_MI_AirConditioners01","primitives":[{"indices":4,"attributes":{"POSITION":0,"NORMAL":1,"TEXCOORD_0":2,"TEXCOORD_1":3},"mode":4}]}],"accessors":[{"bufferView":0,"componentType":5126,"count":3444,"type":"VEC3","min":[-19.238686402679534,-24.298506248466555,-16.65477633706771],"max":[-17.104253050445465,-21.08726655990863,-15.24897854574479]},{"bufferView":1,"componentType":5126,"count":3444,"type":"VEC3"},{"bufferView":2,"componentType":5126,"count":3444,"type":"VEC2"},{"bufferView":3,"componentType":5126,"count":3444,"type":"VEC2"},{"bufferView":4,"componentType":5123,"count":8994,"type":"SCALAR"}],"bufferViews":[{"buffer":0,"byteOffset":0,"byteLength":41328},{"buffer":0,"byteOffset":41328,"byteLength":41328},{"buffer":0,"byteOffset":82656,"byteLength":27552},{"buffer":0,"byteOffset":110208,"byteLength":27552},{"buffer":0,"byteOffset":137760,"byteLength":17988}],"buffers":[{"byteLength":155748,"uri":"data:application/octet-stream;base64,"}]}
