{"asset":{"generator":"Khronos glTF Blender I/O v1.2.75","version":"2.0"},"scene":0,"scenes":[{"name":"Scene","nodes":[0]}],"nodes":[{"mesh":0,"name":"Mesh"}],"meshes":[{"name":"-1_0_0_M_Signboards01","primitives":[{"indices":4,"attributes":{"POSITION":0,"NORMAL":1,"TEXCOORD_0":2,"TEXCOORD_1":3},"mode":4}]}],"accessors":[{"bufferView":0,"componentType":5126,"count":12374,"type":"VEC3","min":[16.243829688985038,-18.676962630440336,-20.605792261972283],"max":[19.595461360764403,-7.902841769039629,-19.79999460026639]},{"bufferView":1,"componentType":5126,"count":12374,"type":"VEC3"},{"bufferView":2,"componentType":5126,"count":12374,"type":"VEC2"},{"bufferView":3,"componentType":5126,"count":12374,"type":"VEC2"},{"bufferView":4,"componentType":5123,"count":20184,"type":"SCALAR"}],"bufferViews":[{"buffer":0,"byteOffset":0,"byteLength":148488},{"buffer":0,"byteOffset":148488,"byteLength":148488},{"buffer":0,"byteOffset":296976,"byteLength":98992},{"buffer":0,"byteOffset":395968,"byteLength":98992},{"buffer":0,"byteOffset":494960,"byteLength":40368}],"buffers":[{"byteLength":535328,"uri":"data:application/octet-stream;base64,"}]}
