{"asset":{"generator":"Khronos glTF Blender I/O v1.2.75","version":"2.0"},"scene":0,"scenes":[{"name":"Scene","nodes":[0]}],"nodes":[{"mesh":0,"name":"Mesh"}],"meshes":[{"name":"-1_0_-1_M_WindowsEmissive01","primitives":[{"indices":4,"attributes":{"POSITION":0,"NORMAL":1,"TEXCOORD_0":2,"TEXCOORD_1":3},"mode":4}]}],"accessors":[{"bufferView":0,"componentType":5126,"count":88,"type":"VEC3","min":[-24.588467486115732,-15.413319790363312,-23.043934105851935],"max":[21.980001664091894,15.069169987148186,-4.395703898039005]},{"bufferView":1,"componentType":5126,"count":88,"type":"VEC3"},{"bufferView":2,"componentType":5126,"count":88,"type":"VEC2"},{"bufferView":3,"componentType":5126,"count":88,"type":"VEC2"},{"bufferView":4,"componentType":5123,"count":132,"type":"SCALAR"}],"bufferViews":[{"buffer":0,"byteOffset":0,"byteLength":1056},{"buffer":0,"byteOffset":1056,"byteLength":1056},{"buffer":0,"byteOffset":2112,"byteLength":704},{"buffer":0,"byteOffset":2816,"byteLength":704},{"buffer":0,"byteOffset":3520,"byteLength":264}],"buffers":[{"byteLength":3784,"uri":"data:application/octet-stream;base64,"}]}
