{"asset":{"generator":"Khronos glTF Blender I/O v1.2.75","version":"2.0"},"scene":0,"scenes":[{"name":"Scene","nodes":[0]}],"nodes":[{"mesh":0,"name":"Mesh"}],"meshes":[{"name":"-1_0_-2_MI_CornerBuilding01","primitives":[{"indices":4,"attributes":{"POSITION":0,"NORMAL":1,"TEXCOORD_0":2,"TEXCOORD_1":3},"mode":4}]}],"accessors":[{"bufferView":0,"componentType":5126,"count":7630,"type":"VEC3","min":[-20.997518844653406,-24.924999994039535,-3.6189061770670605],"max":[22.206709024127463,12.978780658212493,25.179679672622623]},{"bufferView":1,"componentType":5126,"count":7630,"type":"VEC3"},{"bufferView":2,"componentType":5126,"count":7630,"type":"VEC2"},{"bufferView":3,"componentType":5126,"count":7630,"type":"VEC2"},{"bufferView":4,"componentType":5123,"count":14928,"type":"SCALAR"}],"bufferViews":[{"buffer":0,"byteOffset":0,"byteLength":91560},{"buffer":0,"byteOffset":91560,"byteLength":91560},{"buffer":0,"byteOffset":183120,"byteLength":61040},{"buffer":0,"byteOffset":244160,"byteLength":61040},{"buffer":0,"byteOffset":305200,"byteLength":29856}],"buffers":[{"byteLength":335056,"uri":"data:application/octet-stream;base64,"}]}
