{"asset":{"generator":"Khronos glTF Blender I/O v1.2.75","version":"2.0"},"scene":0,"scenes":[{"name":"Scene","nodes":[0]}],"nodes":[{"mesh":0,"name":"Mesh"}],"meshes":[{"name":"-1_0_-1_MI_MetalWallPart_Painted_01_cull_front","primitives":[{"indices":4,"attributes":{"POSITION":0,"NORMAL":1,"TEXCOORD_0":2,"TEXCOORD_1":3},"mode":4}]}],"accessors":[{"bufferView":0,"componentType":5126,"count":3744,"type":"VEC3","min":[8.944050340685225,-17.973977857232097,12.520000110142187],"max":[21.120004389207118,-12.847510087070946,25.119731936639916]},{"bufferView":1,"componentType":5126,"count":3744,"type":"VEC3"},{"bufferView":2,"componentType":5126,"count":3744,"type":"VEC2"},{"bufferView":3,"componentType":5126,"count":3744,"type":"VEC2"},{"bufferView":4,"componentType":5123,"count":5928,"type":"SCALAR"}],"bufferViews":[{"buffer":0,"byteOffset":0,"byteLength":44928},{"buffer":0,"byteOffset":44928,"byteLength":44928},{"buffer":0,"byteOffset":89856,"byteLength":29952},{"buffer":0,"byteOffset":119808,"byteLength":29952},{"buffer":0,"byteOffset":149760,"byteLength":11856}],"buffers":[{"byteLength":161616,"uri":"data:application/octet-stream;base64,"}]}
