{"asset":{"generator":"Khronos glTF Blender I/O v1.2.75","version":"2.0"},"scene":0,"scenes":[{"name":"Scene","nodes":[0]}],"nodes":[{"mesh":0,"name":"Mesh"}],"meshes":[{"name":"-1_0_-1_MI_LampSet02_no_ins","primitives":[{"indices":4,"attributes":{"POSITION":0,"NORMAL":1,"TEXCOORD_0":2,"TEXCOORD_1":3},"mode":4}]}],"accessors":[{"bufferView":0,"componentType":5126,"count":1472,"type":"VEC3","min":[-17.458369541793363,-15.196779479980469,9.46012400340183],"max":[-11.40998874355482,-9.889999694824226,14.989997558593805]},{"bufferView":1,"componentType":5126,"count":1472,"type":"VEC3"},{"bufferView":2,"componentType":5126,"count":1472,"type":"VEC2"},{"bufferView":3,"componentType":5126,"count":1472,"type":"VEC2"},{"bufferView":4,"componentType":5123,"count":4560,"type":"SCALAR"}],"bufferViews":[{"buffer":0,"byteOffset":0,"byteLength":17664},{"buffer":0,"byteOffset":17664,"byteLength":17664},{"buffer":0,"byteOffset":35328,"byteLength":11776},{"buffer":0,"byteOffset":47104,"byteLength":11776},{"buffer":0,"byteOffset":58880,"byteLength":9120}],"buffers":[{"byteLength":68000,"uri":"data:application/octet-stream;base64,"}]}
