{"asset":{"generator":"Khronos glTF Blender I/O v1.2.75","version":"2.0"},"scene":0,"scenes":[{"name":"Scene","nodes":[0]}],"nodes":[{"mesh":0,"name":"Mesh"}],"meshes":[{"name":"-1_0_-1_MI_Pipes_square_01","primitives":[{"indices":4,"attributes":{"POSITION":0,"NORMAL":1,"TEXCOORD_0":2,"TEXCOORD_1":3},"mode":4}]}],"accessors":[{"bufferView":0,"componentType":5126,"count":39592,"type":"VEC3","min":[-24.037862658245896,-24.771371914888945,-16.949978483180384],"max":[28.59992696762085,3.6302834784058753,28.733312049600823]},{"bufferView":1,"componentType":5126,"count":39592,"type":"VEC3"},{"bufferView":2,"componentType":5126,"count":39592,"type":"VEC2"},{"bufferView":3,"componentType":5126,"count":39592,"type":"VEC2"},{"bufferView":4,"componentType":5123,"count":90300,"type":"SCALAR"}],"bufferViews":[{"buffer":0,"byteOffset":0,"byteLength":475104},{"buffer":0,"byteOffset":475104,"byteLength":475104},{"buffer":0,"byteOffset":950208,"byteLength":316736},{"buffer":0,"byteOffset":1266944,"byteLength":316736},{"buffer":0,"byteOffset":1583680,"byteLength":180600}],"buffers":[{"byteLength":1764280,"uri":"data:application/octet-stream;base64,"}]}
