{"asset":{"generator":"Khronos glTF Blender I/O v1.2.75","version":"2.0"},"scene":0,"scenes":[{"name":"Scene","nodes":[0]}],"nodes":[{"mesh":0,"name":"Mesh"}],"meshes":[{"name":"-1_0_-1_MI_WGS_02_no_ins","primitives":[{"indices":4,"attributes":{"POSITION":0,"NORMAL":1,"TEXCOORD_0":2,"TEXCOORD_1":3},"mode":4}]}],"accessors":[{"bufferView":0,"componentType":5126,"count":35715,"type":"VEC3","min":[-21.00000202957427,-20.00000300374616,-14.00000119949331],"max":[-11.799996024155387,-17.79999986679514,-9.799999641574425]},{"bufferView":1,"componentType":5126,"count":35715,"type":"VEC3"},{"bufferView":2,"componentType":5126,"count":35715,"type":"VEC2"},{"bufferView":3,"componentType":5126,"count":35715,"type":"VEC2"},{"bufferView":4,"componentType":5123,"count":85014,"type":"SCALAR"}],"bufferViews":[{"buffer":0,"byteOffset":0,"byteLength":428580},{"buffer":0,"byteOffset":428580,"byteLength":428580},{"buffer":0,"byteOffset":857160,"byteLength":285720},{"buffer":0,"byteOffset":1142880,"byteLength":285720},{"buffer":0,"byteOffset":1428600,"byteLength":170028}],"buffers":[{"byteLength":1598628,"uri":"data:application/octet-stream;base64,"}]}
