{"asset":{"generator":"Khronos glTF Blender I/O v1.2.75","version":"2.0"},"scene":0,"scenes":[{"name":"Scene","nodes":[0]}],"nodes":[{"mesh":0,"name":"Mesh"}],"meshes":[{"name":"-1_0_-2_MI_Building05_cull_front","primitives":[{"indices":4,"attributes":{"POSITION":0,"NORMAL":1,"TEXCOORD_0":2,"TEXCOORD_1":3},"mode":4}]}],"accessors":[{"bufferView":0,"componentType":5126,"count":56,"type":"VEC3","min":[-21.492538449395035,-27.66655191243931,23.077578411270988],"max":[-14.414765280196418,-15.59999938676026,24.30157461264164]},{"bufferView":1,"componentType":5126,"count":56,"type":"VEC3"},{"bufferView":2,"componentType":5126,"count":56,"type":"VEC2"},{"bufferView":3,"componentType":5126,"count":56,"type":"VEC2"},{"bufferView":4,"componentType":5123,"count":132,"type":"SCALAR"}],"bufferViews":[{"buffer":0,"byteOffset":0,"byteLength":672},{"buffer":0,"byteOffset":672,"byteLength":672},{"buffer":0,"byteOffset":1344,"byteLength":448},{"buffer":0,"byteOffset":1792,"byteLength":448},{"buffer":0,"byteOffset":2240,"byteLength":264}],"buffers":[{"byteLength":2504,"uri":"data:application/octet-stream;base64,"}]}
