{"asset":{"generator":"Khronos glTF Blender I/O v1.2.75","version":"2.0"},"scene":0,"scenes":[{"name":"Scene","nodes":[0]}],"nodes":[{"mesh":0,"name":"Mesh"}],"meshes":[{"name":"-1_0_0_M_Building08","primitives":[{"indices":4,"attributes":{"POSITION":0,"NORMAL":1,"TEXCOORD_0":2,"TEXCOORD_1":3},"mode":4}]}],"accessors":[{"bufferView":0,"componentType":5126,"count":19064,"type":"VEC3","min":[-20.69087207087985,-19.9,-17.05411081313942],"max":[1.8999996948234923,2.1000000000000014,-16.29998033885323]},{"bufferView":1,"componentType":5126,"count":19064,"type":"VEC3"},{"bufferView":2,"componentType":5126,"count":19064,"type":"VEC2"},{"bufferView":3,"componentType":5126,"count":19064,"type":"VEC2"},{"bufferView":4,"componentType":5123,"count":66504,"type":"SCALAR"}],"bufferViews":[{"buffer":0,"byteOffset":0,"byteLength":228768},{"buffer":0,"byteOffset":228768,"byteLength":228768},{"buffer":0,"byteOffset":457536,"byteLength":152512},{"buffer":0,"byteOffset":610048,"byteLength":152512},{"buffer":0,"byteOffset":762560,"byteLength":133008}],"buffers":[{"byteLength":895568,"uri":"data:application/octet-stream;base64,"}]}
