{"asset":{"generator":"Khronos glTF Blender I/O v1.2.75","version":"2.0"},"scene":0,"scenes":[{"name":"Scene","nodes":[0]}],"nodes":[{"mesh":0,"name":"Mesh"}],"meshes":[{"name":"-1_0_0_MI_Stair_02","primitives":[{"indices":4,"attributes":{"POSITION":0,"NORMAL":1,"TEXCOORD_0":2,"TEXCOORD_1":3},"mode":4}]}],"accessors":[{"bufferView":0,"componentType":5126,"count":4207,"type":"VEC3","min":[0.9737408065795901,-20.23362487077713,-24.904880475997924],"max":[3.0897174072265354,-18.73451816558838,-22.770469970703015]},{"bufferView":1,"componentType":5126,"count":4207,"type":"VEC3"},{"bufferView":2,"componentType":5126,"count":4207,"type":"VEC2"},{"bufferView":3,"componentType":5126,"count":4207,"type":"VEC2"},{"bufferView":4,"componentType":5123,"count":13911,"type":"SCALAR"}],"bufferViews":[{"buffer":0,"byteOffset":0,"byteLength":50484},{"buffer":0,"byteOffset":50484,"byteLength":50484},{"buffer":0,"byteOffset":100968,"byteLength":33656},{"buffer":0,"byteOffset":134624,"byteLength":33656},{"buffer":0,"byteOffset":168280,"byteLength":27822}],"buffers":[{"byteLength":196102,"uri":"data:application/octet-stream;base64,"}]}
