{"asset":{"generator":"Khronos glTF Blender I/O v1.2.75","version":"2.0"},"scene":0,"scenes":[{"name":"Scene","nodes":[0]}],"nodes":[{"mesh":0,"name":"Mesh"}],"meshes":[{"name":"-1_0_-1_MI_WallTile01","primitives":[{"indices":4,"attributes":{"POSITION":0,"NORMAL":1,"TEXCOORD_0":2,"TEXCOORD_1":3},"mode":4}]}],"accessors":[{"bufferView":0,"componentType":5126,"count":204,"type":"VEC3","min":[-0.1999996580903547,-20.5,-24.798269416164036],"max":[21.708559219788697,-13.847869873046875,22.350040578654585]},{"bufferView":1,"componentType":5126,"count":204,"type":"VEC3"},{"bufferView":2,"componentType":5126,"count":204,"type":"VEC2"},{"bufferView":3,"componentType":5126,"count":204,"type":"VEC2"},{"bufferView":4,"componentType":5123,"count":360,"type":"SCALAR"}],"bufferViews":[{"buffer":0,"byteOffset":0,"byteLength":2448},{"buffer":0,"byteOffset":2448,"byteLength":2448},{"buffer":0,"byteOffset":4896,"byteLength":1632},{"buffer":0,"byteOffset":6528,"byteLength":1632},{"buffer":0,"byteOffset":8160,"byteLength":720}],"buffers":[{"byteLength":8880,"uri":"data:application/octet-stream;base64,"}]}
