{"asset":{"generator":"Khronos glTF Blender I/O v1.2.75","version":"2.0"},"scene":0,"scenes":[{"name":"Scene","nodes":[0]}],"nodes":[{"mesh":0,"name":"Mesh"}],"meshes":[{"name":"-1_0_-1_MI_WGS_04","primitives":[{"indices":4,"attributes":{"POSITION":0,"NORMAL":1,"TEXCOORD_0":2,"TEXCOORD_1":3},"mode":4}]}],"accessors":[{"bufferView":0,"componentType":5126,"count":10635,"type":"VEC3","min":[-21.000001214079177,-25.011172468892667,-13.590828637587789],"max":[-8.699901966976578,-18.102750430107115,17.50000835564249]},{"bufferView":1,"componentType":5126,"count":10635,"type":"VEC3"},{"bufferView":2,"componentType":5126,"count":10635,"type":"VEC2"},{"bufferView":3,"componentType":5126,"count":10635,"type":"VEC2"},{"bufferView":4,"componentType":5123,"count":15996,"type":"SCALAR"}],"bufferViews":[{"buffer":0,"byteOffset":0,"byteLength":127620},{"buffer":0,"byteOffset":127620,"byteLength":127620},{"buffer":0,"byteOffset":255240,"byteLength":85080},{"buffer":0,"byteOffset":340320,"byteLength":85080},{"buffer":0,"byteOffset":425400,"byteLength":31992}],"buffers":[{"byteLength":457392,"uri":"data:application/octet-stream;base64,"}]}
