{"asset":{"generator":"Khronos glTF Blender I/O v1.2.75","version":"2.0"},"scene":0,"scenes":[{"name":"Scene","nodes":[0]}],"nodes":[{"mesh":0,"name":"Mesh"}],"meshes":[{"name":"-1_0_1_MI_CornerBuilding01","primitives":[{"indices":4,"attributes":{"POSITION":0,"NORMAL":1,"TEXCOORD_0":2,"TEXCOORD_1":3},"mode":4}]}],"accessors":[{"bufferView":0,"componentType":5126,"count":716,"type":"VEC3","min":[-20,-20,-20],"max":[20,20,20]},{"bufferView":1,"componentType":5126,"count":716,"type":"VEC3"},{"bufferView":2,"componentType":5126,"count":716,"type":"VEC2"},{"bufferView":3,"componentType":5126,"count":716,"type":"VEC2"},{"bufferView":4,"componentType":5123,"count":1068,"type":"SCALAR"}],"bufferViews":[{"buffer":0,"byteOffset":0,"byteLength":8592},{"buffer":0,"byteOffset":8592,"byteLength":8592},{"buffer":0,"byteOffset":17184,"byteLength":5728},{"buffer":0,"byteOffset":22912,"byteLength":5728},{"buffer":0,"byteOffset":28640,"byteLength":2136}],"buffers":[{"byteLength":30776,"uri":"data:application/octet-stream;base64,"}]}
