{"asset":{"generator":"Khronos glTF Blender I/O v1.2.75","version":"2.0"},"scene":0,"scenes":[{"name":"Scene","nodes":[0]}],"nodes":[{"mesh":0,"name":"Mesh"}],"meshes":[{"name":"-1_0_0_MI_Pipes_square_01","primitives":[{"indices":4,"attributes":{"POSITION":0,"NORMAL":1,"TEXCOORD_0":2,"TEXCOORD_1":3},"mode":4}]}],"accessors":[{"bufferView":0,"componentType":5126,"count":29364,"type":"VEC3","min":[-11.08052496445913,-24.839432338952584,-29.0555176882962],"max":[30.55724802875227,23.160675111298772,-4.021913811179907]},{"bufferView":1,"componentType":5126,"count":29364,"type":"VEC3"},{"bufferView":2,"componentType":5126,"count":29364,"type":"VEC2"},{"bufferView":3,"componentType":5126,"count":29364,"type":"VEC2"},{"bufferView":4,"componentType":5123,"count":65292,"type":"SCALAR"}],"bufferViews":[{"buffer":0,"byteOffset":0,"byteLength":352368},{"buffer":0,"byteOffset":352368,"byteLength":352368},{"buffer":0,"byteOffset":704736,"byteLength":234912},{"buffer":0,"byteOffset":939648,"byteLength":234912},{"buffer":0,"byteOffset":1174560,"byteLength":130584}],"buffers":[{"byteLength":1305144,"uri":"data:application/octet-stream;base64,"}]}
