{"asset":{"generator":"Khronos glTF Blender I/O v1.2.75","version":"2.0"},"scene":0,"scenes":[{"name":"Scene","nodes":[0]}],"nodes":[{"mesh":0,"name":"Mesh"}],"meshes":[{"name":"-1_0_-1_MI_GroundDetails","primitives":[{"indices":4,"attributes":{"POSITION":0,"NORMAL":1,"TEXCOORD_0":2,"TEXCOORD_1":3},"mode":4}]}],"accessors":[{"bufferView":0,"componentType":5126,"count":2940,"type":"VEC3","min":[-23.69995006204942,-25.10000057220458,-28.19999162704487],"max":[28.29578126956427,-23.211574538585374,29.89998309907324]},{"bufferView":1,"componentType":5126,"count":2940,"type":"VEC3"},{"bufferView":2,"componentType":5126,"count":2940,"type":"VEC2"},{"bufferView":3,"componentType":5126,"count":2940,"type":"VEC2"},{"bufferView":4,"componentType":5123,"count":6168,"type":"SCALAR"}],"bufferViews":[{"buffer":0,"byteOffset":0,"byteLength":35280},{"buffer":0,"byteOffset":35280,"byteLength":35280},{"buffer":0,"byteOffset":70560,"byteLength":23520},{"buffer":0,"byteOffset":94080,"byteLength":23520},{"buffer":0,"byteOffset":117600,"byteLength":12336}],"buffers":[{"byteLength":129936,"uri":"data:application/octet-stream;base64,"}]}
