{"asset":{"generator":"Khronos glTF Blender I/O v1.2.75","version":"2.0"},"scene":0,"scenes":[{"name":"Scene","nodes":[0]}],"nodes":[{"mesh":0,"name":"Mesh"}],"meshes":[{"name":"-1_0_-2_MI_FloorMat","primitives":[{"indices":4,"attributes":{"POSITION":0,"NORMAL":1,"TEXCOORD_0":2,"TEXCOORD_1":3},"mode":4}]}],"accessors":[{"bufferView":0,"componentType":5126,"count":512,"type":"VEC3","min":[-10.499025957909843,-24.92999946594238,18.328447639580332],"max":[-4.759703829049636,-24.760083778724074,25.44062963296024]},{"bufferView":1,"componentType":5126,"count":512,"type":"VEC3"},{"bufferView":2,"componentType":5126,"count":512,"type":"VEC2"},{"bufferView":3,"componentType":5126,"count":512,"type":"VEC2"},{"bufferView":4,"componentType":5123,"count":2640,"type":"SCALAR"}],"bufferViews":[{"buffer":0,"byteOffset":0,"byteLength":6144},{"buffer":0,"byteOffset":6144,"byteLength":6144},{"buffer":0,"byteOffset":12288,"byteLength":4096},{"buffer":0,"byteOffset":16384,"byteLength":4096},{"buffer":0,"byteOffset":20480,"byteLength":5280}],"buffers":[{"byteLength":25760,"uri":"data:application/octet-stream;base64,"}]}
