{"asset":{"generator":"Khronos glTF Blender I/O v1.2.75","version":"2.0"},"scene":0,"scenes":[{"name":"Scene","nodes":[0]}],"nodes":[{"mesh":0,"name":"Mesh"}],"meshes":[{"name":"-1_0_0_M_PaperBoxes_03","primitives":[{"indices":4,"attributes":{"POSITION":0,"NORMAL":1,"TEXCOORD_0":2,"TEXCOORD_1":3},"mode":4}]}],"accessors":[{"bufferView":0,"componentType":5126,"count":785,"type":"VEC3","min":[22.33142766505383,-24.82999391965568,-24.34929803371858],"max":[23.256059786644535,-24.05872802734375,-23.653369506796476]},{"bufferView":1,"componentType":5126,"count":785,"type":"VEC3"},{"bufferView":2,"componentType":5126,"count":785,"type":"VEC2"},{"bufferView":3,"componentType":5126,"count":785,"type":"VEC2"},{"bufferView":4,"componentType":5123,"count":870,"type":"SCALAR"}],"bufferViews":[{"buffer":0,"byteOffset":0,"byteLength":9420},{"buffer":0,"byteOffset":9420,"byteLength":9420},{"buffer":0,"byteOffset":18840,"byteLength":6280},{"buffer":0,"byteOffset":25120,"byteLength":6280},{"buffer":0,"byteOffset":31400,"byteLength":1740}],"buffers":[{"byteLength":33140,"uri":"data:application/octet-stream;base64,"}]}
