{"asset":{"generator":"Khronos glTF Blender I/O v1.2.75","version":"2.0"},"scene":0,"scenes":[{"name":"Scene","nodes":[0]}],"nodes":[{"mesh":0,"name":"Mesh"}],"meshes":[{"name":"-1_0_-1_MI_EnvirAssets_01","primitives":[{"indices":4,"attributes":{"POSITION":0,"NORMAL":1,"TEXCOORD_0":2,"TEXCOORD_1":3},"mode":4}]}],"accessors":[{"bufferView":0,"componentType":5126,"count":11377,"type":"VEC3","min":[-21.39999945721357,-24.929999694824225,-23.688851291745095],"max":[19.10000151704374,19.345026855468753,26.50784617802623]},{"bufferView":1,"componentType":5126,"count":11377,"type":"VEC3"},{"bufferView":2,"componentType":5126,"count":11377,"type":"VEC2"},{"bufferView":3,"componentType":5126,"count":11377,"type":"VEC2"},{"bufferView":4,"componentType":5123,"count":27834,"type":"SCALAR"}],"bufferViews":[{"buffer":0,"byteOffset":0,"byteLength":136524},{"buffer":0,"byteOffset":136524,"byteLength":136524},{"buffer":0,"byteOffset":273048,"byteLength":91016},{"buffer":0,"byteOffset":364064,"byteLength":91016},{"buffer":0,"byteOffset":455080,"byteLength":55668}],"buffers":[{"byteLength":510748,"uri":"data:application/octet-stream;base64,"}]}
