{"asset":{"generator":"Khronos glTF Blender I/O v1.2.75","version":"2.0"},"scene":0,"scenes":[{"name":"Scene","nodes":[0]}],"nodes":[{"mesh":0,"name":"Mesh"}],"meshes":[{"name":"-1_0_0_MI_MetalBeam_Painted01","primitives":[{"indices":4,"attributes":{"POSITION":0,"NORMAL":1,"TEXCOORD_0":2,"TEXCOORD_1":3},"mode":4}]}],"accessors":[{"bufferView":0,"componentType":5126,"count":344,"type":"VEC3","min":[20.718295896430636,-19.52000165748278,-23.677266561255728],"max":[24.16170904941524,-19.07444386973886,-23.379999944242762]},{"bufferView":1,"componentType":5126,"count":344,"type":"VEC3"},{"bufferView":2,"componentType":5126,"count":344,"type":"VEC2"},{"bufferView":3,"componentType":5126,"count":344,"type":"VEC2"},{"bufferView":4,"componentType":5123,"count":1008,"type":"SCALAR"}],"bufferViews":[{"buffer":0,"byteOffset":0,"byteLength":4128},{"buffer":0,"byteOffset":4128,"byteLength":4128},{"buffer":0,"byteOffset":8256,"byteLength":2752},{"buffer":0,"byteOffset":11008,"byteLength":2752},{"buffer":0,"byteOffset":13760,"byteLength":2016}],"buffers":[{"byteLength":15776,"uri":"data:application/octet-stream;base64,"}]}
