{"asset":{"generator":"Khronos glTF Blender I/O v1.2.75","version":"2.0"},"scene":0,"scenes":[{"name":"Scene","nodes":[0]}],"nodes":[{"mesh":0,"name":"Mesh"}],"meshes":[{"name":"-1_0_1_MI_Roof01_BC","primitives":[{"indices":4,"attributes":{"POSITION":0,"NORMAL":1,"TEXCOORD_0":2,"TEXCOORD_1":3},"mode":4}]}],"accessors":[{"bufferView":0,"componentType":5126,"count":168,"type":"VEC3","min":[-20,-20,-20],"max":[20,20,20]},{"bufferView":1,"componentType":5126,"count":168,"type":"VEC3"},{"bufferView":2,"componentType":5126,"count":168,"type":"VEC2"},{"bufferView":3,"componentType":5126,"count":168,"type":"VEC2"},{"bufferView":4,"componentType":5123,"count":252,"type":"SCALAR"}],"bufferViews":[{"buffer":0,"byteOffset":0,"byteLength":2016},{"buffer":0,"byteOffset":2016,"byteLength":2016},{"buffer":0,"byteOffset":4032,"byteLength":1344},{"buffer":0,"byteOffset":5376,"byteLength":1344},{"buffer":0,"byteOffset":6720,"byteLength":504}],"buffers":[{"byteLength":7224,"uri":"data:application/octet-stream;base64,"}]}
