{"asset":{"generator":"Khronos glTF Blender I/O v1.2.75","version":"2.0"},"scene":0,"scenes":[{"name":"Scene","nodes":[0]}],"nodes":[{"mesh":0,"name":"Mesh"}],"meshes":[{"name":"-1_1_1_MI_BackgroundBuildings_cull_front","primitives":[{"indices":4,"attributes":{"POSITION":0,"NORMAL":1,"TEXCOORD_0":2,"TEXCOORD_1":3},"mode":4}]}],"accessors":[{"bufferView":0,"componentType":5126,"count":952,"type":"VEC3","min":[-1.012119482032821,-45.50000061035155,-24.27483981945511],"max":[14.009106823749919,4.822235107421875,-8.725740027986518]},{"bufferView":1,"componentType":5126,"count":952,"type":"VEC3"},{"bufferView":2,"componentType":5126,"count":952,"type":"VEC2"},{"bufferView":3,"componentType":5126,"count":952,"type":"VEC2"},{"bufferView":4,"componentType":5123,"count":3282,"type":"SCALAR"}],"bufferViews":[{"buffer":0,"byteOffset":0,"byteLength":11424},{"buffer":0,"byteOffset":11424,"byteLength":11424},{"buffer":0,"byteOffset":22848,"byteLength":7616},{"buffer":0,"byteOffset":30464,"byteLength":7616},{"buffer":0,"byteOffset":38080,"byteLength":6564}],"buffers":[{"byteLength":44644,"uri":"data:application/octet-stream;base64,"}]}
