{"asset":{"generator":"Khronos glTF Blender I/O v1.2.75","version":"2.0"},"scene":0,"scenes":[{"name":"Scene","nodes":[0]}],"nodes":[{"mesh":0,"name":"Mesh"}],"meshes":[{"name":"-2_-1_-1_Material__0","primitives":[{"indices":4,"attributes":{"POSITION":0,"NORMAL":1,"TEXCOORD_0":2,"TEXCOORD_1":3},"mode":4}]}],"accessors":[{"bufferView":0,"componentType":5126,"count":20,"type":"VEC3","min":[-15,-15,-15],"max":[15,15,15]},{"bufferView":1,"componentType":5126,"count":20,"type":"VEC3"},{"bufferView":2,"componentType":5126,"count":20,"type":"VEC2"},{"bufferView":3,"componentType":5126,"count":20,"type":"VEC2"},{"bufferView":4,"componentType":5123,"count":72,"type":"SCALAR"}],"bufferViews":[{"buffer":0,"byteOffset":0,"byteLength":240},{"buffer":0,"byteOffset":240,"byteLength":240},{"buffer":0,"byteOffset":480,"byteLength":160},{"buffer":0,"byteOffset":640,"byteLength":160},{"buffer":0,"byteOffset":800,"byteLength":144}],"buffers":[{"byteLength":944,"uri":"data:application/octet-stream;base64,"}]}
