{"asset":{"generator":"Khronos glTF Blender I/O v1.2.75","version":"2.0"},"scene":0,"scenes":[{"name":"Scene","nodes":[0]}],"nodes":[{"mesh":0,"name":"Mesh"}],"meshes":[{"name":"-2_-1_-1_MI_Stair_01_Painted","primitives":[{"indices":4,"attributes":{"POSITION":0,"NORMAL":1,"TEXCOORD_0":2,"TEXCOORD_1":3},"mode":4}]}],"accessors":[{"bufferView":0,"componentType":5126,"count":22004,"type":"VEC3","min":[-15,-15,-15],"max":[15,15,15]},{"bufferView":1,"componentType":5126,"count":22004,"type":"VEC3"},{"bufferView":2,"componentType":5126,"count":22004,"type":"VEC2"},{"bufferView":3,"componentType":5126,"count":22004,"type":"VEC2"},{"bufferView":4,"componentType":5123,"count":72510,"type":"SCALAR"}],"bufferViews":[{"buffer":0,"byteOffset":0,"byteLength":264048},{"buffer":0,"byteOffset":264048,"byteLength":264048},{"buffer":0,"byteOffset":528096,"byteLength":176032},{"buffer":0,"byteOffset":704128,"byteLength":176032},{"buffer":0,"byteOffset":880160,"byteLength":145020}],"buffers":[{"byteLength":1025180,"uri":"data:application/octet-stream;base64,"}]}
