{"asset":{"generator":"Khronos glTF Blender I/O v1.2.75","version":"2.0"},"scene":0,"scenes":[{"name":"Scene","nodes":[0]}],"nodes":[{"mesh":0,"name":"Mesh"}],"meshes":[{"name":"-2_-1_-2_M_Signboards01","primitives":[{"indices":4,"attributes":{"POSITION":0,"NORMAL":1,"TEXCOORD_0":2,"TEXCOORD_1":3},"mode":4}]}],"accessors":[{"bufferView":0,"componentType":5126,"count":6671,"type":"VEC3","min":[-15,-15,-15],"max":[15,15,15]},{"bufferView":1,"componentType":5126,"count":6671,"type":"VEC3"},{"bufferView":2,"componentType":5126,"count":6671,"type":"VEC2"},{"bufferView":3,"componentType":5126,"count":6671,"type":"VEC2"},{"bufferView":4,"componentType":5123,"count":22458,"type":"SCALAR"}],"bufferViews":[{"buffer":0,"byteOffset":0,"byteLength":80052},{"buffer":0,"byteOffset":80052,"byteLength":80052},{"buffer":0,"byteOffset":160104,"byteLength":53368},{"buffer":0,"byteOffset":213472,"byteLength":53368},{"buffer":0,"byteOffset":266840,"byteLength":44916}],"buffers":[{"byteLength":311756,"uri":"data:application/octet-stream;base64,"}]}
