{"asset":{"generator":"Khronos glTF Blender I/O v1.2.75","version":"2.0"},"scene":0,"scenes":[{"name":"Scene","nodes":[0]}],"nodes":[{"mesh":0,"name":"Mesh"}],"meshes":[{"name":"-2_-1_-2_MI_PropsSet01","primitives":[{"indices":4,"attributes":{"POSITION":0,"NORMAL":1,"TEXCOORD_0":2,"TEXCOORD_1":3},"mode":4}]}],"accessors":[{"bufferView":0,"componentType":5126,"count":1542,"type":"VEC3","min":[-15,-15,-15],"max":[15,15,15]},{"bufferView":1,"componentType":5126,"count":1542,"type":"VEC3"},{"bufferView":2,"componentType":5126,"count":1542,"type":"VEC2"},{"bufferView":3,"componentType":5126,"count":1542,"type":"VEC2"},{"bufferView":4,"componentType":5123,"count":3654,"type":"SCALAR"}],"bufferViews":[{"buffer":0,"byteOffset":0,"byteLength":18504},{"buffer":0,"byteOffset":18504,"byteLength":18504},{"buffer":0,"byteOffset":37008,"byteLength":12336},{"buffer":0,"byteOffset":49344,"byteLength":12336},{"buffer":0,"byteOffset":61680,"byteLength":7308}],"buffers":[{"byteLength":68988,"uri":"data:application/octet-stream;base64,"}]}
