{"asset":{"generator":"Khronos glTF Blender I/O v1.2.75","version":"2.0"},"scene":0,"scenes":[{"name":"Scene","nodes":[0]}],"nodes":[{"mesh":0,"name":"Mesh"}],"meshes":[{"name":"-2_-1_-1_MI_Round_Pipes_01","primitives":[{"indices":4,"attributes":{"POSITION":0,"NORMAL":1,"TEXCOORD_0":2,"TEXCOORD_1":3},"mode":4}]}],"accessors":[{"bufferView":0,"componentType":5126,"count":3450,"type":"VEC3","min":[-15,-15,-15],"max":[15,15,15]},{"bufferView":1,"componentType":5126,"count":3450,"type":"VEC3"},{"bufferView":2,"componentType":5126,"count":3450,"type":"VEC2"},{"bufferView":3,"componentType":5126,"count":3450,"type":"VEC2"},{"bufferView":4,"componentType":5123,"count":12096,"type":"SCALAR"}],"bufferViews":[{"buffer":0,"byteOffset":0,"byteLength":41400},{"buffer":0,"byteOffset":41400,"byteLength":41400},{"buffer":0,"byteOffset":82800,"byteLength":27600},{"buffer":0,"byteOffset":110400,"byteLength":27600},{"buffer":0,"byteOffset":138000,"byteLength":24192}],"buffers":[{"byteLength":162192,"uri":"data:application/octet-stream;base64,"}]}
