{"asset":{"generator":"Khronos glTF Blender I/O v1.2.75","version":"2.0"},"scene":0,"scenes":[{"name":"Scene","nodes":[0]}],"nodes":[{"mesh":0,"name":"Mesh"}],"meshes":[{"name":"-2_0_-1_MI_Building07","primitives":[{"indices":4,"attributes":{"POSITION":0,"NORMAL":1,"TEXCOORD_0":2,"TEXCOORD_1":3},"mode":4}]}],"accessors":[{"bufferView":0,"componentType":5126,"count":3752,"type":"VEC3","min":[8.119999740600768,-25.689999192947404,2.539999420166662],"max":[19.520000579833987,5.724283986602483,25.889999305586297]},{"bufferView":1,"componentType":5126,"count":3752,"type":"VEC3"},{"bufferView":2,"componentType":5126,"count":3752,"type":"VEC2"},{"bufferView":3,"componentType":5126,"count":3752,"type":"VEC2"},{"bufferView":4,"componentType":5123,"count":7002,"type":"SCALAR"}],"bufferViews":[{"buffer":0,"byteOffset":0,"byteLength":45024},{"buffer":0,"byteOffset":45024,"byteLength":45024},{"buffer":0,"byteOffset":90048,"byteLength":30016},{"buffer":0,"byteOffset":120064,"byteLength":30016},{"buffer":0,"byteOffset":150080,"byteLength":14004}],"buffers":[{"byteLength":164084,"uri":"data:application/octet-stream;base64,"}]}
