{"asset":{"generator":"Khronos glTF Blender I/O v1.2.75","version":"2.0"},"scene":0,"scenes":[{"name":"Scene","nodes":[0]}],"nodes":[{"mesh":0,"name":"Mesh"}],"meshes":[{"name":"-2_0_0_MI_BackgroundBuildings","primitives":[{"indices":4,"attributes":{"POSITION":0,"NORMAL":1,"TEXCOORD_0":2,"TEXCOORD_1":3},"mode":4}]}],"accessors":[{"bufferView":0,"componentType":5126,"count":206,"type":"VEC3","min":[8.076537817700768,-8.672501664161683,-34.57518760810922],"max":[40.34207025221292,-7.4659016537666325,-2.178103145541172]},{"bufferView":1,"componentType":5126,"count":206,"type":"VEC3"},{"bufferView":2,"componentType":5126,"count":206,"type":"VEC2"},{"bufferView":3,"componentType":5126,"count":206,"type":"VEC2"},{"bufferView":4,"componentType":5123,"count":852,"type":"SCALAR"}],"bufferViews":[{"buffer":0,"byteOffset":0,"byteLength":2472},{"buffer":0,"byteOffset":2472,"byteLength":2472},{"buffer":0,"byteOffset":4944,"byteLength":1648},{"buffer":0,"byteOffset":6592,"byteLength":1648},{"buffer":0,"byteOffset":8240,"byteLength":1704}],"buffers":[{"byteLength":9944,"uri":"data:application/octet-stream;base64,"}]}
