{"asset":{"generator":"Khronos glTF Blender I/O v1.2.75","version":"2.0"},"scene":0,"scenes":[{"name":"Scene","nodes":[0]}],"nodes":[{"mesh":0,"name":"Mesh"}],"meshes":[{"name":"-2_0_-1_MI_CornerBuilding01_cull_front","primitives":[{"indices":4,"attributes":{"POSITION":0,"NORMAL":1,"TEXCOORD_0":2,"TEXCOORD_1":3},"mode":4}]}],"accessors":[{"bufferView":0,"componentType":5126,"count":480,"type":"VEC3","min":[3.7016425983062504,-19.95,-25.910002128357256],"max":[11.651647862264689,9.53177927827975,25.01941233019414]},{"bufferView":1,"componentType":5126,"count":480,"type":"VEC3"},{"bufferView":2,"componentType":5126,"count":480,"type":"VEC2"},{"bufferView":3,"componentType":5126,"count":480,"type":"VEC2"},{"bufferView":4,"componentType":5123,"count":1008,"type":"SCALAR"}],"bufferViews":[{"buffer":0,"byteOffset":0,"byteLength":5760},{"buffer":0,"byteOffset":5760,"byteLength":5760},{"buffer":0,"byteOffset":11520,"byteLength":3840},{"buffer":0,"byteOffset":15360,"byteLength":3840},{"buffer":0,"byteOffset":19200,"byteLength":2016}],"buffers":[{"byteLength":21216,"uri":"data:application/octet-stream;base64,"}]}
