{"asset":{"generator":"Khronos glTF Blender I/O v1.2.75","version":"2.0"},"scene":0,"scenes":[{"name":"Scene","nodes":[0]}],"nodes":[{"mesh":0,"name":"Mesh"}],"meshes":[{"name":"-2_0_-1_M_WindowsEmissive01","primitives":[{"indices":4,"attributes":{"POSITION":0,"NORMAL":1,"TEXCOORD_0":2,"TEXCOORD_1":3},"mode":4}]}],"accessors":[{"bufferView":0,"componentType":5126,"count":40,"type":"VEC3","min":[12.209898025509624,-4.272930638292003,-23.043931664445683],"max":[23.808931792751125,25.93073110580444,17.24547568618856]},{"bufferView":1,"componentType":5126,"count":40,"type":"VEC3"},{"bufferView":2,"componentType":5126,"count":40,"type":"VEC2"},{"bufferView":3,"componentType":5126,"count":40,"type":"VEC2"},{"bufferView":4,"componentType":5123,"count":60,"type":"SCALAR"}],"bufferViews":[{"buffer":0,"byteOffset":0,"byteLength":480},{"buffer":0,"byteOffset":480,"byteLength":480},{"buffer":0,"byteOffset":960,"byteLength":320},{"buffer":0,"byteOffset":1280,"byteLength":320},{"buffer":0,"byteOffset":1600,"byteLength":120}],"buffers":[{"byteLength":1720,"uri":"data:application/octet-stream;base64,"}]}
