{"asset":{"generator":"Khronos glTF Blender I/O v1.2.75","version":"2.0"},"scene":0,"scenes":[{"name":"Scene","nodes":[0]}],"nodes":[{"mesh":0,"name":"Mesh"}],"meshes":[{"name":"-2_0_0_MI_PropsSetEm01","primitives":[{"indices":4,"attributes":{"POSITION":0,"NORMAL":1,"TEXCOORD_0":2,"TEXCOORD_1":3},"mode":4}]}],"accessors":[{"bufferView":0,"componentType":5126,"count":427,"type":"VEC3","min":[23.229997035237233,2.520068932736649,-25.079825804931517],"max":[23.457936261362782,7.365658563509548,-21.518836367284237]},{"bufferView":1,"componentType":5126,"count":427,"type":"VEC3"},{"bufferView":2,"componentType":5126,"count":427,"type":"VEC2"},{"bufferView":3,"componentType":5126,"count":427,"type":"VEC2"},{"bufferView":4,"componentType":5123,"count":1368,"type":"SCALAR"}],"bufferViews":[{"buffer":0,"byteOffset":0,"byteLength":5124},{"buffer":0,"byteOffset":5124,"byteLength":5124},{"buffer":0,"byteOffset":10248,"byteLength":3416},{"buffer":0,"byteOffset":13664,"byteLength":3416},{"buffer":0,"byteOffset":17080,"byteLength":2736}],"buffers":[{"byteLength":19816,"uri":"data:application/octet-stream;base64,"}]}
