{"asset":{"generator":"Khronos glTF Blender I/O v1.2.75","version":"2.0"},"scene":0,"scenes":[{"name":"Scene","nodes":[0]}],"nodes":[{"mesh":0,"name":"Mesh"}],"meshes":[{"name":"-2_0_-1_MI_PropsSetEm01","primitives":[{"indices":4,"attributes":{"POSITION":0,"NORMAL":1,"TEXCOORD_0":2,"TEXCOORD_1":3},"mode":4}]}],"accessors":[{"bufferView":0,"componentType":5126,"count":21784,"type":"VEC3","min":[8.225193705497112,-23.5500171718743,-20.733738513079278],"max":[23.082425684540734,-20.375335129716365,2.842804391565774]},{"bufferView":1,"componentType":5126,"count":21784,"type":"VEC3"},{"bufferView":2,"componentType":5126,"count":21784,"type":"VEC2"},{"bufferView":3,"componentType":5126,"count":21784,"type":"VEC2"},{"bufferView":4,"componentType":5123,"count":71952,"type":"SCALAR"}],"bufferViews":[{"buffer":0,"byteOffset":0,"byteLength":261408},{"buffer":0,"byteOffset":261408,"byteLength":261408},{"buffer":0,"byteOffset":522816,"byteLength":174272},{"buffer":0,"byteOffset":697088,"byteLength":174272},{"buffer":0,"byteOffset":871360,"byteLength":143904}],"buffers":[{"byteLength":1015264,"uri":"data:application/octet-stream;base64,"}]}
