{"asset":{"generator":"Khronos glTF Blender I/O v1.2.75","version":"2.0"},"scene":0,"scenes":[{"name":"Scene","nodes":[0]}],"nodes":[{"mesh":0,"name":"Mesh"}],"meshes":[{"name":"-2_0_-1_MI_WGS_03","primitives":[{"indices":4,"attributes":{"POSITION":0,"NORMAL":1,"TEXCOORD_0":2,"TEXCOORD_1":3},"mode":4}]}],"accessors":[{"bufferView":0,"componentType":5126,"count":3150,"type":"VEC3","min":[8.279188012797533,-24.32291414139271,-26.211242400290914],"max":[23.5079423622636,-19.71984829204751,2.8837755765341746]},{"bufferView":1,"componentType":5126,"count":3150,"type":"VEC3"},{"bufferView":2,"componentType":5126,"count":3150,"type":"VEC2"},{"bufferView":3,"componentType":5126,"count":3150,"type":"VEC2"},{"bufferView":4,"componentType":5123,"count":9018,"type":"SCALAR"}],"bufferViews":[{"buffer":0,"byteOffset":0,"byteLength":37800},{"buffer":0,"byteOffset":37800,"byteLength":37800},{"buffer":0,"byteOffset":75600,"byteLength":25200},{"buffer":0,"byteOffset":100800,"byteLength":25200},{"buffer":0,"byteOffset":126000,"byteLength":18036}],"buffers":[{"byteLength":144036,"uri":"data:application/octet-stream;base64,"}]}
