{"asset":{"generator":"Khronos glTF Blender I/O v1.2.75","version":"2.0"},"scene":0,"scenes":[{"name":"Scene","nodes":[0]}],"nodes":[{"mesh":0,"name":"Mesh"}],"meshes":[{"name":"-2_0_-1_MI_RoadMarkings","primitives":[{"indices":4,"attributes":{"POSITION":0,"NORMAL":1,"TEXCOORD_0":2,"TEXCOORD_1":3},"mode":4}]}],"accessors":[{"bufferView":0,"componentType":5126,"count":16,"type":"VEC3","min":[15.547830694002123,-24.92,-1.6181945830703826],"max":[15.66554835679785,-24.919999999999998,1.8380983382587557]},{"bufferView":1,"componentType":5126,"count":16,"type":"VEC3"},{"bufferView":2,"componentType":5126,"count":16,"type":"VEC2"},{"bufferView":3,"componentType":5126,"count":16,"type":"VEC2"},{"bufferView":4,"componentType":5123,"count":42,"type":"SCALAR"}],"bufferViews":[{"buffer":0,"byteOffset":0,"byteLength":192},{"buffer":0,"byteOffset":192,"byteLength":192},{"buffer":0,"byteOffset":384,"byteLength":128},{"buffer":0,"byteOffset":512,"byteLength":128},{"buffer":0,"byteOffset":640,"byteLength":84}],"buffers":[{"byteLength":724,"uri":"data:application/octet-stream;base64,"}]}
