{"asset":{"generator":"Khronos glTF Blender I/O v1.2.75","version":"2.0"},"scene":0,"scenes":[{"name":"Scene","nodes":[0]}],"nodes":[{"mesh":0,"name":"Mesh"}],"meshes":[{"name":"-2_0_-3_MI_Building13","primitives":[{"indices":4,"attributes":{"POSITION":0,"NORMAL":1,"TEXCOORD_0":2,"TEXCOORD_1":3},"mode":4}]}],"accessors":[{"bufferView":0,"componentType":5126,"count":12120,"type":"VEC3","min":[-9.030016131653554,-33.29168138355017,-10.100033111571577],"max":[29.870012572294257,27.62597732543945,26.612907623670026]},{"bufferView":1,"componentType":5126,"count":12120,"type":"VEC3"},{"bufferView":2,"componentType":5126,"count":12120,"type":"VEC2"},{"bufferView":3,"componentType":5126,"count":12120,"type":"VEC2"},{"bufferView":4,"componentType":5123,"count":23688,"type":"SCALAR"}],"bufferViews":[{"buffer":0,"byteOffset":0,"byteLength":145440},{"buffer":0,"byteOffset":145440,"byteLength":145440},{"buffer":0,"byteOffset":290880,"byteLength":96960},{"buffer":0,"byteOffset":387840,"byteLength":96960},{"buffer":0,"byteOffset":484800,"byteLength":47376}],"buffers":[{"byteLength":532176,"uri":"data:application/octet-stream;base64,"}]}
