{"asset":{"generator":"Khronos glTF Blender I/O v1.2.75","version":"2.0"},"scene":0,"scenes":[{"name":"Scene","nodes":[0]}],"nodes":[{"mesh":0,"name":"Mesh"}],"meshes":[{"name":"-2_0_-1_MI_Building05","primitives":[{"indices":4,"attributes":{"POSITION":0,"NORMAL":1,"TEXCOORD_0":2,"TEXCOORD_1":3},"mode":4}]}],"accessors":[{"bufferView":0,"componentType":5126,"count":584,"type":"VEC3","min":[8.525039527416261,-15.634758545458316,-10.569854741681462],"max":[8.953323900613334,-3.59,2.1915743535470806]},{"bufferView":1,"componentType":5126,"count":584,"type":"VEC3"},{"bufferView":2,"componentType":5126,"count":584,"type":"VEC2"},{"bufferView":3,"componentType":5126,"count":584,"type":"VEC2"},{"bufferView":4,"componentType":5123,"count":1188,"type":"SCALAR"}],"bufferViews":[{"buffer":0,"byteOffset":0,"byteLength":7008},{"buffer":0,"byteOffset":7008,"byteLength":7008},{"buffer":0,"byteOffset":14016,"byteLength":4672},{"buffer":0,"byteOffset":18688,"byteLength":4672},{"buffer":0,"byteOffset":23360,"byteLength":2376}],"buffers":[{"byteLength":25736,"uri":"data:application/octet-stream;base64,"}]}
