{"asset":{"generator":"Khronos glTF Blender I/O v1.2.75","version":"2.0"},"scene":0,"scenes":[{"name":"Scene","nodes":[0]}],"nodes":[{"mesh":0,"name":"Mesh"}],"meshes":[{"name":"-2_0_-1_MI_Roof01_BC","primitives":[{"indices":4,"attributes":{"POSITION":0,"NORMAL":1,"TEXCOORD_0":2,"TEXCOORD_1":3},"mode":4}]}],"accessors":[{"bufferView":0,"componentType":5126,"count":264,"type":"VEC3","min":[3.956834935799286,-8.649107513427765,2.813184051513661],"max":[30.03417621328139,9.615789486169817,25.462535777584343]},{"bufferView":1,"componentType":5126,"count":264,"type":"VEC3"},{"bufferView":2,"componentType":5126,"count":264,"type":"VEC2"},{"bufferView":3,"componentType":5126,"count":264,"type":"VEC2"},{"bufferView":4,"componentType":5123,"count":396,"type":"SCALAR"}],"bufferViews":[{"buffer":0,"byteOffset":0,"byteLength":3168},{"buffer":0,"byteOffset":3168,"byteLength":3168},{"buffer":0,"byteOffset":6336,"byteLength":2112},{"buffer":0,"byteOffset":8448,"byteLength":2112},{"buffer":0,"byteOffset":10560,"byteLength":792}],"buffers":[{"byteLength":11352,"uri":"data:application/octet-stream;base64,"}]}
