{"asset":{"generator":"Khronos glTF Blender I/O v1.2.75","version":"2.0"},"scene":0,"scenes":[{"name":"Scene","nodes":[0]}],"nodes":[{"mesh":0,"name":"Mesh"}],"meshes":[{"name":"-2_0_-1_M_PaperBoxes_03","primitives":[{"indices":4,"attributes":{"POSITION":0,"NORMAL":1,"TEXCOORD_0":2,"TEXCOORD_1":3},"mode":4}]}],"accessors":[{"bufferView":0,"componentType":5126,"count":1995,"type":"VEC3","min":[8.520193431377407,-24.379820528626443,-19.96477540291677],"max":[17.998624937987437,-23.39291994571686,-6.773893020153046]},{"bufferView":1,"componentType":5126,"count":1995,"type":"VEC3"},{"bufferView":2,"componentType":5126,"count":1995,"type":"VEC2"},{"bufferView":3,"componentType":5126,"count":1995,"type":"VEC2"},{"bufferView":4,"componentType":5123,"count":2256,"type":"SCALAR"}],"bufferViews":[{"buffer":0,"byteOffset":0,"byteLength":23940},{"buffer":0,"byteOffset":23940,"byteLength":23940},{"buffer":0,"byteOffset":47880,"byteLength":15960},{"buffer":0,"byteOffset":63840,"byteLength":15960},{"buffer":0,"byteOffset":79800,"byteLength":4512}],"buffers":[{"byteLength":84312,"uri":"data:application/octet-stream;base64,"}]}
