{"asset":{"generator":"Khronos glTF Blender I/O v1.2.75","version":"2.0"},"scene":0,"scenes":[{"name":"Scene","nodes":[0]}],"nodes":[{"mesh":0,"name":"Mesh"}],"meshes":[{"name":"-2_0_-1_MI_MetalBeam01","primitives":[{"indices":4,"attributes":{"POSITION":0,"NORMAL":1,"TEXCOORD_0":2,"TEXCOORD_1":3},"mode":4}]}],"accessors":[{"bufferView":0,"componentType":5126,"count":33924,"type":"VEC3","min":[11.617080910890266,5.700000000000003,3.0101476659528035],"max":[19.05222384513907,13.127283840734165,25.506321107240463]},{"bufferView":1,"componentType":5126,"count":33924,"type":"VEC3"},{"bufferView":2,"componentType":5126,"count":33924,"type":"VEC2"},{"bufferView":3,"componentType":5126,"count":33924,"type":"VEC2"},{"bufferView":4,"componentType":5123,"count":103176,"type":"SCALAR"}],"bufferViews":[{"buffer":0,"byteOffset":0,"byteLength":407088},{"buffer":0,"byteOffset":407088,"byteLength":407088},{"buffer":0,"byteOffset":814176,"byteLength":271392},{"buffer":0,"byteOffset":1085568,"byteLength":271392},{"buffer":0,"byteOffset":1356960,"byteLength":206352}],"buffers":[{"byteLength":1563312,"uri":"data:application/octet-stream;base64,"}]}
