{"asset":{"generator":"Khronos glTF Blender I/O v1.2.75","version":"2.0"},"scene":0,"scenes":[{"name":"Scene","nodes":[0]}],"nodes":[{"mesh":0,"name":"Mesh"}],"meshes":[{"name":"-2_0_-2_MI_CornerBuilding01","primitives":[{"indices":4,"attributes":{"POSITION":0,"NORMAL":1,"TEXCOORD_0":2,"TEXCOORD_1":3},"mode":4}]}],"accessors":[{"bufferView":0,"componentType":5126,"count":1512,"type":"VEC3","min":[8.822481155346587,-24.3,3.418840660604573],"max":[33.33577570578084,24.87877089258749,25.714715771323057]},{"bufferView":1,"componentType":5126,"count":1512,"type":"VEC3"},{"bufferView":2,"componentType":5126,"count":1512,"type":"VEC2"},{"bufferView":3,"componentType":5126,"count":1512,"type":"VEC2"},{"bufferView":4,"componentType":5123,"count":2838,"type":"SCALAR"}],"bufferViews":[{"buffer":0,"byteOffset":0,"byteLength":18144},{"buffer":0,"byteOffset":18144,"byteLength":18144},{"buffer":0,"byteOffset":36288,"byteLength":12096},{"buffer":0,"byteOffset":48384,"byteLength":12096},{"buffer":0,"byteOffset":60480,"byteLength":5676}],"buffers":[{"byteLength":66156,"uri":"data:application/octet-stream;base64,"}]}
