{"asset":{"generator":"Khronos glTF Blender I/O v1.2.75","version":"2.0"},"scene":0,"scenes":[{"name":"Scene","nodes":[0]}],"nodes":[{"mesh":0,"name":"Mesh"}],"meshes":[{"name":"-2_0_0_MI_MetalBeam_Painted01","primitives":[{"indices":4,"attributes":{"POSITION":0,"NORMAL":1,"TEXCOORD_0":2,"TEXCOORD_1":3},"mode":4}]}],"accessors":[{"bufferView":0,"componentType":5126,"count":276,"type":"VEC3","min":[21.825623558792465,9.668115175732453,-22.218000209651336],"max":[22.274376417453702,10.11187744411555,-15.28999977603008]},{"bufferView":1,"componentType":5126,"count":276,"type":"VEC3"},{"bufferView":2,"componentType":5126,"count":276,"type":"VEC2"},{"bufferView":3,"componentType":5126,"count":276,"type":"VEC2"},{"bufferView":4,"componentType":5123,"count":960,"type":"SCALAR"}],"bufferViews":[{"buffer":0,"byteOffset":0,"byteLength":3312},{"buffer":0,"byteOffset":3312,"byteLength":3312},{"buffer":0,"byteOffset":6624,"byteLength":2208},{"buffer":0,"byteOffset":8832,"byteLength":2208},{"buffer":0,"byteOffset":11040,"byteLength":1920}],"buffers":[{"byteLength":12960,"uri":"data:application/octet-stream;base64,"}]}
