{"asset":{"generator":"Khronos glTF Blender I/O v1.2.75","version":"2.0"},"scene":0,"scenes":[{"name":"Scene","nodes":[0]}],"nodes":[{"mesh":0,"name":"Mesh"}],"meshes":[{"name":"-2_0_0_MI_PropsSetEm01","primitives":[{"indices":4,"attributes":{"POSITION":0,"NORMAL":1,"TEXCOORD_0":2,"TEXCOORD_1":3},"mode":4}]}],"accessors":[{"bufferView":0,"componentType":5126,"count":2723,"type":"VEC3","min":[22.695394816975575,6.981101879454705,-21.659409662687086],"max":[23.23000493397669,7.279235760191945,-21.38217113235846]},{"bufferView":1,"componentType":5126,"count":2723,"type":"VEC3"},{"bufferView":2,"componentType":5126,"count":2723,"type":"VEC2"},{"bufferView":3,"componentType":5126,"count":2723,"type":"VEC2"},{"bufferView":4,"componentType":5123,"count":8994,"type":"SCALAR"}],"bufferViews":[{"buffer":0,"byteOffset":0,"byteLength":32676},{"buffer":0,"byteOffset":32676,"byteLength":32676},{"buffer":0,"byteOffset":65352,"byteLength":21784},{"buffer":0,"byteOffset":87136,"byteLength":21784},{"buffer":0,"byteOffset":108920,"byteLength":17988}],"buffers":[{"byteLength":126908,"uri":"data:application/octet-stream;base64,"}]}
