{"asset":{"generator":"Khronos glTF Blender I/O v1.2.75","version":"2.0"},"scene":0,"scenes":[{"name":"Scene","nodes":[0]}],"nodes":[{"mesh":0,"name":"Mesh"}],"meshes":[{"name":"-2_0_-1_MI_MetalWallPart_Painted_01_cull_front","primitives":[{"indices":4,"attributes":{"POSITION":0,"NORMAL":1,"TEXCOORD_0":2,"TEXCOORD_1":3},"mode":4}]}],"accessors":[{"bufferView":0,"componentType":5126,"count":1120,"type":"VEC3","min":[12.259973196715876,9.358245053712821,3.9139197434380493],"max":[18.168485663042766,9.68015869235861,24.82540431471833]},{"bufferView":1,"componentType":5126,"count":1120,"type":"VEC3"},{"bufferView":2,"componentType":5126,"count":1120,"type":"VEC2"},{"bufferView":3,"componentType":5126,"count":1120,"type":"VEC2"},{"bufferView":4,"componentType":5123,"count":3048,"type":"SCALAR"}],"bufferViews":[{"buffer":0,"byteOffset":0,"byteLength":13440},{"buffer":0,"byteOffset":13440,"byteLength":13440},{"buffer":0,"byteOffset":26880,"byteLength":8960},{"buffer":0,"byteOffset":35840,"byteLength":8960},{"buffer":0,"byteOffset":44800,"byteLength":6096}],"buffers":[{"byteLength":50896,"uri":"data:application/octet-stream;base64,"}]}
