{"asset":{"generator":"Khronos glTF Blender I/O v1.2.75","version":"2.0"},"scene":0,"scenes":[{"name":"Scene","nodes":[0]}],"nodes":[{"mesh":0,"name":"Mesh"}],"meshes":[{"name":"-2_0_-1_MI_CornerBuilding01","primitives":[{"indices":4,"attributes":{"POSITION":0,"NORMAL":1,"TEXCOORD_0":2,"TEXCOORD_1":3},"mode":4}]}],"accessors":[{"bufferView":0,"componentType":5126,"count":4120,"type":"VEC3","min":[-15,-15,-15],"max":[15,15,15]},{"bufferView":1,"componentType":5126,"count":4120,"type":"VEC3"},{"bufferView":2,"componentType":5126,"count":4120,"type":"VEC2"},{"bufferView":3,"componentType":5126,"count":4120,"type":"VEC2"},{"bufferView":4,"componentType":5123,"count":7620,"type":"SCALAR"}],"bufferViews":[{"buffer":0,"byteOffset":0,"byteLength":49440},{"buffer":0,"byteOffset":49440,"byteLength":49440},{"buffer":0,"byteOffset":98880,"byteLength":32960},{"buffer":0,"byteOffset":131840,"byteLength":32960},{"buffer":0,"byteOffset":164800,"byteLength":15240}],"buffers":[{"byteLength":180040,"uri":"data:application/octet-stream;base64,"}]}
