{"asset":{"generator":"Khronos glTF Blender I/O v1.2.75","version":"2.0"},"scene":0,"scenes":[{"name":"Scene","nodes":[0]}],"nodes":[{"mesh":0,"name":"Mesh"}],"meshes":[{"name":"-2_0_-1_MI_WallTile01","primitives":[{"indices":4,"attributes":{"POSITION":0,"NORMAL":1,"TEXCOORD_0":2,"TEXCOORD_1":3},"mode":4}]}],"accessors":[{"bufferView":0,"componentType":5126,"count":416,"type":"VEC3","min":[3.9499990070857223,5.450000000000003,2.9995591862135815],"max":[11.60003911903248,9.500945096552826,24.85001116031963]},{"bufferView":1,"componentType":5126,"count":416,"type":"VEC3"},{"bufferView":2,"componentType":5126,"count":416,"type":"VEC2"},{"bufferView":3,"componentType":5126,"count":416,"type":"VEC2"},{"bufferView":4,"componentType":5123,"count":768,"type":"SCALAR"}],"bufferViews":[{"buffer":0,"byteOffset":0,"byteLength":4992},{"buffer":0,"byteOffset":4992,"byteLength":4992},{"buffer":0,"byteOffset":9984,"byteLength":3328},{"buffer":0,"byteOffset":13312,"byteLength":3328},{"buffer":0,"byteOffset":16640,"byteLength":1536}],"buffers":[{"byteLength":18176,"uri":"data:application/octet-stream;base64,"}]}
