{"asset":{"generator":"Khronos glTF Blender I/O v1.2.75","version":"2.0"},"scene":0,"scenes":[{"name":"Scene","nodes":[0]}],"nodes":[{"mesh":0,"name":"Mesh"}],"meshes":[{"name":"-2_0_-2_MI_WGS_01","primitives":[{"indices":4,"attributes":{"POSITION":0,"NORMAL":1,"TEXCOORD_0":2,"TEXCOORD_1":3},"mode":4}]}],"accessors":[{"bufferView":0,"componentType":5126,"count":170,"type":"VEC3","min":[7.967367687749693,-24.300000110863603,23.524765260219574],"max":[8.670015200476932,-19.281301307678223,24.071381427049637]},{"bufferView":1,"componentType":5126,"count":170,"type":"VEC3"},{"bufferView":2,"componentType":5126,"count":170,"type":"VEC2"},{"bufferView":3,"componentType":5126,"count":170,"type":"VEC2"},{"bufferView":4,"componentType":5123,"count":420,"type":"SCALAR"}],"bufferViews":[{"buffer":0,"byteOffset":0,"byteLength":2040},{"buffer":0,"byteOffset":2040,"byteLength":2040},{"buffer":0,"byteOffset":4080,"byteLength":1360},{"buffer":0,"byteOffset":5440,"byteLength":1360},{"buffer":0,"byteOffset":6800,"byteLength":840}],"buffers":[{"byteLength":7640,"uri":"data:application/octet-stream;base64,"}]}
