{"asset":{"generator":"Khronos glTF Blender I/O v1.2.75","version":"2.0"},"scene":0,"scenes":[{"name":"Scene","nodes":[0]}],"nodes":[{"mesh":0,"name":"Mesh"}],"meshes":[{"name":"-2_0_-2_MI_CornerBuilding01_cull_front","primitives":[{"indices":4,"attributes":{"POSITION":0,"NORMAL":1,"TEXCOORD_0":2,"TEXCOORD_1":3},"mode":4}]}],"accessors":[{"bufferView":0,"componentType":5126,"count":440,"type":"VEC3","min":[8.703698642393434,-25.135001041232933,22.099299263402788],"max":[28.600005450321476,-1.0300000000000011,24.480734674861605]},{"bufferView":1,"componentType":5126,"count":440,"type":"VEC3"},{"bufferView":2,"componentType":5126,"count":440,"type":"VEC2"},{"bufferView":3,"componentType":5126,"count":440,"type":"VEC2"},{"bufferView":4,"componentType":5123,"count":924,"type":"SCALAR"}],"bufferViews":[{"buffer":0,"byteOffset":0,"byteLength":5280},{"buffer":0,"byteOffset":5280,"byteLength":5280},{"buffer":0,"byteOffset":10560,"byteLength":3520},{"buffer":0,"byteOffset":14080,"byteLength":3520},{"buffer":0,"byteOffset":17600,"byteLength":1848}],"buffers":[{"byteLength":19448,"uri":"data:application/octet-stream;base64,"}]}
