{"asset":{"generator":"Khronos glTF Blender I/O v1.2.75","version":"2.0"},"scene":0,"scenes":[{"name":"Scene","nodes":[0]}],"nodes":[{"mesh":0,"name":"Mesh"}],"meshes":[{"name":"-2_0_-1_M_TrimSheetMaster","primitives":[{"indices":4,"attributes":{"POSITION":0,"NORMAL":1,"TEXCOORD_0":2,"TEXCOORD_1":3},"mode":4}]}],"accessors":[{"bufferView":0,"componentType":5126,"count":20297,"type":"VEC3","min":[4.99609291777886,-24.798308485843638,-27.56399226425162],"max":[31.14316830479099,12.324590132452293,19.072459270606412]},{"bufferView":1,"componentType":5126,"count":20297,"type":"VEC3"},{"bufferView":2,"componentType":5126,"count":20297,"type":"VEC2"},{"bufferView":3,"componentType":5126,"count":20297,"type":"VEC2"},{"bufferView":4,"componentType":5123,"count":67908,"type":"SCALAR"}],"bufferViews":[{"buffer":0,"byteOffset":0,"byteLength":243564},{"buffer":0,"byteOffset":243564,"byteLength":243564},{"buffer":0,"byteOffset":487128,"byteLength":162376},{"buffer":0,"byteOffset":649504,"byteLength":162376},{"buffer":0,"byteOffset":811880,"byteLength":135816}],"buffers":[{"byteLength":947696,"uri":"data:application/octet-stream;base64,"}]}
