{"asset":{"generator":"Khronos glTF Blender I/O v1.2.75","version":"2.0"},"scene":0,"scenes":[{"name":"Scene","nodes":[0]}],"nodes":[{"mesh":0,"name":"Mesh"}],"meshes":[{"name":"-2_0_-1_MI_Building13","primitives":[{"indices":4,"attributes":{"POSITION":0,"NORMAL":1,"TEXCOORD_0":2,"TEXCOORD_1":3},"mode":4}]}],"accessors":[{"bufferView":0,"componentType":5126,"count":2580,"type":"VEC3","min":[7.852675808437141,-19.48849273681643,-26.299991358643453],"max":[14.461567783378733,27.400009155273438,3.9484367225791877]},{"bufferView":1,"componentType":5126,"count":2580,"type":"VEC3"},{"bufferView":2,"componentType":5126,"count":2580,"type":"VEC2"},{"bufferView":3,"componentType":5126,"count":2580,"type":"VEC2"},{"bufferView":4,"componentType":5123,"count":5112,"type":"SCALAR"}],"bufferViews":[{"buffer":0,"byteOffset":0,"byteLength":30960},{"buffer":0,"byteOffset":30960,"byteLength":30960},{"buffer":0,"byteOffset":61920,"byteLength":20640},{"buffer":0,"byteOffset":82560,"byteLength":20640},{"buffer":0,"byteOffset":103200,"byteLength":10224}],"buffers":[{"byteLength":113424,"uri":"data:application/octet-stream;base64,"}]}
