{"asset":{"generator":"Khronos glTF Blender I/O v1.2.75","version":"2.0"},"scene":0,"scenes":[{"name":"Scene","nodes":[0]}],"nodes":[{"mesh":0,"name":"Mesh"}],"meshes":[{"name":"-2_0_-1_MI_Round_Pipes_01","primitives":[{"indices":4,"attributes":{"POSITION":0,"NORMAL":1,"TEXCOORD_0":2,"TEXCOORD_1":3},"mode":4}]}],"accessors":[{"bufferView":0,"componentType":5126,"count":7400,"type":"VEC3","min":[8.399783268564128,-19.99611124128103,-25.588047703851622],"max":[9.916229933202267,-16.013194746010683,2.79136700795339]},{"bufferView":1,"componentType":5126,"count":7400,"type":"VEC3"},{"bufferView":2,"componentType":5126,"count":7400,"type":"VEC2"},{"bufferView":3,"componentType":5126,"count":7400,"type":"VEC2"},{"bufferView":4,"componentType":5123,"count":29088,"type":"SCALAR"}],"bufferViews":[{"buffer":0,"byteOffset":0,"byteLength":88800},{"buffer":0,"byteOffset":88800,"byteLength":88800},{"buffer":0,"byteOffset":177600,"byteLength":59200},{"buffer":0,"byteOffset":236800,"byteLength":59200},{"buffer":0,"byteOffset":296000,"byteLength":58176}],"buffers":[{"byteLength":354176,"uri":"data:application/octet-stream;base64,"}]}
