{"asset":{"generator":"Khronos glTF Blender I/O v1.2.75","version":"2.0"},"scene":0,"scenes":[{"name":"Scene","nodes":[0]}],"nodes":[{"mesh":0,"name":"Mesh"}],"meshes":[{"name":"-2_0_-2_MI_Round_Pipes_01","primitives":[{"indices":4,"attributes":{"POSITION":0,"NORMAL":1,"TEXCOORD_0":2,"TEXCOORD_1":3},"mode":4}]}],"accessors":[{"bufferView":0,"componentType":5126,"count":2775,"type":"VEC3","min":[8.577480497996412,-20.09820877982652,23.92354177042303],"max":[12.674242615962086,-12.117219085842013,25.54983743959601]},{"bufferView":1,"componentType":5126,"count":2775,"type":"VEC3"},{"bufferView":2,"componentType":5126,"count":2775,"type":"VEC2"},{"bufferView":3,"componentType":5126,"count":2775,"type":"VEC2"},{"bufferView":4,"componentType":5123,"count":11376,"type":"SCALAR"}],"bufferViews":[{"buffer":0,"byteOffset":0,"byteLength":33300},{"buffer":0,"byteOffset":33300,"byteLength":33300},{"buffer":0,"byteOffset":66600,"byteLength":22200},{"buffer":0,"byteOffset":88800,"byteLength":22200},{"buffer":0,"byteOffset":111000,"byteLength":22752}],"buffers":[{"byteLength":133752,"uri":"data:application/octet-stream;base64,"}]}
