{"asset":{"generator":"Khronos glTF Blender I/O v1.2.75","version":"2.0"},"scene":0,"scenes":[{"name":"Scene","nodes":[0]}],"nodes":[{"mesh":0,"name":"Mesh"}],"meshes":[{"name":"-2_0_-1_MI_Building07_cull_front","primitives":[{"indices":4,"attributes":{"POSITION":0,"NORMAL":1,"TEXCOORD_0":2,"TEXCOORD_1":3},"mode":4}]}],"accessors":[{"bufferView":0,"componentType":5126,"count":1878,"type":"VEC3","min":[15.899775652073188,-25.689999192947404,2.840000694413706],"max":[19.520000579833987,5.724283986602483,14.229695551361115]},{"bufferView":1,"componentType":5126,"count":1878,"type":"VEC3"},{"bufferView":2,"componentType":5126,"count":1878,"type":"VEC2"},{"bufferView":3,"componentType":5126,"count":1878,"type":"VEC2"},{"bufferView":4,"componentType":5123,"count":3504,"type":"SCALAR"}],"bufferViews":[{"buffer":0,"byteOffset":0,"byteLength":22536},{"buffer":0,"byteOffset":22536,"byteLength":22536},{"buffer":0,"byteOffset":45072,"byteLength":15024},{"buffer":0,"byteOffset":60096,"byteLength":15024},{"buffer":0,"byteOffset":75120,"byteLength":7008}],"buffers":[{"byteLength":82128,"uri":"data:application/octet-stream;base64,"}]}
