{"asset":{"generator":"Khronos glTF Blender I/O v1.2.75","version":"2.0"},"scene":0,"scenes":[{"name":"Scene","nodes":[0]}],"nodes":[{"mesh":0,"name":"Mesh"}],"meshes":[{"name":"-2_0_-1_MI_FrontConcrete02","primitives":[{"indices":4,"attributes":{"POSITION":0,"NORMAL":1,"TEXCOORD_0":2,"TEXCOORD_1":3},"mode":4}]}],"accessors":[{"bufferView":0,"componentType":5126,"count":321,"type":"VEC3","min":[8.114885866641401,-25,-26.100000681960363],"max":[8.61488166019943,-19.920047261707623,-5.199998718109214]},{"bufferView":1,"componentType":5126,"count":321,"type":"VEC3"},{"bufferView":2,"componentType":5126,"count":321,"type":"VEC2"},{"bufferView":3,"componentType":5126,"count":321,"type":"VEC2"},{"bufferView":4,"componentType":5123,"count":756,"type":"SCALAR"}],"bufferViews":[{"buffer":0,"byteOffset":0,"byteLength":3852},{"buffer":0,"byteOffset":3852,"byteLength":3852},{"buffer":0,"byteOffset":7704,"byteLength":2568},{"buffer":0,"byteOffset":10272,"byteLength":2568},{"buffer":0,"byteOffset":12840,"byteLength":1512}],"buffers":[{"byteLength":14352,"uri":"data:application/octet-stream;base64,"}]}
