{"asset":{"generator":"Khronos glTF Blender I/O v1.2.75","version":"2.0"},"scene":0,"scenes":[{"name":"Scene","nodes":[0]}],"nodes":[{"mesh":0,"name":"Mesh"}],"meshes":[{"name":"-2_0_-2_M_Signboards01","primitives":[{"indices":4,"attributes":{"POSITION":0,"NORMAL":1,"TEXCOORD_0":2,"TEXCOORD_1":3},"mode":4}]}],"accessors":[{"bufferView":0,"componentType":5126,"count":13134,"type":"VEC3","min":[15.62629802977471,-21.140115344707255,23.32496977017079],"max":[25.234757849047615,-14.713720609733594,24.70467240446871]},{"bufferView":1,"componentType":5126,"count":13134,"type":"VEC3"},{"bufferView":2,"componentType":5126,"count":13134,"type":"VEC2"},{"bufferView":3,"componentType":5126,"count":13134,"type":"VEC2"},{"bufferView":4,"componentType":5123,"count":22458,"type":"SCALAR"}],"bufferViews":[{"buffer":0,"byteOffset":0,"byteLength":157608},{"buffer":0,"byteOffset":157608,"byteLength":157608},{"buffer":0,"byteOffset":315216,"byteLength":105072},{"buffer":0,"byteOffset":420288,"byteLength":105072},{"buffer":0,"byteOffset":525360,"byteLength":44916}],"buffers":[{"byteLength":570276,"uri":"data:application/octet-stream;base64,"}]}
