{"asset":{"generator":"Khronos glTF Blender I/O v1.2.75","version":"2.0"},"scene":0,"scenes":[{"name":"Scene","nodes":[0]}],"nodes":[{"mesh":0,"name":"Mesh"}],"meshes":[{"name":"-2_0_0_MI_CornerBuilding01","primitives":[{"indices":4,"attributes":{"POSITION":0,"NORMAL":1,"TEXCOORD_0":2,"TEXCOORD_1":3},"mode":4}]}],"accessors":[{"bufferView":0,"componentType":5126,"count":160,"type":"VEC3","min":[1.9192766986623226,-24.856329193115236,-24.60784043804632],"max":[27.89110035888592,6.592326903092204,-10.635708618165495]},{"bufferView":1,"componentType":5126,"count":160,"type":"VEC3"},{"bufferView":2,"componentType":5126,"count":160,"type":"VEC2"},{"bufferView":3,"componentType":5126,"count":160,"type":"VEC2"},{"bufferView":4,"componentType":5123,"count":312,"type":"SCALAR"}],"bufferViews":[{"buffer":0,"byteOffset":0,"byteLength":1920},{"buffer":0,"byteOffset":1920,"byteLength":1920},{"buffer":0,"byteOffset":3840,"byteLength":1280},{"buffer":0,"byteOffset":5120,"byteLength":1280},{"buffer":0,"byteOffset":6400,"byteLength":624}],"buffers":[{"byteLength":7024,"uri":"data:application/octet-stream;base64,"}]}
