{"asset":{"generator":"Khronos glTF Blender I/O v1.2.75","version":"2.0"},"scene":0,"scenes":[{"name":"Scene","nodes":[0]}],"nodes":[{"mesh":0,"name":"Mesh"}],"meshes":[{"name":"-2_0_0_MI_Building05","primitives":[{"indices":4,"attributes":{"POSITION":0,"NORMAL":1,"TEXCOORD_0":2,"TEXCOORD_1":3},"mode":4}]}],"accessors":[{"bufferView":0,"componentType":5126,"count":6650,"type":"VEC3","min":[-1.8124037224534675,-0.39553408756852093,-22.395525824896076],"max":[16.61095704060584,25.03403735637665,-2.1787877154600324]},{"bufferView":1,"componentType":5126,"count":6650,"type":"VEC3"},{"bufferView":2,"componentType":5126,"count":6650,"type":"VEC2"},{"bufferView":3,"componentType":5126,"count":6650,"type":"VEC2"},{"bufferView":4,"componentType":5123,"count":13782,"type":"SCALAR"}],"bufferViews":[{"buffer":0,"byteOffset":0,"byteLength":79800},{"buffer":0,"byteOffset":79800,"byteLength":79800},{"buffer":0,"byteOffset":159600,"byteLength":53200},{"buffer":0,"byteOffset":212800,"byteLength":53200},{"buffer":0,"byteOffset":266000,"byteLength":27564}],"buffers":[{"byteLength":293564,"uri":"data:application/octet-stream;base64,"}]}
