{"asset":{"generator":"Khronos glTF Blender I/O v1.2.75","version":"2.0"},"scene":0,"scenes":[{"name":"Scene","nodes":[0]}],"nodes":[{"mesh":0,"name":"Mesh"}],"meshes":[{"name":"-2_0_0_M_TrimSheetMaster","primitives":[{"indices":4,"attributes":{"POSITION":0,"NORMAL":1,"TEXCOORD_0":2,"TEXCOORD_1":3},"mode":4}]}],"accessors":[{"bufferView":0,"componentType":5126,"count":5895,"type":"VEC3","min":[-15,-15,-15],"max":[15,15,15]},{"bufferView":1,"componentType":5126,"count":5895,"type":"VEC3"},{"bufferView":2,"componentType":5126,"count":5895,"type":"VEC2"},{"bufferView":3,"componentType":5126,"count":5895,"type":"VEC2"},{"bufferView":4,"componentType":5123,"count":18945,"type":"SCALAR"}],"bufferViews":[{"buffer":0,"byteOffset":0,"byteLength":70740},{"buffer":0,"byteOffset":70740,"byteLength":70740},{"buffer":0,"byteOffset":141480,"byteLength":47160},{"buffer":0,"byteOffset":188640,"byteLength":47160},{"buffer":0,"byteOffset":235800,"byteLength":37890}],"buffers":[{"byteLength":273690,"uri":"data:application/octet-stream;base64,"}]}
