{"asset":{"generator":"Khronos glTF Blender I/O v1.2.75","version":"2.0"},"scene":0,"scenes":[{"name":"Scene","nodes":[0]}],"nodes":[{"mesh":0,"name":"Mesh"}],"meshes":[{"name":"-2_0_0_MI_MetalBeam01","primitives":[{"indices":4,"attributes":{"POSITION":0,"NORMAL":1,"TEXCOORD_0":2,"TEXCOORD_1":3},"mode":4}]}],"accessors":[{"bufferView":0,"componentType":5126,"count":462,"type":"VEC3","min":[12.205903185166918,9.671657321160325,-24.75985294439876],"max":[18.638952061900227,9.9083437080253,-24.39829124953351]},{"bufferView":1,"componentType":5126,"count":462,"type":"VEC3"},{"bufferView":2,"componentType":5126,"count":462,"type":"VEC2"},{"bufferView":3,"componentType":5126,"count":462,"type":"VEC2"},{"bufferView":4,"componentType":5123,"count":1440,"type":"SCALAR"}],"bufferViews":[{"buffer":0,"byteOffset":0,"byteLength":5544},{"buffer":0,"byteOffset":5544,"byteLength":5544},{"buffer":0,"byteOffset":11088,"byteLength":3696},{"buffer":0,"byteOffset":14784,"byteLength":3696},{"buffer":0,"byteOffset":18480,"byteLength":2880}],"buffers":[{"byteLength":21360,"uri":"data:application/octet-stream;base64,"}]}
