{"asset":{"generator":"Khronos glTF Blender I/O v1.2.75","version":"2.0"},"scene":0,"scenes":[{"name":"Scene","nodes":[0]}],"nodes":[{"mesh":0,"name":"Mesh"}],"meshes":[{"name":"-2_0_0_M_WindowsEmissive01","primitives":[{"indices":4,"attributes":{"POSITION":0,"NORMAL":1,"TEXCOORD_0":2,"TEXCOORD_1":3},"mode":4}]}],"accessors":[{"bufferView":0,"componentType":5126,"count":20,"type":"VEC3","min":[0.8620859159324681,12.457776046095894,-22.038682094999583],"max":[15.79700638898094,20.68817333143069,-16.846253432444897]},{"bufferView":1,"componentType":5126,"count":20,"type":"VEC3"},{"bufferView":2,"componentType":5126,"count":20,"type":"VEC2"},{"bufferView":3,"componentType":5126,"count":20,"type":"VEC2"},{"bufferView":4,"componentType":5123,"count":30,"type":"SCALAR"}],"bufferViews":[{"buffer":0,"byteOffset":0,"byteLength":240},{"buffer":0,"byteOffset":240,"byteLength":240},{"buffer":0,"byteOffset":480,"byteLength":160},{"buffer":0,"byteOffset":640,"byteLength":160},{"buffer":0,"byteOffset":800,"byteLength":60}],"buffers":[{"byteLength":860,"uri":"data:application/octet-stream;base64,"}]}
