{"asset":{"generator":"Khronos glTF Blender I/O v1.2.75","version":"2.0"},"scene":0,"scenes":[{"name":"Scene","nodes":[0]}],"nodes":[{"mesh":0,"name":"Mesh"}],"meshes":[{"name":"-2_0_-1_MI_Signboards01","primitives":[{"indices":4,"attributes":{"POSITION":0,"NORMAL":1,"TEXCOORD_0":2,"TEXCOORD_1":3},"mode":4}]}],"accessors":[{"bufferView":0,"componentType":5126,"count":14592,"type":"VEC3","min":[22.679212858676912,-20.839794623851777,-16.26525982320309],"max":[24.991220703125002,-15.480298149585725,-15.434740921854974]},{"bufferView":1,"componentType":5126,"count":14592,"type":"VEC3"},{"bufferView":2,"componentType":5126,"count":14592,"type":"VEC2"},{"bufferView":3,"componentType":5126,"count":14592,"type":"VEC2"},{"bufferView":4,"componentType":5123,"count":37044,"type":"SCALAR"}],"bufferViews":[{"buffer":0,"byteOffset":0,"byteLength":175104},{"buffer":0,"byteOffset":175104,"byteLength":175104},{"buffer":0,"byteOffset":350208,"byteLength":116736},{"buffer":0,"byteOffset":466944,"byteLength":116736},{"buffer":0,"byteOffset":583680,"byteLength":74088}],"buffers":[{"byteLength":657768,"uri":"data:application/octet-stream;base64,"}]}
