{"asset":{"generator":"Khronos glTF Blender I/O v1.2.75","version":"2.0"},"scene":0,"scenes":[{"name":"Scene","nodes":[0]}],"nodes":[{"mesh":0,"name":"Mesh"}],"meshes":[{"name":"-2_0_-1_MI_PropsSetEm01","primitives":[{"indices":4,"attributes":{"POSITION":0,"NORMAL":1,"TEXCOORD_0":2,"TEXCOORD_1":3},"mode":4}]}],"accessors":[{"bufferView":0,"componentType":5126,"count":3416,"type":"VEC3","min":[8.267999267877364,-23.6670898266707,-24.664988812211092],"max":[23.020960251565157,-20.64988287720277,2.7999995497454817]},{"bufferView":1,"componentType":5126,"count":3416,"type":"VEC3"},{"bufferView":2,"componentType":5126,"count":3416,"type":"VEC2"},{"bufferView":3,"componentType":5126,"count":3416,"type":"VEC2"},{"bufferView":4,"componentType":5123,"count":10944,"type":"SCALAR"}],"bufferViews":[{"buffer":0,"byteOffset":0,"byteLength":40992},{"buffer":0,"byteOffset":40992,"byteLength":40992},{"buffer":0,"byteOffset":81984,"byteLength":27328},{"buffer":0,"byteOffset":109312,"byteLength":27328},{"buffer":0,"byteOffset":136640,"byteLength":21888}],"buffers":[{"byteLength":158528,"uri":"data:application/octet-stream;base64,"}]}
