{"asset":{"generator":"Khronos glTF Blender I/O v1.2.75","version":"2.0"},"scene":0,"scenes":[{"name":"Scene","nodes":[0]}],"nodes":[{"mesh":0,"name":"Mesh"}],"meshes":[{"name":"-2_0_-1_MI_WallTile02","primitives":[{"indices":4,"attributes":{"POSITION":0,"NORMAL":1,"TEXCOORD_0":2,"TEXCOORD_1":3},"mode":4}]}],"accessors":[{"bufferView":0,"componentType":5126,"count":64,"type":"VEC3","min":[21.900000610355654,2.0199993896484507,23.148846985995927],"max":[24.920000234288274,2.5857024979591365,24.150000476825475]},{"bufferView":1,"componentType":5126,"count":64,"type":"VEC3"},{"bufferView":2,"componentType":5126,"count":64,"type":"VEC2"},{"bufferView":3,"componentType":5126,"count":64,"type":"VEC2"},{"bufferView":4,"componentType":5123,"count":96,"type":"SCALAR"}],"bufferViews":[{"buffer":0,"byteOffset":0,"byteLength":768},{"buffer":0,"byteOffset":768,"byteLength":768},{"buffer":0,"byteOffset":1536,"byteLength":512},{"buffer":0,"byteOffset":2048,"byteLength":512},{"buffer":0,"byteOffset":2560,"byteLength":192}],"buffers":[{"byteLength":2752,"uri":"data:application/octet-stream;base64,"}]}
