{"asset":{"generator":"Khronos glTF Blender I/O v1.2.75","version":"2.0"},"scene":0,"scenes":[{"name":"Scene","nodes":[0]}],"nodes":[{"mesh":0,"name":"Mesh"}],"meshes":[{"name":"-2_0_0_MI_WallTile01","primitives":[{"indices":4,"attributes":{"POSITION":0,"NORMAL":1,"TEXCOORD_0":2,"TEXCOORD_1":3},"mode":4}]}],"accessors":[{"bufferView":0,"componentType":5126,"count":156,"type":"VEC3","min":[13.949999007085722,5.450000000000003,-22.432129300450093],"max":[21.600019587782484,9.500945096552826,-15.149988839680368]},{"bufferView":1,"componentType":5126,"count":156,"type":"VEC3"},{"bufferView":2,"componentType":5126,"count":156,"type":"VEC2"},{"bufferView":3,"componentType":5126,"count":156,"type":"VEC2"},{"bufferView":4,"componentType":5123,"count":288,"type":"SCALAR"}],"bufferViews":[{"buffer":0,"byteOffset":0,"byteLength":1872},{"buffer":0,"byteOffset":1872,"byteLength":1872},{"buffer":0,"byteOffset":3744,"byteLength":1248},{"buffer":0,"byteOffset":4992,"byteLength":1248},{"buffer":0,"byteOffset":6240,"byteLength":576}],"buffers":[{"byteLength":6816,"uri":"data:application/octet-stream;base64,"}]}
