{"asset":{"generator":"Khronos glTF Blender I/O v1.2.75","version":"2.0"},"scene":0,"scenes":[{"name":"Scene","nodes":[0]}],"nodes":[{"mesh":0,"name":"Mesh"}],"meshes":[{"name":"-2_0_-1_MI_GroundDetails","primitives":[{"indices":4,"attributes":{"POSITION":0,"NORMAL":1,"TEXCOORD_0":2,"TEXCOORD_1":3},"mode":4}]}],"accessors":[{"bufferView":0,"componentType":5126,"count":408,"type":"VEC3","min":[6.300047496544323,-25.1,-7.29999337437307],"max":[31.786776232874317,-23.211574538585374,7.446460878426436]},{"bufferView":1,"componentType":5126,"count":408,"type":"VEC3"},{"bufferView":2,"componentType":5126,"count":408,"type":"VEC2"},{"bufferView":3,"componentType":5126,"count":408,"type":"VEC2"},{"bufferView":4,"componentType":5123,"count":810,"type":"SCALAR"}],"bufferViews":[{"buffer":0,"byteOffset":0,"byteLength":4896},{"buffer":0,"byteOffset":4896,"byteLength":4896},{"buffer":0,"byteOffset":9792,"byteLength":3264},{"buffer":0,"byteOffset":13056,"byteLength":3264},{"buffer":0,"byteOffset":16320,"byteLength":1620}],"buffers":[{"byteLength":17940,"uri":"data:application/octet-stream;base64,"}]}
