{"asset":{"generator":"Khronos glTF Blender I/O v1.2.75","version":"2.0"},"scene":0,"scenes":[{"name":"Scene","nodes":[0]}],"nodes":[{"mesh":0,"name":"Mesh"}],"meshes":[{"name":"-2_0_0_MI_CornerBuilding01_cull_front","primitives":[{"indices":4,"attributes":{"POSITION":0,"NORMAL":1,"TEXCOORD_0":2,"TEXCOORD_1":3},"mode":4}]}],"accessors":[{"bufferView":0,"componentType":5126,"count":80,"type":"VEC3","min":[21.94166520590386,-24.856329193115236,-26.585708484647473],"max":[23.601893243874436,7.753456973208017,-16.585708465576815]},{"bufferView":1,"componentType":5126,"count":80,"type":"VEC3"},{"bufferView":2,"componentType":5126,"count":80,"type":"VEC2"},{"bufferView":3,"componentType":5126,"count":80,"type":"VEC2"},{"bufferView":4,"componentType":5123,"count":144,"type":"SCALAR"}],"bufferViews":[{"buffer":0,"byteOffset":0,"byteLength":960},{"buffer":0,"byteOffset":960,"byteLength":960},{"buffer":0,"byteOffset":1920,"byteLength":640},{"buffer":0,"byteOffset":2560,"byteLength":640},{"buffer":0,"byteOffset":3200,"byteLength":288}],"buffers":[{"byteLength":3488,"uri":"data:application/octet-stream;base64,"}]}
