{"asset":{"generator":"Khronos glTF Blender I/O v1.2.75","version":"2.0"},"scene":0,"scenes":[{"name":"Scene","nodes":[0]}],"nodes":[{"mesh":0,"name":"Mesh"}],"meshes":[{"name":"-2_1_1_MI_Base2","primitives":[{"indices":4,"attributes":{"POSITION":0,"NORMAL":1,"TEXCOORD_0":2,"TEXCOORD_1":3},"mode":4}]}],"accessors":[{"bufferView":0,"componentType":5126,"count":22032,"type":"VEC3","min":[-20,-20,-20],"max":[20,20,20]},{"bufferView":1,"componentType":5126,"count":22032,"type":"VEC3"},{"bufferView":2,"componentType":5126,"count":22032,"type":"VEC2"},{"bufferView":3,"componentType":5126,"count":22032,"type":"VEC2"},{"bufferView":4,"componentType":5123,"count":65664,"type":"SCALAR"}],"bufferViews":[{"buffer":0,"byteOffset":0,"byteLength":264384},{"buffer":0,"byteOffset":264384,"byteLength":264384},{"buffer":0,"byteOffset":528768,"byteLength":176256},{"buffer":0,"byteOffset":705024,"byteLength":176256},{"buffer":0,"byteOffset":881280,"byteLength":131328}],"buffers":[{"byteLength":1012608,"uri":"data:application/octet-stream;base64,"}]}
