{"asset":{"generator":"Khronos glTF Blender I/O v1.2.75","version":"2.0"},"scene":0,"scenes":[{"name":"Scene","nodes":[0]}],"nodes":[{"mesh":0,"name":"Mesh"}],"meshes":[{"name":"-2_1_0_MI_MetalBeam_Painted01","primitives":[{"indices":4,"attributes":{"POSITION":0,"NORMAL":1,"TEXCOORD_0":2,"TEXCOORD_1":3},"mode":4}]}],"accessors":[{"bufferView":0,"componentType":5126,"count":1232,"type":"VEC3","min":[-0.30152833296683923,-18.906526166107504,-19.56524374267044],"max":[7.30151321548508,-13.274795913696288,-5.727228256838835]},{"bufferView":1,"componentType":5126,"count":1232,"type":"VEC3"},{"bufferView":2,"componentType":5126,"count":1232,"type":"VEC2"},{"bufferView":3,"componentType":5126,"count":1232,"type":"VEC2"},{"bufferView":4,"componentType":5123,"count":3840,"type":"SCALAR"}],"bufferViews":[{"buffer":0,"byteOffset":0,"byteLength":14784},{"buffer":0,"byteOffset":14784,"byteLength":14784},{"buffer":0,"byteOffset":29568,"byteLength":9856},{"buffer":0,"byteOffset":39424,"byteLength":9856},{"buffer":0,"byteOffset":49280,"byteLength":7680}],"buffers":[{"byteLength":56960,"uri":"data:application/octet-stream;base64,"}]}
