{"asset":{"generator":"Khronos glTF Blender I/O v1.2.75","version":"2.0"},"scene":0,"scenes":[{"name":"Scene","nodes":[0]}],"nodes":[{"mesh":0,"name":"Mesh"}],"meshes":[{"name":"-2_1_0_M_TrimSheetMaster","primitives":[{"indices":4,"attributes":{"POSITION":0,"NORMAL":1,"TEXCOORD_0":2,"TEXCOORD_1":3},"mode":4}]}],"accessors":[{"bufferView":0,"componentType":5126,"count":1805,"type":"VEC3","min":[1.0123019275028042,-18.604202128924918,-13.029662619498545],"max":[5.4008251204566164,33.44665418538551,-8.82616692251839]},{"bufferView":1,"componentType":5126,"count":1805,"type":"VEC3"},{"bufferView":2,"componentType":5126,"count":1805,"type":"VEC2"},{"bufferView":3,"componentType":5126,"count":1805,"type":"VEC2"},{"bufferView":4,"componentType":5123,"count":3294,"type":"SCALAR"}],"bufferViews":[{"buffer":0,"byteOffset":0,"byteLength":21660},{"buffer":0,"byteOffset":21660,"byteLength":21660},{"buffer":0,"byteOffset":43320,"byteLength":14440},{"buffer":0,"byteOffset":57760,"byteLength":14440},{"buffer":0,"byteOffset":72200,"byteLength":6588}],"buffers":[{"byteLength":78788,"uri":"data:application/octet-stream;base64,"}]}
