{"asset":{"generator":"Khronos glTF Blender I/O v1.2.75","version":"2.0"},"scene":0,"scenes":[{"name":"Scene","nodes":[0]}],"nodes":[{"mesh":0,"name":"Mesh"}],"meshes":[{"name":"-2_1_0_MI_WallTile01","primitives":[{"indices":4,"attributes":{"POSITION":0,"NORMAL":1,"TEXCOORD_0":2,"TEXCOORD_1":3},"mode":4}]}],"accessors":[{"bufferView":0,"componentType":5126,"count":312,"type":"VEC3","min":[-0.9585302282683088,-26.45899951430718,-21.5442113488658],"max":[8.357892106676054,-18.693388866949647,-4.250102490643428]},{"bufferView":1,"componentType":5126,"count":312,"type":"VEC3"},{"bufferView":2,"componentType":5126,"count":312,"type":"VEC2"},{"bufferView":3,"componentType":5126,"count":312,"type":"VEC2"},{"bufferView":4,"componentType":5123,"count":576,"type":"SCALAR"}],"bufferViews":[{"buffer":0,"byteOffset":0,"byteLength":3744},{"buffer":0,"byteOffset":3744,"byteLength":3744},{"buffer":0,"byteOffset":7488,"byteLength":2496},{"buffer":0,"byteOffset":9984,"byteLength":2496},{"buffer":0,"byteOffset":12480,"byteLength":1152}],"buffers":[{"byteLength":13632,"uri":"data:application/octet-stream;base64,"}]}
