{"asset":{"generator":"Khronos glTF Blender I/O v1.2.75","version":"2.0"},"scene":0,"scenes":[{"name":"Scene","nodes":[0]}],"nodes":[{"mesh":0,"name":"Mesh"}],"meshes":[{"name":"-2_1_0_MI_Building09","primitives":[{"indices":4,"attributes":{"POSITION":0,"NORMAL":1,"TEXCOORD_0":2,"TEXCOORD_1":3},"mode":4}]}],"accessors":[{"bufferView":0,"componentType":5126,"count":57888,"type":"VEC3","min":[-33.650192419522284,-27.92051463872194,-2.0003304901456005],"max":[17.750209087163988,32.31387443542481,19.320014645697526]},{"bufferView":1,"componentType":5126,"count":57888,"type":"VEC3"},{"bufferView":2,"componentType":5126,"count":57888,"type":"VEC2"},{"bufferView":3,"componentType":5126,"count":57888,"type":"VEC2"},{"bufferView":4,"componentType":5123,"count":101088,"type":"SCALAR"}],"bufferViews":[{"buffer":0,"byteOffset":0,"byteLength":694656},{"buffer":0,"byteOffset":694656,"byteLength":694656},{"buffer":0,"byteOffset":1389312,"byteLength":463104},{"buffer":0,"byteOffset":1852416,"byteLength":463104},{"buffer":0,"byteOffset":2315520,"byteLength":202176}],"buffers":[{"byteLength":2517696,"uri":"data:application/octet-stream;base64,"}]}
