{"asset":{"generator":"Khronos glTF Blender I/O v1.2.75","version":"2.0"},"scene":0,"scenes":[{"name":"Scene","nodes":[0]}],"nodes":[{"mesh":0,"name":"Mesh"}],"meshes":[{"name":"-2_1_0_MI_CornerBuilding01","primitives":[{"indices":4,"attributes":{"POSITION":0,"NORMAL":1,"TEXCOORD_0":2,"TEXCOORD_1":3},"mode":4}]}],"accessors":[{"bufferView":0,"componentType":5126,"count":648,"type":"VEC3","min":[-1.0117964720872052,-26.45899951430718,-21.5442113488658],"max":[8.357892106676054,-18.33209478855133,-2.4199810791026195]},{"bufferView":1,"componentType":5126,"count":648,"type":"VEC3"},{"bufferView":2,"componentType":5126,"count":648,"type":"VEC2"},{"bufferView":3,"componentType":5126,"count":648,"type":"VEC2"},{"bufferView":4,"componentType":5123,"count":1356,"type":"SCALAR"}],"bufferViews":[{"buffer":0,"byteOffset":0,"byteLength":7776},{"buffer":0,"byteOffset":7776,"byteLength":7776},{"buffer":0,"byteOffset":15552,"byteLength":5184},{"buffer":0,"byteOffset":20736,"byteLength":5184},{"buffer":0,"byteOffset":25920,"byteLength":2712}],"buffers":[{"byteLength":28632,"uri":"data:application/octet-stream;base64,"}]}
