{"asset":{"generator":"Khronos glTF Blender I/O v1.2.75","version":"2.0"},"scene":0,"scenes":[{"name":"Scene","nodes":[0]}],"nodes":[{"mesh":0,"name":"Mesh"}],"meshes":[{"name":"-2_1_-3_MI_CornerBuilding01","primitives":[{"indices":4,"attributes":{"POSITION":0,"NORMAL":1,"TEXCOORD_0":2,"TEXCOORD_1":3},"mode":4}]}],"accessors":[{"bufferView":0,"componentType":5126,"count":664,"type":"VEC3","min":[-9.357589739180781,-23.29168138355017,-10.68899601701753],"max":[30.799210715907645,7.5725600754609275,26.270683025954156]},{"bufferView":1,"componentType":5126,"count":664,"type":"VEC3"},{"bufferView":2,"componentType":5126,"count":664,"type":"VEC2"},{"bufferView":3,"componentType":5126,"count":664,"type":"VEC2"},{"bufferView":4,"componentType":5123,"count":1380,"type":"SCALAR"}],"bufferViews":[{"buffer":0,"byteOffset":0,"byteLength":7968},{"buffer":0,"byteOffset":7968,"byteLength":7968},{"buffer":0,"byteOffset":15936,"byteLength":5312},{"buffer":0,"byteOffset":21248,"byteLength":5312},{"buffer":0,"byteOffset":26560,"byteLength":2760}],"buffers":[{"byteLength":29320,"uri":"data:application/octet-stream;base64,"}]}
