{"asset":{"generator":"Khronos glTF Blender I/O v1.2.75","version":"2.0"},"scene":0,"scenes":[{"name":"Scene","nodes":[0]}],"nodes":[{"mesh":0,"name":"Mesh"}],"meshes":[{"name":"-2_2_0_MI_Building09","primitives":[{"indices":4,"attributes":{"POSITION":0,"NORMAL":1,"TEXCOORD_0":2,"TEXCOORD_1":3},"mode":4}]}],"accessors":[{"bufferView":0,"componentType":5126,"count":38592,"type":"VEC3","min":[-33.650192419522284,-35.320514638721946,-2.0003304901456005],"max":[17.750208975220822,12.374911499023426,19.320014645697526]},{"bufferView":1,"componentType":5126,"count":38592,"type":"VEC3"},{"bufferView":2,"componentType":5126,"count":38592,"type":"VEC2"},{"bufferView":3,"componentType":5126,"count":38592,"type":"VEC2"},{"bufferView":4,"componentType":5123,"count":67392,"type":"SCALAR"}],"bufferViews":[{"buffer":0,"byteOffset":0,"byteLength":463104},{"buffer":0,"byteOffset":463104,"byteLength":463104},{"buffer":0,"byteOffset":926208,"byteLength":308736},{"buffer":0,"byteOffset":1234944,"byteLength":308736},{"buffer":0,"byteOffset":1543680,"byteLength":134784}],"buffers":[{"byteLength":1678464,"uri":"data:application/octet-stream;base64,"}]}
