{"asset":{"generator":"Khronos glTF Blender I/O v1.2.75","version":"2.0"},"scene":0,"scenes":[{"name":"Scene","nodes":[0]}],"nodes":[{"mesh":0,"name":"Mesh"}],"meshes":[{"name":"-2_2_-4_MI_Roof01_BC","primitives":[{"indices":4,"attributes":{"POSITION":0,"NORMAL":1,"TEXCOORD_0":2,"TEXCOORD_1":3},"mode":4}]}],"accessors":[{"bufferView":0,"componentType":5126,"count":240,"type":"VEC3","min":[-15,-15,-15],"max":[15,15,15]},{"bufferView":1,"componentType":5126,"count":240,"type":"VEC3"},{"bufferView":2,"componentType":5126,"count":240,"type":"VEC2"},{"bufferView":3,"componentType":5126,"count":240,"type":"VEC2"},{"bufferView":4,"componentType":5123,"count":360,"type":"SCALAR"}],"bufferViews":[{"buffer":0,"byteOffset":0,"byteLength":2880},{"buffer":0,"byteOffset":2880,"byteLength":2880},{"buffer":0,"byteOffset":5760,"byteLength":1920},{"buffer":0,"byteOffset":7680,"byteLength":1920},{"buffer":0,"byteOffset":9600,"byteLength":720}],"buffers":[{"byteLength":10320,"uri":"data:application/octet-stream;base64,"}]}
