{"asset":{"generator":"Khronos glTF Blender I/O v1.2.75","version":"2.0"},"scene":0,"scenes":[{"name":"Scene","nodes":[0]}],"nodes":[{"mesh":0,"name":"Mesh"}],"meshes":[{"name":"-2_2_0_MI_Roof01_BC","primitives":[{"indices":4,"attributes":{"POSITION":0,"NORMAL":1,"TEXCOORD_0":2,"TEXCOORD_1":3},"mode":4}]}],"accessors":[{"bufferView":0,"componentType":5126,"count":480,"type":"VEC3","min":[-33.691753953470766,-5.252451023376295,-2.0555570597323367],"max":[17.860006959743963,12.652511322060235,19.405156170904718]},{"bufferView":1,"componentType":5126,"count":480,"type":"VEC3"},{"bufferView":2,"componentType":5126,"count":480,"type":"VEC2"},{"bufferView":3,"componentType":5126,"count":480,"type":"VEC2"},{"bufferView":4,"componentType":5123,"count":720,"type":"SCALAR"}],"bufferViews":[{"buffer":0,"byteOffset":0,"byteLength":5760},{"buffer":0,"byteOffset":5760,"byteLength":5760},{"buffer":0,"byteOffset":11520,"byteLength":3840},{"buffer":0,"byteOffset":15360,"byteLength":3840},{"buffer":0,"byteOffset":19200,"byteLength":1440}],"buffers":[{"byteLength":20640,"uri":"data:application/octet-stream;base64,"}]}
