{"asset":{"generator":"Khronos glTF Blender I/O v1.2.75","version":"2.0"},"scene":0,"scenes":[{"name":"Scene","nodes":[0]}],"nodes":[{"mesh":0,"name":"Mesh"}],"meshes":[{"name":"-2_2_0_MI_Base2","primitives":[{"indices":4,"attributes":{"POSITION":0,"NORMAL":1,"TEXCOORD_0":2,"TEXCOORD_1":3},"mode":4}]}],"accessors":[{"bufferView":0,"componentType":5126,"count":11016,"type":"VEC3","min":[2.0212344822791692,-34.83253351119525,-1.811688395007792],"max":[17.609562534295762,-5.519020911642954,13.705125742297938]},{"bufferView":1,"componentType":5126,"count":11016,"type":"VEC3"},{"bufferView":2,"componentType":5126,"count":11016,"type":"VEC2"},{"bufferView":3,"componentType":5126,"count":11016,"type":"VEC2"},{"bufferView":4,"componentType":5123,"count":32832,"type":"SCALAR"}],"bufferViews":[{"buffer":0,"byteOffset":0,"byteLength":132192},{"buffer":0,"byteOffset":132192,"byteLength":132192},{"buffer":0,"byteOffset":264384,"byteLength":88128},{"buffer":0,"byteOffset":352512,"byteLength":88128},{"buffer":0,"byteOffset":440640,"byteLength":65664}],"buffers":[{"byteLength":506304,"uri":"data:application/octet-stream;base64,"}]}
