{"asset":{"generator":"Khronos glTF Blender I/O v1.2.75","version":"2.0"},"scene":0,"scenes":[{"name":"Scene","nodes":[0]}],"nodes":[{"mesh":0,"name":"Mesh"}],"meshes":[{"name":"-2_3_1_M_TrimSheetMaster","primitives":[{"indices":4,"attributes":{"POSITION":0,"NORMAL":1,"TEXCOORD_0":2,"TEXCOORD_1":3},"mode":4}]}],"accessors":[{"bufferView":0,"componentType":5126,"count":3610,"type":"VEC3","min":[-20,-20,-20],"max":[20,20,20]},{"bufferView":1,"componentType":5126,"count":3610,"type":"VEC3"},{"bufferView":2,"componentType":5126,"count":3610,"type":"VEC2"},{"bufferView":3,"componentType":5126,"count":3610,"type":"VEC2"},{"bufferView":4,"componentType":5123,"count":6588,"type":"SCALAR"}],"bufferViews":[{"buffer":0,"byteOffset":0,"byteLength":43320},{"buffer":0,"byteOffset":43320,"byteLength":43320},{"buffer":0,"byteOffset":86640,"byteLength":28880},{"buffer":0,"byteOffset":115520,"byteLength":28880},{"buffer":0,"byteOffset":144400,"byteLength":13176}],"buffers":[{"byteLength":157576,"uri":"data:application/octet-stream;base64,"}]}
