{"asset":{"generator":"Khronos glTF Blender I/O v1.2.75","version":"2.0"},"scene":0,"scenes":[{"name":"Scene","nodes":[0]}],"nodes":[{"mesh":0,"name":"Mesh"}],"meshes":[{"name":"-3_0_-1_MI_BackgroundBuildings","primitives":[{"indices":4,"attributes":{"POSITION":0,"NORMAL":1,"TEXCOORD_0":2,"TEXCOORD_1":3},"mode":4}]}],"accessors":[{"bufferView":0,"componentType":5126,"count":952,"type":"VEC3","min":[-9.628667367171758,-5.324000731935566,-21.697156848789707],"max":[22.04388828508887,55.02258802860213,-1.6688262775907816]},{"bufferView":1,"componentType":5126,"count":952,"type":"VEC3"},{"bufferView":2,"componentType":5126,"count":952,"type":"VEC2"},{"bufferView":3,"componentType":5126,"count":952,"type":"VEC2"},{"bufferView":4,"componentType":5123,"count":3282,"type":"SCALAR"}],"bufferViews":[{"buffer":0,"byteOffset":0,"byteLength":11424},{"buffer":0,"byteOffset":11424,"byteLength":11424},{"buffer":0,"byteOffset":22848,"byteLength":7616},{"buffer":0,"byteOffset":30464,"byteLength":7616},{"buffer":0,"byteOffset":38080,"byteLength":6564}],"buffers":[{"byteLength":44644,"uri":"data:application/octet-stream;base64,"}]}
