{"asset":{"generator":"Khronos glTF Blender I/O v1.2.75","version":"2.0"},"scene":0,"scenes":[{"name":"Scene","nodes":[0]}],"nodes":[{"mesh":0,"name":"Mesh"}],"meshes":[{"name":"-3_1_0_MI_PropsSetEm01","primitives":[{"indices":4,"attributes":{"POSITION":0,"NORMAL":1,"TEXCOORD_0":2,"TEXCOORD_1":3},"mode":4}]}],"accessors":[{"bufferView":0,"componentType":5126,"count":1836,"type":"VEC3","min":[-15,-15,-15],"max":[15,15,15]},{"bufferView":1,"componentType":5126,"count":1836,"type":"VEC3"},{"bufferView":2,"componentType":5126,"count":1836,"type":"VEC2"},{"bufferView":3,"componentType":5126,"count":1836,"type":"VEC2"},{"bufferView":4,"componentType":5123,"count":5472,"type":"SCALAR"}],"bufferViews":[{"buffer":0,"byteOffset":0,"byteLength":22032},{"buffer":0,"byteOffset":22032,"byteLength":22032},{"buffer":0,"byteOffset":44064,"byteLength":14688},{"buffer":0,"byteOffset":58752,"byteLength":14688},{"buffer":0,"byteOffset":73440,"byteLength":10944}],"buffers":[{"byteLength":84384,"uri":"data:application/octet-stream;base64,"}]}
