{"asset":{"generator":"Khronos glTF Blender I/O v1.2.75","version":"2.0"},"scene":0,"scenes":[{"name":"Scene","nodes":[0]}],"nodes":[{"mesh":0,"name":"Mesh"}],"meshes":[{"name":"-3_1_0_MI_PowderStorage_01","primitives":[{"indices":4,"attributes":{"POSITION":0,"NORMAL":1,"TEXCOORD_0":2,"TEXCOORD_1":3},"mode":4}]}],"accessors":[{"bufferView":0,"componentType":5126,"count":26138,"type":"VEC3","min":[-15,-15,-15],"max":[15,15,15]},{"bufferView":1,"componentType":5126,"count":26138,"type":"VEC3"},{"bufferView":2,"componentType":5126,"count":26138,"type":"VEC2"},{"bufferView":3,"componentType":5126,"count":26138,"type":"VEC2"},{"bufferView":4,"componentType":5123,"count":75498,"type":"SCALAR"}],"bufferViews":[{"buffer":0,"byteOffset":0,"byteLength":313656},{"buffer":0,"byteOffset":313656,"byteLength":313656},{"buffer":0,"byteOffset":627312,"byteLength":209104},{"buffer":0,"byteOffset":836416,"byteLength":209104},{"buffer":0,"byteOffset":1045520,"byteLength":150996}],"buffers":[{"byteLength":1196516,"uri":"data:application/octet-stream;base64,"}]}
