{"asset":{"generator":"Khronos glTF Blender I/O v1.2.75","version":"2.0"},"scene":0,"scenes":[{"name":"Scene","nodes":[0]}],"nodes":[{"mesh":0,"name":"Mesh"}],"meshes":[{"name":"0_-1_-2_MI_CornerBuilding01_cull_front","primitives":[{"indices":4,"attributes":{"POSITION":0,"NORMAL":1,"TEXCOORD_0":2,"TEXCOORD_1":3},"mode":4}]}],"accessors":[{"bufferView":0,"componentType":5126,"count":40,"type":"VEC3","min":[-18.694956718065303,24.368475661682265,19.64790752408569],"max":[-18.194891030833315,25.318486704459335,24.647913875903647]},{"bufferView":1,"componentType":5126,"count":40,"type":"VEC3"},{"bufferView":2,"componentType":5126,"count":40,"type":"VEC2"},{"bufferView":3,"componentType":5126,"count":40,"type":"VEC2"},{"bufferView":4,"componentType":5123,"count":84,"type":"SCALAR"}],"bufferViews":[{"buffer":0,"byteOffset":0,"byteLength":480},{"buffer":0,"byteOffset":480,"byteLength":480},{"buffer":0,"byteOffset":960,"byteLength":320},{"buffer":0,"byteOffset":1280,"byteLength":320},{"buffer":0,"byteOffset":1600,"byteLength":168}],"buffers":[{"byteLength":1768,"uri":"data:application/octet-stream;base64,"}]}
