{"asset":{"generator":"Khronos glTF Blender I/O v1.2.75","version":"2.0"},"scene":0,"scenes":[{"name":"Scene","nodes":[0]}],"nodes":[{"mesh":0,"name":"Mesh"}],"meshes":[{"name":"0_-1_-1_MI_CornerBuilding01_cull_front","primitives":[{"indices":4,"attributes":{"POSITION":0,"NORMAL":1,"TEXCOORD_0":2,"TEXCOORD_1":3},"mode":4}]}],"accessors":[{"bufferView":0,"componentType":5126,"count":280,"type":"VEC3","min":[-23.81626896661396,24.368448823722527,-25.35209247591431],"max":[-18.194944741770815,25.318524512936822,4.647913875903685]},{"bufferView":1,"componentType":5126,"count":280,"type":"VEC3"},{"bufferView":2,"componentType":5126,"count":280,"type":"VEC2"},{"bufferView":3,"componentType":5126,"count":280,"type":"VEC2"},{"bufferView":4,"componentType":5123,"count":588,"type":"SCALAR"}],"bufferViews":[{"buffer":0,"byteOffset":0,"byteLength":3360},{"buffer":0,"byteOffset":3360,"byteLength":3360},{"buffer":0,"byteOffset":6720,"byteLength":2240},{"buffer":0,"byteOffset":8960,"byteLength":2240},{"buffer":0,"byteOffset":11200,"byteLength":1176}],"buffers":[{"byteLength":12376,"uri":"data:application/octet-stream;base64,"}]}
