{"asset":{"generator":"Khronos glTF Blender I/O v1.2.75","version":"2.0"},"scene":0,"scenes":[{"name":"Scene","nodes":[0]}],"nodes":[{"mesh":0,"name":"Mesh"}],"meshes":[{"name":"0_-1_-1_MI_PropsSet01","primitives":[{"indices":4,"attributes":{"POSITION":0,"NORMAL":1,"TEXCOORD_0":2,"TEXCOORD_1":3},"mode":4}]}],"accessors":[{"bufferView":0,"componentType":5126,"count":6230,"type":"VEC3","min":[-15,-15,-15],"max":[15,15,15]},{"bufferView":1,"componentType":5126,"count":6230,"type":"VEC3"},{"bufferView":2,"componentType":5126,"count":6230,"type":"VEC2"},{"bufferView":3,"componentType":5126,"count":6230,"type":"VEC2"},{"bufferView":4,"componentType":5123,"count":14238,"type":"SCALAR"}],"bufferViews":[{"buffer":0,"byteOffset":0,"byteLength":74760},{"buffer":0,"byteOffset":74760,"byteLength":74760},{"buffer":0,"byteOffset":149520,"byteLength":49840},{"buffer":0,"byteOffset":199360,"byteLength":49840},{"buffer":0,"byteOffset":249200,"byteLength":28476}],"buffers":[{"byteLength":277676,"uri":"data:application/octet-stream;base64,"}]}
