{"asset":{"generator":"Khronos glTF Blender I/O v1.2.75","version":"2.0"},"scene":0,"scenes":[{"name":"Scene","nodes":[0]}],"nodes":[{"mesh":0,"name":"Mesh"}],"meshes":[{"name":"0_-1_0_MI_WallTile02_cull_front","primitives":[{"indices":4,"attributes":{"POSITION":0,"NORMAL":1,"TEXCOORD_0":2,"TEXCOORD_1":3},"mode":4}]}],"accessors":[{"bufferView":0,"componentType":5126,"count":876,"type":"VEC3","min":[-15,-15,-15],"max":[15,15,15]},{"bufferView":1,"componentType":5126,"count":876,"type":"VEC3"},{"bufferView":2,"componentType":5126,"count":876,"type":"VEC2"},{"bufferView":3,"componentType":5126,"count":876,"type":"VEC2"},{"bufferView":4,"componentType":5123,"count":1854,"type":"SCALAR"}],"bufferViews":[{"buffer":0,"byteOffset":0,"byteLength":10512},{"buffer":0,"byteOffset":10512,"byteLength":10512},{"buffer":0,"byteOffset":21024,"byteLength":7008},{"buffer":0,"byteOffset":28032,"byteLength":7008},{"buffer":0,"byteOffset":35040,"byteLength":3708}],"buffers":[{"byteLength":38748,"uri":"data:application/octet-stream;base64,"}]}
