{"asset":{"generator":"Khronos glTF Blender I/O v1.2.75","version":"2.0"},"scene":0,"scenes":[{"name":"Scene","nodes":[0]}],"nodes":[{"mesh":0,"name":"Mesh"}],"meshes":[{"name":"0_-1_-1_MI_Signboards01","primitives":[{"indices":4,"attributes":{"POSITION":0,"NORMAL":1,"TEXCOORD_0":2,"TEXCOORD_1":3},"mode":4}]}],"accessors":[{"bufferView":0,"componentType":5126,"count":18765,"type":"VEC3","min":[-15,-15,-15],"max":[15,15,15]},{"bufferView":1,"componentType":5126,"count":18765,"type":"VEC3"},{"bufferView":2,"componentType":5126,"count":18765,"type":"VEC2"},{"bufferView":3,"componentType":5126,"count":18765,"type":"VEC2"},{"bufferView":4,"componentType":5123,"count":46812,"type":"SCALAR"}],"bufferViews":[{"buffer":0,"byteOffset":0,"byteLength":225180},{"buffer":0,"byteOffset":225180,"byteLength":225180},{"buffer":0,"byteOffset":450360,"byteLength":150120},{"buffer":0,"byteOffset":600480,"byteLength":150120},{"buffer":0,"byteOffset":750600,"byteLength":93624}],"buffers":[{"byteLength":844224,"uri":"data:application/octet-stream;base64,"}]}
