{"asset":{"generator":"Khronos glTF Blender I/O v1.2.75","version":"2.0"},"scene":0,"scenes":[{"name":"Scene","nodes":[0]}],"nodes":[{"mesh":0,"name":"Mesh"}],"meshes":[{"name":"0_0_0_MI_EnvirAssets_01","primitives":[{"indices":4,"attributes":{"POSITION":0,"NORMAL":1,"TEXCOORD_0":2,"TEXCOORD_1":3},"mode":4}]}],"accessors":[{"bufferView":0,"componentType":5126,"count":1196,"type":"VEC3","min":[-26.865405934907034,-24.800004577636727,-18.0592665232705],"max":[-2.290154896129266,-16.34620185852051,-17.155783361545165]},{"bufferView":1,"componentType":5126,"count":1196,"type":"VEC3"},{"bufferView":2,"componentType":5126,"count":1196,"type":"VEC2"},{"bufferView":3,"componentType":5126,"count":1196,"type":"VEC2"},{"bufferView":4,"componentType":5123,"count":3516,"type":"SCALAR"}],"bufferViews":[{"buffer":0,"byteOffset":0,"byteLength":14352},{"buffer":0,"byteOffset":14352,"byteLength":14352},{"buffer":0,"byteOffset":28704,"byteLength":9568},{"buffer":0,"byteOffset":38272,"byteLength":9568},{"buffer":0,"byteOffset":47840,"byteLength":7032}],"buffers":[{"byteLength":54872,"uri":"data:application/octet-stream;base64,"}]}
