{"asset":{"generator":"Khronos glTF Blender I/O v1.2.75","version":"2.0"},"scene":0,"scenes":[{"name":"Scene","nodes":[0]}],"nodes":[{"mesh":0,"name":"Mesh"}],"meshes":[{"name":"0_0_0_MI_WallTile02_cull_front","primitives":[{"indices":4,"attributes":{"POSITION":0,"NORMAL":1,"TEXCOORD_0":2,"TEXCOORD_1":3},"mode":4}]}],"accessors":[{"bufferView":0,"componentType":5126,"count":3504,"type":"VEC3","min":[-16.783884277330948,-27.88,-22.880000000024708],"max":[-11.98377638468068,20.119999999999997,-2.422341366152132]},{"bufferView":1,"componentType":5126,"count":3504,"type":"VEC3"},{"bufferView":2,"componentType":5126,"count":3504,"type":"VEC2"},{"bufferView":3,"componentType":5126,"count":3504,"type":"VEC2"},{"bufferView":4,"componentType":5123,"count":7416,"type":"SCALAR"}],"bufferViews":[{"buffer":0,"byteOffset":0,"byteLength":42048},{"buffer":0,"byteOffset":42048,"byteLength":42048},{"buffer":0,"byteOffset":84096,"byteLength":28032},{"buffer":0,"byteOffset":112128,"byteLength":28032},{"buffer":0,"byteOffset":140160,"byteLength":14832}],"buffers":[{"byteLength":154992,"uri":"data:application/octet-stream;base64,"}]}
