{"asset":{"generator":"Khronos glTF Blender I/O v1.2.75","version":"2.0"},"scene":0,"scenes":[{"name":"Scene","nodes":[0]}],"nodes":[{"mesh":0,"name":"Mesh"}],"meshes":[{"name":"0_0_0_MI_GarbageBag","primitives":[{"indices":4,"attributes":{"POSITION":0,"NORMAL":1,"TEXCOORD_0":2,"TEXCOORD_1":3},"mode":4}]}],"accessors":[{"bufferView":0,"componentType":5126,"count":16669,"type":"VEC3","min":[-21.706627954431102,-24.813249557316304,-17.93624276982797],"max":[-19.801733513393003,-22.492388271679847,-12.482833263874053]},{"bufferView":1,"componentType":5126,"count":16669,"type":"VEC3"},{"bufferView":2,"componentType":5126,"count":16669,"type":"VEC2"},{"bufferView":3,"componentType":5126,"count":16669,"type":"VEC2"},{"bufferView":4,"componentType":5123,"count":92604,"type":"SCALAR"}],"bufferViews":[{"buffer":0,"byteOffset":0,"byteLength":200028},{"buffer":0,"byteOffset":200028,"byteLength":200028},{"buffer":0,"byteOffset":400056,"byteLength":133352},{"buffer":0,"byteOffset":533408,"byteLength":133352},{"buffer":0,"byteOffset":666760,"byteLength":185208}],"buffers":[{"byteLength":851968,"uri":"data:application/octet-stream;base64,"}]}
