{"asset":{"generator":"Khronos glTF Blender I/O v1.2.75","version":"2.0"},"scene":0,"scenes":[{"name":"Scene","nodes":[0]}],"nodes":[{"mesh":0,"name":"Mesh"}],"meshes":[{"name":"0_0_-1_MI_FrontConcrete01","primitives":[{"indices":4,"attributes":{"POSITION":0,"NORMAL":1,"TEXCOORD_0":2,"TEXCOORD_1":3},"mode":4}]}],"accessors":[{"bufferView":0,"componentType":5126,"count":509,"type":"VEC3","min":[-27.95441209793091,-24.9,6.689781848734365],"max":[-10.077730661243884,-13.372397699544308,22.16084813118082]},{"bufferView":1,"componentType":5126,"count":509,"type":"VEC3"},{"bufferView":2,"componentType":5126,"count":509,"type":"VEC2"},{"bufferView":3,"componentType":5126,"count":509,"type":"VEC2"},{"bufferView":4,"componentType":5123,"count":1008,"type":"SCALAR"}],"bufferViews":[{"buffer":0,"byteOffset":0,"byteLength":6108},{"buffer":0,"byteOffset":6108,"byteLength":6108},{"buffer":0,"byteOffset":12216,"byteLength":4072},{"buffer":0,"byteOffset":16288,"byteLength":4072},{"buffer":0,"byteOffset":20360,"byteLength":2016}],"buffers":[{"byteLength":22376,"uri":"data:application/octet-stream;base64,"}]}
