{"asset":{"generator":"Khronos glTF Blender I/O v1.2.75","version":"2.0"},"scene":0,"scenes":[{"name":"Scene","nodes":[0]}],"nodes":[{"mesh":0,"name":"Mesh"}],"meshes":[{"name":"0_0_0_MI_FrontConcrete02","primitives":[{"indices":4,"attributes":{"POSITION":0,"NORMAL":1,"TEXCOORD_0":2,"TEXCOORD_1":3},"mode":4}]}],"accessors":[{"bufferView":0,"componentType":5126,"count":797,"type":"VEC3","min":[-22.774527530667314,-24.800000305175775,-25.990000225709775],"max":[0.2947135701161514,-13.529002511501313,-17.21369046212077]},{"bufferView":1,"componentType":5126,"count":797,"type":"VEC3"},{"bufferView":2,"componentType":5126,"count":797,"type":"VEC2"},{"bufferView":3,"componentType":5126,"count":797,"type":"VEC2"},{"bufferView":4,"componentType":5123,"count":1485,"type":"SCALAR"}],"bufferViews":[{"buffer":0,"byteOffset":0,"byteLength":9564},{"buffer":0,"byteOffset":9564,"byteLength":9564},{"buffer":0,"byteOffset":19128,"byteLength":6376},{"buffer":0,"byteOffset":25504,"byteLength":6376},{"buffer":0,"byteOffset":31880,"byteLength":2970}],"buffers":[{"byteLength":34850,"uri":"data:application/octet-stream;base64,"}]}
