{"asset":{"generator":"Khronos glTF Blender I/O v1.2.75","version":"2.0"},"scene":0,"scenes":[{"name":"Scene","nodes":[0]}],"nodes":[{"mesh":0,"name":"Mesh"}],"meshes":[{"name":"0_0_-1_MI_Pipes_square_01","primitives":[{"indices":4,"attributes":{"POSITION":0,"NORMAL":1,"TEXCOORD_0":2,"TEXCOORD_1":3},"mode":4}]}],"accessors":[{"bufferView":0,"componentType":5126,"count":46732,"type":"VEC3","min":[-17.180858306121543,-24.775977501774644,-12.139921710672862],"max":[15.309524040983703,14.190035277571447,16.552530948384856]},{"bufferView":1,"componentType":5126,"count":46732,"type":"VEC3"},{"bufferView":2,"componentType":5126,"count":46732,"type":"VEC2"},{"bufferView":3,"componentType":5126,"count":46732,"type":"VEC2"},{"bufferView":4,"componentType":5123,"count":106656,"type":"SCALAR"}],"bufferViews":[{"buffer":0,"byteOffset":0,"byteLength":560784},{"buffer":0,"byteOffset":560784,"byteLength":560784},{"buffer":0,"byteOffset":1121568,"byteLength":373856},{"buffer":0,"byteOffset":1495424,"byteLength":373856},{"buffer":0,"byteOffset":1869280,"byteLength":213312}],"buffers":[{"byteLength":2082592,"uri":"data:application/octet-stream;base64,"}]}
