{"asset":{"generator":"Khronos glTF Blender I/O v1.2.75","version":"2.0"},"scene":0,"scenes":[{"name":"Scene","nodes":[0]}],"nodes":[{"mesh":0,"name":"Mesh"}],"meshes":[{"name":"0_0_-1_M_AnimBoard01","primitives":[{"indices":4,"attributes":{"POSITION":0,"NORMAL":1,"TEXCOORD_0":2,"TEXCOORD_1":3},"mode":4}]}],"accessors":[{"bufferView":0,"componentType":5126,"count":102,"type":"VEC3","min":[-9.810957640242627,-24.656043516908493,16.086219966013473],"max":[-9.280748060699246,-3.6871504908590396,17.14663118573791]},{"bufferView":1,"componentType":5126,"count":102,"type":"VEC3"},{"bufferView":2,"componentType":5126,"count":102,"type":"VEC2"},{"bufferView":3,"componentType":5126,"count":102,"type":"VEC2"},{"bufferView":4,"componentType":5123,"count":288,"type":"SCALAR"}],"bufferViews":[{"buffer":0,"byteOffset":0,"byteLength":1224},{"buffer":0,"byteOffset":1224,"byteLength":1224},{"buffer":0,"byteOffset":2448,"byteLength":816},{"buffer":0,"byteOffset":3264,"byteLength":816},{"buffer":0,"byteOffset":4080,"byteLength":576}],"buffers":[{"byteLength":4656,"uri":"data:application/octet-stream;base64,"}]}
