{"asset":{"generator":"Khronos glTF Blender I/O v1.2.75","version":"2.0"},"scene":0,"scenes":[{"name":"Scene","nodes":[0]}],"nodes":[{"mesh":0,"name":"Mesh"}],"meshes":[{"name":"0_0_-2_MI_CornerBuilding01","primitives":[{"indices":4,"attributes":{"POSITION":0,"NORMAL":1,"TEXCOORD_0":2,"TEXCOORD_1":3},"mode":4}]}],"accessors":[{"bufferView":0,"componentType":5126,"count":1164,"type":"VEC3","min":[-29.230370274644763,-17.108986753059316,-21.327532433335918],"max":[-8.84162048979524,27.840000000000003,27.39095421715884]},{"bufferView":1,"componentType":5126,"count":1164,"type":"VEC3"},{"bufferView":2,"componentType":5126,"count":1164,"type":"VEC2"},{"bufferView":3,"componentType":5126,"count":1164,"type":"VEC2"},{"bufferView":4,"componentType":5123,"count":2124,"type":"SCALAR"}],"bufferViews":[{"buffer":0,"byteOffset":0,"byteLength":13968},{"buffer":0,"byteOffset":13968,"byteLength":13968},{"buffer":0,"byteOffset":27936,"byteLength":9312},{"buffer":0,"byteOffset":37248,"byteLength":9312},{"buffer":0,"byteOffset":46560,"byteLength":4248}],"buffers":[{"byteLength":50808,"uri":"data:application/octet-stream;base64,"}]}
