{"asset":{"generator":"Khronos glTF Blender I/O v1.2.75","version":"2.0"},"scene":0,"scenes":[{"name":"Scene","nodes":[0]}],"nodes":[{"mesh":0,"name":"Mesh"}],"meshes":[{"name":"0_0_0_MI_MetalWallPart_01","primitives":[{"indices":4,"attributes":{"POSITION":0,"NORMAL":1,"TEXCOORD_0":2,"TEXCOORD_1":3},"mode":4}]}],"accessors":[{"bufferView":0,"componentType":5126,"count":1152,"type":"VEC3","min":[-22.599999968590225,-20.600000762939466,-17.057187548577744],"max":[-6.580000227558173,-19.35000023841858,-16.846020544871365]},{"bufferView":1,"componentType":5126,"count":1152,"type":"VEC3"},{"bufferView":2,"componentType":5126,"count":1152,"type":"VEC2"},{"bufferView":3,"componentType":5126,"count":1152,"type":"VEC2"},{"bufferView":4,"componentType":5123,"count":1824,"type":"SCALAR"}],"bufferViews":[{"buffer":0,"byteOffset":0,"byteLength":13824},{"buffer":0,"byteOffset":13824,"byteLength":13824},{"buffer":0,"byteOffset":27648,"byteLength":9216},{"buffer":0,"byteOffset":36864,"byteLength":9216},{"buffer":0,"byteOffset":46080,"byteLength":3648}],"buffers":[{"byteLength":49728,"uri":"data:application/octet-stream;base64,"}]}
