{"asset":{"generator":"Khronos glTF Blender I/O v1.2.75","version":"2.0"},"scene":0,"scenes":[{"name":"Scene","nodes":[0]}],"nodes":[{"mesh":0,"name":"Mesh"}],"meshes":[{"name":"0_0_-1_M_TrimSheetMaster","primitives":[{"indices":4,"attributes":{"POSITION":0,"NORMAL":1,"TEXCOORD_0":2,"TEXCOORD_1":3},"mode":4}]}],"accessors":[{"bufferView":0,"componentType":5126,"count":19213,"type":"VEC3","min":[-31.813953799512433,-24.838334181532264,-6.726933565000725],"max":[4.317658446537848,38.87036209106445,27.531041315306048]},{"bufferView":1,"componentType":5126,"count":19213,"type":"VEC3"},{"bufferView":2,"componentType":5126,"count":19213,"type":"VEC2"},{"bufferView":3,"componentType":5126,"count":19213,"type":"VEC2"},{"bufferView":4,"componentType":5123,"count":90474,"type":"SCALAR"}],"bufferViews":[{"buffer":0,"byteOffset":0,"byteLength":230556},{"buffer":0,"byteOffset":230556,"byteLength":230556},{"buffer":0,"byteOffset":461112,"byteLength":153704},{"buffer":0,"byteOffset":614816,"byteLength":153704},{"buffer":0,"byteOffset":768520,"byteLength":180948}],"buffers":[{"byteLength":949468,"uri":"data:application/octet-stream;base64,"}]}
