{"asset":{"generator":"Khronos glTF Blender I/O v1.2.75","version":"2.0"},"scene":0,"scenes":[{"name":"Scene","nodes":[0]}],"nodes":[{"mesh":0,"name":"Mesh"}],"meshes":[{"name":"0_0_-1_MI_FrontConcrete02","primitives":[{"indices":4,"attributes":{"POSITION":0,"NORMAL":1,"TEXCOORD_0":2,"TEXCOORD_1":3},"mode":4}]}],"accessors":[{"bufferView":0,"componentType":5126,"count":593,"type":"VEC3","min":[-27.96955644607544,-24.814014035128057,-5.585010300010779],"max":[-9.705286429883849,-13.529002511501313,22.69111816406705]},{"bufferView":1,"componentType":5126,"count":593,"type":"VEC3"},{"bufferView":2,"componentType":5126,"count":593,"type":"VEC2"},{"bufferView":3,"componentType":5126,"count":593,"type":"VEC2"},{"bufferView":4,"componentType":5123,"count":1203,"type":"SCALAR"}],"bufferViews":[{"buffer":0,"byteOffset":0,"byteLength":7116},{"buffer":0,"byteOffset":7116,"byteLength":7116},{"buffer":0,"byteOffset":14232,"byteLength":4744},{"buffer":0,"byteOffset":18976,"byteLength":4744},{"buffer":0,"byteOffset":23720,"byteLength":2406}],"buffers":[{"byteLength":26126,"uri":"data:application/octet-stream;base64,"}]}
