{"asset":{"generator":"Khronos glTF Blender I/O v1.2.75","version":"2.0"},"scene":0,"scenes":[{"name":"Scene","nodes":[0]}],"nodes":[{"mesh":0,"name":"Mesh"}],"meshes":[{"name":"0_0_-1_MI_PropsSetEm01","primitives":[{"indices":4,"attributes":{"POSITION":0,"NORMAL":1,"TEXCOORD_0":2,"TEXCOORD_1":3},"mode":4}]}],"accessors":[{"bufferView":0,"componentType":5126,"count":11749,"type":"VEC3","min":[-25.052304536774756,-21.57294718879014,-7.744761437369753],"max":[-15.18760794739584,-9.764068219136911,7.313372191935778]},{"bufferView":1,"componentType":5126,"count":11749,"type":"VEC3"},{"bufferView":2,"componentType":5126,"count":11749,"type":"VEC2"},{"bufferView":3,"componentType":5126,"count":11749,"type":"VEC2"},{"bufferView":4,"componentType":5123,"count":37608,"type":"SCALAR"}],"bufferViews":[{"buffer":0,"byteOffset":0,"byteLength":140988},{"buffer":0,"byteOffset":140988,"byteLength":140988},{"buffer":0,"byteOffset":281976,"byteLength":93992},{"buffer":0,"byteOffset":375968,"byteLength":93992},{"buffer":0,"byteOffset":469960,"byteLength":75216}],"buffers":[{"byteLength":545176,"uri":"data:application/octet-stream;base64,"}]}
