{"asset":{"generator":"Khronos glTF Blender I/O v1.2.75","version":"2.0"},"scene":0,"scenes":[{"name":"Scene","nodes":[0]}],"nodes":[{"mesh":0,"name":"Mesh"}],"meshes":[{"name":"0_0_-1_MI_PavementTile01","primitives":[{"indices":4,"attributes":{"POSITION":0,"NORMAL":1,"TEXCOORD_0":2,"TEXCOORD_1":3},"mode":4}]}],"accessors":[{"bufferView":0,"componentType":5126,"count":68,"type":"VEC3","min":[-29.199986280009078,-25.1,-8.199955615990932],"max":[20.800022637908768,-24.698641842603685,22.930042610395873]},{"bufferView":1,"componentType":5126,"count":68,"type":"VEC3"},{"bufferView":2,"componentType":5126,"count":68,"type":"VEC2"},{"bufferView":3,"componentType":5126,"count":68,"type":"VEC2"},{"bufferView":4,"componentType":5123,"count":102,"type":"SCALAR"}],"bufferViews":[{"buffer":0,"byteOffset":0,"byteLength":816},{"buffer":0,"byteOffset":816,"byteLength":816},{"buffer":0,"byteOffset":1632,"byteLength":544},{"buffer":0,"byteOffset":2176,"byteLength":544},{"buffer":0,"byteOffset":2720,"byteLength":204}],"buffers":[{"byteLength":2924,"uri":"data:application/octet-stream;base64,"}]}
