{"asset":{"generator":"Khronos glTF Blender I/O v1.2.75","version":"2.0"},"scene":0,"scenes":[{"name":"Scene","nodes":[0]}],"nodes":[{"mesh":0,"name":"Mesh"}],"meshes":[{"name":"0_0_0_MI_PlatformRailing_01","primitives":[{"indices":4,"attributes":{"POSITION":0,"NORMAL":1,"TEXCOORD_0":2,"TEXCOORD_1":3},"mode":4}]}],"accessors":[{"bufferView":0,"componentType":5126,"count":2896,"type":"VEC3","min":[-24.526649888261005,-12.850012675744074,-24.11378534684934],"max":[-20.001016643034607,-11.573331809043884,-21.306575040527388]},{"bufferView":1,"componentType":5126,"count":2896,"type":"VEC3"},{"bufferView":2,"componentType":5126,"count":2896,"type":"VEC2"},{"bufferView":3,"componentType":5126,"count":2896,"type":"VEC2"},{"bufferView":4,"componentType":5123,"count":9312,"type":"SCALAR"}],"bufferViews":[{"buffer":0,"byteOffset":0,"byteLength":34752},{"buffer":0,"byteOffset":34752,"byteLength":34752},{"buffer":0,"byteOffset":69504,"byteLength":23168},{"buffer":0,"byteOffset":92672,"byteLength":23168},{"buffer":0,"byteOffset":115840,"byteLength":18624}],"buffers":[{"byteLength":134464,"uri":"data:application/octet-stream;base64,"}]}
