{"asset":{"generator":"Khronos glTF Blender I/O v1.2.75","version":"2.0"},"scene":0,"scenes":[{"name":"Scene","nodes":[0]}],"nodes":[{"mesh":0,"name":"Mesh"}],"meshes":[{"name":"0_0_-1_M_LampSet_01_no_ins","primitives":[{"indices":4,"attributes":{"POSITION":0,"NORMAL":1,"TEXCOORD_0":2,"TEXCOORD_1":3},"mode":4}]}],"accessors":[{"bufferView":0,"componentType":5126,"count":10560,"type":"VEC3","min":[-21.06389000427723,-14.786468281758223,6.790643099571464],"max":[-16.7781098993266,-10.500233281051788,22.69735618538202]},{"bufferView":1,"componentType":5126,"count":10560,"type":"VEC3"},{"bufferView":2,"componentType":5126,"count":10560,"type":"VEC2"},{"bufferView":3,"componentType":5126,"count":10560,"type":"VEC2"},{"bufferView":4,"componentType":5123,"count":34650,"type":"SCALAR"}],"bufferViews":[{"buffer":0,"byteOffset":0,"byteLength":126720},{"buffer":0,"byteOffset":126720,"byteLength":126720},{"buffer":0,"byteOffset":253440,"byteLength":84480},{"buffer":0,"byteOffset":337920,"byteLength":84480},{"buffer":0,"byteOffset":422400,"byteLength":69300}],"buffers":[{"byteLength":491700,"uri":"data:application/octet-stream;base64,"}]}
