{"asset":{"generator":"Khronos glTF Blender I/O v1.2.75","version":"2.0"},"scene":0,"scenes":[{"name":"Scene","nodes":[0]}],"nodes":[{"mesh":0,"name":"Mesh"}],"meshes":[{"name":"0_0_-1_MI_PaperBoxes_01","primitives":[{"indices":4,"attributes":{"POSITION":0,"NORMAL":1,"TEXCOORD_0":2,"TEXCOORD_1":3},"mode":4}]}],"accessors":[{"bufferView":0,"componentType":5126,"count":302,"type":"VEC3","min":[-24.57150878613791,-24.817518557161094,-1.0027902667026947],"max":[-18.29178463130555,-22.541367082595826,3.1585456544565904]},{"bufferView":1,"componentType":5126,"count":302,"type":"VEC3"},{"bufferView":2,"componentType":5126,"count":302,"type":"VEC2"},{"bufferView":3,"componentType":5126,"count":302,"type":"VEC2"},{"bufferView":4,"componentType":5123,"count":948,"type":"SCALAR"}],"bufferViews":[{"buffer":0,"byteOffset":0,"byteLength":3624},{"buffer":0,"byteOffset":3624,"byteLength":3624},{"buffer":0,"byteOffset":7248,"byteLength":2416},{"buffer":0,"byteOffset":9664,"byteLength":2416},{"buffer":0,"byteOffset":12080,"byteLength":1896}],"buffers":[{"byteLength":13976,"uri":"data:application/octet-stream;base64,"}]}
