{"asset":{"generator":"Khronos glTF Blender I/O v1.2.75","version":"2.0"},"scene":0,"scenes":[{"name":"Scene","nodes":[0]}],"nodes":[{"mesh":0,"name":"Mesh"}],"meshes":[{"name":"0_0_0_MI_Pipes_square_01","primitives":[{"indices":4,"attributes":{"POSITION":0,"NORMAL":1,"TEXCOORD_0":2,"TEXCOORD_1":3},"mode":4}]}],"accessors":[{"bufferView":0,"componentType":5126,"count":7236,"type":"VEC3","min":[-27.8811754128593,-31.80387343332344,-23.936224833390607],"max":[-18.549631198409053,-5.109459211373164,-23.303845153394757]},{"bufferView":1,"componentType":5126,"count":7236,"type":"VEC3"},{"bufferView":2,"componentType":5126,"count":7236,"type":"VEC2"},{"bufferView":3,"componentType":5126,"count":7236,"type":"VEC2"},{"bufferView":4,"componentType":5123,"count":15624,"type":"SCALAR"}],"bufferViews":[{"buffer":0,"byteOffset":0,"byteLength":86832},{"buffer":0,"byteOffset":86832,"byteLength":86832},{"buffer":0,"byteOffset":173664,"byteLength":57888},{"buffer":0,"byteOffset":231552,"byteLength":57888},{"buffer":0,"byteOffset":289440,"byteLength":31248}],"buffers":[{"byteLength":320688,"uri":"data:application/octet-stream;base64,"}]}
