{"asset":{"generator":"Khronos glTF Blender I/O v1.2.75","version":"2.0"},"scene":0,"scenes":[{"name":"Scene","nodes":[0]}],"nodes":[{"mesh":0,"name":"Mesh"}],"meshes":[{"name":"0_0_-1_M_TrimSheetMaster_cull_front","primitives":[{"indices":4,"attributes":{"POSITION":0,"NORMAL":1,"TEXCOORD_0":2,"TEXCOORD_1":3},"mode":4}]}],"accessors":[{"bufferView":0,"componentType":5126,"count":2056,"type":"VEC3","min":[-23.71298986177324,-21.459857573762292,4.441553230009438],"max":[-17.61157536589706,-12.917014891551622,13.8004193567537]},{"bufferView":1,"componentType":5126,"count":2056,"type":"VEC3"},{"bufferView":2,"componentType":5126,"count":2056,"type":"VEC2"},{"bufferView":3,"componentType":5126,"count":2056,"type":"VEC2"},{"bufferView":4,"componentType":5123,"count":4788,"type":"SCALAR"}],"bufferViews":[{"buffer":0,"byteOffset":0,"byteLength":24672},{"buffer":0,"byteOffset":24672,"byteLength":24672},{"buffer":0,"byteOffset":49344,"byteLength":16448},{"buffer":0,"byteOffset":65792,"byteLength":16448},{"buffer":0,"byteOffset":82240,"byteLength":9576}],"buffers":[{"byteLength":91816,"uri":"data:application/octet-stream;base64,"}]}
