{"asset":{"generator":"Khronos glTF Blender I/O v1.2.75","version":"2.0"},"scene":0,"scenes":[{"name":"Scene","nodes":[0]}],"nodes":[{"mesh":0,"name":"Mesh"}],"meshes":[{"name":"0_0_-1_MI_CornerBuilding01","primitives":[{"indices":4,"attributes":{"POSITION":0,"NORMAL":1,"TEXCOORD_0":2,"TEXCOORD_1":3},"mode":4}]}],"accessors":[{"bufferView":0,"componentType":5126,"count":4986,"type":"VEC3","min":[-26.842734048094616,-25.00000839233399,-22.729575910529523],"max":[-8.80396894224365,-2.4057303749010224,22.583635076418986]},{"bufferView":1,"componentType":5126,"count":4986,"type":"VEC3"},{"bufferView":2,"componentType":5126,"count":4986,"type":"VEC2"},{"bufferView":3,"componentType":5126,"count":4986,"type":"VEC2"},{"bufferView":4,"componentType":5123,"count":10272,"type":"SCALAR"}],"bufferViews":[{"buffer":0,"byteOffset":0,"byteLength":59832},{"buffer":0,"byteOffset":59832,"byteLength":59832},{"buffer":0,"byteOffset":119664,"byteLength":39888},{"buffer":0,"byteOffset":159552,"byteLength":39888},{"buffer":0,"byteOffset":199440,"byteLength":20544}],"buffers":[{"byteLength":219984,"uri":"data:application/octet-stream;base64,"}]}
