{"asset":{"generator":"Khronos glTF Blender I/O v1.2.75","version":"2.0"},"scene":0,"scenes":[{"name":"Scene","nodes":[0]}],"nodes":[{"mesh":0,"name":"Mesh"}],"meshes":[{"name":"0_0_-1_MI_Building06","primitives":[{"indices":4,"attributes":{"POSITION":0,"NORMAL":1,"TEXCOORD_0":2,"TEXCOORD_1":3},"mode":4}]}],"accessors":[{"bufferView":0,"componentType":5126,"count":610,"type":"VEC3","min":[-15.250002435735851,-21.300000862415878,-5.543480903603525],"max":[-9.316856171425641,-8.968520371561837,-5.040458795445154]},{"bufferView":1,"componentType":5126,"count":610,"type":"VEC3"},{"bufferView":2,"componentType":5126,"count":610,"type":"VEC2"},{"bufferView":3,"componentType":5126,"count":610,"type":"VEC2"},{"bufferView":4,"componentType":5123,"count":1170,"type":"SCALAR"}],"bufferViews":[{"buffer":0,"byteOffset":0,"byteLength":7320},{"buffer":0,"byteOffset":7320,"byteLength":7320},{"buffer":0,"byteOffset":14640,"byteLength":4880},{"buffer":0,"byteOffset":19520,"byteLength":4880},{"buffer":0,"byteOffset":24400,"byteLength":2340}],"buffers":[{"byteLength":26740,"uri":"data:application/octet-stream;base64,"}]}
