{"asset":{"generator":"Khronos glTF Blender I/O v1.2.75","version":"2.0"},"scene":0,"scenes":[{"name":"Scene","nodes":[0]}],"nodes":[{"mesh":0,"name":"Mesh"}],"meshes":[{"name":"0_0_0_MI_TrashBox01","primitives":[{"indices":4,"attributes":{"POSITION":0,"NORMAL":1,"TEXCOORD_0":2,"TEXCOORD_1":3},"mode":4}]}],"accessors":[{"bufferView":0,"componentType":5126,"count":4989,"type":"VEC3","min":[-11.74153388456498,-24.780000329241922,-23.785328763825838],"max":[-10.146843478745346,-22.40985960698128,-20.449140022173225]},{"bufferView":1,"componentType":5126,"count":4989,"type":"VEC3"},{"bufferView":2,"componentType":5126,"count":4989,"type":"VEC2"},{"bufferView":3,"componentType":5126,"count":4989,"type":"VEC2"},{"bufferView":4,"componentType":5123,"count":19344,"type":"SCALAR"}],"bufferViews":[{"buffer":0,"byteOffset":0,"byteLength":59868},{"buffer":0,"byteOffset":59868,"byteLength":59868},{"buffer":0,"byteOffset":119736,"byteLength":39912},{"buffer":0,"byteOffset":159648,"byteLength":39912},{"buffer":0,"byteOffset":199560,"byteLength":38688}],"buffers":[{"byteLength":238248,"uri":"data:application/octet-stream;base64,"}]}
