{"asset":{"generator":"Khronos glTF Blender I/O v1.2.75","version":"2.0"},"scene":0,"scenes":[{"name":"Scene","nodes":[0]}],"nodes":[{"mesh":0,"name":"Mesh"}],"meshes":[{"name":"0_0_-1_MI_Signboards02","primitives":[{"indices":4,"attributes":{"POSITION":0,"NORMAL":1,"TEXCOORD_0":2,"TEXCOORD_1":3},"mode":4}]}],"accessors":[{"bufferView":0,"componentType":5126,"count":4171,"type":"VEC3","min":[-12.71067822065303,-24.656043516908493,16.086219966013473],"max":[-9.280748060699246,-3.6871504908590396,22.045900624804197]},{"bufferView":1,"componentType":5126,"count":4171,"type":"VEC3"},{"bufferView":2,"componentType":5126,"count":4171,"type":"VEC2"},{"bufferView":3,"componentType":5126,"count":4171,"type":"VEC2"},{"bufferView":4,"componentType":5123,"count":10512,"type":"SCALAR"}],"bufferViews":[{"buffer":0,"byteOffset":0,"byteLength":50052},{"buffer":0,"byteOffset":50052,"byteLength":50052},{"buffer":0,"byteOffset":100104,"byteLength":33368},{"buffer":0,"byteOffset":133472,"byteLength":33368},{"buffer":0,"byteOffset":166840,"byteLength":21024}],"buffers":[{"byteLength":187864,"uri":"data:application/octet-stream;base64,"}]}
