{"asset":{"generator":"Khronos glTF Blender I/O v1.2.75","version":"2.0"},"scene":0,"scenes":[{"name":"Scene","nodes":[0]}],"nodes":[{"mesh":0,"name":"Mesh"}],"meshes":[{"name":"0_0_-1_MI_Building05","primitives":[{"indices":4,"attributes":{"POSITION":0,"NORMAL":1,"TEXCOORD_0":2,"TEXCOORD_1":3},"mode":4}]}],"accessors":[{"bufferView":0,"componentType":5126,"count":13362,"type":"VEC3","min":[-10.17046719730164,-25.041023925658664,-25.16432498987973],"max":[7.710126666250652,0.8340373563766477,30.396999266188214]},{"bufferView":1,"componentType":5126,"count":13362,"type":"VEC3"},{"bufferView":2,"componentType":5126,"count":13362,"type":"VEC2"},{"bufferView":3,"componentType":5126,"count":13362,"type":"VEC2"},{"bufferView":4,"componentType":5123,"count":27624,"type":"SCALAR"}],"bufferViews":[{"buffer":0,"byteOffset":0,"byteLength":160344},{"buffer":0,"byteOffset":160344,"byteLength":160344},{"buffer":0,"byteOffset":320688,"byteLength":106896},{"buffer":0,"byteOffset":427584,"byteLength":106896},{"buffer":0,"byteOffset":534480,"byteLength":55248}],"buffers":[{"byteLength":589728,"uri":"data:application/octet-stream;base64,"}]}
