{"asset":{"generator":"Khronos glTF Blender I/O v1.2.75","version":"2.0"},"scene":0,"scenes":[{"name":"Scene","nodes":[0]}],"nodes":[{"mesh":0,"name":"Mesh"}],"meshes":[{"name":"0_0_0_MI_Building05","primitives":[{"indices":4,"attributes":{"POSITION":0,"NORMAL":1,"TEXCOORD_0":2,"TEXCOORD_1":3},"mode":4}]}],"accessors":[{"bufferView":0,"componentType":5126,"count":13838,"type":"VEC3","min":[-23.855683789121155,-25.041023925658664,-28.950370450157365],"max":[36.3875326305826,22.340000000000003,-4.699021541493984]},{"bufferView":1,"componentType":5126,"count":13838,"type":"VEC3"},{"bufferView":2,"componentType":5126,"count":13838,"type":"VEC2"},{"bufferView":3,"componentType":5126,"count":13838,"type":"VEC2"},{"bufferView":4,"componentType":5123,"count":28836,"type":"SCALAR"}],"bufferViews":[{"buffer":0,"byteOffset":0,"byteLength":166056},{"buffer":0,"byteOffset":166056,"byteLength":166056},{"buffer":0,"byteOffset":332112,"byteLength":110704},{"buffer":0,"byteOffset":442816,"byteLength":110704},{"buffer":0,"byteOffset":553520,"byteLength":57672}],"buffers":[{"byteLength":611192,"uri":"data:application/octet-stream;base64,"}]}
