{"asset":{"generator":"Khronos glTF Blender I/O v1.2.75","version":"2.0"},"scene":0,"scenes":[{"name":"Scene","nodes":[0]}],"nodes":[{"mesh":0,"name":"Mesh"}],"meshes":[{"name":"0_0_0_MI_FloorMat","primitives":[{"indices":4,"attributes":{"POSITION":0,"NORMAL":1,"TEXCOORD_0":2,"TEXCOORD_1":3},"mode":4}]}],"accessors":[{"bufferView":0,"componentType":5126,"count":1408,"type":"VEC3","min":[-24.6576713514328,-24.78081672668457,-24.825566024780272],"max":[-15.083638644218446,-14.179284828528761,-18.73778996706009]},{"bufferView":1,"componentType":5126,"count":1408,"type":"VEC3"},{"bufferView":2,"componentType":5126,"count":1408,"type":"VEC2"},{"bufferView":3,"componentType":5126,"count":1408,"type":"VEC2"},{"bufferView":4,"componentType":5123,"count":7260,"type":"SCALAR"}],"bufferViews":[{"buffer":0,"byteOffset":0,"byteLength":16896},{"buffer":0,"byteOffset":16896,"byteLength":16896},{"buffer":0,"byteOffset":33792,"byteLength":11264},{"buffer":0,"byteOffset":45056,"byteLength":11264},{"buffer":0,"byteOffset":56320,"byteLength":14520}],"buffers":[{"byteLength":70840,"uri":"data:application/octet-stream;base64,"}]}
