{"asset":{"generator":"Khronos glTF Blender I/O v1.2.75","version":"2.0"},"scene":0,"scenes":[{"name":"Scene","nodes":[0]}],"nodes":[{"mesh":0,"name":"Mesh"}],"meshes":[{"name":"0_0_-1_MI_FrontConcrete02_cull_front","primitives":[{"indices":4,"attributes":{"POSITION":0,"NORMAL":1,"TEXCOORD_0":2,"TEXCOORD_1":3},"mode":4}]}],"accessors":[{"bufferView":0,"componentType":5126,"count":245,"type":"VEC3","min":[-20.913530546742194,-18.58881570274879,6.719997325136561],"max":[-16.479989495835596,-13.589002511501313,22.44935358139456]},{"bufferView":1,"componentType":5126,"count":245,"type":"VEC3"},{"bufferView":2,"componentType":5126,"count":245,"type":"VEC2"},{"bufferView":3,"componentType":5126,"count":245,"type":"VEC2"},{"bufferView":4,"componentType":5123,"count":420,"type":"SCALAR"}],"bufferViews":[{"buffer":0,"byteOffset":0,"byteLength":2940},{"buffer":0,"byteOffset":2940,"byteLength":2940},{"buffer":0,"byteOffset":5880,"byteLength":1960},{"buffer":0,"byteOffset":7840,"byteLength":1960},{"buffer":0,"byteOffset":9800,"byteLength":840}],"buffers":[{"byteLength":10640,"uri":"data:application/octet-stream;base64,"}]}
