{"asset":{"generator":"Khronos glTF Blender I/O v1.2.75","version":"2.0"},"scene":0,"scenes":[{"name":"Scene","nodes":[0]}],"nodes":[{"mesh":0,"name":"Mesh"}],"meshes":[{"name":"0_0_-2_MI_BackgroundBuildings","primitives":[{"indices":4,"attributes":{"POSITION":0,"NORMAL":1,"TEXCOORD_0":2,"TEXCOORD_1":3},"mode":4}]}],"accessors":[{"bufferView":0,"componentType":5126,"count":1904,"type":"VEC3","min":[-10.366460780669627,-39.00000061035155,-15.36564826965332],"max":[22.830123107910154,41.730235107421876,28.01213691059686]},{"bufferView":1,"componentType":5126,"count":1904,"type":"VEC3"},{"bufferView":2,"componentType":5126,"count":1904,"type":"VEC2"},{"bufferView":3,"componentType":5126,"count":1904,"type":"VEC2"},{"bufferView":4,"componentType":5123,"count":6564,"type":"SCALAR"}],"bufferViews":[{"buffer":0,"byteOffset":0,"byteLength":22848},{"buffer":0,"byteOffset":22848,"byteLength":22848},{"buffer":0,"byteOffset":45696,"byteLength":15232},{"buffer":0,"byteOffset":60928,"byteLength":15232},{"buffer":0,"byteOffset":76160,"byteLength":13128}],"buffers":[{"byteLength":89288,"uri":"data:application/octet-stream;base64,"}]}
