{"asset":{"generator":"Khronos glTF Blender I/O v1.2.75","version":"2.0"},"scene":0,"scenes":[{"name":"Scene","nodes":[0]}],"nodes":[{"mesh":0,"name":"Mesh"}],"meshes":[{"name":"0_0_-1_M_Building08","primitives":[{"indices":4,"attributes":{"POSITION":0,"NORMAL":1,"TEXCOORD_0":2,"TEXCOORD_1":3},"mode":4}]}],"accessors":[{"bufferView":0,"componentType":5126,"count":14298,"type":"VEC3","min":[-9.01247507094105,-25.34761787414551,-12.33785156249683],"max":[16.73027056337986,-5.347616577148425,9.662153658996452]},{"bufferView":1,"componentType":5126,"count":14298,"type":"VEC3"},{"bufferView":2,"componentType":5126,"count":14298,"type":"VEC2"},{"bufferView":3,"componentType":5126,"count":14298,"type":"VEC2"},{"bufferView":4,"componentType":5123,"count":49878,"type":"SCALAR"}],"bufferViews":[{"buffer":0,"byteOffset":0,"byteLength":171576},{"buffer":0,"byteOffset":171576,"byteLength":171576},{"buffer":0,"byteOffset":343152,"byteLength":114384},{"buffer":0,"byteOffset":457536,"byteLength":114384},{"buffer":0,"byteOffset":571920,"byteLength":99756}],"buffers":[{"byteLength":671676,"uri":"data:application/octet-stream;base64,"}]}
