{"asset":{"generator":"Khronos glTF Blender I/O v1.2.75","version":"2.0"},"scene":0,"scenes":[{"name":"Scene","nodes":[0]}],"nodes":[{"mesh":0,"name":"Mesh"}],"meshes":[{"name":"0_0_-1_M_SignboardsAnim03","primitives":[{"indices":4,"attributes":{"POSITION":0,"NORMAL":1,"TEXCOORD_0":2,"TEXCOORD_1":3},"mode":4}]}],"accessors":[{"bufferView":0,"componentType":5126,"count":2520,"type":"VEC3","min":[-9.976457220033453,1.8883895412891754,3.3125954201253647],"max":[-9.795489066604006,3.6420013847089656,14.181483100064337]},{"bufferView":1,"componentType":5126,"count":2520,"type":"VEC3"},{"bufferView":2,"componentType":5126,"count":2520,"type":"VEC2"},{"bufferView":3,"componentType":5126,"count":2520,"type":"VEC2"},{"bufferView":4,"componentType":5123,"count":6924,"type":"SCALAR"}],"bufferViews":[{"buffer":0,"byteOffset":0,"byteLength":30240},{"buffer":0,"byteOffset":30240,"byteLength":30240},{"buffer":0,"byteOffset":60480,"byteLength":20160},{"buffer":0,"byteOffset":80640,"byteLength":20160},{"buffer":0,"byteOffset":100800,"byteLength":13848}],"buffers":[{"byteLength":114648,"uri":"data:application/octet-stream;base64,"}]}
