{"asset":{"generator":"Khronos glTF Blender I/O v1.2.75","version":"2.0"},"scene":0,"scenes":[{"name":"Scene","nodes":[0]}],"nodes":[{"mesh":0,"name":"Mesh"}],"meshes":[{"name":"0_0_-1_MI_WallTile01","primitives":[{"indices":4,"attributes":{"POSITION":0,"NORMAL":1,"TEXCOORD_0":2,"TEXCOORD_1":3},"mode":4}]}],"accessors":[{"bufferView":0,"componentType":5126,"count":104,"type":"VEC3","min":[-9.673895818014671,-20.5,-24.983046283687294],"max":[-9.565297898863456,-16.99571332055166,-11.479572149437995]},{"bufferView":1,"componentType":5126,"count":104,"type":"VEC3"},{"bufferView":2,"componentType":5126,"count":104,"type":"VEC2"},{"bufferView":3,"componentType":5126,"count":104,"type":"VEC2"},{"bufferView":4,"componentType":5123,"count":192,"type":"SCALAR"}],"bufferViews":[{"buffer":0,"byteOffset":0,"byteLength":1248},{"buffer":0,"byteOffset":1248,"byteLength":1248},{"buffer":0,"byteOffset":2496,"byteLength":832},{"buffer":0,"byteOffset":3328,"byteLength":832},{"buffer":0,"byteOffset":4160,"byteLength":384}],"buffers":[{"byteLength":4544,"uri":"data:application/octet-stream;base64,"}]}
