{"asset":{"generator":"Khronos glTF Blender I/O v1.2.75","version":"2.0"},"scene":0,"scenes":[{"name":"Scene","nodes":[0]}],"nodes":[{"mesh":0,"name":"Mesh"}],"meshes":[{"name":"0_0_0_MI_Pipes_square_01_cull_front","primitives":[{"indices":4,"attributes":{"POSITION":0,"NORMAL":1,"TEXCOORD_0":2,"TEXCOORD_1":3},"mode":4}]}],"accessors":[{"bufferView":0,"componentType":5126,"count":1308,"type":"VEC3","min":[-23.050000116527155,-15.060000147819519,-25.370000156090626],"max":[-22.809994595953334,-14.059999849796295,-18.269999761815264]},{"bufferView":1,"componentType":5126,"count":1308,"type":"VEC3"},{"bufferView":2,"componentType":5126,"count":1308,"type":"VEC2"},{"bufferView":3,"componentType":5126,"count":1308,"type":"VEC2"},{"bufferView":4,"componentType":5123,"count":3012,"type":"SCALAR"}],"bufferViews":[{"buffer":0,"byteOffset":0,"byteLength":15696},{"buffer":0,"byteOffset":15696,"byteLength":15696},{"buffer":0,"byteOffset":31392,"byteLength":10464},{"buffer":0,"byteOffset":41856,"byteLength":10464},{"buffer":0,"byteOffset":52320,"byteLength":6024}],"buffers":[{"byteLength":58344,"uri":"data:application/octet-stream;base64,"}]}
