{"asset":{"generator":"Khronos glTF Blender I/O v1.2.75","version":"2.0"},"scene":0,"scenes":[{"name":"Scene","nodes":[0]}],"nodes":[{"mesh":0,"name":"Mesh"}],"meshes":[{"name":"0_0_0_MI_WGS_03","primitives":[{"indices":4,"attributes":{"POSITION":0,"NORMAL":1,"TEXCOORD_0":2,"TEXCOORD_1":3},"mode":4}]}],"accessors":[{"bufferView":0,"componentType":5126,"count":308,"type":"VEC3","min":[-0.727263221146579,-19.46,-20.099000234168642],"max":[-0.2662249243933772,-18.420452795028687,-19.277734190543057]},{"bufferView":1,"componentType":5126,"count":308,"type":"VEC3"},{"bufferView":2,"componentType":5126,"count":308,"type":"VEC2"},{"bufferView":3,"componentType":5126,"count":308,"type":"VEC2"},{"bufferView":4,"componentType":5123,"count":546,"type":"SCALAR"}],"bufferViews":[{"buffer":0,"byteOffset":0,"byteLength":3696},{"buffer":0,"byteOffset":3696,"byteLength":3696},{"buffer":0,"byteOffset":7392,"byteLength":2464},{"buffer":0,"byteOffset":9856,"byteLength":2464},{"buffer":0,"byteOffset":12320,"byteLength":1092}],"buffers":[{"byteLength":13412,"uri":"data:application/octet-stream;base64,"}]}
