{"asset":{"generator":"Khronos glTF Blender I/O v1.2.75","version":"2.0"},"scene":0,"scenes":[{"name":"Scene","nodes":[0]}],"nodes":[{"mesh":0,"name":"Mesh"}],"meshes":[{"name":"0_0_-2_MI_Building05","primitives":[{"indices":4,"attributes":{"POSITION":0,"NORMAL":1,"TEXCOORD_0":2,"TEXCOORD_1":3},"mode":4}]}],"accessors":[{"bufferView":0,"componentType":5126,"count":10964,"type":"VEC3","min":[-29.230370274644763,-10.923288226037169,-21.327532433335918],"max":[-8.84162048979524,27.840000000000003,24.92042575600772]},{"bufferView":1,"componentType":5126,"count":10964,"type":"VEC3"},{"bufferView":2,"componentType":5126,"count":10964,"type":"VEC2"},{"bufferView":3,"componentType":5126,"count":10964,"type":"VEC2"},{"bufferView":4,"componentType":5123,"count":22992,"type":"SCALAR"}],"bufferViews":[{"buffer":0,"byteOffset":0,"byteLength":131568},{"buffer":0,"byteOffset":131568,"byteLength":131568},{"buffer":0,"byteOffset":263136,"byteLength":87712},{"buffer":0,"byteOffset":350848,"byteLength":87712},{"buffer":0,"byteOffset":438560,"byteLength":45984}],"buffers":[{"byteLength":484544,"uri":"data:application/octet-stream;base64,"}]}
