{"asset":{"generator":"Khronos glTF Blender I/O v1.2.75","version":"2.0"},"scene":0,"scenes":[{"name":"Scene","nodes":[0]}],"nodes":[{"mesh":0,"name":"Mesh"}],"meshes":[{"name":"0_0_0_Material__0","primitives":[{"indices":4,"attributes":{"POSITION":0,"NORMAL":1,"TEXCOORD_0":2,"TEXCOORD_1":3},"mode":4}]}],"accessors":[{"bufferView":0,"componentType":5126,"count":180,"type":"VEC3","min":[-11.900006703889282,-24.780799865722656,-25.800000000002775],"max":[0.2947135701161514,-14.391907930374146,-17.83915138940109]},{"bufferView":1,"componentType":5126,"count":180,"type":"VEC3"},{"bufferView":2,"componentType":5126,"count":180,"type":"VEC2"},{"bufferView":3,"componentType":5126,"count":180,"type":"VEC2"},{"bufferView":4,"componentType":5123,"count":330,"type":"SCALAR"}],"bufferViews":[{"buffer":0,"byteOffset":0,"byteLength":2160},{"buffer":0,"byteOffset":2160,"byteLength":2160},{"buffer":0,"byteOffset":4320,"byteLength":1440},{"buffer":0,"byteOffset":5760,"byteLength":1440},{"buffer":0,"byteOffset":7200,"byteLength":660}],"buffers":[{"byteLength":7860,"uri":"data:application/octet-stream;base64,"}]}
