{"asset":{"generator":"Khronos glTF Blender I/O v1.2.75","version":"2.0"},"scene":0,"scenes":[{"name":"Scene","nodes":[0]}],"nodes":[{"mesh":0,"name":"Mesh"}],"meshes":[{"name":"0_0_-1_Material__0","primitives":[{"indices":4,"attributes":{"POSITION":0,"NORMAL":1,"TEXCOORD_0":2,"TEXCOORD_1":3},"mode":4}]}],"accessors":[{"bufferView":0,"componentType":5126,"count":278,"type":"VEC3","min":[-25.08385620355606,-24.8,-5.585010298523436],"max":[-9.705286429883849,-14.391907930374146,22.16084861059891]},{"bufferView":1,"componentType":5126,"count":278,"type":"VEC3"},{"bufferView":2,"componentType":5126,"count":278,"type":"VEC2"},{"bufferView":3,"componentType":5126,"count":278,"type":"VEC2"},{"bufferView":4,"componentType":5123,"count":522,"type":"SCALAR"}],"bufferViews":[{"buffer":0,"byteOffset":0,"byteLength":3336},{"buffer":0,"byteOffset":3336,"byteLength":3336},{"buffer":0,"byteOffset":6672,"byteLength":2224},{"buffer":0,"byteOffset":8896,"byteLength":2224},{"buffer":0,"byteOffset":11120,"byteLength":1044}],"buffers":[{"byteLength":12164,"uri":"data:application/octet-stream;base64,"}]}
