{"asset":{"generator":"Khronos glTF Blender I/O v1.2.75","version":"2.0"},"scene":0,"scenes":[{"name":"Scene","nodes":[0]}],"nodes":[{"mesh":0,"name":"Mesh"}],"meshes":[{"name":"0_0_-1_MI_EnvirAssets_01","primitives":[{"indices":4,"attributes":{"POSITION":0,"NORMAL":1,"TEXCOORD_0":2,"TEXCOORD_1":3},"mode":4}]}],"accessors":[{"bufferView":0,"componentType":5126,"count":1794,"type":"VEC3","min":[-16.899999962438898,-24.800004577636727,-0.2597167126664106],"max":[-11.606758900035516,-16.346213150024415,22.74074953798209]},{"bufferView":1,"componentType":5126,"count":1794,"type":"VEC3"},{"bufferView":2,"componentType":5126,"count":1794,"type":"VEC2"},{"bufferView":3,"componentType":5126,"count":1794,"type":"VEC2"},{"bufferView":4,"componentType":5123,"count":5274,"type":"SCALAR"}],"bufferViews":[{"buffer":0,"byteOffset":0,"byteLength":21528},{"buffer":0,"byteOffset":21528,"byteLength":21528},{"buffer":0,"byteOffset":43056,"byteLength":14352},{"buffer":0,"byteOffset":57408,"byteLength":14352},{"buffer":0,"byteOffset":71760,"byteLength":10548}],"buffers":[{"byteLength":82308,"uri":"data:application/octet-stream;base64,"}]}
