{"asset":{"generator":"Khronos glTF Blender I/O v1.2.75","version":"2.0"},"scene":0,"scenes":[{"name":"Scene","nodes":[0]}],"nodes":[{"mesh":0,"name":"Mesh"}],"meshes":[{"name":"0_0_-2_MI_CornerBuilding01","primitives":[{"indices":4,"attributes":{"POSITION":0,"NORMAL":1,"TEXCOORD_0":2,"TEXCOORD_1":3},"mode":4}]}],"accessors":[{"bufferView":0,"componentType":5126,"count":530,"type":"VEC3","min":[-15,-15,-15],"max":[15,15,15]},{"bufferView":1,"componentType":5126,"count":530,"type":"VEC3"},{"bufferView":2,"componentType":5126,"count":530,"type":"VEC2"},{"bufferView":3,"componentType":5126,"count":530,"type":"VEC2"},{"bufferView":4,"componentType":5123,"count":1062,"type":"SCALAR"}],"bufferViews":[{"buffer":0,"byteOffset":0,"byteLength":6360},{"buffer":0,"byteOffset":6360,"byteLength":6360},{"buffer":0,"byteOffset":12720,"byteLength":4240},{"buffer":0,"byteOffset":16960,"byteLength":4240},{"buffer":0,"byteOffset":21200,"byteLength":2124}],"buffers":[{"byteLength":23324,"uri":"data:application/octet-stream;base64,"}]}
