{"asset":{"generator":"Khronos glTF Blender I/O v1.2.75","version":"2.0"},"scene":0,"scenes":[{"name":"Scene","nodes":[0]}],"nodes":[{"mesh":0,"name":"Mesh"}],"meshes":[{"name":"0_0_0_M_TrimSheetMaster","primitives":[{"indices":4,"attributes":{"POSITION":0,"NORMAL":1,"TEXCOORD_0":2,"TEXCOORD_1":3},"mode":4}]}],"accessors":[{"bufferView":0,"componentType":5126,"count":9870,"type":"VEC3","min":[-27.5421039541239,-22.560078748145695,-27.698337320915556],"max":[-0.553043862904488,38.87036209106445,-13.908658540528492]},{"bufferView":1,"componentType":5126,"count":9870,"type":"VEC3"},{"bufferView":2,"componentType":5126,"count":9870,"type":"VEC2"},{"bufferView":3,"componentType":5126,"count":9870,"type":"VEC2"},{"bufferView":4,"componentType":5123,"count":31794,"type":"SCALAR"}],"bufferViews":[{"buffer":0,"byteOffset":0,"byteLength":118440},{"buffer":0,"byteOffset":118440,"byteLength":118440},{"buffer":0,"byteOffset":236880,"byteLength":78960},{"buffer":0,"byteOffset":315840,"byteLength":78960},{"buffer":0,"byteOffset":394800,"byteLength":63588}],"buffers":[{"byteLength":458388,"uri":"data:application/octet-stream;base64,"}]}
