{"asset":{"generator":"Khronos glTF Blender I/O v1.2.75","version":"2.0"},"scene":0,"scenes":[{"name":"Scene","nodes":[0]}],"nodes":[{"mesh":0,"name":"Mesh"}],"meshes":[{"name":"0_0_0_MI_Platform_01","primitives":[{"indices":4,"attributes":{"POSITION":0,"NORMAL":1,"TEXCOORD_0":2,"TEXCOORD_1":3},"mode":4}]}],"accessors":[{"bufferView":0,"componentType":5126,"count":3336,"type":"VEC3","min":[-24.914719756558686,20.175030295550826,-23.27227079893373],"max":[-16.244591334462164,21.33071393966675,-21.744707927703857]},{"bufferView":1,"componentType":5126,"count":3336,"type":"VEC3"},{"bufferView":2,"componentType":5126,"count":3336,"type":"VEC2"},{"bufferView":3,"componentType":5126,"count":3336,"type":"VEC2"},{"bufferView":4,"componentType":5123,"count":6654,"type":"SCALAR"}],"bufferViews":[{"buffer":0,"byteOffset":0,"byteLength":40032},{"buffer":0,"byteOffset":40032,"byteLength":40032},{"buffer":0,"byteOffset":80064,"byteLength":26688},{"buffer":0,"byteOffset":106752,"byteLength":26688},{"buffer":0,"byteOffset":133440,"byteLength":13308}],"buffers":[{"byteLength":146748,"uri":"data:application/octet-stream;base64,"}]}
