{"asset":{"generator":"Khronos glTF Blender I/O v1.2.75","version":"2.0"},"scene":0,"scenes":[{"name":"Scene","nodes":[0]}],"nodes":[{"mesh":0,"name":"Mesh"}],"meshes":[{"name":"0_0_-1_MI_GroundDetails","primitives":[{"indices":4,"attributes":{"POSITION":0,"NORMAL":1,"TEXCOORD_0":2,"TEXCOORD_1":3},"mode":4}]}],"accessors":[{"bufferView":0,"componentType":5126,"count":572,"type":"VEC3","min":[-29.199986280009078,-25.1,-8.199955615990932],"max":[20.800022637908768,-23.65144916758907,3.7230830664634706]},{"bufferView":1,"componentType":5126,"count":572,"type":"VEC3"},{"bufferView":2,"componentType":5126,"count":572,"type":"VEC2"},{"bufferView":3,"componentType":5126,"count":572,"type":"VEC2"},{"bufferView":4,"componentType":5123,"count":1062,"type":"SCALAR"}],"bufferViews":[{"buffer":0,"byteOffset":0,"byteLength":6864},{"buffer":0,"byteOffset":6864,"byteLength":6864},{"buffer":0,"byteOffset":13728,"byteLength":4576},{"buffer":0,"byteOffset":18304,"byteLength":4576},{"buffer":0,"byteOffset":22880,"byteLength":2124}],"buffers":[{"byteLength":25004,"uri":"data:application/octet-stream;base64,"}]}
