{"asset":{"generator":"Khronos glTF Blender I/O v1.2.75","version":"2.0"},"scene":0,"scenes":[{"name":"Scene","nodes":[0]}],"nodes":[{"mesh":0,"name":"Mesh"}],"meshes":[{"name":"0_0_-1_MI_Building10","primitives":[{"indices":4,"attributes":{"POSITION":0,"NORMAL":1,"TEXCOORD_0":2,"TEXCOORD_1":3},"mode":4}]}],"accessors":[{"bufferView":0,"componentType":5126,"count":1096,"type":"VEC3","min":[-22.448315877404408,-19.830791004238904,-8.119614755109772],"max":[-15.095880850645216,-8.916810287013142,-7.549545584048859]},{"bufferView":1,"componentType":5126,"count":1096,"type":"VEC3"},{"bufferView":2,"componentType":5126,"count":1096,"type":"VEC2"},{"bufferView":3,"componentType":5126,"count":1096,"type":"VEC2"},{"bufferView":4,"componentType":5123,"count":1848,"type":"SCALAR"}],"bufferViews":[{"buffer":0,"byteOffset":0,"byteLength":13152},{"buffer":0,"byteOffset":13152,"byteLength":13152},{"buffer":0,"byteOffset":26304,"byteLength":8768},{"buffer":0,"byteOffset":35072,"byteLength":8768},{"buffer":0,"byteOffset":43840,"byteLength":3696}],"buffers":[{"byteLength":47536,"uri":"data:application/octet-stream;base64,"}]}
