{"asset":{"generator":"Khronos glTF Blender I/O v1.2.75","version":"2.0"},"scene":0,"scenes":[{"name":"Scene","nodes":[0]}],"nodes":[{"mesh":0,"name":"Mesh"}],"meshes":[{"name":"0_0_0_M_Signboards01","primitives":[{"indices":4,"attributes":{"POSITION":0,"NORMAL":1,"TEXCOORD_0":2,"TEXCOORD_1":3},"mode":4}]}],"accessors":[{"bufferView":0,"componentType":5126,"count":3867,"type":"VEC3","min":[-15,-15,-15],"max":[15,15,15]},{"bufferView":1,"componentType":5126,"count":3867,"type":"VEC3"},{"bufferView":2,"componentType":5126,"count":3867,"type":"VEC2"},{"bufferView":3,"componentType":5126,"count":3867,"type":"VEC2"},{"bufferView":4,"componentType":5123,"count":15702,"type":"SCALAR"}],"bufferViews":[{"buffer":0,"byteOffset":0,"byteLength":46404},{"buffer":0,"byteOffset":46404,"byteLength":46404},{"buffer":0,"byteOffset":92808,"byteLength":30936},{"buffer":0,"byteOffset":123744,"byteLength":30936},{"buffer":0,"byteOffset":154680,"byteLength":31404}],"buffers":[{"byteLength":186084,"uri":"data:application/octet-stream;base64,"}]}
