{"asset":{"generator":"Khronos glTF Blender I/O v1.2.75","version":"2.0"},"scene":0,"scenes":[{"name":"Scene","nodes":[0]}],"nodes":[{"mesh":0,"name":"Mesh"}],"meshes":[{"name":"0_0_0_MI_MetalBeam01","primitives":[{"indices":4,"attributes":{"POSITION":0,"NORMAL":1,"TEXCOORD_0":2,"TEXCOORD_1":3},"mode":4}]}],"accessors":[{"bufferView":0,"componentType":5126,"count":850,"type":"VEC3","min":[-23.64161675335682,19.979999999999997,-23.058714684916584],"max":[-17.768383212278067,22.749775940789213,-22.941283597173108]},{"bufferView":1,"componentType":5126,"count":850,"type":"VEC3"},{"bufferView":2,"componentType":5126,"count":850,"type":"VEC2"},{"bufferView":3,"componentType":5126,"count":850,"type":"VEC2"},{"bufferView":4,"componentType":5123,"count":1740,"type":"SCALAR"}],"bufferViews":[{"buffer":0,"byteOffset":0,"byteLength":10200},{"buffer":0,"byteOffset":10200,"byteLength":10200},{"buffer":0,"byteOffset":20400,"byteLength":6800},{"buffer":0,"byteOffset":27200,"byteLength":6800},{"buffer":0,"byteOffset":34000,"byteLength":3480}],"buffers":[{"byteLength":37480,"uri":"data:application/octet-stream;base64,"}]}
