{"asset":{"generator":"Khronos glTF Blender I/O v1.2.75","version":"2.0"},"scene":0,"scenes":[{"name":"Scene","nodes":[0]}],"nodes":[{"mesh":0,"name":"Mesh"}],"meshes":[{"name":"0_0_-1_MI_MetalBeam01","primitives":[{"indices":4,"attributes":{"POSITION":0,"NORMAL":1,"TEXCOORD_0":2,"TEXCOORD_1":3},"mode":4}]}],"accessors":[{"bufferView":0,"componentType":5126,"count":8736,"type":"VEC3","min":[-24.570656776428223,-24.8,4.329515643585998],"max":[-16.619881174357033,-10.527216190265655,26.968432295228073]},{"bufferView":1,"componentType":5126,"count":8736,"type":"VEC3"},{"bufferView":2,"componentType":5126,"count":8736,"type":"VEC2"},{"bufferView":3,"componentType":5126,"count":8736,"type":"VEC2"},{"bufferView":4,"componentType":5123,"count":19308,"type":"SCALAR"}],"bufferViews":[{"buffer":0,"byteOffset":0,"byteLength":104832},{"buffer":0,"byteOffset":104832,"byteLength":104832},{"buffer":0,"byteOffset":209664,"byteLength":69888},{"buffer":0,"byteOffset":279552,"byteLength":69888},{"buffer":0,"byteOffset":349440,"byteLength":38616}],"buffers":[{"byteLength":388056,"uri":"data:application/octet-stream;base64,"}]}
