{"asset":{"generator":"Khronos glTF Blender I/O v1.2.75","version":"2.0"},"scene":0,"scenes":[{"name":"Scene","nodes":[0]}],"nodes":[{"mesh":0,"name":"Mesh"}],"meshes":[{"name":"0_0_-1_MI_TrashBox01","primitives":[{"indices":4,"attributes":{"POSITION":0,"NORMAL":1,"TEXCOORD_0":2,"TEXCOORD_1":3},"mode":4}]}],"accessors":[{"bufferView":0,"componentType":5126,"count":19956,"type":"VEC3","min":[-24.316343351470962,-24.780000157607432,19.884247101273832],"max":[-22.71931544643725,-23.645418672561647,23.747614070983044]},{"bufferView":1,"componentType":5126,"count":19956,"type":"VEC3"},{"bufferView":2,"componentType":5126,"count":19956,"type":"VEC2"},{"bufferView":3,"componentType":5126,"count":19956,"type":"VEC2"},{"bufferView":4,"componentType":5123,"count":77376,"type":"SCALAR"}],"bufferViews":[{"buffer":0,"byteOffset":0,"byteLength":239472},{"buffer":0,"byteOffset":239472,"byteLength":239472},{"buffer":0,"byteOffset":478944,"byteLength":159648},{"buffer":0,"byteOffset":638592,"byteLength":159648},{"buffer":0,"byteOffset":798240,"byteLength":154752}],"buffers":[{"byteLength":952992,"uri":"data:application/octet-stream;base64,"}]}
