{"asset":{"generator":"Khronos glTF Blender I/O v1.2.75","version":"2.0"},"scene":0,"scenes":[{"name":"Scene","nodes":[0]}],"nodes":[{"mesh":0,"name":"Mesh"}],"meshes":[{"name":"0_0_0_MI_MetalWallPart_Painted_01_cull_front","primitives":[{"indices":4,"attributes":{"POSITION":0,"NORMAL":1,"TEXCOORD_0":2,"TEXCOORD_1":3},"mode":4}]}],"accessors":[{"bufferView":0,"componentType":5126,"count":1440,"type":"VEC3","min":[-26.879999773418668,-16.523977857232094,-24.426625714397783],"max":[-18.879995610792882,-12.847510087070946,-20.99644693583011]},{"bufferView":1,"componentType":5126,"count":1440,"type":"VEC3"},{"bufferView":2,"componentType":5126,"count":1440,"type":"VEC2"},{"bufferView":3,"componentType":5126,"count":1440,"type":"VEC2"},{"bufferView":4,"componentType":5123,"count":2280,"type":"SCALAR"}],"bufferViews":[{"buffer":0,"byteOffset":0,"byteLength":17280},{"buffer":0,"byteOffset":17280,"byteLength":17280},{"buffer":0,"byteOffset":34560,"byteLength":11520},{"buffer":0,"byteOffset":46080,"byteLength":11520},{"buffer":0,"byteOffset":57600,"byteLength":4560}],"buffers":[{"byteLength":62160,"uri":"data:application/octet-stream;base64,"}]}
