{"asset":{"generator":"Khronos glTF Blender I/O v1.2.75","version":"2.0"},"scene":0,"scenes":[{"name":"Scene","nodes":[0]}],"nodes":[{"mesh":0,"name":"Mesh"}],"meshes":[{"name":"0_0_-1_MI_WGS_03","primitives":[{"indices":4,"attributes":{"POSITION":0,"NORMAL":1,"TEXCOORD_0":2,"TEXCOORD_1":3},"mode":4}]}],"accessors":[{"bufferView":0,"componentType":5126,"count":13321,"type":"VEC3","min":[-20.30804461058692,-25.326291053871387,6.957256229514918],"max":[-10.266224924393377,-18.420452795028687,20.722265809456943]},{"bufferView":1,"componentType":5126,"count":13321,"type":"VEC3"},{"bufferView":2,"componentType":5126,"count":13321,"type":"VEC2"},{"bufferView":3,"componentType":5126,"count":13321,"type":"VEC2"},{"bufferView":4,"componentType":5123,"count":41034,"type":"SCALAR"}],"bufferViews":[{"buffer":0,"byteOffset":0,"byteLength":159852},{"buffer":0,"byteOffset":159852,"byteLength":159852},{"buffer":0,"byteOffset":319704,"byteLength":106568},{"buffer":0,"byteOffset":426272,"byteLength":106568},{"buffer":0,"byteOffset":532840,"byteLength":82068}],"buffers":[{"byteLength":614908,"uri":"data:application/octet-stream;base64,"}]}
