{"asset":{"generator":"Khronos glTF Blender I/O v1.2.75","version":"2.0"},"scene":0,"scenes":[{"name":"Scene","nodes":[0]}],"nodes":[{"mesh":0,"name":"Mesh"}],"meshes":[{"name":"0_0_-2_MI_FrontConcrete02","primitives":[{"indices":4,"attributes":{"POSITION":0,"NORMAL":1,"TEXCOORD_0":2,"TEXCOORD_1":3},"mode":4}]}],"accessors":[{"bufferView":0,"componentType":5126,"count":158,"type":"VEC3","min":[-20,-20,-20],"max":[20,20,20]},{"bufferView":1,"componentType":5126,"count":158,"type":"VEC3"},{"bufferView":2,"componentType":5126,"count":158,"type":"VEC2"},{"bufferView":3,"componentType":5126,"count":158,"type":"VEC2"},{"bufferView":4,"componentType":5123,"count":348,"type":"SCALAR"}],"bufferViews":[{"buffer":0,"byteOffset":0,"byteLength":1896},{"buffer":0,"byteOffset":1896,"byteLength":1896},{"buffer":0,"byteOffset":3792,"byteLength":1264},{"buffer":0,"byteOffset":5056,"byteLength":1264},{"buffer":0,"byteOffset":6320,"byteLength":696}],"buffers":[{"byteLength":7016,"uri":"data:application/octet-stream;base64,"}]}
