{"asset":{"generator":"Khronos glTF Blender I/O v1.2.75","version":"2.0"},"scene":0,"scenes":[{"name":"Scene","nodes":[0]}],"nodes":[{"mesh":0,"name":"Mesh"}],"meshes":[{"name":"0_0_-1_MI_Platform_01","primitives":[{"indices":4,"attributes":{"POSITION":0,"NORMAL":1,"TEXCOORD_0":2,"TEXCOORD_1":3},"mode":4}]}],"accessors":[{"bufferView":0,"componentType":5126,"count":13854,"type":"VEC3","min":[-25.5991260939276,-16.824969704449177,3.3194982188352316],"max":[6.3667003840743845,1.9238349580764762,14.302270560860634]},{"bufferView":1,"componentType":5126,"count":13854,"type":"VEC3"},{"bufferView":2,"componentType":5126,"count":13854,"type":"VEC2"},{"bufferView":3,"componentType":5126,"count":13854,"type":"VEC2"},{"bufferView":4,"componentType":5123,"count":28152,"type":"SCALAR"}],"bufferViews":[{"buffer":0,"byteOffset":0,"byteLength":166248},{"buffer":0,"byteOffset":166248,"byteLength":166248},{"buffer":0,"byteOffset":332496,"byteLength":110832},{"buffer":0,"byteOffset":443328,"byteLength":110832},{"buffer":0,"byteOffset":554160,"byteLength":56304}],"buffers":[{"byteLength":610464,"uri":"data:application/octet-stream;base64,"}]}
