{"asset":{"generator":"Khronos glTF Blender I/O v1.2.75","version":"2.0"},"scene":0,"scenes":[{"name":"Scene","nodes":[0]}],"nodes":[{"mesh":0,"name":"Mesh"}],"meshes":[{"name":"0_0_0_M_Signboards01","primitives":[{"indices":4,"attributes":{"POSITION":0,"NORMAL":1,"TEXCOORD_0":2,"TEXCOORD_1":3},"mode":4}]}],"accessors":[{"bufferView":0,"componentType":5126,"count":7313,"type":"VEC3","min":[-23.756170311014962,-19.021645364676097,-17.25219726837648],"max":[-20.404538639235597,-7.871491267561911,-9.799994545060681]},{"bufferView":1,"componentType":5126,"count":7313,"type":"VEC3"},{"bufferView":2,"componentType":5126,"count":7313,"type":"VEC2"},{"bufferView":3,"componentType":5126,"count":7313,"type":"VEC2"},{"bufferView":4,"componentType":5123,"count":23562,"type":"SCALAR"}],"bufferViews":[{"buffer":0,"byteOffset":0,"byteLength":87756},{"buffer":0,"byteOffset":87756,"byteLength":87756},{"buffer":0,"byteOffset":175512,"byteLength":58504},{"buffer":0,"byteOffset":234016,"byteLength":58504},{"buffer":0,"byteOffset":292520,"byteLength":47124}],"buffers":[{"byteLength":339644,"uri":"data:application/octet-stream;base64,"}]}
