{"asset":{"generator":"Khronos glTF Blender I/O v1.2.75","version":"2.0"},"scene":0,"scenes":[{"name":"Scene","nodes":[0]}],"nodes":[{"mesh":0,"name":"Mesh"}],"meshes":[{"name":"0_0_-1_MI_Roof01_BC","primitives":[{"indices":4,"attributes":{"POSITION":0,"NORMAL":1,"TEXCOORD_0":2,"TEXCOORD_1":3},"mode":4}]}],"accessors":[{"bufferView":0,"componentType":5126,"count":472,"type":"VEC3","min":[-32.065682830810545,-24.8,-21.32833182005546],"max":[7.695475305483399,0.8010424900054929,30.2503788827283]},{"bufferView":1,"componentType":5126,"count":472,"type":"VEC3"},{"bufferView":2,"componentType":5126,"count":472,"type":"VEC2"},{"bufferView":3,"componentType":5126,"count":472,"type":"VEC2"},{"bufferView":4,"componentType":5123,"count":708,"type":"SCALAR"}],"bufferViews":[{"buffer":0,"byteOffset":0,"byteLength":5664},{"buffer":0,"byteOffset":5664,"byteLength":5664},{"buffer":0,"byteOffset":11328,"byteLength":3776},{"buffer":0,"byteOffset":15104,"byteLength":3776},{"buffer":0,"byteOffset":18880,"byteLength":1416}],"buffers":[{"byteLength":20296,"uri":"data:application/octet-stream;base64,"}]}
