{"asset":{"generator":"Khronos glTF Blender I/O v1.2.75","version":"2.0"},"scene":0,"scenes":[{"name":"Scene","nodes":[0]}],"nodes":[{"mesh":0,"name":"Mesh"}],"meshes":[{"name":"0_0_0_MI_PavementTile02","primitives":[{"indices":4,"attributes":{"POSITION":0,"NORMAL":1,"TEXCOORD_0":2,"TEXCOORD_1":3},"mode":4}]}],"accessors":[{"bufferView":0,"componentType":5126,"count":8,"type":"VEC3","min":[-6.500063028563112,-24.78,-27.0700532632218],"max":[3.499990234374998,-24.78,-22.070000000283695]},{"bufferView":1,"componentType":5126,"count":8,"type":"VEC3"},{"bufferView":2,"componentType":5126,"count":8,"type":"VEC2"},{"bufferView":3,"componentType":5126,"count":8,"type":"VEC2"},{"bufferView":4,"componentType":5123,"count":12,"type":"SCALAR"}],"bufferViews":[{"buffer":0,"byteOffset":0,"byteLength":96},{"buffer":0,"byteOffset":96,"byteLength":96},{"buffer":0,"byteOffset":192,"byteLength":64},{"buffer":0,"byteOffset":256,"byteLength":64},{"buffer":0,"byteOffset":320,"byteLength":24}],"buffers":[{"byteLength":344,"uri":"data:application/octet-stream;base64,"}]}
