{"asset":{"generator":"Khronos glTF Blender I/O v1.2.75","version":"2.0"},"scene":0,"scenes":[{"name":"Scene","nodes":[0]}],"nodes":[{"mesh":0,"name":"Mesh"}],"meshes":[{"name":"0_1_-3_MI_Building05","primitives":[{"indices":4,"attributes":{"POSITION":0,"NORMAL":1,"TEXCOORD_0":2,"TEXCOORD_1":3},"mode":4}]}],"accessors":[{"bufferView":0,"componentType":5126,"count":5024,"type":"VEC3","min":[-15,-15,-15],"max":[15,15,15]},{"bufferView":1,"componentType":5126,"count":5024,"type":"VEC3"},{"bufferView":2,"componentType":5126,"count":5024,"type":"VEC2"},{"bufferView":3,"componentType":5126,"count":5024,"type":"VEC2"},{"bufferView":4,"componentType":5123,"count":10170,"type":"SCALAR"}],"bufferViews":[{"buffer":0,"byteOffset":0,"byteLength":60288},{"buffer":0,"byteOffset":60288,"byteLength":60288},{"buffer":0,"byteOffset":120576,"byteLength":40192},{"buffer":0,"byteOffset":160768,"byteLength":40192},{"buffer":0,"byteOffset":200960,"byteLength":20340}],"buffers":[{"byteLength":221300,"uri":"data:application/octet-stream;base64,"}]}
