{"asset":{"generator":"Khronos glTF Blender I/O v1.2.75","version":"2.0"},"scene":0,"scenes":[{"name":"Scene","nodes":[0]}],"nodes":[{"mesh":0,"name":"Mesh"}],"meshes":[{"name":"0_1_0_MI_Pipes_square_01","primitives":[{"indices":4,"attributes":{"POSITION":0,"NORMAL":1,"TEXCOORD_0":2,"TEXCOORD_1":3},"mode":4}]}],"accessors":[{"bufferView":0,"componentType":5126,"count":368,"type":"VEC3","min":[-20,-20,-20],"max":[20,20,20]},{"bufferView":1,"componentType":5126,"count":368,"type":"VEC3"},{"bufferView":2,"componentType":5126,"count":368,"type":"VEC2"},{"bufferView":3,"componentType":5126,"count":368,"type":"VEC2"},{"bufferView":4,"componentType":5123,"count":732,"type":"SCALAR"}],"bufferViews":[{"buffer":0,"byteOffset":0,"byteLength":4416},{"buffer":0,"byteOffset":4416,"byteLength":4416},{"buffer":0,"byteOffset":8832,"byteLength":2944},{"buffer":0,"byteOffset":11776,"byteLength":2944},{"buffer":0,"byteOffset":14720,"byteLength":1464}],"buffers":[{"byteLength":16184,"uri":"data:application/octet-stream;base64,"}]}
