{"asset":{"generator":"Khronos glTF Blender I/O v1.2.75","version":"2.0"},"scene":0,"scenes":[{"name":"Scene","nodes":[0]}],"nodes":[{"mesh":0,"name":"Mesh"}],"meshes":[{"name":"0_1_0_MI_AirConditioning_01","primitives":[{"indices":4,"attributes":{"POSITION":0,"NORMAL":1,"TEXCOORD_0":2,"TEXCOORD_1":3},"mode":4}]}],"accessors":[{"bufferView":0,"componentType":5126,"count":8550,"type":"VEC3","min":[-20,-20,-20],"max":[20,20,20]},{"bufferView":1,"componentType":5126,"count":8550,"type":"VEC3"},{"bufferView":2,"componentType":5126,"count":8550,"type":"VEC2"},{"bufferView":3,"componentType":5126,"count":8550,"type":"VEC2"},{"bufferView":4,"componentType":5123,"count":25392,"type":"SCALAR"}],"bufferViews":[{"buffer":0,"byteOffset":0,"byteLength":102600},{"buffer":0,"byteOffset":102600,"byteLength":102600},{"buffer":0,"byteOffset":205200,"byteLength":68400},{"buffer":0,"byteOffset":273600,"byteLength":68400},{"buffer":0,"byteOffset":342000,"byteLength":50784}],"buffers":[{"byteLength":392784,"uri":"data:application/octet-stream;base64,"}]}
