{"asset":{"generator":"Khronos glTF Blender I/O v1.2.75","version":"2.0"},"scene":0,"scenes":[{"name":"Scene","nodes":[0]}],"nodes":[{"mesh":0,"name":"Mesh"}],"meshes":[{"name":"0_1_-2_MI_Building05","primitives":[{"indices":4,"attributes":{"POSITION":0,"NORMAL":1,"TEXCOORD_0":2,"TEXCOORD_1":3},"mode":4}]}],"accessors":[{"bufferView":0,"componentType":5126,"count":1680,"type":"VEC3","min":[-29.510316758240457,-22.30000002362081,-21.269166501064348],"max":[-8.709906825451974,-15.7826226234436,5.269081423350038]},{"bufferView":1,"componentType":5126,"count":1680,"type":"VEC3"},{"bufferView":2,"componentType":5126,"count":1680,"type":"VEC2"},{"bufferView":3,"componentType":5126,"count":1680,"type":"VEC2"},{"bufferView":4,"componentType":5123,"count":3144,"type":"SCALAR"}],"bufferViews":[{"buffer":0,"byteOffset":0,"byteLength":20160},{"buffer":0,"byteOffset":20160,"byteLength":20160},{"buffer":0,"byteOffset":40320,"byteLength":13440},{"buffer":0,"byteOffset":53760,"byteLength":13440},{"buffer":0,"byteOffset":67200,"byteLength":6288}],"buffers":[{"byteLength":73488,"uri":"data:application/octet-stream;base64,"}]}
