{"asset":{"generator":"Khronos glTF Blender I/O v1.2.75","version":"2.0"},"scene":0,"scenes":[{"name":"Scene","nodes":[0]}],"nodes":[{"mesh":0,"name":"Mesh"}],"meshes":[{"name":"0_1_0_MI_Roof01_BC","primitives":[{"indices":4,"attributes":{"POSITION":0,"NORMAL":1,"TEXCOORD_0":2,"TEXCOORD_1":3},"mode":4}]}],"accessors":[{"bufferView":0,"componentType":5126,"count":496,"type":"VEC3","min":[-14.528374552297805,-27.80000002362081,-29.230273290126355],"max":[36.32913695040624,-14.353440044912517,25.716252819818635]},{"bufferView":1,"componentType":5126,"count":496,"type":"VEC3"},{"bufferView":2,"componentType":5126,"count":496,"type":"VEC2"},{"bufferView":3,"componentType":5126,"count":496,"type":"VEC2"},{"bufferView":4,"componentType":5123,"count":744,"type":"SCALAR"}],"bufferViews":[{"buffer":0,"byteOffset":0,"byteLength":5952},{"buffer":0,"byteOffset":5952,"byteLength":5952},{"buffer":0,"byteOffset":11904,"byteLength":3968},{"buffer":0,"byteOffset":15872,"byteLength":3968},{"buffer":0,"byteOffset":19840,"byteLength":1488}],"buffers":[{"byteLength":21328,"uri":"data:application/octet-stream;base64,"}]}
