{"asset":{"generator":"Khronos glTF Blender I/O v1.2.75","version":"2.0"},"scene":0,"scenes":[{"name":"Scene","nodes":[0]}],"nodes":[{"mesh":0,"name":"Mesh"}],"meshes":[{"name":"1_0_0_MI_AirConditioning_01","primitives":[{"indices":4,"attributes":{"POSITION":0,"NORMAL":1,"TEXCOORD_0":2,"TEXCOORD_1":3},"mode":4}]}],"accessors":[{"bufferView":0,"componentType":5126,"count":4275,"type":"VEC3","min":[-15,-15,-15],"max":[15,15,15]},{"bufferView":1,"componentType":5126,"count":4275,"type":"VEC3"},{"bufferView":2,"componentType":5126,"count":4275,"type":"VEC2"},{"bufferView":3,"componentType":5126,"count":4275,"type":"VEC2"},{"bufferView":4,"componentType":5123,"count":12696,"type":"SCALAR"}],"bufferViews":[{"buffer":0,"byteOffset":0,"byteLength":51300},{"buffer":0,"byteOffset":51300,"byteLength":51300},{"buffer":0,"byteOffset":102600,"byteLength":34200},{"buffer":0,"byteOffset":136800,"byteLength":34200},{"buffer":0,"byteOffset":171000,"byteLength":25392}],"buffers":[{"byteLength":196392,"uri":"data:application/octet-stream;base64,"}]}
