{"asset":{"generator":"Khronos glTF Blender I/O v1.2.75","version":"2.0"},"scene":0,"scenes":[{"name":"Scene","nodes":[0]}],"nodes":[{"mesh":0,"name":"Mesh"}],"meshes":[{"name":"1_0_-2_MI_Roof01_BC","primitives":[{"indices":4,"attributes":{"POSITION":0,"NORMAL":1,"TEXCOORD_0":2,"TEXCOORD_1":3},"mode":4}]}],"accessors":[{"bufferView":0,"componentType":5126,"count":240,"type":"VEC3","min":[-30.42489240393553,15.668061068609461,-3.0476394169416494],"max":[-12.139947558210167,16.699205462899982,28.51943597047575]},{"bufferView":1,"componentType":5126,"count":240,"type":"VEC3"},{"bufferView":2,"componentType":5126,"count":240,"type":"VEC2"},{"bufferView":3,"componentType":5126,"count":240,"type":"VEC2"},{"bufferView":4,"componentType":5123,"count":360,"type":"SCALAR"}],"bufferViews":[{"buffer":0,"byteOffset":0,"byteLength":2880},{"buffer":0,"byteOffset":2880,"byteLength":2880},{"buffer":0,"byteOffset":5760,"byteLength":1920},{"buffer":0,"byteOffset":7680,"byteLength":1920},{"buffer":0,"byteOffset":9600,"byteLength":720}],"buffers":[{"byteLength":10320,"uri":"data:application/octet-stream;base64,"}]}
