{"asset":{"generator":"Khronos glTF Blender I/O v1.2.75","version":"2.0"},"scene":0,"scenes":[{"name":"Scene","nodes":[0]}],"nodes":[{"mesh":0,"name":"Mesh"}],"meshes":[{"name":"1_0_-1_MI_Platform_01","primitives":[{"indices":4,"attributes":{"POSITION":0,"NORMAL":1,"TEXCOORD_0":2,"TEXCOORD_1":3},"mode":4}]}],"accessors":[{"bufferView":0,"componentType":5126,"count":908,"type":"VEC3","min":[-20,-20,-20],"max":[20,20,20]},{"bufferView":1,"componentType":5126,"count":908,"type":"VEC3"},{"bufferView":2,"componentType":5126,"count":908,"type":"VEC2"},{"bufferView":3,"componentType":5126,"count":908,"type":"VEC2"},{"bufferView":4,"componentType":5123,"count":1908,"type":"SCALAR"}],"bufferViews":[{"buffer":0,"byteOffset":0,"byteLength":10896},{"buffer":0,"byteOffset":10896,"byteLength":10896},{"buffer":0,"byteOffset":21792,"byteLength":7264},{"buffer":0,"byteOffset":29056,"byteLength":7264},{"buffer":0,"byteOffset":36320,"byteLength":3816}],"buffers":[{"byteLength":40136,"uri":"data:application/octet-stream;base64,"}]}
