{"asset":{"generator":"Khronos glTF Blender I/O v1.2.75","version":"2.0"},"scene":0,"scenes":[{"name":"Scene","nodes":[0]}],"nodes":[{"mesh":0,"name":"Mesh"}],"meshes":[{"name":"1_0_0_MI_Building05","primitives":[{"indices":4,"attributes":{"POSITION":0,"NORMAL":1,"TEXCOORD_0":2,"TEXCOORD_1":3},"mode":4}]}],"accessors":[{"bufferView":0,"componentType":5126,"count":6952,"type":"VEC3","min":[-30.050249698939695,-1.8000000005960466,-19.166898150445245],"max":[-3.613318047222293,23.570634555816653,1.4375580700671406]},{"bufferView":1,"componentType":5126,"count":6952,"type":"VEC3"},{"bufferView":2,"componentType":5126,"count":6952,"type":"VEC2"},{"bufferView":3,"componentType":5126,"count":6952,"type":"VEC2"},{"bufferView":4,"componentType":5123,"count":14526,"type":"SCALAR"}],"bufferViews":[{"buffer":0,"byteOffset":0,"byteLength":83424},{"buffer":0,"byteOffset":83424,"byteLength":83424},{"buffer":0,"byteOffset":166848,"byteLength":55616},{"buffer":0,"byteOffset":222464,"byteLength":55616},{"buffer":0,"byteOffset":278080,"byteLength":29052}],"buffers":[{"byteLength":307132,"uri":"data:application/octet-stream;base64,"}]}
