{"asset":{"generator":"Khronos glTF Blender I/O v1.2.75","version":"2.0"},"scene":0,"scenes":[{"name":"Scene","nodes":[0]}],"nodes":[{"mesh":0,"name":"Mesh"}],"meshes":[{"name":"1_0_-2_MI_BackgroundBuildings","primitives":[{"indices":4,"attributes":{"POSITION":0,"NORMAL":1,"TEXCOORD_0":2,"TEXCOORD_1":3},"mode":4}]}],"accessors":[{"bufferView":0,"componentType":5126,"count":952,"type":"VEC3","min":[-31.27148178100586,-25.000000524893395,-4.535097201833679],"max":[-11.243218688964845,18.27638505026698,31.546922658804505]},{"bufferView":1,"componentType":5126,"count":952,"type":"VEC3"},{"bufferView":2,"componentType":5126,"count":952,"type":"VEC2"},{"bufferView":3,"componentType":5126,"count":952,"type":"VEC2"},{"bufferView":4,"componentType":5123,"count":3282,"type":"SCALAR"}],"bufferViews":[{"buffer":0,"byteOffset":0,"byteLength":11424},{"buffer":0,"byteOffset":11424,"byteLength":11424},{"buffer":0,"byteOffset":22848,"byteLength":7616},{"buffer":0,"byteOffset":30464,"byteLength":7616},{"buffer":0,"byteOffset":38080,"byteLength":6564}],"buffers":[{"byteLength":44644,"uri":"data:application/octet-stream;base64,"}]}
