{"asset":{"generator":"Khronos glTF Blender I/O v1.2.75","version":"2.0"},"scene":0,"scenes":[{"name":"Scene","nodes":[0]}],"nodes":[{"mesh":0,"name":"Mesh"}],"meshes":[{"name":"1_1_0_MI_MetalWallPart_01","primitives":[{"indices":4,"attributes":{"POSITION":0,"NORMAL":1,"TEXCOORD_0":2,"TEXCOORD_1":3},"mode":4}]}],"accessors":[{"bufferView":0,"componentType":5126,"count":6336,"type":"VEC3","min":[-30.20907669915873,-27.80000002362081,-19.230273290126355],"max":[-3.6708630495937626,-21.2826226234436,1.5700929126724645]},{"bufferView":1,"componentType":5126,"count":6336,"type":"VEC3"},{"bufferView":2,"componentType":5126,"count":6336,"type":"VEC2"},{"bufferView":3,"componentType":5126,"count":6336,"type":"VEC2"},{"bufferView":4,"componentType":5123,"count":10032,"type":"SCALAR"}],"bufferViews":[{"buffer":0,"byteOffset":0,"byteLength":76032},{"buffer":0,"byteOffset":76032,"byteLength":76032},{"buffer":0,"byteOffset":152064,"byteLength":50688},{"buffer":0,"byteOffset":202752,"byteLength":50688},{"buffer":0,"byteOffset":253440,"byteLength":20064}],"buffers":[{"byteLength":273504,"uri":"data:application/octet-stream;base64,"}]}
