{"asset":{"generator":"Khronos glTF Blender I/O v1.2.75","version":"2.0"},"scene":0,"scenes":[{"name":"Scene","nodes":[0]}],"nodes":[{"mesh":0,"name":"Mesh"}],"meshes":[{"name":"6_1_-1_MI_CarsEmissive","primitives":[{"indices":4,"attributes":{"POSITION":0,"NORMAL":1,"TEXCOORD_0":2,"TEXCOORD_1":3},"mode":4}]}],"accessors":[{"bufferView":0,"componentType":5126,"count":10458,"type":"VEC3","min":[-20,-20,-20],"max":[20,20,20]},{"bufferView":1,"componentType":5126,"count":10458,"type":"VEC3"},{"bufferView":2,"componentType":5126,"count":10458,"type":"VEC2"},{"bufferView":3,"componentType":5126,"count":10458,"type":"VEC2"},{"bufferView":4,"componentType":5123,"count":30954,"type":"SCALAR"}],"bufferViews":[{"buffer":0,"byteOffset":0,"byteLength":125496},{"buffer":0,"byteOffset":125496,"byteLength":125496},{"buffer":0,"byteOffset":250992,"byteLength":83664},{"buffer":0,"byteOffset":334656,"byteLength":83664},{"buffer":0,"byteOffset":418320,"byteLength":61908}],"buffers":[{"byteLength":480228,"uri":"data:application/octet-stream;base64,"}]}
