{"asset":{"generator":"Khronos glTF Blender I/O v1.2.75","version":"2.0"},"scene":0,"scenes":[{"name":"Scene","nodes":[0]}],"nodes":[{"mesh":0,"name":"Mesh"}],"meshes":[{"name":"SM_Lamp02","primitives":[{"indices":4,"attributes":{"POSITION":0,"NORMAL":1,"TEXCOORD_0":2,"TEXCOORD_1":3},"mode":4}]}],"accessors":[{"bufferView":0,"componentType":5126,"count":427,"type":"VEC3","min":[-2.894110107421875,-0.117093505859375,-0.206781005859375],"max":[0,-6.103515625e-7,-0.000001220703125]},{"bufferView":1,"componentType":5126,"count":427,"type":"VEC3"},{"bufferView":2,"componentType":5126,"count":427,"type":"VEC2"},{"bufferView":3,"componentType":5126,"count":427,"type":"VEC2"},{"bufferView":4,"componentType":5123,"count":1368,"type":"SCALAR"}],"bufferViews":[{"buffer":0,"byteOffset":0,"byteLength":5124},{"buffer":0,"byteOffset":5124,"byteLength":5124},{"buffer":0,"byteOffset":10248,"byteLength":3416},{"buffer":0,"byteOffset":13664,"byteLength":3416},{"buffer":0,"byteOffset":17080,"byteLength":2736}],"buffers":[{"byteLength":19816,"uri":"data:application/octet-stream;base64,"}]}
