{"asset":{"generator":"Khronos glTF Blender I/O v1.2.75","version":"2.0"},"scene":0,"scenes":[{"name":"Scene","nodes":[0]}],"nodes":[{"mesh":0,"name":"Mesh"}],"meshes":[{"name":"SM_PipeMerged04","primitives":[{"indices":4,"attributes":{"POSITION":0,"NORMAL":1,"TEXCOORD_0":2,"TEXCOORD_1":3},"mode":4}]}],"accessors":[{"bufferView":0,"componentType":5126,"count":2794,"type":"VEC3","min":[-3.8500286865234377,-2.250028076171875,-0.05321818828582764],"max":[0.03742919921875,2.5000457763671875,2.069001084237243e-8]},{"bufferView":1,"componentType":5126,"count":2794,"type":"VEC3"},{"bufferView":2,"componentType":5126,"count":2794,"type":"VEC2"},{"bufferView":3,"componentType":5126,"count":2794,"type":"VEC2"},{"bufferView":4,"componentType":5123,"count":7866,"type":"SCALAR"}],"bufferViews":[{"buffer":0,"byteOffset":0,"byteLength":33528},{"buffer":0,"byteOffset":33528,"byteLength":33528},{"buffer":0,"byteOffset":67056,"byteLength":22352},{"buffer":0,"byteOffset":89408,"byteLength":22352},{"buffer":0,"byteOffset":111760,"byteLength":15732}],"buffers":[{"byteLength":127492,"uri":"data:application/octet-stream;base64,"}]}
