{"asset":{"generator":"Khronos glTF Blender I/O v1.2.75","version":"2.0"},"scene":0,"scenes":[{"name":"Scene","nodes":[0]}],"nodes":[{"mesh":0,"name":"Mesh"}],"meshes":[{"name":"SM_Pipe_round_corner3","primitives":[{"indices":5,"attributes":{"POSITION":0,"NORMAL":1,"COLOR_0":2,"TEXCOORD_0":3,"TEXCOORD_1":4},"mode":4}]}],"accessors":[{"bufferView":0,"componentType":5126,"count":400,"type":"VEC3","min":[-0.21512920379638673,-0.28991386413574216,2.288818359375e-7],"max":[0.21512977600097657,0.21008630752563476,0.4924042892456055]},{"bufferView":1,"componentType":5126,"count":400,"type":"VEC3"},{"bufferView":2,"componentType":5126,"count":400,"type":"VEC4"},{"bufferView":3,"componentType":5126,"count":400,"type":"VEC2"},{"bufferView":4,"componentType":5126,"count":400,"type":"VEC2"},{"bufferView":5,"componentType":5123,"count":1440,"type":"SCALAR"}],"bufferViews":[{"buffer":0,"byteOffset":0,"byteLength":4800},{"buffer":0,"byteOffset":4800,"byteLength":4800},{"buffer":0,"byteOffset":9600,"byteLength":6400},{"buffer":0,"byteOffset":16000,"byteLength":3200},{"buffer":0,"byteOffset":19200,"byteLength":3200},{"buffer":0,"byteOffset":22400,"byteLength":2880}],"buffers":[{"byteLength":25280,"uri":"data:application/octet-stream;base64,"}]}
