{"asset":{"generator":"Khronos glTF Blender I/O v1.2.75","version":"2.0"},"scene":0,"scenes":[{"name":"Scene","nodes":[0]}],"nodes":[{"mesh":0,"name":"Mesh"}],"meshes":[{"name":"SM_FanCluster01","primitives":[{"indices":4,"attributes":{"POSITION":0,"NORMAL":1,"TEXCOORD_0":2,"TEXCOORD_1":3},"mode":4}]}],"accessors":[{"bufferView":0,"componentType":5126,"count":1595,"type":"VEC3","min":[-16.450096435546875,-9.849451293945313,-4.356807250976562],"max":[5.629983520507812,8.210765991210938,5.273419189453125]},{"bufferView":1,"componentType":5126,"count":1595,"type":"VEC3"},{"bufferView":2,"componentType":5126,"count":1595,"type":"VEC2"},{"bufferView":3,"componentType":5126,"count":1595,"type":"VEC2"},{"bufferView":4,"componentType":5123,"count":3957,"type":"SCALAR"}],"bufferViews":[{"buffer":0,"byteOffset":0,"byteLength":19140},{"buffer":0,"byteOffset":19140,"byteLength":19140},{"buffer":0,"byteOffset":38280,"byteLength":12760},{"buffer":0,"byteOffset":51040,"byteLength":12760},{"buffer":0,"byteOffset":63800,"byteLength":7914}],"buffers":[{"byteLength":71714,"uri":"data:application/octet-stream;base64,"}]}
